<svg xmlns="http://www.w3.org/2000/svg" xmlns:xlink="http://www.w3.org/1999/xlink" width="320" zoomAndPan="magnify" viewBox="0 0 240 239.999995" height="320" preserveAspectRatio="xMidYMid meet" version="1.0"><defs><g/></defs><rect x="-24" width="288" fill="#ffffff" y="-23.999999" height="287.999994" fill-opacity="1"/><rect x="-24" width="288" fill="#d9d9d9" y="-23.999999" height="287.999994" fill-opacity="1"/><g fill="#180662" fill-opacity="1"><g transform="translate(76.146619, 166.026466)"><g><path d="M 8.71875 0 L 8.71875 -97.6875 L 42.9375 -97.6875 C 54.789062 -97.6875 63.78125 -95.414062 69.90625 -90.875 C 76.039062 -86.332031 79.109375 -79.679688 79.109375 -70.921875 C 79.109375 -66.128906 77.875 -61.910156 75.40625 -58.265625 C 72.945312 -54.617188 69.523438 -51.945312 65.140625 -50.25 C 70.148438 -49 74.097656 -46.472656 76.984375 -42.671875 C 79.867188 -38.867188 81.3125 -34.21875 81.3125 -28.71875 C 81.3125 -19.320312 78.3125 -12.207031 72.3125 -7.375 C 66.320312 -2.550781 57.785156 -0.09375 46.703125 0 Z M 28.84375 -42.53125 L 28.84375 -16.171875 L 46.09375 -16.171875 C 50.832031 -16.171875 54.53125 -17.300781 57.1875 -19.5625 C 59.851562 -21.820312 61.1875 -24.941406 61.1875 -28.921875 C 61.1875 -37.859375 56.554688 -42.394531 47.296875 -42.53125 Z M 28.84375 -56.765625 L 43.75 -56.765625 C 53.894531 -56.941406 58.96875 -60.988281 58.96875 -68.90625 C 58.96875 -73.332031 57.679688 -76.519531 55.109375 -78.46875 C 52.546875 -80.414062 48.488281 -81.390625 42.9375 -81.390625 L 28.84375 -81.390625 Z M 28.84375 -56.765625 "/></g></g></g></svg>