<svg xmlns="http://www.w3.org/2000/svg" xmlns:xlink="http://www.w3.org/1999/xlink" width="320" zoomAndPan="magnify" viewBox="0 0 240 239.999995" height="320" preserveAspectRatio="xMidYMid meet" version="1.0"><defs><g/></defs><rect x="-24" width="288" fill="#ffffff" y="-23.999999" height="287.999994" fill-opacity="1"/><rect x="-24" width="288" fill="#d9d9d9" y="-23.999999" height="287.999994" fill-opacity="1"/><g fill="#180662" fill-opacity="1"><g transform="translate(75.044419, 166.026525)"><g><path d="M 85.40625 -32.546875 C 84.644531 -22.023438 80.765625 -13.742188 73.765625 -7.703125 C 66.765625 -1.671875 57.539062 1.34375 46.09375 1.34375 C 33.570312 1.34375 23.71875 -2.867188 16.53125 -11.296875 C 9.351562 -19.734375 5.765625 -31.3125 5.765625 -46.03125 L 5.765625 -52 C 5.765625 -61.394531 7.421875 -69.671875 10.734375 -76.828125 C 14.046875 -83.984375 18.773438 -89.472656 24.921875 -93.296875 C 31.078125 -97.117188 38.222656 -99.03125 46.359375 -99.03125 C 57.628906 -99.03125 66.707031 -96.007812 73.59375 -89.96875 C 80.488281 -83.925781 84.472656 -75.453125 85.546875 -64.546875 L 65.421875 -64.546875 C 64.921875 -70.847656 63.160156 -75.421875 60.140625 -78.265625 C 57.128906 -81.109375 52.535156 -82.53125 46.359375 -82.53125 C 39.648438 -82.53125 34.628906 -80.125 31.296875 -75.3125 C 27.960938 -70.5 26.253906 -63.039062 26.171875 -52.9375 L 26.171875 -45.5625 C 26.171875 -35 27.769531 -27.28125 30.96875 -22.40625 C 34.164062 -17.53125 39.207031 -15.09375 46.09375 -15.09375 C 52.3125 -15.09375 56.953125 -16.507812 60.015625 -19.34375 C 63.078125 -22.1875 64.832031 -26.585938 65.28125 -32.546875 Z M 85.40625 -32.546875 "/></g></g></g></svg>