<svg xmlns="http://www.w3.org/2000/svg" xmlns:xlink="http://www.w3.org/1999/xlink" width="320" zoomAndPan="magnify" viewBox="0 0 240 239.999995" height="320" preserveAspectRatio="xMidYMid meet" version="1.0"><defs><g/></defs><rect x="-24" width="288" fill="#ffffff" y="-23.999999" height="287.999994" fill-opacity="1"/><rect x="-24" width="288" fill="#c5b1d4" y="-23.999999" height="287.999994" fill-opacity="1"/><g fill="#180662" fill-opacity="1"><g transform="translate(75.34146, 166.026466)"><g><path d="M 8.71875 0 L 8.71875 -97.6875 L 38.78125 -97.6875 C 47.363281 -97.6875 55.039062 -95.75 61.8125 -91.875 C 68.59375 -88.007812 73.882812 -82.507812 77.6875 -75.375 C 81.488281 -68.238281 83.390625 -60.132812 83.390625 -51.0625 L 83.390625 -46.5625 C 83.390625 -37.476562 81.519531 -29.398438 77.78125 -22.328125 C 74.050781 -15.265625 68.785156 -9.785156 61.984375 -5.890625 C 55.191406 -2.003906 47.523438 -0.0390625 38.984375 0 Z M 28.84375 -81.390625 L 28.84375 -16.171875 L 38.578125 -16.171875 C 46.453125 -16.171875 52.46875 -18.738281 56.625 -23.875 C 60.78125 -29.019531 62.90625 -36.378906 63 -45.953125 L 63 -51.125 C 63 -61.050781 60.941406 -68.578125 56.828125 -73.703125 C 52.710938 -78.828125 46.695312 -81.390625 38.78125 -81.390625 Z M 28.84375 -81.390625 "/></g></g></g></svg>