<svg xmlns="http://www.w3.org/2000/svg" xmlns:xlink="http://www.w3.org/1999/xlink" width="320" zoomAndPan="magnify" viewBox="0 0 240 239.999995" height="320" preserveAspectRatio="xMidYMid meet" version="1.0"><defs><g/></defs><rect x="-24" width="288" fill="#ffffff" y="-23.999999" height="287.999994" fill-opacity="1"/><rect x="-24" width="288" fill="#c5b1d4" y="-23.999999" height="287.999994" fill-opacity="1"/><g fill="#180662" fill-opacity="1"><g transform="translate(73.199602, 166.026525)"><g><path d="M 86.015625 -12.34375 C 82.390625 -8.007812 77.265625 -4.644531 70.640625 -2.25 C 64.023438 0.144531 56.691406 1.34375 48.640625 1.34375 C 40.191406 1.34375 32.78125 -0.5 26.40625 -4.1875 C 20.03125 -7.882812 15.109375 -13.242188 11.640625 -20.265625 C 8.171875 -27.285156 6.394531 -35.535156 6.3125 -45.015625 L 6.3125 -51.65625 C 6.3125 -61.40625 7.953125 -69.847656 11.234375 -76.984375 C 14.523438 -84.117188 19.265625 -89.578125 25.453125 -93.359375 C 31.648438 -97.140625 38.910156 -99.03125 47.234375 -99.03125 C 58.816406 -99.03125 67.875 -96.265625 74.40625 -90.734375 C 80.9375 -85.210938 84.804688 -77.175781 86.015625 -66.625 L 66.421875 -66.625 C 65.523438 -72.21875 63.546875 -76.3125 60.484375 -78.90625 C 57.421875 -81.5 53.207031 -82.796875 47.84375 -82.796875 C 41 -82.796875 35.785156 -80.222656 32.203125 -75.078125 C 28.628906 -69.929688 26.816406 -62.28125 26.765625 -52.125 L 26.765625 -45.890625 C 26.765625 -35.648438 28.707031 -27.910156 32.59375 -22.671875 C 36.488281 -17.441406 42.195312 -14.828125 49.71875 -14.828125 C 57.269531 -14.828125 62.660156 -16.4375 65.890625 -19.65625 L 65.890625 -36.5 L 47.5625 -36.5 L 47.5625 -51.328125 L 86.015625 -51.328125 Z M 86.015625 -12.34375 "/></g></g></g></svg>