<svg xmlns="http://www.w3.org/2000/svg" xmlns:xlink="http://www.w3.org/1999/xlink" width="320" zoomAndPan="magnify" viewBox="0 0 240 239.999995" height="320" preserveAspectRatio="xMidYMid meet" version="1.0"><defs><g/></defs><rect x="-24" width="288" fill="#ffffff" y="-23.999999" height="287.999994" fill-opacity="1"/><rect x="-24" width="288" fill="#c5b1d4" y="-23.999999" height="287.999994" fill-opacity="1"/><g fill="#180662" fill-opacity="1"><g transform="translate(81.618513, 166.026525)"><g><path d="M 48.109375 -97.6875 L 68.234375 -97.6875 L 68.234375 -30.0625 C 68.234375 -23.84375 66.859375 -18.347656 64.109375 -13.578125 C 61.359375 -8.816406 57.476562 -5.140625 52.46875 -2.546875 C 47.457031 0.046875 41.796875 1.34375 35.484375 1.34375 C 25.160156 1.34375 17.113281 -1.28125 11.34375 -6.53125 C 5.570312 -11.789062 2.6875 -19.226562 2.6875 -28.84375 L 22.953125 -28.84375 C 22.953125 -24.0625 23.957031 -20.53125 25.96875 -18.25 C 27.976562 -15.96875 31.148438 -14.828125 35.484375 -14.828125 C 39.335938 -14.828125 42.40625 -16.144531 44.6875 -18.78125 C 46.96875 -21.425781 48.109375 -25.1875 48.109375 -30.0625 Z M 48.109375 -97.6875 "/></g></g></g></svg>