<svg xmlns="http://www.w3.org/2000/svg" xmlns:xlink="http://www.w3.org/1999/xlink" width="320" zoomAndPan="magnify" viewBox="0 0 240 239.999995" height="320" preserveAspectRatio="xMidYMid meet" version="1.0"><defs><g/></defs><rect x="-24" width="288" fill="#ffffff" y="-23.999999" height="287.999994" fill-opacity="1"/><rect x="-24" width="288" fill="#b1ccd4" y="-23.999999" height="287.999994" fill-opacity="1"/><g fill="#180662" fill-opacity="1"><g transform="translate(72.55861, 166.026466)"><g><path d="M 88.96875 -46.625 C 88.96875 -37.007812 87.265625 -28.578125 83.859375 -21.328125 C 80.460938 -14.085938 75.597656 -8.5 69.265625 -4.5625 C 62.941406 -0.625 55.6875 1.34375 47.5 1.34375 C 39.40625 1.34375 32.179688 -0.597656 25.828125 -4.484375 C 19.472656 -8.378906 14.550781 -13.9375 11.0625 -21.15625 C 7.582031 -28.382812 5.816406 -36.695312 5.765625 -46.09375 L 5.765625 -50.921875 C 5.765625 -60.535156 7.5 -69 10.96875 -76.3125 C 14.4375 -83.625 19.332031 -89.238281 25.65625 -93.15625 C 31.988281 -97.070312 39.222656 -99.03125 47.359375 -99.03125 C 55.503906 -99.03125 62.738281 -97.070312 69.0625 -93.15625 C 75.394531 -89.238281 80.296875 -83.625 83.765625 -76.3125 C 87.234375 -69 88.96875 -60.554688 88.96875 -50.984375 Z M 68.5625 -51.0625 C 68.5625 -61.300781 66.726562 -69.082031 63.0625 -74.40625 C 59.394531 -79.726562 54.164062 -82.390625 47.375 -82.390625 C 40.613281 -82.390625 35.398438 -79.757812 31.734375 -74.5 C 28.066406 -69.25 26.210938 -61.546875 26.171875 -51.390625 L 26.171875 -46.625 C 26.171875 -36.65625 28.003906 -28.914062 31.671875 -23.40625 C 35.335938 -17.90625 40.613281 -15.15625 47.5 -15.15625 C 54.25 -15.15625 59.4375 -17.804688 63.0625 -23.109375 C 66.6875 -28.410156 68.519531 -36.140625 68.5625 -46.296875 Z M 68.5625 -51.0625 "/></g></g></g></svg>