<svg xmlns="http://www.w3.org/2000/svg" xmlns:xlink="http://www.w3.org/1999/xlink" width="320" zoomAndPan="magnify" viewBox="0 0 240 239.999995" height="320" preserveAspectRatio="xMidYMid meet" version="1.0"><defs><g/></defs><rect x="-24" width="288" fill="#ffffff" y="-23.999999" height="287.999994" fill-opacity="1"/><rect x="-24" width="288" fill="#b1ccd4" y="-23.999999" height="287.999994" fill-opacity="1"/><g fill="#180662" fill-opacity="1"><g transform="translate(75.67759, 166.026525)"><g><path d="M 28.84375 -34.421875 L 28.84375 0 L 8.71875 0 L 8.71875 -97.6875 L 46.828125 -97.6875 C 54.160156 -97.6875 60.613281 -96.34375 66.1875 -93.65625 C 71.757812 -90.976562 76.039062 -87.164062 79.03125 -82.21875 C 82.03125 -77.28125 83.53125 -71.65625 83.53125 -65.34375 C 83.53125 -55.769531 80.253906 -48.222656 73.703125 -42.703125 C 67.148438 -37.179688 58.082031 -34.421875 46.5 -34.421875 Z M 28.84375 -50.71875 L 46.828125 -50.71875 C 52.148438 -50.71875 56.207031 -51.96875 59 -54.46875 C 61.800781 -56.976562 63.203125 -60.5625 63.203125 -65.21875 C 63.203125 -70 61.789062 -73.863281 58.96875 -76.8125 C 56.15625 -79.769531 52.265625 -81.296875 47.296875 -81.390625 L 28.84375 -81.390625 Z M 28.84375 -50.71875 "/></g></g></g></svg>