<svg xmlns="http://www.w3.org/2000/svg" xmlns:xlink="http://www.w3.org/1999/xlink" width="320" zoomAndPan="magnify" viewBox="0 0 240 239.999995" height="320" preserveAspectRatio="xMidYMid meet" version="1.0"><defs><g/></defs><rect x="-24" width="288" fill="#ffffff" y="-23.999999" height="287.999994" fill-opacity="1"/><rect x="-24" width="288" fill="#c1cae9" y="-23.999999" height="287.999994" fill-opacity="1"/><g fill="#180662" fill-opacity="1"><g transform="translate(72.55861, 166.02651)"><g><path d="M 88.828125 -46.625 C 88.828125 -37.5 87.347656 -29.570312 84.390625 -22.84375 C 81.441406 -16.113281 77.351562 -10.710938 72.125 -6.640625 L 88.359375 6.109375 L 75.546875 17.4375 L 54.75 0.734375 C 52.375 1.140625 49.914062 1.34375 47.375 1.34375 C 39.269531 1.34375 32.039062 -0.597656 25.6875 -4.484375 C 19.34375 -8.378906 14.425781 -13.9375 10.9375 -21.15625 C 7.445312 -28.382812 5.679688 -36.695312 5.640625 -46.09375 L 5.640625 -50.921875 C 5.640625 -60.535156 7.367188 -69 10.828125 -76.3125 C 14.296875 -83.625 19.191406 -89.238281 25.515625 -93.15625 C 31.847656 -97.070312 39.082031 -99.03125 47.21875 -99.03125 C 55.363281 -99.03125 62.601562 -97.070312 68.9375 -93.15625 C 75.269531 -89.238281 80.164062 -83.625 83.625 -76.3125 C 87.09375 -69 88.828125 -60.554688 88.828125 -50.984375 Z M 68.4375 -51.0625 C 68.4375 -61.300781 66.601562 -69.082031 62.9375 -74.40625 C 59.269531 -79.726562 54.035156 -82.390625 47.234375 -82.390625 C 40.484375 -82.390625 35.269531 -79.757812 31.59375 -74.5 C 27.925781 -69.25 26.070312 -61.546875 26.03125 -51.390625 L 26.03125 -46.625 C 26.03125 -36.65625 27.863281 -28.914062 31.53125 -23.40625 C 35.195312 -17.90625 40.476562 -15.15625 47.375 -15.15625 C 54.125 -15.15625 59.3125 -17.804688 62.9375 -23.109375 C 66.5625 -28.410156 68.394531 -36.140625 68.4375 -46.296875 Z M 68.4375 -51.0625 "/></g></g></g></svg>