<svg xmlns="http://www.w3.org/2000/svg" xmlns:xlink="http://www.w3.org/1999/xlink" width="320" zoomAndPan="magnify" viewBox="0 0 240 239.999995" height="320" preserveAspectRatio="xMidYMid meet" version="1.0"><defs><g/></defs><rect x="-24" width="288" fill="#ffffff" y="-23.999999" height="287.999994" fill-opacity="1"/><rect x="-24" width="288" fill="#c1cae9" y="-23.999999" height="287.999994" fill-opacity="1"/><g fill="#180662" fill-opacity="1"><g transform="translate(76.146619, 166.026466)"><g><path d="M 44.890625 -35.765625 L 28.84375 -35.765625 L 28.84375 0 L 8.71875 0 L 8.71875 -97.6875 L 45.015625 -97.6875 C 56.554688 -97.6875 65.457031 -95.113281 71.71875 -89.96875 C 77.976562 -84.820312 81.109375 -77.554688 81.109375 -68.171875 C 81.109375 -61.503906 79.664062 -55.941406 76.78125 -51.484375 C 73.894531 -47.035156 69.523438 -43.492188 63.671875 -40.859375 L 84.8125 -0.9375 L 84.8125 0 L 63.203125 0 Z M 28.84375 -52.0625 L 45.09375 -52.0625 C 50.144531 -52.0625 54.054688 -53.347656 56.828125 -55.921875 C 59.597656 -58.492188 60.984375 -62.039062 60.984375 -66.5625 C 60.984375 -71.164062 59.675781 -74.785156 57.0625 -77.421875 C 54.445312 -80.066406 50.429688 -81.390625 45.015625 -81.390625 L 28.84375 -81.390625 Z M 28.84375 -52.0625 "/></g></g></g></svg>