<svg xmlns="http://www.w3.org/2000/svg" xmlns:xlink="http://www.w3.org/1999/xlink" width="320" zoomAndPan="magnify" viewBox="0 0 240 239.999995" height="320" preserveAspectRatio="xMidYMid meet" version="1.0"><defs><g/></defs><rect x="-24" width="288" fill="#ffffff" y="-23.999999" height="287.999994" fill-opacity="1"/><rect x="-24" width="288" fill="#b1ccd4" y="-23.999999" height="287.999994" fill-opacity="1"/><g fill="#180662" fill-opacity="1"><g transform="translate(77.756914, 166.026525)"><g><path d="M 59.375 -25.625 C 59.375 -29.425781 58.03125 -32.34375 55.34375 -34.375 C 52.664062 -36.414062 47.835938 -38.566406 40.859375 -40.828125 C 33.878906 -43.085938 28.351562 -45.3125 24.28125 -47.5 C 13.195312 -53.5 7.65625 -61.570312 7.65625 -71.71875 C 7.65625 -77 9.140625 -81.707031 12.109375 -85.84375 C 15.085938 -89.976562 19.359375 -93.207031 24.921875 -95.53125 C 30.492188 -97.863281 36.742188 -99.03125 43.671875 -99.03125 C 50.648438 -99.03125 56.867188 -97.765625 62.328125 -95.234375 C 67.785156 -92.710938 72.023438 -89.144531 75.046875 -84.53125 C 78.066406 -79.925781 79.578125 -74.695312 79.578125 -68.84375 L 59.4375 -68.84375 C 59.4375 -73.3125 58.023438 -76.785156 55.203125 -79.265625 C 52.390625 -81.753906 48.4375 -83 43.34375 -83 C 38.425781 -83 34.601562 -81.957031 31.875 -79.875 C 29.144531 -77.789062 27.78125 -75.050781 27.78125 -71.65625 C 27.78125 -68.476562 29.378906 -65.816406 32.578125 -63.671875 C 35.773438 -61.523438 40.484375 -59.507812 46.703125 -57.625 C 58.148438 -54.1875 66.488281 -49.914062 71.71875 -44.8125 C 76.957031 -39.71875 79.578125 -33.367188 79.578125 -25.765625 C 79.578125 -17.304688 76.378906 -10.671875 69.984375 -5.859375 C 63.585938 -1.054688 54.972656 1.34375 44.140625 1.34375 C 36.628906 1.34375 29.785156 -0.03125 23.609375 -2.78125 C 17.441406 -5.53125 12.734375 -9.296875 9.484375 -14.078125 C 6.242188 -18.867188 4.625 -24.421875 4.625 -30.734375 L 24.828125 -30.734375 C 24.828125 -19.953125 31.265625 -14.5625 44.140625 -14.5625 C 48.929688 -14.5625 52.664062 -15.53125 55.34375 -17.46875 C 58.03125 -19.414062 59.375 -22.132812 59.375 -25.625 Z M 59.375 -25.625 "/></g></g></g></svg>