<svg xmlns="http://www.w3.org/2000/svg" xmlns:xlink="http://www.w3.org/1999/xlink" width="320" zoomAndPan="magnify" viewBox="0 0 240 239.999995" height="320" preserveAspectRatio="xMidYMid meet" version="1.0"><defs><g/></defs><rect x="-24" width="288" fill="#ffffff" y="-23.999999" height="287.999994" fill-opacity="1"/><rect x="-24" width="288" fill="#b1ccd4" y="-23.999999" height="287.999994" fill-opacity="1"/><g fill="#180662" fill-opacity="1"><g transform="translate(74.770815, 166.026525)"><g><path d="M 82.65625 -97.6875 L 82.65625 -33.34375 C 82.65625 -22.65625 79.3125 -14.203125 72.625 -7.984375 C 65.9375 -1.765625 56.800781 1.34375 45.21875 1.34375 C 33.8125 1.34375 24.753906 -1.671875 18.046875 -7.703125 C 11.335938 -13.742188 7.914062 -22.046875 7.78125 -32.609375 L 7.78125 -97.6875 L 27.90625 -97.6875 L 27.90625 -33.21875 C 27.90625 -26.8125 29.4375 -22.144531 32.5 -19.21875 C 35.570312 -16.289062 39.8125 -14.828125 45.21875 -14.828125 C 56.53125 -14.828125 62.28125 -20.773438 62.46875 -32.671875 L 62.46875 -97.6875 Z M 82.65625 -97.6875 "/></g></g></g></svg>