<svg width="259" height="271" viewBox="0 0 259 271" fill="none" xmlns="http://www.w3.org/2000/svg">
<path d="M104.564 217.867C104.081 217.052 101.992 217.924 101.608 217.185C101.225 216.449 103.166 215.326 104.275 212.763C104.476 212.301 105.736 209.387 104.803 208.488C103.034 206.785 94.9402 213.816 92.1077 211.515C91.4861 211.01 91.0518 210.002 89.1704 208.365C88.4219 207.714 87.9694 207.42 87.5314 207.529C86.9099 207.685 86.8606 208.516 86.1942 210.152C85.1947 212.605 84.6036 212.457 84.0213 214.413C83.589 215.866 83.6877 216.711 83.1791 216.875C82.4592 217.108 81.7967 215.567 80.8844 215.705C79.9535 215.846 79.3907 217.64 79.2129 218.983C78.8793 221.504 79.805 223.167 80.3181 224.916C80.8757 226.817 81.2066 229.707 79.919 233.799L67.1743 269.708C69.9879 262.339 78.1347 242.141 81.558 234.635C82.5463 232.468 83.6374 230.271 85.8779 229.403C88.0349 228.568 90.9973 229.067 94.7741 228.157C95.2152 228.051 96.4392 227.739 96.5932 227.019C96.7206 226.424 96.0006 226.092 96.1113 225.534C96.2596 224.787 97.6754 224.778 99.4153 223.915C100.642 223.307 101.406 222.583 102.064 221.961C102.262 221.773 105.207 218.951 104.564 217.867Z" fill="#F2F2F2"/>
<path d="M54.4232 236.77C53.8841 236.772 53.7092 238.049 53.2356 238.025C52.7636 238 52.7731 236.723 51.8349 235.439C51.6657 235.208 50.5996 233.749 49.8891 233.947C48.5425 234.324 49.6583 240.325 47.7117 241.051C47.2845 241.211 46.6643 241.133 45.3182 241.584C44.7826 241.764 44.5078 241.901 44.4351 242.148C44.3319 242.497 44.726 242.762 45.3364 243.56C46.2518 244.759 46.0086 245.006 46.801 245.857C47.3893 246.488 47.8323 246.683 47.7662 246.98C47.6728 247.401 46.7254 247.281 46.5299 247.769C46.3304 248.266 47.0486 249.06 47.6565 249.535C48.7975 250.426 49.8809 250.452 50.8874 250.704C51.9811 250.979 53.4953 251.651 55.1322 253.463L69.0789 270.079C66.2743 266.572 58.7114 256.746 56.0153 252.9C55.2369 251.79 54.4731 250.62 54.6938 249.27C54.9063 247.971 56.0058 246.661 56.6489 244.544C56.7241 244.297 56.9244 243.607 56.6155 243.323C56.3601 243.089 55.9893 243.347 55.7476 243.131C55.4235 242.843 55.8275 242.145 55.906 241.042C55.9615 240.265 55.8269 239.681 55.7112 239.179C55.6763 239.028 55.1409 236.767 54.4232 236.77Z" fill="#F2F2F2"/>
<path d="M65.1783 239.185L64.8535 236.285L65.0019 236.065C65.6886 235.049 66.0386 234.056 66.0428 233.114C66.0435 232.964 66.0365 232.814 66.0295 232.662C66.0015 232.057 65.9665 231.305 66.3585 230.429C66.5784 229.94 67.1958 228.809 68.124 228.949C68.3739 228.984 68.5629 229.099 68.7064 229.233C68.7274 229.2 68.7491 229.166 68.7722 229.13C69.0613 228.689 69.2902 228.5 69.5107 228.318C69.6801 228.178 69.8551 228.033 70.1295 227.692C70.2499 227.542 70.3437 227.41 70.4229 227.3C70.663 226.965 70.9766 226.566 71.5296 226.573C72.1204 226.601 72.4298 227.09 72.6349 227.413C73.001 227.99 73.1669 228.406 73.2768 228.682C73.3167 228.782 73.3622 228.896 73.3853 228.931C73.5757 229.211 75.1235 228.949 75.7066 228.854C77.0163 228.635 78.1496 228.446 78.6166 229.272C78.9512 229.863 78.7027 230.644 77.8556 231.657C77.5917 231.972 77.311 232.211 77.0618 232.399C77.2683 232.522 77.4531 232.711 77.528 233.008C77.7044 233.71 77.1003 234.415 75.7332 235.104C75.3937 235.276 74.9366 235.505 74.296 235.616C73.9943 235.668 73.7227 235.68 73.4903 235.687C73.4854 235.822 73.4539 235.967 73.372 236.117C73.1319 236.558 72.6321 236.768 71.8789 236.718C71.0501 236.674 70.3676 236.516 69.7655 236.378C69.2398 236.257 68.7869 236.155 68.4313 236.179C67.7719 236.232 67.2637 236.76 66.6673 237.444L65.1783 239.185Z" fill="#F2F2F2"/>
<path d="M66.6849 221.921L63.9627 222.971L63.7124 222.883C62.5551 222.477 61.5061 222.39 60.5936 222.625C60.4486 222.662 60.3054 222.707 60.1596 222.752C59.5817 222.933 58.8633 223.157 57.9161 223C57.3877 222.912 56.1369 222.602 56.0369 221.668C56.0074 221.418 56.0705 221.206 56.1641 221.033C56.1262 221.021 56.0882 221.008 56.0472 220.995C55.5472 220.828 55.3064 220.654 55.0744 220.487C54.896 220.359 54.7121 220.226 54.3121 220.047C54.1366 219.969 53.9855 219.911 53.8585 219.863C53.4739 219.715 53.0084 219.513 52.8749 218.977C52.7521 218.398 53.1463 217.975 53.4071 217.694C53.8722 217.194 54.2323 216.928 54.4712 216.752C54.5586 216.687 54.6568 216.615 54.6848 216.583C54.9073 216.328 54.2615 214.898 54.0215 214.358C53.478 213.146 53.0077 212.098 53.6883 211.437C54.1749 210.963 54.9936 211.005 56.1876 211.568C56.5593 211.743 56.862 211.954 57.1067 212.148C57.1735 211.917 57.3094 211.69 57.5776 211.542C58.2126 211.193 59.0471 211.599 60.0601 212.747C60.3128 213.031 60.6509 213.415 60.9203 214.007C61.0469 214.286 61.128 214.545 61.1938 214.768C61.325 214.739 61.4738 214.732 61.6395 214.774C62.127 214.894 62.4569 215.324 62.5992 216.065C62.7675 216.878 62.7876 217.579 62.8062 218.196C62.8231 218.735 62.8391 219.199 62.9523 219.537C63.171 220.161 63.8105 220.519 64.624 220.922L66.6849 221.921Z" fill="#F2F2F2"/>
<path d="M65.1783 213.379L64.8535 210.48L65.0019 210.26C65.6886 209.243 66.0386 208.251 66.0428 207.309C66.0435 207.159 66.0365 207.009 66.0295 206.856C66.0015 206.252 65.9665 205.5 66.3585 204.623C66.5784 204.135 67.1958 203.004 68.124 203.144C68.3739 203.179 68.5629 203.293 68.7064 203.428C68.7274 203.394 68.7491 203.361 68.7722 203.324C69.0613 202.883 69.2902 202.694 69.5107 202.512C69.6801 202.372 69.8551 202.228 70.1295 201.886C70.2499 201.737 70.3437 201.605 70.4229 201.494C70.663 201.16 70.9766 200.761 71.5296 200.768C72.1204 200.796 72.4298 201.284 72.6349 201.608C73.001 202.184 73.1669 202.6 73.2768 202.876C73.3167 202.977 73.3622 203.09 73.3853 203.125C73.5757 203.405 75.1235 203.144 75.7066 203.048C77.0163 202.83 78.1496 202.641 78.6166 203.467C78.9512 204.058 78.7027 204.839 77.8556 205.851C77.5917 206.166 77.311 206.406 77.0618 206.593C77.2683 206.716 77.4531 206.905 77.528 207.202C77.7044 207.905 77.1003 208.609 75.7332 209.298C75.3937 209.47 74.9366 209.7 74.296 209.811C73.9943 209.862 73.7227 209.875 73.4903 209.882C73.4854 210.016 73.4539 210.162 73.372 210.312C73.1319 210.753 72.6321 210.963 71.8789 210.912C71.0501 210.869 70.3676 210.711 69.7655 210.572C69.2398 210.452 68.7869 210.35 68.4313 210.373C67.7719 210.427 67.2637 210.954 66.6673 211.639L65.1783 213.379Z" fill="#F2F2F2"/>
<path d="M68.1451 269.661L67.5374 269.28L66.829 269.361C66.8178 269.295 66.7793 269.144 66.7212 268.907C66.4041 267.611 65.4374 263.666 64.631 257.452C64.0682 253.115 63.7497 248.656 63.6838 244.197C63.618 239.731 63.8295 236.35 63.9989 233.632C64.127 231.582 64.2824 229.631 64.435 227.73C64.841 222.65 65.2239 217.852 64.939 212.541C64.876 211.355 64.7437 208.887 63.3016 206.26C62.4651 204.737 61.3129 203.384 59.8765 202.242L60.7697 201.119C62.3552 202.382 63.6299 203.88 64.5589 205.571C66.1577 208.483 66.3019 211.173 66.3712 212.465C66.661 217.871 66.2739 222.715 65.8637 227.843C65.7125 229.737 65.5571 231.68 65.4297 233.722C65.2617 236.414 65.0524 239.766 65.1175 244.174C65.1819 248.58 65.4969 252.985 66.052 257.267C66.8486 263.402 67.8014 267.289 68.1143 268.566C68.2809 269.248 68.3159 269.39 68.1451 269.661Z" fill="#F2F2F2"/>
<path d="M57.247 204.52C57.1882 204.52 57.1287 204.518 57.0685 204.514C55.8477 204.448 54.7172 203.718 53.7078 202.343C53.2345 201.696 52.9923 200.958 52.5093 199.487C52.4344 199.26 52.0704 198.109 51.8492 196.526C51.7043 195.491 51.7225 195.058 51.9276 194.676C52.1551 194.251 52.5233 193.954 52.9377 193.754C52.9195 193.616 52.9342 193.475 52.9937 193.331C53.238 192.733 53.8877 192.811 54.2391 192.849C54.4169 192.872 54.6388 192.901 54.8782 192.888C55.2548 192.87 55.4571 192.758 55.7637 192.59C56.057 192.429 56.4217 192.229 56.9628 192.118C58.0297 191.896 58.9236 192.198 59.2183 192.297C60.7688 192.814 61.5332 194.02 62.418 195.415C62.5944 195.695 63.2 196.715 63.5997 198.112C63.8881 199.12 63.8475 199.568 63.7607 199.901C63.5843 200.586 63.1678 200.978 62.11 201.843C61.0054 202.749 60.451 203.202 59.975 203.478C58.8669 204.118 58.171 204.52 57.247 204.52Z" fill="#F2F2F2"/>
<path d="M124.402 267.207L128.157 267.206L129.943 252.725L124.402 252.726L124.402 267.207Z" fill="#FFB6B6"/>
<path d="M137.265 267.122C137.382 267.318 137.444 267.954 137.444 268.183C137.444 268.887 136.873 269.457 136.17 269.457H124.543C124.063 269.457 123.674 269.068 123.674 268.588V268.104C123.674 268.104 123.098 266.649 124.283 264.856C124.283 264.856 125.754 266.26 127.953 264.061L128.602 262.886L133.296 266.319L135.898 266.639C136.468 266.709 136.972 266.628 137.265 267.122Z" fill="#2F2E41"/>
<path d="M112.96 267.207L116.715 267.206L118.501 252.725L112.96 252.726L112.96 267.207Z" fill="#FFB6B6"/>
<path d="M125.823 267.122C125.94 267.318 126.002 267.954 126.002 268.183C126.002 268.887 125.431 269.457 124.728 269.457H113.101C112.621 269.457 112.232 269.068 112.232 268.588V268.104C112.232 268.104 111.657 266.649 112.841 264.856C112.841 264.856 114.312 266.26 116.512 264.061L117.16 262.886L121.854 266.319L124.456 266.639C125.026 266.709 125.53 266.628 125.823 267.122Z" fill="#2F2E41"/>
<path d="M128.74 204.669L132.744 220.177L130.742 260.001L121.302 260.632L120.73 237.708L119.586 261.307L109.86 259.284L109.288 207.366L128.74 204.669Z" fill="#2F2E41"/>
<path d="M89.9722 152.456C88.6801 150.189 86.4628 149.018 85.0199 149.84C83.5771 150.663 83.4552 153.167 84.7481 155.435C85.2521 156.348 85.9674 157.127 86.8343 157.707L92.4303 167.245L96.8503 164.524L90.8643 155.41C90.8071 154.368 90.5012 153.355 89.9722 152.456Z" fill="#FFB6B6"/>
<path d="M115.404 186.127C115.404 186.127 110.1 193.437 106.856 190.825C103.613 188.213 85.6902 158.848 85.6902 158.848L92.8029 155.036L115.404 186.127Z" fill="#EF3448"/>
<path d="M110.433 177.209L117.298 166.911L124.163 169.772L122.447 178.925L110.433 177.209Z" fill="#FFB6B6"/>
<path d="M111.005 174.92L123.019 174.348L131.028 176.637L132.744 218.972L108.716 216.683V194.358L105.284 182.93L111.005 174.92Z" fill="#EF3448"/>
<path d="M130.832 203.478C130.41 202.246 130.242 200.946 130.351 199.649C130.658 195.989 130.716 188.817 126.985 185.577L124.878 183.294C124.834 183.247 124.785 183.206 124.74 183.16L128.227 174.964L126.12 174.068L122.884 181.675C121.449 180.802 119.793 180.318 118.081 180.318C116.103 180.318 114.212 180.963 112.65 182.099L110.676 174.868L108.468 175.471L110.936 183.717C110.846 183.826 110.748 183.927 110.663 184.041L109.458 185.659C109.164 186.053 108.84 186.419 108.489 186.763C107.749 187.488 106.305 189.247 106.291 191.957C106.286 192.884 106.096 193.8 105.813 194.682L104.38 199.161C104.246 199.581 104.14 200.009 104.069 200.445C103.437 204.28 101.25 222.346 116.198 221.985C130.132 221.648 131.049 213.163 130.968 210.345C130.95 209.733 131.005 209.127 131.119 208.526C131.328 207.423 131.516 205.473 130.832 203.478Z" fill="#3F3D56"/>
<path d="M193.782 20.6047L195.084 40.7234L178.699 44.483L179.841 28.2162L193.782 20.6047Z" fill="#FFB6B6"/>
<path d="M195.029 265.113L187.643 265.112L184.13 236.624L195.03 236.625L195.029 265.113Z" fill="#FFB6B6"/>
<path d="M169.725 264.945C169.495 265.333 169.373 266.583 169.373 267.033C169.373 268.418 170.496 269.54 171.88 269.54H194.753C195.697 269.54 196.463 268.774 196.463 267.83V266.878C196.463 266.878 197.594 264.015 195.265 260.488C195.265 260.488 192.369 263.25 188.043 258.924L186.767 256.613L177.532 263.367L172.414 263.997C171.294 264.134 170.301 263.975 169.725 264.945Z" fill="#2F2E41"/>
<path d="M215.052 265.113L207.666 265.112L204.153 236.624L215.054 236.625L215.052 265.113Z" fill="#FFB6B6"/>
<path d="M189.748 264.945C189.518 265.333 189.396 266.583 189.396 267.033C189.396 268.418 190.519 269.54 191.903 269.54H214.776C215.72 269.54 216.486 268.774 216.486 267.83V266.878C216.486 266.878 217.617 264.015 215.288 260.488C215.288 260.488 212.393 263.25 208.066 258.924L206.79 256.613L197.556 263.367L192.437 263.997C191.317 264.134 190.324 263.975 189.748 264.945Z" fill="#2F2E41"/>
<path d="M219.702 129.725C219.702 129.725 225.995 137.734 224.851 142.311C223.707 146.888 215.698 252.153 215.698 252.153L204.256 251.581L197.391 157.186L195.625 252.153L184.805 251.581L171.074 133.73L219.702 129.725Z" fill="#292F6E"/>
<path d="M153.553 155.263C152.471 159.409 149.455 162.212 146.816 161.523C144.177 160.834 142.916 156.915 143.998 152.767C144.408 151.104 145.21 149.563 146.337 148.274L151.143 130.763L159.313 133.193L153.708 150.198C154.061 151.874 154.008 153.611 153.553 155.263Z" fill="#FFB6B6"/>
<path d="M180.472 37.3003C189.5 37.3003 196.819 29.9815 196.819 20.9532C196.819 11.925 189.5 4.6062 180.472 4.6062C171.443 4.6062 164.125 11.925 164.125 20.9532C164.125 29.9815 171.443 37.3003 180.472 37.3003Z" fill="#FFB6B6"/>
<path d="M178.512 41.6227L195.674 38.1902L214.554 47.9158L218.558 110.274L223.707 133.73L170.502 134.302L172.791 102.837L169.358 53.0646L178.512 41.6227Z" fill="#57C8DB"/>
<path d="M174.507 54.7809C174.507 54.7809 165.354 51.9204 161.921 57.0693C158.488 62.2181 152.195 108.558 152.195 108.558L145.902 143.455L157.344 145.172L176.223 83.9577L174.507 54.7809Z" fill="#57C8DB"/>
<path d="M257.766 135.206C259.631 139.064 259.152 143.154 256.696 144.341C254.241 145.527 250.739 143.361 248.874 139.502C248.107 137.97 247.719 136.277 247.741 134.565L240.045 118.117L247.841 114.67L254.6 131.25C255.956 132.297 257.041 133.654 257.766 135.206Z" fill="#FFB6B6"/>
<path d="M207.389 48.5087C207.389 48.5087 215.609 43.5697 220.159 47.7635C224.71 51.9573 241.756 95.5046 241.756 95.5046L256.104 127.933L245.39 132.3L212.604 77.267L207.389 48.5087Z" fill="#57C8DB"/>
<path d="M246.956 269.593C246.956 269.971 246.653 270.274 246.275 270.274H0.680792C0.303227 270.274 0 269.971 0 269.593C0 269.41 0.0686856 269.25 0.183076 269.13H51.5114C52.604 269.13 53.6739 269.055 54.7265 268.912H246.275C246.653 268.912 246.956 269.216 246.956 269.593Z" fill="#3F3D56"/>
<path d="M146.4 157.065C147.421 154.664 149.488 153.244 151.016 153.894C152.545 154.544 152.956 157.017 151.934 159.42C151.539 160.385 150.919 161.242 150.125 161.918L145.671 172.04L140.965 169.848L145.856 160.103C145.792 159.061 145.979 158.02 146.4 157.065Z" fill="#FFB6B6"/>
<path d="M116.649 174.514C122.461 174.514 127.172 169.803 127.172 163.992C127.172 158.181 122.461 153.469 116.649 153.469C110.838 153.469 106.127 158.181 106.127 163.992C106.127 169.803 110.838 174.514 116.649 174.514Z" fill="#FFB6B6"/>
<path d="M129.884 176.637L140.181 172.632L143.614 160.618L151.051 163.479L145.33 180.641L129.884 186.543V176.637Z" fill="#EF3448"/>
<path d="M115.265 175.692L121.541 170.586C121.541 170.586 120.947 162.933 123.203 162.245C125.46 161.556 127.812 158.808 127.812 158.808C127.812 158.808 124.078 150.372 117.506 151.652C110.933 152.932 112.433 150.985 108.382 153.13C104.331 155.276 103.382 158.138 103.874 161.179C104.367 164.22 102.901 171.776 107.806 172.165C112.712 172.554 115.265 175.692 115.265 175.692Z" fill="#2F2E41"/>
<path d="M170.571 24.6131C169.378 22.4377 169.997 21.3992 168.921 20.5487C168.921 20.5487 168.488 20.2065 165.227 19.7706C164.916 14.4355 164.052 13.7225 164.052 13.7225C163.056 12.9008 161.471 13.0153 160.461 13.3886C158.326 14.178 158.4 16.2577 156.981 16.5413C155.022 16.933 160.364 13.5836 160.301 10.0407C160.25 7.15062 162.32 4.51301 163.041 4.71889C163.756 4.92303 165.673 2.8412 166.61 2.95049C167.249 3.02513 169.961 2.09537 170.659 2.24076C171.421 2.39955 173.854 3.92719 173.984 3.63296C174.887 1.58835 174.718 0.987498 175.39 0.43561C176.58 -0.542327 178.329 0.344636 181.134 0.969889C186.905 2.25635 188.077 0.413247 190.964 1.95664C192.423 2.73629 193.545 4.61437 195.73 8.33869C198.786 13.5471 200.314 16.1513 200.095 19.0289C199.872 21.9635 198.466 21.6638 197.495 25.9571C196.414 30.7362 197.714 33.0648 195.976 34.5066C194.633 35.621 183.495 35.7068 182.25 34.5351C180.117 32.529 183.45 28.3658 181.186 24.9486C179.796 22.851 176.753 21.724 175.25 22.5859C173.549 23.5603 174.179 26.8696 173.02 27.0861C172.028 27.2715 170.779 24.9922 170.571 24.6131Z" fill="#2F2E41"/>
<path d="M91.3406 157.602C93.6177 155.678 93.0131 151.218 89.9901 147.639C88.6668 146.073 87.0994 144.935 85.5643 144.313L83.7998 142.276L61.0153 113.728C61.0153 113.728 48.3976 85.3281 44.6728 82.2599C40.9482 79.1918 36.5659 80.7892 36.5659 80.7892L33.1467 85.0194L54.4534 124.672L76.2594 146.617L79.2031 149.686C79.5608 151.304 80.4205 153.039 81.7439 154.606C84.7668 158.184 89.0634 159.525 91.3406 157.602Z" fill="#FFB6B6"/>
<path d="M48.3314 87.5403L54.0412 95.9142L62.2382 108.046L47.5096 113.141L34.5054 90.8268L48.3314 87.5403Z" fill="#E6E6E6"/>
<path d="M54.1285 59.0407L49.9931 74.8068L34.2271 71.7053C34.2271 71.7053 40.4301 60.333 38.8793 55.1638L54.1285 59.0407Z" fill="#FFB6B6"/>
<path d="M37.4855 264.266L46.9798 264.265L51.4962 227.645L37.4836 227.646L37.4855 264.266Z" fill="#FFB6B6"/>
<path d="M70.0138 264.051C70.3094 264.549 70.4654 266.156 70.4654 266.735C70.4654 268.515 69.0227 269.957 67.243 269.957H37.8405C36.6265 269.957 35.6422 268.973 35.6422 267.759V266.535C35.6422 266.535 34.1877 262.856 37.1823 258.321C37.1823 258.321 40.9042 261.872 46.4656 256.31L48.1056 253.339L59.977 262.022L66.5572 262.831C67.9968 263.009 69.2733 262.804 70.0138 264.051Z" fill="#2F2E41"/>
<path d="M63.8475 158.285L50.7648 247.311H34.3509L36.5335 196.492L37.6822 169.772L34.3509 157.053C34.3509 157.053 32.832 154.226 31.5525 150.799C30.1102 146.932 28.971 142.295 30.6622 140.097C31.2844 139.286 32.9022 138.686 35.1007 138.24C36.4441 137.965 38.0076 137.751 39.6956 137.585C49.4023 136.625 63.2093 137.225 63.2093 137.225L63.5603 148.808L63.755 155.276L63.8475 158.285Z" fill="#2F2E41"/>
<path d="M20.761 259.913L30.1544 261.293L39.9495 225.718L26.0859 223.681L20.761 259.913Z" fill="#FFB6B6"/>
<path d="M52.9748 264.431C53.1948 264.967 53.1154 266.579 53.0312 267.152C52.7723 268.913 51.1351 270.13 49.3744 269.871L20.2846 265.595C19.0835 265.418 18.2528 264.301 18.4294 263.1L18.6075 261.889C18.6075 261.889 17.7036 258.037 21.3259 253.986C21.3259 253.986 24.4917 258.041 30.803 253.347L32.8577 250.646L43.34 260.963L49.7324 262.722C51.1309 263.106 52.4235 263.089 52.9748 264.431Z" fill="#2F2E41"/>
<path d="M64.0533 143.438L62.2589 158.891L52.4731 191.456L36.364 245.068L20.1265 242.682L34.6995 166.453L33.2565 153.382C33.2565 153.382 32.7866 152.082 32.248 150.18C31.1787 146.417 29.8377 140.289 31.3131 137.163C31.5123 136.738 31.7624 136.369 32.0717 136.071C32.652 135.508 33.8314 135.166 35.4115 134.985C42.0162 134.238 55.618 136.373 61.6704 137.421L64.0533 143.438Z" fill="#292F6E"/>
<path d="M51.544 70.1546L69.3778 92.6407L66.1765 116.084L63.4332 139.939L31.1256 135.028C31.1256 135.028 38.1041 118.228 38.8794 117.453C39.6548 116.677 41.6024 118.593 40.2409 116.084C38.8794 113.576 37.3287 113.576 38.621 112.284C39.9133 110.991 28.541 94.1914 28.541 85.1453C28.541 76.0992 33.9687 68.8623 33.9687 68.8623L51.544 70.1546Z" fill="#57C8DB"/>
<path d="M47.3831 62.0182C54.0181 62.0182 59.3968 56.6394 59.3968 50.0044C59.3968 43.3694 54.0181 37.9907 47.3831 37.9907C40.7481 37.9907 35.3694 43.3694 35.3694 50.0044C35.3694 56.6394 40.7481 62.0182 47.3831 62.0182Z" fill="#FFB6B6"/>
<path d="M46.8216 72.9743C46.8216 72.9743 48.6193 58.75 48.9375 54.6134C49.2557 50.4769 55.0947 44.0185 55.0947 44.0185L59.2312 47.3596C59.2312 47.3596 62.7313 47.3596 60.3449 42.2685C57.9584 37.1773 53.5037 36.3818 53.5037 36.3818C53.5037 36.3818 53.0264 29.6997 44.7533 30.4952C36.4802 31.2907 32.8209 37.9728 32.8209 37.9728C32.8209 37.9728 32.3437 29.5406 27.0934 35.7455C21.8432 41.9503 18.8203 44.4958 24.3888 46.5641C29.9572 48.6324 34.0937 47.0414 34.0937 47.0414C34.0937 47.0414 28.6844 48.1551 29.639 51.9734C30.5936 55.7918 17.0703 73.1334 23.2751 75.0426C29.4799 76.9518 43.3214 81.5656 44.9124 78.5428C46.5033 75.5199 46.8216 72.9743 46.8216 72.9743Z" fill="#2F2E41"/>
<path d="M96.3447 158.793C98.6379 156.888 98.0707 152.423 95.0777 148.82C93.7676 147.242 92.2098 146.091 90.68 145.456L88.9327 143.405L66.3882 114.666C66.3882 114.666 54.0089 86.1619 50.3101 83.0626C46.6112 79.9634 42.2158 81.524 42.2158 81.524L38.7612 85.7254L59.7349 125.556L81.3562 147.683L84.274 150.776C84.6181 152.397 85.4633 154.139 86.7735 155.717C89.7663 159.32 94.0515 160.698 96.3447 158.793Z" fill="#FFB6B6"/>
<path d="M37.4524 79.3147C37.4524 79.3147 42.9714 107.955 49.2515 112.177L61.7662 102.418C61.7662 102.418 62.8614 102.371 60.8231 100.069C58.7848 97.7665 59.3067 92.8224 59.3067 92.8224C59.3067 92.8224 60.2238 94.0091 58.2281 92.3617C56.2324 90.7144 58.0903 79.3853 58.0903 79.3853L37.4524 79.3147Z" fill="#57C8DB"/>
<path d="M128.602 197.476C128.339 197.476 128.101 197.292 128.044 197.024L127.415 194.102C126.49 189.804 122.777 186.666 118.385 186.47C114.316 186.287 110.546 188.698 109 192.464L107.422 196.312C107.302 196.604 106.969 196.744 106.676 196.624C106.383 196.504 106.244 196.17 106.364 195.878L107.942 192.03C109.671 187.818 113.883 185.128 118.437 185.327C123.347 185.546 127.499 189.055 128.533 193.861L129.162 196.783C129.229 197.092 129.032 197.396 128.724 197.463C128.683 197.471 128.642 197.476 128.602 197.476Z" fill="#FFB6B6"/>
<path d="M129.278 206.78C129.261 206.78 129.244 206.779 129.226 206.778L108.056 204.89C107.742 204.862 107.509 204.584 107.537 204.269C107.566 203.955 107.841 203.724 108.158 203.75L129.328 205.638C129.643 205.666 129.875 205.944 129.847 206.259C129.82 206.556 129.571 206.78 129.278 206.78Z" fill="#FFB6B6"/>
<path d="M168.761 70.335C168.771 70.3266 168.778 70.3189 168.787 70.3106C168.779 70.3182 168.769 70.3273 168.761 70.335ZM168.798 70.2999C168.918 70.1855 169.043 70.0649 169.162 69.949C169.041 70.0672 168.92 70.1832 168.798 70.2999ZM169.163 69.9482C169.165 69.9467 169.164 69.9467 169.167 69.9444C169.165 69.9459 169.164 69.9467 169.163 69.9482ZM169.221 69.8918C169.25 69.8628 169.279 69.8353 169.308 69.8071C169.279 69.8353 169.25 69.8636 169.221 69.8918Z" fill="#5D6560"/>
</svg>
