<svg width="30" height="30" viewBox="0 0 30 30" fill="none" xmlns="http://www.w3.org/2000/svg">
<g clip-path="url(#clip0_1_1020)">
<path d="M15 0C23.2901 0 30 6.70876 30 15C30 17.631 29.3138 20.2007 28.0108 22.467L29.9435 28.4688C30.0783 28.8872 29.9675 29.3459 29.6567 29.6567C29.3488 29.9645 28.8913 30.0794 28.4688 29.9435L22.467 28.0108C20.2007 29.3138 17.631 30 15 30C6.7099 30 0 23.2912 0 15C0 6.7099 6.70876 0 15 0ZM15 27.6562C17.3765 27.6562 19.693 26.9932 21.6991 25.7387C21.9878 25.5583 22.3462 25.5096 22.6797 25.6169L27.0122 27.0122L25.6169 22.6797C25.5112 22.351 25.5558 21.9921 25.7389 21.6991C26.9932 19.693 27.6562 17.3765 27.6562 15C27.6562 8.02139 21.9786 2.34375 15 2.34375C8.02139 2.34375 2.34375 8.02139 2.34375 15C2.34375 21.9786 8.02139 27.6562 15 27.6562ZM13.5352 15C13.5352 15.8089 14.1909 16.4648 15 16.4648C15.8091 16.4648 16.4648 15.8089 16.4648 15C16.4648 14.1909 15.8091 13.5352 15 13.5352C14.1909 13.5352 13.5352 14.1909 13.5352 15ZM7.67578 15C7.67578 15.8089 8.33153 16.4648 9.14062 16.4648C9.94972 16.4648 10.6055 15.8089 10.6055 15C10.6055 14.1909 9.94972 13.5352 9.14062 13.5352C8.33153 13.5352 7.67578 14.1909 7.67578 15ZM19.3945 15C19.3945 15.8089 20.0503 16.4648 20.8594 16.4648C21.6682 16.4648 22.3242 15.8089 22.3242 15C22.3242 14.1909 21.6682 13.5352 20.8594 13.5352C20.0503 13.5352 19.3945 14.1909 19.3945 15Z" fill="#C62C2C"/>
</g>
<defs>
<clipPath id="clip0_1_1020">
<rect width="30" height="30" fill="white" transform="matrix(-1 0 0 1 30 0)"/>
</clipPath>
</defs>
</svg>
