<svg width="42" height="42" viewBox="0 0 42 42" fill="none" xmlns="http://www.w3.org/2000/svg">
<g clip-path="url(#clip0_1_1022)">
<path d="M35.027 0H6.97266C4.34926 0 2.21484 2.13441 2.21484 4.75781V35.1091C2.21484 36.4661 3.31874 37.57 4.67578 37.57H15.4491C15.9022 37.57 16.2694 37.2028 16.2694 36.7497C16.2694 36.2966 15.9022 35.9294 15.4491 35.9294H4.67578C4.22333 35.9294 3.85547 35.5615 3.85547 35.1091V4.75781C3.85547 3.039 5.25385 1.64062 6.97266 1.64062H31.4372C30.7108 2.47632 30.2692 3.56612 30.2692 4.75781V31.1937C30.2692 31.9505 29.6537 32.5661 28.8968 32.5661C28.3053 32.5661 27.782 32.1889 27.5945 31.6279L26.3583 27.9185C26.0094 26.8713 25.033 26.168 23.9294 26.168C22.5176 26.168 21.3691 27.3164 21.3691 28.7279V29.3669H17.1173C16.6642 29.3669 16.297 29.7344 16.297 30.1872C16.297 30.6403 16.6642 31.0075 17.1173 31.0075H21.3691V35.0885C21.3691 36.2998 21.6053 37.4809 22.0712 38.5986L23.278 41.495C23.4093 41.81 23.7141 42 24.0355 42C24.1406 42 24.2476 41.9798 24.3505 41.9369C24.769 41.7626 24.9667 41.2822 24.7923 40.8641L23.5856 37.9677C23.2036 37.0509 23.0098 36.0822 23.0098 35.0889V28.7282C23.0098 28.221 23.4222 27.8086 23.9294 27.8086C24.3258 27.8086 24.6767 28.0611 24.802 28.4373L26.0382 32.1466C26.449 33.3787 27.5977 34.2067 28.8968 34.2067C30.5582 34.2067 31.9098 32.8551 31.9098 31.1937V17.1295L33.006 18.2234C34.962 20.1755 36.039 22.7726 36.039 25.5358V34.2557C36.039 36.5145 35.5272 38.787 34.5595 40.8279C34.3653 41.237 34.54 41.7263 34.9492 41.9205C35.3584 42.1147 35.8477 41.9404 36.0418 41.5309C37.1131 39.2718 37.6796 36.7561 37.6796 34.2557V25.5358C37.6796 22.3336 36.4315 19.3244 34.1651 17.0622L31.9098 14.8111V14.0273H37.3239C38.6809 14.0273 39.7848 12.9234 39.7848 11.5664V4.75781C39.7848 2.13441 37.6507 0 35.027 0V0ZM38.1442 11.5664C38.1442 12.0185 37.7764 12.3867 37.3239 12.3867H31.9098V4.75781C31.9098 3.039 33.3082 1.64062 35.027 1.64062C36.7458 1.64062 38.1442 3.039 38.1442 4.75781V11.5664Z" fill="#C62C2C"/>
<path d="M19.0312 35.9294C18.8153 35.9294 18.6038 36.0172 18.4513 36.1698C18.2987 36.3226 18.2109 36.5341 18.2109 36.7498C18.2109 36.9657 18.2987 37.1772 18.4513 37.3297C18.6038 37.4823 18.8153 37.5701 19.0312 37.5701C19.2469 37.5701 19.4584 37.4823 19.6112 37.3297C19.7638 37.1772 19.8516 36.9657 19.8516 36.7498C19.8516 36.5341 19.7638 36.3226 19.6112 36.1698C19.4584 36.0172 19.2469 35.9294 19.0312 35.9294Z" fill="#C62C2C"/>
<path d="M13.5081 6.07031C13.5081 5.16573 12.772 4.42969 11.8674 4.42969H8.25806C7.35315 4.42969 6.61743 5.16573 6.61743 6.07031V9.67969C6.61743 10.5843 7.35315 11.3203 8.25806 11.3203H11.8674C12.772 11.3203 13.5081 10.5843 13.5081 9.67969V6.07031ZM11.8674 9.67969H8.25806V6.07031H11.8674L11.8684 9.67969C11.8684 9.67969 11.8681 9.67969 11.8674 9.67969Z" fill="#C62C2C"/>
<path d="M13.5081 15.9141C13.5081 15.0095 12.772 14.2734 11.8674 14.2734H8.25806C7.35315 14.2734 6.61743 15.0095 6.61743 15.9141V19.5234C6.61743 20.428 7.35315 21.1641 8.25806 21.1641H11.8674C12.772 21.1641 13.5081 20.428 13.5081 19.5234V15.9141ZM11.8674 19.5234H8.25806V15.9141H11.8674L11.8684 19.5234C11.8684 19.5234 11.8681 19.5234 11.8674 19.5234Z" fill="#C62C2C"/>
<path d="M11.8674 24.1172H8.25806C7.35315 24.1172 6.61743 24.8529 6.61743 25.7578V29.3669C6.61743 30.2718 7.35315 31.0075 8.25806 31.0075H11.8674C12.772 31.0075 13.5081 30.2718 13.5081 29.3669V25.7578C13.5081 24.8529 12.772 24.1172 11.8674 24.1172ZM11.8674 29.3669H8.25806V25.7578H11.8674L11.8684 29.3669C11.8684 29.3669 11.8681 29.3669 11.8674 29.3669Z" fill="#C62C2C"/>
<path d="M26.5234 11.3203C26.9765 11.3203 27.3437 10.9531 27.3437 10.5C27.3437 10.0469 26.9765 9.67969 26.5234 9.67969H20.8684C20.4153 9.67969 20.0481 10.0469 20.0481 10.5C20.0481 10.9531 20.4153 11.3203 20.8684 11.3203H26.5234Z" fill="#C62C2C"/>
<path d="M17.1174 11.3203C17.3334 11.3203 17.5449 11.2325 17.6974 11.08C17.8499 10.9275 17.9377 10.7157 17.9377 10.5C17.9377 10.2843 17.8499 10.0725 17.6974 9.92001C17.5449 9.76749 17.3334 9.67969 17.1174 9.67969C16.9008 9.67969 16.69 9.76749 16.5374 9.92001C16.3843 10.0725 16.2971 10.2843 16.2971 10.5C16.2971 10.7157 16.3843 10.9275 16.5374 11.08C16.69 11.2325 16.9008 11.3203 17.1174 11.3203Z" fill="#C62C2C"/>
<path d="M17.1172 21.1641H26.5235C26.9766 21.1641 27.3439 20.7968 27.3439 20.3438C27.3439 19.8907 26.9766 19.5234 26.5235 19.5234H17.1172C16.6644 19.5234 16.2969 19.8907 16.2969 20.3438C16.2969 20.7968 16.6644 21.1641 17.1172 21.1641Z" fill="#C62C2C"/>
</g>
<defs>
<clipPath id="clip0_1_1022">
<rect width="42" height="42" fill="white"/>
</clipPath>
</defs>
</svg>
