<svg width="390" height="844" viewBox="0 0 390 844" fill="none" xmlns="http://www.w3.org/2000/svg">
<g clip-path="url(#clip0_141_66)">
<rect width="390" height="844" fill="white"/>
<circle cx="194.5" cy="85.5" r="215.5" fill="url(#paint0_linear_141_66)"/>
<path d="M361 28V30H362V32H361V34H346V28H361ZM361.5 26H345.5C344.672 26 344 26.6716 344 27.5V34.5C344 35.3284 344.672 36 345.5 36H361.5C362.328 36 363 35.3284 363 34.5V34H363.25C363.664 34 364 33.6642 364 33.25V28.75C364 28.3358 363.664 28 363.25 28H363V27.5C363 26.6716 362.328 26 361.5 26ZM360 29H347V33H360V29Z" fill="black"/>
<path d="M324.4 32H322.9C322.624 32 322.4 32.2237 322.4 32.5V38.5C322.4 38.7763 322.624 39 322.9 39H324.4C324.676 39 324.9 38.7763 324.9 38.5V32.5C324.9 32.2237 324.676 32 324.4 32ZM320.4 35H318.9C318.624 35 318.4 35.2237 318.4 35.5V38.5C318.4 38.7763 318.624 39 318.9 39H320.4C320.676 39 320.9 38.7763 320.9 38.5V35.5C320.9 35.2237 320.676 35 320.4 35ZM328.4 29H326.9C326.624 29 326.4 29.2237 326.4 29.5V38.5C326.4 38.7763 326.624 39 326.9 39H328.4C328.676 39 328.9 38.7763 328.9 38.5V29.5C328.9 29.2237 328.676 29 328.4 29ZM332.4 26H330.9C330.624 26 330.4 26.2237 330.4 26.5V38.5C330.4 38.7763 330.624 39 330.9 39H332.4C332.676 39 332.9 38.7763 332.9 38.5V26.5C332.9 26.2237 332.676 26 332.4 26ZM336.4 23H334.9C334.624 23 334.4 23.2237 334.4 23.5V38.5C334.4 38.7763 334.624 39 334.9 39H336.4C336.676 39 336.9 38.7763 336.9 38.5V23.5C336.9 23.2237 336.676 23 336.4 23Z" fill="black"/>
<path d="M311.841 27.84C306.304 22.7191 297.693 22.7209 292.159 27.84C291.951 28.0325 291.947 28.3584 292.148 28.5581L293.218 29.6197C293.41 29.8103 293.719 29.8144 293.918 29.6316C298.478 25.4541 305.521 25.4531 310.082 29.6316C310.282 29.8144 310.59 29.81 310.782 29.6197L311.852 28.5581C312.053 28.3584 312.049 28.0325 311.841 27.84ZM302 34C300.895 34 300 34.8953 300 36C300 37.1047 300.895 38 302 38C303.105 38 304 37.1047 304 36C304 34.8953 303.105 34 302 34ZM308.333 31.3878C304.732 28.2025 299.264 28.2059 295.667 31.3878C295.451 31.5784 295.444 31.9094 295.649 32.1112L296.725 33.1734C296.912 33.3584 297.214 33.3709 297.414 33.1984C300.037 30.9306 303.968 30.9356 306.586 33.1984C306.785 33.3709 307.087 33.3587 307.275 33.1734L308.351 32.1112C308.556 31.9094 308.549 31.5781 308.333 31.3878Z" fill="black"/>
<path d="M28.206 32.004C28.346 32.7413 28.7753 33.11 29.494 33.11C29.9887 33.11 30.3387 32.8907 30.544 32.452C30.7493 32.0133 30.852 31.2993 30.852 30.31C30.6467 30.5993 30.3667 30.8233 30.012 30.982C29.6573 31.1407 29.2607 31.22 28.822 31.22C28.2247 31.22 27.6927 31.0987 27.226 30.856C26.7593 30.604 26.3907 30.2353 26.12 29.75C25.8587 29.2553 25.728 28.658 25.728 27.958C25.728 27.2673 25.868 26.6653 26.148 26.152C26.4373 25.6387 26.8433 25.242 27.366 24.962C27.898 24.682 28.5233 24.542 29.242 24.542C30.6233 24.542 31.5893 24.9713 32.14 25.83C32.6907 26.6887 32.966 27.9533 32.966 29.624C32.966 30.8373 32.854 31.8407 32.63 32.634C32.4153 33.418 32.0467 34.0153 31.524 34.426C31.0107 34.8367 30.306 35.042 29.41 35.042C28.7007 35.042 28.094 34.902 27.59 34.622C27.0953 34.342 26.7127 33.9733 26.442 33.516C26.1807 33.0587 26.0313 32.5547 25.994 32.004H28.206ZM29.368 29.33C29.76 29.33 30.0727 29.2133 30.306 28.98C30.5393 28.7373 30.656 28.4107 30.656 28C30.656 27.552 30.5347 27.2067 30.292 26.964C30.0493 26.7213 29.7227 26.6 29.312 26.6C28.9013 26.6 28.5747 26.726 28.332 26.978C28.0987 27.2207 27.982 27.5567 27.982 27.986C27.982 28.3873 28.0987 28.714 28.332 28.966C28.5747 29.2087 28.92 29.33 29.368 29.33ZM35.6013 35.112C35.1813 35.112 34.8359 34.9907 34.5653 34.748C34.3039 34.496 34.1733 34.188 34.1733 33.824C34.1733 33.4507 34.3039 33.138 34.5653 32.886C34.8359 32.634 35.1813 32.508 35.6013 32.508C36.0119 32.508 36.3479 32.634 36.6093 32.886C36.8799 33.138 37.0153 33.4507 37.0153 33.824C37.0153 34.188 36.8799 34.496 36.6093 34.748C36.3479 34.9907 36.0119 35.112 35.6013 35.112ZM35.6013 29.414C35.1813 29.414 34.8359 29.2927 34.5653 29.05C34.3039 28.798 34.1733 28.49 34.1733 28.126C34.1733 27.7527 34.3039 27.44 34.5653 27.188C34.8359 26.936 35.1813 26.81 35.6013 26.81C36.0119 26.81 36.3479 26.936 36.6093 27.188C36.8799 27.44 37.0153 27.7527 37.0153 28.126C37.0153 28.49 36.8799 28.798 36.6093 29.05C36.3479 29.2927 36.0119 29.414 35.6013 29.414ZM38.2218 29.75C38.2218 28.1447 38.5298 26.88 39.1458 25.956C39.7711 25.032 40.7745 24.57 42.1558 24.57C43.5371 24.57 44.5358 25.032 45.1518 25.956C45.7771 26.88 46.0898 28.1447 46.0898 29.75C46.0898 31.374 45.7771 32.648 45.1518 33.572C44.5358 34.496 43.5371 34.958 42.1558 34.958C40.7745 34.958 39.7711 34.496 39.1458 33.572C38.5298 32.648 38.2218 31.374 38.2218 29.75ZM43.7378 29.75C43.7378 28.8073 43.6351 28.084 43.4298 27.58C43.2245 27.0667 42.7998 26.81 42.1558 26.81C41.5118 26.81 41.0871 27.0667 40.8818 27.58C40.6765 28.084 40.5738 28.8073 40.5738 29.75C40.5738 30.3847 40.6111 30.912 40.6858 31.332C40.7605 31.7427 40.9098 32.0787 41.1338 32.34C41.3671 32.592 41.7078 32.718 42.1558 32.718C42.6038 32.718 42.9398 32.592 43.1638 32.34C43.3971 32.0787 43.5511 31.7427 43.6258 31.332C43.7005 30.912 43.7378 30.3847 43.7378 29.75ZM47.3546 29.75C47.3546 28.1447 47.6626 26.88 48.2786 25.956C48.9039 25.032 49.9073 24.57 51.2886 24.57C52.6699 24.57 53.6686 25.032 54.2846 25.956C54.9099 26.88 55.2226 28.1447 55.2226 29.75C55.2226 31.374 54.9099 32.648 54.2846 33.572C53.6686 34.496 52.6699 34.958 51.2886 34.958C49.9073 34.958 48.9039 34.496 48.2786 33.572C47.6626 32.648 47.3546 31.374 47.3546 29.75ZM52.8706 29.75C52.8706 28.8073 52.7679 28.084 52.5626 27.58C52.3573 27.0667 51.9326 26.81 51.2886 26.81C50.6446 26.81 50.2199 27.0667 50.0146 27.58C49.8093 28.084 49.7066 28.8073 49.7066 29.75C49.7066 30.3847 49.7439 30.912 49.8186 31.332C49.8933 31.7427 50.0426 32.0787 50.2666 32.34C50.4999 32.592 50.8406 32.718 51.2886 32.718C51.7366 32.718 52.0726 32.592 52.2966 32.34C52.5299 32.0787 52.6839 31.7427 52.7586 31.332C52.8333 30.912 52.8706 30.3847 52.8706 29.75Z" fill="black"/>
<path d="M193.29 648.34C191.632 648.34 189.856 647.997 188.029 647.302C184.445 645.939 179.863 640.939 174.02 632.015C173.364 631.014 173.644 629.671 174.645 629.016C175.646 628.36 176.989 628.64 177.645 629.642C184.53 640.156 188.071 642.682 189.57 643.252C192.631 644.416 195.326 644.221 196.964 642.714C198.601 641.208 199.021 638.539 198.115 635.391C197.822 634.37 198.311 633.287 199.271 632.834C200.231 632.38 201.379 632.688 201.981 633.562C202.151 633.804 206.303 639.615 212.259 637.838C214.343 637.217 214.741 636.219 214.87 635.891C215.561 634.155 214.45 631.575 214.007 630.809C213.415 629.785 213.753 628.476 214.767 627.867C215.781 627.259 217.095 627.575 217.721 628.578C217.735 628.6 219.229 630.971 221.278 632.935C222.799 634.395 224.948 635.953 226.552 635.08C230.206 633.09 228.525 628.036 228.452 627.822C228.072 626.715 228.639 625.503 229.733 625.089C230.827 624.675 232.05 625.199 232.499 626.279C232.507 626.299 233.775 629.206 236.216 630.091C237.535 630.567 239 630.381 240.696 629.516C240.953 629.385 241.325 629.117 241.583 628.307C243.183 623.278 237.5 609.435 233.543 601.89C233.512 601.832 229.996 595.213 225.168 587.381C224.54 586.362 224.856 585.027 225.875 584.399C226.895 583.771 228.228 584.088 228.857 585.107C233.763 593.066 237.34 599.801 237.376 599.869C238.514 602.038 248.38 621.235 245.712 629.621C245.165 631.339 244.112 632.637 242.666 633.375C239.865 634.803 237.185 635.064 234.699 634.149C234.052 633.912 233.46 633.606 232.922 633.258C232.401 635.417 231.145 637.513 228.625 638.885C226.601 639.987 223.357 640.46 219.124 636.83C219.06 637.051 218.985 637.272 218.898 637.491C218.304 638.987 216.884 640.981 213.498 641.99C209.863 643.073 206.172 642.459 202.798 640.214C202.472 642.478 201.492 644.435 199.897 645.902C198.141 647.518 195.856 648.34 193.29 648.34Z" fill="#422F2F"/>
<path d="M200.199 636.959C199.407 636.959 198.645 636.524 198.263 635.769L192.376 624.11C191.837 623.042 192.265 621.739 193.334 621.199C194.402 620.66 195.705 621.089 196.244 622.157L202.131 633.816C202.67 634.884 202.242 636.187 201.174 636.726C200.86 636.884 200.527 636.959 200.199 636.959Z" fill="#422F2F"/>
<path d="M215.884 631.892C215.087 631.892 214.32 631.45 213.941 630.689L206.121 614.943C205.589 613.871 206.026 612.571 207.098 612.039C208.17 611.506 209.47 611.944 210.002 613.015L217.822 628.761C218.354 629.833 217.917 631.133 216.846 631.665C216.536 631.819 216.208 631.892 215.884 631.892Z" fill="#422F2F"/>
<path d="M230.499 629.278C229.704 629.278 228.938 628.839 228.559 628.079L217.911 606.744C217.377 605.673 217.811 604.372 218.882 603.838C219.954 603.303 221.254 603.738 221.788 604.808L232.436 626.144C232.97 627.215 232.536 628.516 231.465 629.05C231.155 629.205 230.824 629.278 230.499 629.278Z" fill="#422F2F"/>
<path d="M152.142 610.207C150.269 610.207 148.388 609.566 146.858 608.255L144.824 606.513C141.418 603.597 141.021 598.453 143.938 595.047L149.283 588.807C152.68 584.842 158.67 584.379 162.636 587.776C166.602 591.173 167.065 597.164 163.668 601.13L158.323 607.37C156.717 609.244 154.436 610.207 152.142 610.207ZM147.229 597.867C145.866 599.457 146.052 601.86 147.643 603.222L149.676 604.965C151.267 606.326 153.669 606.141 155.032 604.551L160.377 598.311C162.22 596.159 161.969 592.91 159.817 591.067C157.666 589.224 154.417 589.474 152.574 591.627L147.229 597.867Z" fill="#422F2F"/>
<path d="M144.159 598.13C142.611 598.13 140.971 597.546 139.61 596.38L138.135 595.117C135.415 592.787 134.824 589 136.816 586.674L139.852 583.13C142.117 580.486 146.503 580.513 149.629 583.19C152.755 585.868 153.455 590.198 151.19 592.842L148.155 596.386C147.159 597.548 145.705 598.13 144.159 598.13ZM140.107 589.494C139.784 589.872 139.952 590.969 140.954 591.826L142.429 593.09C143.43 593.948 144.539 593.945 144.864 593.567L147.9 590.023C148.509 589.312 148.212 587.682 146.811 586.481C145.409 585.281 143.753 585.238 143.144 585.95L140.107 589.494Z" fill="#422F2F"/>
<path d="M162.323 622.296C160.386 622.296 158.532 621.614 157.046 620.34L155.012 618.598C151.607 615.681 151.209 610.537 154.126 607.132L159.471 600.892C162.869 596.926 168.859 596.464 172.825 599.86C176.791 603.257 177.254 609.248 173.856 613.214L168.512 619.454C167.099 621.103 165.128 622.103 162.962 622.271C162.749 622.288 162.535 622.296 162.323 622.296ZM166.668 601.918C165.218 601.918 163.777 602.527 162.762 603.711L157.417 609.951C156.055 611.542 156.241 613.944 157.831 615.307L159.865 617.049C160.635 617.709 161.618 618.03 162.629 617.951C163.64 617.873 164.561 617.406 165.221 616.636L170.566 610.395C172.409 608.244 172.158 604.995 170.006 603.152C169.039 602.323 167.85 601.918 166.668 601.918Z" fill="#422F2F"/>
<path d="M171.773 634.763C169.836 634.763 167.982 634.08 166.496 632.806L164.462 631.065C162.812 629.652 161.812 627.681 161.644 625.515C161.477 623.35 162.163 621.249 163.576 619.599L168.921 613.359C170.567 611.438 172.862 610.272 175.384 610.077C177.907 609.882 180.354 610.682 182.275 612.327C184.196 613.973 185.361 616.268 185.557 618.79C185.751 621.312 184.953 623.759 183.307 625.681L177.961 631.921C176.548 633.571 174.578 634.571 172.412 634.738C172.198 634.755 171.985 634.763 171.773 634.763ZM166.867 622.418C166.206 623.188 165.886 624.17 165.964 625.181C166.043 626.193 166.51 627.113 167.281 627.773L169.314 629.516C170.085 630.176 171.067 630.498 172.078 630.418C173.09 630.34 174.01 629.873 174.67 629.102L180.015 622.862C180.908 621.82 181.341 620.492 181.236 619.124C181.13 617.756 180.498 616.511 179.456 615.618C178.414 614.726 177.087 614.292 175.718 614.398C174.35 614.504 173.105 615.136 172.212 616.178L166.867 622.418Z" fill="#422F2F"/>
<path d="M88.9763 573.735L136.612 589.256C136.835 589.328 137.061 589.363 137.283 589.363C138.196 589.363 139.045 588.781 139.343 587.867C139.714 586.729 139.092 585.506 137.954 585.135L90.2622 569.597C90.225 569.585 90.1878 569.574 90.1501 569.564L0.55896 545.639C0.371883 545.589 0.184806 545.568 0 545.568V549.975L88.9763 573.735Z" fill="#422F2F"/>
<path d="M192.735 540.562C192.302 540.211 181.968 532.047 168.635 539.066C166.073 540.415 157.873 541.539 131.738 533.91C116.547 529.475 102.646 524.183 102.534 524.141L0.799529 483.773C0.537076 483.669 0.266451 483.622 0.000366211 483.622V488.118L100.962 528.179C101.102 528.232 115.143 533.578 130.5 538.062C151.857 544.299 164.992 545.881 170.654 542.901C178.178 538.94 184.487 540.897 187.71 542.52L179.793 549.265C178.882 550.041 178.773 551.408 179.549 552.319C179.978 552.822 180.587 553.081 181.2 553.081C181.696 553.081 182.196 552.911 182.604 552.564L192.777 543.896C193.267 543.478 193.546 542.864 193.539 542.219C193.53 541.575 193.236 540.968 192.735 540.562Z" fill="#422F2F"/>
<path d="M389.372 545.658L285.406 577.173C284.992 577.299 284.625 577.545 284.353 577.88C268.551 597.309 244.62 601.869 238.68 602.723L228.904 585.19C228.862 585.114 228.814 585.04 228.763 584.97C228.594 584.737 224.551 579.209 218.931 573.512C211.147 565.621 204.362 561.465 198.765 561.16C195.334 560.97 192.405 562.187 190.052 564.772C185.612 569.648 180.977 571.791 176.647 570.975C173.24 570.331 170.849 567.947 170.146 566.36C170.265 565.775 171.359 562.852 181.251 553.791C186.272 549.193 191.326 545.07 192.482 544.135C194.863 543.195 212.802 536.513 232.376 540.079C236.238 540.783 239.99 541.075 243.562 541.075C260.063 541.074 272.686 534.836 274.111 534.103L390 488.119V483.623C389.734 483.623 389.463 483.67 389.2 483.774L272.411 530.115C272.34 530.143 272.269 530.176 272.202 530.211C272.021 530.306 253.964 539.607 233.153 535.815C210.92 531.764 191.349 539.903 190.526 540.251C190.343 540.329 190.172 540.431 190.017 540.555C189.954 540.606 183.615 545.692 177.578 551.283C173.995 554.6 171.205 557.456 169.284 559.771C166.261 563.416 165.289 565.8 166.032 567.745C167.15 570.669 170.697 574.26 175.842 575.232C179.947 576.007 186.299 575.328 193.255 567.689C194.709 566.092 196.432 565.372 198.527 565.486C207.593 565.979 220.762 581.38 225.183 587.416L235.605 606.108C235.99 606.799 236.716 607.22 237.497 607.22C237.559 607.22 237.622 607.217 237.685 607.212C237.999 607.185 245.493 606.502 255.419 602.898C264.464 599.614 277.277 593.181 287.29 581.13L390 549.995V545.565C389.792 545.565 389.58 545.595 389.372 545.658Z" fill="#422F2F"/>
<path d="M194.756 496.78C194.246 496.78 193.734 496.6 193.325 496.24C193.02 495.971 162.585 469.198 146.002 454.979C133.148 443.958 125.632 424.721 127.724 408.199C128.846 399.329 133.218 387.265 147.666 380.162C163.729 372.266 176.241 377.072 183.908 382.495C189.077 386.151 192.726 390.508 194.756 393.297C196.787 390.508 200.436 386.151 205.605 382.495C213.273 377.072 225.783 372.266 241.847 380.162C256.295 387.266 260.667 399.33 261.789 408.199C263.881 424.722 256.365 443.958 243.511 454.98C226.928 469.199 196.493 495.972 196.188 496.24C195.779 496.6 195.268 496.78 194.756 496.78ZM164.395 380.307C159.603 380.307 154.656 381.555 149.578 384.051C136.86 390.303 133.012 400.929 132.022 408.742C131.074 416.231 132.253 424.402 135.432 432.37C138.498 440.053 143.253 446.915 148.822 451.69C163.358 464.154 188.512 486.241 194.756 491.728C200.999 486.241 226.153 464.154 240.69 451.69C246.259 446.915 251.014 440.054 254.08 432.37C257.259 424.402 258.438 416.232 257.49 408.742C256.5 400.929 252.652 390.303 239.934 384.051C228.62 378.488 217.949 379.127 208.222 385.951C200.787 391.167 196.675 398.213 196.634 398.283C196.248 398.954 195.532 399.369 194.757 399.369C194.756 399.369 194.755 399.369 194.754 399.369C193.978 399.368 193.262 398.954 192.876 398.281C192.837 398.213 188.726 391.167 181.29 385.951C175.928 382.189 170.279 380.307 164.395 380.307Z" fill="#DA1515"/>
<path d="M194.756 422.614C190.532 422.614 188.54 420.683 187.612 419.062C183.678 412.191 191.933 397.732 192.888 396.106C193.277 395.443 193.988 395.036 194.756 395.036C195.525 395.036 196.236 395.444 196.625 396.106C197.579 397.732 205.835 412.191 201.9 419.062C200.973 420.683 198.981 422.614 194.756 422.614ZM194.758 401.799C192.06 407.324 189.802 414.169 191.373 416.91C191.567 417.249 192.158 418.281 194.756 418.281C197.355 418.281 197.946 417.249 198.14 416.909C199.713 414.162 197.456 407.32 194.758 401.799Z" fill="#DA1515"/>
<path d="M86.0598 545.726C65.5817 545.726 53.9503 539.689 53.414 539.404C52.357 538.843 51.9551 537.532 52.5159 536.475C53.0767 535.418 54.3867 535.016 55.4428 535.575C55.5168 535.614 58.9936 537.412 65.3302 538.985C71.2099 540.444 80.8276 542.003 93.2523 541.14C107.241 540.168 121.868 536.388 136.726 529.904C155.357 521.775 174.404 509.35 193.339 492.974C194.244 492.191 195.612 492.29 196.395 493.195C197.178 494.1 197.079 495.469 196.174 496.251C176.826 512.984 157.327 525.678 138.217 533.981C122.861 540.653 107.715 544.524 93.201 545.486C90.715 545.651 88.3315 545.726 86.0598 545.726Z" fill="#DA1515"/>
<path d="M303.535 545.555C301.368 545.555 299.104 545.487 296.744 545.338C282.246 544.42 267.113 540.584 251.766 533.936C232.668 525.664 213.175 512.985 193.826 496.252C192.921 495.469 192.822 494.101 193.605 493.196C194.388 492.291 195.755 492.191 196.661 492.975C215.595 509.35 234.635 521.759 253.252 529.858C268.099 536.317 282.71 540.062 296.68 540.992C309.089 541.817 318.688 540.221 324.556 538.737C330.918 537.128 334.39 535.3 334.424 535.282C335.478 534.721 336.791 535.118 337.355 536.172C337.919 537.226 337.525 538.536 336.472 539.101C335.934 539.39 324.198 545.555 303.535 545.555Z" fill="#DA1515"/>
<path d="M359.384 555.634C358.021 555.635 356.659 555.367 355.361 554.831C352.759 553.757 350.731 551.733 349.65 549.133L345.532 539.224C345.073 538.118 345.597 536.851 346.701 536.391C347.806 535.932 349.075 536.456 349.534 537.561L353.652 547.47C354.288 549.001 355.483 550.193 357.015 550.826C358.548 551.459 360.235 551.457 361.766 550.821L365.705 549.184C367.236 548.548 368.428 547.354 369.06 545.821C369.693 544.289 369.691 542.601 369.055 541.07L356.171 510.066C354.858 506.905 351.217 505.404 348.057 506.716L344.119 508.352C342.587 508.988 341.396 510.183 340.763 511.716C340.13 513.248 340.132 514.935 340.768 516.466L344.297 524.958C344.757 526.063 344.233 527.331 343.128 527.79C342.023 528.25 340.755 527.726 340.296 526.621L336.767 518.129C335.686 515.529 335.683 512.664 336.758 510.062C337.832 507.459 339.856 505.431 342.456 504.351L346.394 502.714C351.761 500.485 357.943 503.035 360.174 508.403L373.057 539.407C374.138 542.007 374.141 544.872 373.066 547.474C371.992 550.077 369.968 552.105 367.367 553.186L363.429 554.822C362.126 555.364 360.755 555.634 359.384 555.634Z" fill="#422F2F"/>
<path d="M353.674 538.885C353.393 538.885 353.112 538.831 352.848 538.721C352.316 538.502 351.895 538.081 351.673 537.55L346.403 524.867C345.944 523.762 346.468 522.494 347.573 522.035L355.317 518.817C355.848 518.596 356.444 518.596 356.976 518.815C357.507 519.034 357.929 519.456 358.15 519.986L363.42 532.669C363.879 533.774 363.356 535.042 362.251 535.501L354.506 538.719C354.24 538.83 353.957 538.885 353.674 538.885ZM351.237 525.205L354.844 533.886L358.587 532.331L354.98 523.65L351.237 525.205Z" fill="#422F2F"/>
<path d="M339.815 543.299C339.158 543.299 338.498 543.195 337.859 542.985C336.129 542.416 334.735 541.125 334.036 539.442L332.619 536.033C331.92 534.35 331.988 532.452 332.805 530.824C333.623 529.196 335.105 528.007 336.872 527.563L348.952 524.525C349.994 524.263 351.069 524.804 351.481 525.795L354.598 533.297C355.01 534.289 354.634 535.432 353.714 535.985L343.038 542.404C342.054 542.996 340.939 543.299 339.815 543.299ZM348.197 529.183L337.928 531.765C337.184 531.953 336.825 532.474 336.678 532.768C336.53 533.063 336.326 533.662 336.62 534.37L338.037 537.78C338.331 538.488 338.9 538.767 339.213 538.869C339.526 538.972 340.148 539.085 340.806 538.69L349.88 533.235L348.197 529.183Z" fill="#422F2F"/>
<path d="M359.689 540.264C360.316 540.003 361.037 540.3 361.297 540.928C361.558 541.555 361.261 542.275 360.633 542.536C360.006 542.797 359.286 542.499 359.025 541.872C358.764 541.245 359.061 540.524 359.689 540.264Z" fill="#422F2F"/>
<path d="M358.666 545.662C359.294 545.402 360.014 545.699 360.275 546.326C360.535 546.954 360.238 547.674 359.611 547.934C358.983 548.195 358.263 547.898 358.003 547.271C357.742 546.643 358.039 545.923 358.666 545.662Z" fill="#422F2F"/>
<path d="M364.236 543.348C364.864 543.087 365.584 543.384 365.844 544.012C366.105 544.639 365.808 545.359 365.181 545.62C364.553 545.881 363.833 545.583 363.572 544.956C363.311 544.329 363.609 543.608 364.236 543.348Z" fill="#422F2F"/>
<path d="M350.135 517.272C350.763 517.012 351.059 516.292 350.799 515.664C350.538 515.037 349.818 514.739 349.191 515C348.563 515.261 348.266 515.981 348.527 516.609C348.787 517.236 349.507 517.533 350.135 517.272Z" fill="#422F2F"/>
<path d="M345.588 514.188C346.215 513.928 346.513 513.208 346.252 512.58C345.991 511.953 345.271 511.656 344.643 511.916C344.016 512.177 343.718 512.897 343.98 513.525C344.24 514.152 344.96 514.449 345.588 514.188Z" fill="#422F2F"/>
<path d="M351.157 511.874C351.785 511.614 352.082 510.894 351.821 510.266C351.561 509.639 350.841 509.341 350.213 509.602C349.586 509.863 349.289 510.583 349.549 511.211C349.809 511.838 350.53 512.135 351.157 511.874Z" fill="#422F2F"/>
<path d="M30.6025 555.629C29.2566 555.629 27.8894 555.37 26.5713 554.822L22.6331 553.186C20.0331 552.105 18.0093 550.077 16.935 547.474C15.8602 544.872 15.8634 542.007 16.9441 539.407L29.8274 508.403C30.9076 505.803 32.936 503.779 35.5387 502.705C38.1414 501.63 41.0066 501.634 43.6066 502.714L47.5452 504.351C52.9123 506.58 55.4646 512.762 53.2342 518.129L48.9251 528.499C48.466 529.604 47.1983 530.128 46.0931 529.669C44.9879 529.209 44.4643 527.942 44.9238 526.836L49.233 516.466C50.5466 513.306 49.0432 509.665 45.8828 508.352L41.9442 506.715C40.4127 506.079 38.7253 506.077 37.1929 506.71C35.6604 507.343 34.4657 508.534 33.8296 510.066L20.9453 541.069C20.3092 542.6 20.3074 544.288 20.9399 545.821C21.5729 547.353 22.7643 548.548 24.2955 549.184L28.2341 550.82C31.3948 552.135 35.0351 550.632 36.3487 547.47L40.6029 537.233C41.062 536.129 42.3302 535.605 43.435 536.064C44.5402 536.523 45.0637 537.791 44.6042 538.896L40.35 549.134C38.6672 553.183 34.7359 555.629 30.6025 555.629Z" fill="#422F2F"/>
<path d="M36.326 538.885C36.0431 538.885 35.7607 538.83 35.4946 538.72L27.7496 535.501C26.6443 535.042 26.1208 533.774 26.5803 532.669L31.8503 519.986C32.0709 519.456 32.4932 519.035 33.0245 518.815C33.5553 518.596 34.1519 518.596 34.6827 518.817L42.4278 522.036C43.533 522.495 44.0566 523.763 43.597 524.868L38.3271 537.55C38.1064 538.081 37.6846 538.502 37.1533 538.722C36.8882 538.83 36.6071 538.885 36.326 538.885ZM31.4134 532.331L35.1568 533.886L38.7639 525.205L35.0206 523.65L31.4134 532.331Z" fill="#422F2F"/>
<path d="M50.1852 543.299C49.0618 543.299 47.9466 542.996 46.9617 542.403L36.2861 535.985C35.3662 535.432 34.9897 534.288 35.402 533.297L38.5197 525.795C38.9315 524.804 40.0063 524.263 41.0488 524.525L53.1294 527.563C54.8961 528.007 56.3782 529.195 57.1956 530.824C58.0129 532.452 58.0805 534.35 57.3817 536.033L55.965 539.442C55.2662 541.124 53.8722 542.416 52.1418 542.985C51.5024 543.195 50.8422 543.299 50.1852 543.299ZM40.1203 533.234L49.1944 538.69C49.8514 539.085 50.4744 538.972 50.7873 538.869C51.0997 538.766 51.6686 538.487 51.9629 537.78L53.3796 534.37C53.6738 533.662 53.4699 533.062 53.3223 532.768C53.1748 532.474 52.8156 531.952 52.0718 531.765L41.8035 529.183L40.1203 533.234Z" fill="#422F2F"/>
<path d="M30.3113 540.264C29.6838 540.003 28.9637 540.3 28.703 540.928C28.4424 541.555 28.7393 542.275 29.3669 542.536C29.9944 542.797 30.7145 542.499 30.9752 541.872C31.2358 541.244 30.9389 540.524 30.3113 540.264Z" fill="#422F2F"/>
<path d="M31.3335 545.662C30.706 545.402 29.9858 545.699 29.7252 546.326C29.4645 546.954 29.762 547.674 30.389 547.934C31.0165 548.195 31.7367 547.898 31.9973 547.271C32.2584 546.643 31.961 545.923 31.3335 545.662Z" fill="#422F2F"/>
<path d="M25.7643 543.348C25.1368 543.087 24.4167 543.384 24.156 544.012C23.8954 544.639 24.1923 545.359 24.8199 545.62C25.4474 545.881 26.1676 545.583 26.4282 544.956C26.6893 544.329 26.3919 543.608 25.7643 543.348Z" fill="#422F2F"/>
<path d="M39.8655 517.272C39.2379 517.012 38.9405 516.292 39.2016 515.664C39.4623 515.037 40.1824 514.739 40.8099 515C41.4375 515.261 41.7349 515.981 41.4738 516.609C41.2132 517.236 40.493 517.533 39.8655 517.272Z" fill="#422F2F"/>
<path d="M44.4125 514.188C43.7849 513.928 43.4875 513.208 43.7486 512.58C44.0093 511.953 44.7294 511.656 45.3569 511.916C45.9845 512.177 46.2819 512.897 46.0208 513.525C45.7597 514.152 45.04 514.449 44.4125 514.188Z" fill="#422F2F"/>
<path d="M38.8433 511.874C38.2158 511.614 37.9184 510.894 38.179 510.266C38.4397 509.639 39.1598 509.341 39.7873 509.602C40.4149 509.863 40.7123 510.583 40.4512 511.211C40.1906 511.838 39.4709 512.135 38.8433 511.874Z" fill="#422F2F"/>
<path d="M-22 -28H407V80C407 190.457 317.457 280 207 280H178C67.5431 280 -22 190.457 -22 80V-28Z" fill="url(#paint1_linear_141_66)"/>
</g>
<defs>
<linearGradient id="paint0_linear_141_66" x1="194.5" y1="301" x2="194.5" y2="-130" gradientUnits="userSpaceOnUse">
<stop stop-color="#A60707"/>
<stop offset="1" stop-color="#FE5959"/>
</linearGradient>
<linearGradient id="paint1_linear_141_66" x1="192.5" y1="280" x2="192.5" y2="-28" gradientUnits="userSpaceOnUse">
<stop stop-color="#A60707"/>
<stop offset="1" stop-color="#FE5959"/>
</linearGradient>
<clipPath id="clip0_141_66">
<rect width="390" height="844" fill="white"/>
</clipPath>
</defs>
</svg>
