<svg width="390" height="844" viewBox="0 0 390 844" fill="none" xmlns="http://www.w3.org/2000/svg">
<g clip-path="url(#clip0_74_17)">
<rect width="390" height="844" fill="url(#paint0_linear_74_17)"/>
<circle opacity="0.1" cx="195" cy="398" r="82" fill="#50B456"/>
<circle opacity="0.1" cx="194.511" cy="397.511" r="115.511" fill="#50B456"/>
<circle opacity="0.1" cx="194.489" cy="397.489" r="142.489" fill="#50B456"/>
<circle opacity="0.1" cx="194.489" cy="397.489" r="164.489" fill="#50B456"/>
<circle opacity="0.1" cx="194.489" cy="397.489" r="188.489" fill="#50B456"/>
<circle opacity="0.1" cx="194.511" cy="397.511" r="213.511" fill="#50B456"/>
<g clip-path="url(#clip1_74_17)">
<path d="M194.5 452.343C224.789 452.343 249.343 427.789 249.343 397.5C249.343 367.211 224.789 342.656 194.5 342.656C164.211 342.656 139.656 367.211 139.656 397.5C139.656 427.789 164.211 452.343 194.5 452.343Z" fill="#50B456"/>
<path d="M194.5 456.655C161.904 456.655 135.345 430.095 135.345 397.5C135.345 364.904 161.904 338.345 194.5 338.345C227.095 338.345 253.655 364.904 253.655 397.5C253.655 430.095 227.095 456.655 194.5 456.655ZM194.5 346.968C166.561 346.968 143.968 369.561 143.968 397.5C143.968 425.439 166.561 448.032 194.5 448.032C222.439 448.032 245.032 425.439 245.032 397.5C245.032 369.561 222.439 346.968 194.5 346.968Z" fill="#0F883B"/>
<path d="M191.051 426.474C189.154 426.474 187.257 425.784 185.877 424.404L167.596 407.675C164.491 404.744 164.147 399.915 167.078 396.638C170.01 393.533 174.839 393.189 178.116 396.12L196.397 412.849C199.502 415.781 199.847 420.61 196.915 423.887C195.19 425.612 193.12 426.474 191.051 426.474Z" fill="white"/>
<path d="M191.051 426.474C189.499 426.474 187.947 425.957 186.739 425.094C183.118 422.68 182.255 417.851 184.67 414.229L212.781 372.838C215.196 369.216 220.025 368.354 223.647 370.768C227.268 373.183 228.131 378.012 225.716 381.633L197.605 423.025C195.88 425.267 193.465 426.474 191.051 426.474Z" fill="white"/>
</g>
<path d="M67.8176 656V642.909H72.2409C73.2637 642.909 74.1032 643.084 74.7594 643.433C75.4157 643.778 75.9015 644.254 76.2168 644.859C76.5321 645.464 76.6898 646.152 76.6898 646.923C76.6898 647.695 76.5321 648.379 76.2168 648.975C75.9015 649.572 75.4178 650.04 74.7658 650.381C74.1138 650.718 73.2807 650.886 72.2665 650.886H68.687V649.455H72.2154C72.9142 649.455 73.4767 649.352 73.9029 649.148C74.3333 648.943 74.6444 648.653 74.8361 648.278C75.0321 647.899 75.1301 647.447 75.1301 646.923C75.1301 646.399 75.0321 645.941 74.8361 645.549C74.6401 645.157 74.3269 644.854 73.8965 644.641C73.4661 644.424 72.8972 644.315 72.1898 644.315H69.4029V656H67.8176ZM73.9796 650.119L77.2012 656H75.3603L72.1898 650.119H73.9796ZM83.1378 656.205C82.1918 656.205 81.3757 655.996 80.6896 655.578C80.0078 655.156 79.4815 654.568 79.1108 653.814C78.7443 653.055 78.5611 652.173 78.5611 651.168C78.5611 650.162 78.7443 649.276 79.1108 648.509C79.4815 647.737 79.9972 647.136 80.6577 646.706C81.3224 646.271 82.098 646.054 82.9844 646.054C83.4957 646.054 84.0007 646.139 84.4993 646.31C84.9979 646.48 85.4517 646.757 85.8608 647.141C86.2699 647.52 86.5959 648.023 86.8388 648.649C87.0817 649.276 87.2031 650.047 87.2031 650.963V651.602H79.6349V650.298H85.669C85.669 649.744 85.5582 649.25 85.3366 648.815C85.1193 648.381 84.8082 648.038 84.4034 647.786C84.0028 647.535 83.5298 647.409 82.9844 647.409C82.3835 647.409 81.8636 647.558 81.4247 647.857C80.9901 648.151 80.6555 648.534 80.4212 649.007C80.1868 649.48 80.0696 649.987 80.0696 650.528V651.398C80.0696 652.139 80.1974 652.768 80.4531 653.283C80.7131 653.795 81.0732 654.185 81.5334 654.453C81.9936 654.717 82.5284 654.849 83.1378 654.849C83.5341 654.849 83.892 654.794 84.2116 654.683C84.5355 654.568 84.8146 654.398 85.049 654.172C85.2834 653.942 85.4645 653.656 85.5923 653.315L87.0497 653.724C86.8963 654.219 86.6385 654.653 86.2763 655.028C85.9141 655.399 85.4666 655.689 84.9339 655.898C84.4013 656.102 83.8026 656.205 83.1378 656.205ZM96.1967 659.682V654.491H96.0689C95.9581 654.67 95.8004 654.896 95.5959 655.169C95.3913 655.437 95.0994 655.678 94.7202 655.891C94.3409 656.1 93.8359 656.205 93.2053 656.205C92.3871 656.205 91.6648 655.998 91.0384 655.585C90.4119 655.167 89.9219 654.579 89.5682 653.82C89.2145 653.058 89.0376 652.156 89.0376 651.116C89.0376 650.085 89.2145 649.19 89.5682 648.432C89.9219 647.673 90.4141 647.087 91.0447 646.674C91.6754 646.261 92.4041 646.054 93.2308 646.054C93.87 646.054 94.375 646.161 94.7457 646.374C95.1207 646.582 95.4063 646.821 95.6023 647.089C95.8026 647.354 95.9581 647.571 96.0689 647.741H96.2479V646.182H97.7053V659.682H96.1967ZM93.4098 654.849C94.0149 654.849 94.5263 654.692 94.9439 654.376C95.3615 654.057 95.679 653.616 95.8963 653.053C96.1136 652.487 96.2223 651.832 96.2223 651.091C96.2223 650.358 96.1158 649.717 95.9027 649.167C95.6896 648.613 95.3743 648.183 94.9567 647.876C94.5391 647.565 94.0234 647.409 93.4098 647.409C92.7706 647.409 92.2379 647.573 91.8118 647.901C91.3899 648.225 91.0724 648.666 90.8594 649.224C90.6506 649.778 90.5462 650.401 90.5462 651.091C90.5462 651.79 90.6527 652.425 90.8658 652.996C91.0831 653.562 91.4027 654.014 91.8246 654.351C92.2507 654.683 92.7791 654.849 93.4098 654.849ZM106.654 651.986V646.182H108.163V656H106.654V654.338H106.552C106.322 654.837 105.964 655.261 105.478 655.61C104.992 655.955 104.379 656.128 103.637 656.128C103.023 656.128 102.478 655.994 102.001 655.725C101.523 655.452 101.148 655.043 100.876 654.498C100.603 653.948 100.467 653.256 100.467 652.42V646.182H101.975V652.318C101.975 653.034 102.175 653.605 102.576 654.031C102.981 654.457 103.496 654.67 104.123 654.67C104.498 654.67 104.879 654.575 105.267 654.383C105.659 654.191 105.987 653.897 106.251 653.501C106.52 653.104 106.654 652.599 106.654 651.986ZM115.042 656.205C114.096 656.205 113.28 655.996 112.594 655.578C111.912 655.156 111.386 654.568 111.015 653.814C110.649 653.055 110.465 652.173 110.465 651.168C110.465 650.162 110.649 649.276 111.015 648.509C111.386 647.737 111.901 647.136 112.562 646.706C113.227 646.271 114.002 646.054 114.889 646.054C115.4 646.054 115.905 646.139 116.404 646.31C116.902 646.48 117.356 646.757 117.765 647.141C118.174 647.52 118.5 648.023 118.743 648.649C118.986 649.276 119.107 650.047 119.107 650.963V651.602H111.539V650.298H117.573C117.573 649.744 117.463 649.25 117.241 648.815C117.024 648.381 116.713 648.038 116.308 647.786C115.907 647.535 115.434 647.409 114.889 647.409C114.288 647.409 113.768 647.558 113.329 647.857C112.894 648.151 112.56 648.534 112.325 649.007C112.091 649.48 111.974 649.987 111.974 650.528V651.398C111.974 652.139 112.102 652.768 112.357 653.283C112.617 653.795 112.977 654.185 113.438 654.453C113.898 654.717 114.433 654.849 115.042 654.849C115.438 654.849 115.796 654.794 116.116 654.683C116.44 654.568 116.719 654.398 116.953 654.172C117.188 653.942 117.369 653.656 117.497 653.315L118.954 653.724C118.801 654.219 118.543 654.653 118.181 655.028C117.818 655.399 117.371 655.689 116.838 655.898C116.306 656.102 115.707 656.205 115.042 656.205ZM128.357 648.381L127.002 648.764C126.916 648.538 126.791 648.319 126.624 648.106C126.463 647.888 126.241 647.71 125.96 647.569C125.678 647.428 125.318 647.358 124.879 647.358C124.279 647.358 123.778 647.496 123.377 647.773C122.981 648.046 122.783 648.393 122.783 648.815C122.783 649.19 122.919 649.487 123.192 649.704C123.465 649.921 123.891 650.102 124.47 650.247L125.928 650.605C126.806 650.818 127.46 651.144 127.89 651.583C128.32 652.018 128.536 652.578 128.536 653.264C128.536 653.827 128.374 654.33 128.05 654.773C127.73 655.216 127.283 655.565 126.708 655.821C126.132 656.077 125.463 656.205 124.7 656.205C123.699 656.205 122.87 655.987 122.214 655.553C121.558 655.118 121.142 654.483 120.968 653.648L122.399 653.29C122.536 653.818 122.794 654.214 123.173 654.479C123.556 654.743 124.057 654.875 124.675 654.875C125.378 654.875 125.936 654.726 126.35 654.428C126.767 654.125 126.976 653.763 126.976 653.341C126.976 653 126.857 652.714 126.618 652.484C126.379 652.25 126.013 652.075 125.519 651.96L123.882 651.577C122.983 651.364 122.323 651.033 121.901 650.586C121.483 650.134 121.274 649.57 121.274 648.892C121.274 648.338 121.43 647.848 121.741 647.422C122.056 646.996 122.485 646.661 123.026 646.418C123.571 646.175 124.189 646.054 124.879 646.054C125.851 646.054 126.614 646.267 127.168 646.693C127.726 647.119 128.122 647.682 128.357 648.381ZM135.076 646.182V647.46H129.988V646.182H135.076ZM131.471 643.83H132.98V653.188C132.98 653.614 133.042 653.933 133.165 654.146C133.293 654.355 133.455 654.496 133.651 654.568C133.851 654.636 134.062 654.67 134.284 654.67C134.45 654.67 134.586 654.662 134.693 654.645C134.799 654.624 134.885 654.607 134.949 654.594L135.255 655.949C135.153 655.987 135.01 656.026 134.827 656.064C134.644 656.107 134.412 656.128 134.13 656.128C133.704 656.128 133.287 656.036 132.877 655.853C132.473 655.67 132.136 655.391 131.868 655.016C131.603 654.641 131.471 654.168 131.471 653.597V643.83ZM149.363 648.381L148.007 648.764C147.922 648.538 147.797 648.319 147.63 648.106C147.468 647.888 147.247 647.71 146.966 647.569C146.684 647.428 146.324 647.358 145.885 647.358C145.284 647.358 144.784 647.496 144.383 647.773C143.987 648.046 143.789 648.393 143.789 648.815C143.789 649.19 143.925 649.487 144.198 649.704C144.471 649.921 144.897 650.102 145.476 650.247L146.934 650.605C147.811 650.818 148.466 651.144 148.896 651.583C149.326 652.018 149.542 652.578 149.542 653.264C149.542 653.827 149.38 654.33 149.056 654.773C148.736 655.216 148.289 655.565 147.713 655.821C147.138 656.077 146.469 656.205 145.706 656.205C144.705 656.205 143.876 655.987 143.22 655.553C142.564 655.118 142.148 654.483 141.973 653.648L143.405 653.29C143.542 653.818 143.799 654.214 144.179 654.479C144.562 654.743 145.063 654.875 145.681 654.875C146.384 654.875 146.942 654.726 147.355 654.428C147.773 654.125 147.982 653.763 147.982 653.341C147.982 653 147.863 652.714 147.624 652.484C147.385 652.25 147.019 652.075 146.525 651.96L144.888 651.577C143.989 651.364 143.328 651.033 142.907 650.586C142.489 650.134 142.28 649.57 142.28 648.892C142.28 648.338 142.436 647.848 142.747 647.422C143.062 646.996 143.49 646.661 144.032 646.418C144.577 646.175 145.195 646.054 145.885 646.054C146.857 646.054 147.62 646.267 148.174 646.693C148.732 647.119 149.128 647.682 149.363 648.381ZM155.929 656.205C154.983 656.205 154.167 655.996 153.481 655.578C152.799 655.156 152.273 654.568 151.902 653.814C151.535 653.055 151.352 652.173 151.352 651.168C151.352 650.162 151.535 649.276 151.902 648.509C152.273 647.737 152.788 647.136 153.449 646.706C154.113 646.271 154.889 646.054 155.775 646.054C156.287 646.054 156.792 646.139 157.29 646.31C157.789 646.48 158.243 646.757 158.652 647.141C159.061 647.52 159.387 648.023 159.63 648.649C159.873 649.276 159.994 650.047 159.994 650.963V651.602H152.426V650.298H158.46C158.46 649.744 158.349 649.25 158.128 648.815C157.91 648.381 157.599 648.038 157.194 647.786C156.794 647.535 156.321 647.409 155.775 647.409C155.175 647.409 154.655 647.558 154.216 647.857C153.781 648.151 153.447 648.534 153.212 649.007C152.978 649.48 152.861 649.987 152.861 650.528V651.398C152.861 652.139 152.988 652.768 153.244 653.283C153.504 653.795 153.864 654.185 154.324 654.453C154.785 654.717 155.319 654.849 155.929 654.849C156.325 654.849 156.683 654.794 157.003 654.683C157.327 654.568 157.606 654.398 157.84 654.172C158.074 653.942 158.256 653.656 158.383 653.315L159.841 653.724C159.687 654.219 159.43 654.653 159.067 655.028C158.705 655.399 158.258 655.689 157.725 655.898C157.192 656.102 156.594 656.205 155.929 656.205ZM163.797 650.094V656H162.289V646.182H163.746V647.716H163.874C164.104 647.217 164.454 646.817 164.922 646.514C165.391 646.207 165.996 646.054 166.738 646.054C167.403 646.054 167.984 646.19 168.483 646.463C168.981 646.732 169.369 647.141 169.646 647.69C169.923 648.236 170.062 648.926 170.062 649.761V656H168.553V649.864C168.553 649.092 168.353 648.491 167.952 648.061C167.552 647.626 167.002 647.409 166.303 647.409C165.822 647.409 165.391 647.513 165.012 647.722C164.637 647.931 164.341 648.236 164.123 648.636C163.906 649.037 163.797 649.523 163.797 650.094ZM177.088 646.182V647.46H172V646.182H177.088ZM173.483 643.83H174.991V653.188C174.991 653.614 175.053 653.933 175.177 654.146C175.305 654.355 175.467 654.496 175.663 654.568C175.863 654.636 176.074 654.67 176.295 654.67C176.462 654.67 176.598 654.662 176.705 654.645C176.811 654.624 176.896 654.607 176.96 654.594L177.267 655.949C177.165 655.987 177.022 656.026 176.839 656.064C176.656 656.107 176.423 656.128 176.142 656.128C175.716 656.128 175.298 656.036 174.889 655.853C174.484 655.67 174.148 655.391 173.879 655.016C173.615 654.641 173.483 654.168 173.483 653.597V643.83ZM188.69 646.182V647.46H183.602V646.182H188.69ZM185.085 643.83H186.593V653.188C186.593 653.614 186.655 653.933 186.778 654.146C186.906 654.355 187.068 654.496 187.264 654.568C187.464 654.636 187.675 654.67 187.897 654.67C188.063 654.67 188.2 654.662 188.306 654.645C188.413 654.624 188.498 654.607 188.562 654.594L188.869 655.949C188.766 655.987 188.624 656.026 188.44 656.064C188.257 656.107 188.025 656.128 187.744 656.128C187.317 656.128 186.9 656.036 186.491 655.853C186.086 655.67 185.749 655.391 185.481 655.016C185.217 654.641 185.085 654.168 185.085 653.597V643.83ZM194.842 656.205C193.956 656.205 193.178 655.994 192.509 655.572C191.844 655.15 191.324 654.56 190.949 653.801C190.578 653.043 190.393 652.156 190.393 651.142C190.393 650.119 190.578 649.227 190.949 648.464C191.324 647.701 191.844 647.109 192.509 646.687C193.178 646.265 193.956 646.054 194.842 646.054C195.728 646.054 196.504 646.265 197.169 646.687C197.838 647.109 198.358 647.701 198.728 648.464C199.103 649.227 199.291 650.119 199.291 651.142C199.291 652.156 199.103 653.043 198.728 653.801C198.358 654.56 197.838 655.15 197.169 655.572C196.504 655.994 195.728 656.205 194.842 656.205ZM194.842 654.849C195.515 654.849 196.069 654.677 196.504 654.332C196.939 653.987 197.26 653.533 197.469 652.97C197.678 652.408 197.782 651.798 197.782 651.142C197.782 650.486 197.678 649.874 197.469 649.308C197.26 648.741 196.939 648.283 196.504 647.933C196.069 647.584 195.515 647.409 194.842 647.409C194.169 647.409 193.615 647.584 193.18 647.933C192.745 648.283 192.424 648.741 192.215 649.308C192.006 649.874 191.902 650.486 191.902 651.142C191.902 651.798 192.006 652.408 192.215 652.97C192.424 653.533 192.745 653.987 193.18 654.332C193.615 654.677 194.169 654.849 194.842 654.849ZM208.165 650.094V656H206.656V646.182H208.113V647.716H208.241C208.471 647.217 208.821 646.817 209.29 646.514C209.758 646.207 210.363 646.054 211.105 646.054C211.77 646.054 212.351 646.19 212.85 646.463C213.349 646.732 213.736 647.141 214.013 647.69C214.29 648.236 214.429 648.926 214.429 649.761V656H212.92V649.864C212.92 649.092 212.72 648.491 212.319 648.061C211.919 647.626 211.369 647.409 210.67 647.409C210.189 647.409 209.758 647.513 209.379 647.722C209.004 647.931 208.708 648.236 208.491 648.636C208.273 649.037 208.165 649.523 208.165 650.094ZM221.302 656.205C220.356 656.205 219.54 655.996 218.854 655.578C218.172 655.156 217.646 654.568 217.275 653.814C216.908 653.055 216.725 652.173 216.725 651.168C216.725 650.162 216.908 649.276 217.275 648.509C217.646 647.737 218.161 647.136 218.822 646.706C219.487 646.271 220.262 646.054 221.148 646.054C221.66 646.054 222.165 646.139 222.663 646.31C223.162 646.48 223.616 646.757 224.025 647.141C224.434 647.52 224.76 648.023 225.003 648.649C225.246 649.276 225.367 650.047 225.367 650.963V651.602H217.799V650.298H223.833C223.833 649.744 223.722 649.25 223.501 648.815C223.283 648.381 222.972 648.038 222.567 647.786C222.167 647.535 221.694 647.409 221.148 647.409C220.548 647.409 220.028 647.558 219.589 647.857C219.154 648.151 218.82 648.534 218.585 649.007C218.351 649.48 218.234 649.987 218.234 650.528V651.398C218.234 652.139 218.362 652.768 218.617 653.283C218.877 653.795 219.237 654.185 219.697 654.453C220.158 654.717 220.692 654.849 221.302 654.849C221.698 654.849 222.056 654.794 222.376 654.683C222.7 654.568 222.979 654.398 223.213 654.172C223.447 653.942 223.629 653.656 223.756 653.315L225.214 653.724C225.06 654.219 224.803 654.653 224.44 655.028C224.078 655.399 223.631 655.689 223.098 655.898C222.565 656.102 221.967 656.205 221.302 656.205ZM230.551 656.23C229.929 656.23 229.364 656.113 228.857 655.879C228.35 655.64 227.947 655.297 227.649 654.849C227.351 654.398 227.202 653.852 227.202 653.213C227.202 652.651 227.313 652.195 227.534 651.845C227.756 651.491 228.052 651.214 228.423 651.014C228.793 650.814 229.202 650.665 229.65 650.567C230.102 650.464 230.555 650.384 231.011 650.324C231.608 650.247 232.092 650.19 232.462 650.151C232.837 650.109 233.11 650.038 233.281 649.94C233.455 649.842 233.543 649.672 233.543 649.429V649.378C233.543 648.747 233.37 648.257 233.025 647.908C232.684 647.558 232.166 647.384 231.472 647.384C230.751 647.384 230.187 647.541 229.778 647.857C229.369 648.172 229.081 648.509 228.915 648.866L227.483 648.355C227.739 647.759 228.08 647.294 228.506 646.962C228.936 646.625 229.405 646.391 229.912 646.259C230.423 646.122 230.926 646.054 231.42 646.054C231.736 646.054 232.098 646.092 232.507 646.169C232.92 646.241 233.319 646.393 233.702 646.623C234.09 646.853 234.412 647.2 234.668 647.665C234.923 648.129 235.051 648.751 235.051 649.531V656H233.543V654.67H233.466C233.364 654.884 233.193 655.112 232.955 655.354C232.716 655.597 232.398 655.804 232.002 655.974C231.606 656.145 231.122 656.23 230.551 656.23ZM230.781 654.875C231.378 654.875 231.881 654.758 232.29 654.523C232.703 654.289 233.014 653.987 233.223 653.616C233.436 653.245 233.543 652.855 233.543 652.446V651.065C233.479 651.142 233.338 651.212 233.121 651.276C232.908 651.336 232.661 651.389 232.379 651.436C232.102 651.479 231.832 651.517 231.567 651.551C231.308 651.581 231.097 651.607 230.935 651.628C230.543 651.679 230.176 651.762 229.835 651.877C229.499 651.988 229.226 652.156 229.017 652.382C228.813 652.604 228.71 652.906 228.71 653.29C228.71 653.814 228.904 654.21 229.292 654.479C229.684 654.743 230.18 654.875 230.781 654.875ZM237.805 656V646.182H239.262V647.665H239.364C239.543 647.179 239.867 646.785 240.336 646.482C240.805 646.18 241.333 646.028 241.921 646.028C242.032 646.028 242.17 646.031 242.336 646.035C242.503 646.039 242.628 646.045 242.714 646.054V647.588C242.662 647.575 242.545 647.556 242.362 647.531C242.183 647.501 241.993 647.486 241.793 647.486C241.316 647.486 240.89 647.586 240.515 647.786C240.144 647.982 239.85 648.255 239.633 648.604C239.42 648.95 239.313 649.344 239.313 649.787V656H237.805ZM244.706 656V642.909H246.215V647.741H246.343C246.453 647.571 246.607 647.354 246.803 647.089C247.003 646.821 247.289 646.582 247.659 646.374C248.034 646.161 248.542 646.054 249.181 646.054C250.007 646.054 250.736 646.261 251.367 646.674C251.998 647.087 252.49 647.673 252.843 648.432C253.197 649.19 253.374 650.085 253.374 651.116C253.374 652.156 253.197 653.058 252.843 653.82C252.49 654.579 252 655.167 251.373 655.585C250.747 655.998 250.025 656.205 249.206 656.205C248.576 656.205 248.071 656.1 247.691 655.891C247.312 655.678 247.02 655.437 246.816 655.169C246.611 654.896 246.453 654.67 246.343 654.491H246.164V656H244.706ZM246.189 651.091C246.189 651.832 246.298 652.487 246.515 653.053C246.733 653.616 247.05 654.057 247.468 654.376C247.885 654.692 248.397 654.849 249.002 654.849C249.632 654.849 250.159 654.683 250.581 654.351C251.007 654.014 251.326 653.562 251.539 652.996C251.757 652.425 251.865 651.79 251.865 651.091C251.865 650.401 251.759 649.778 251.546 649.224C251.337 648.666 251.02 648.225 250.593 647.901C250.172 647.573 249.641 647.409 249.002 647.409C248.388 647.409 247.873 647.565 247.455 647.876C247.037 648.183 246.722 648.613 246.509 649.167C246.296 649.717 246.189 650.358 246.189 651.091ZM256.301 659.682C256.046 659.682 255.818 659.661 255.618 659.618C255.417 659.58 255.279 659.541 255.202 659.503L255.586 658.173C255.952 658.267 256.276 658.301 256.557 658.276C256.838 658.25 257.088 658.124 257.305 657.898C257.527 657.677 257.729 657.317 257.912 656.818L258.194 656.051L254.563 646.182H256.199L258.909 654.006H259.012L261.722 646.182H263.358L259.191 657.432C259.003 657.939 258.771 658.359 258.494 658.691C258.217 659.028 257.895 659.277 257.529 659.439C257.167 659.601 256.757 659.682 256.301 659.682ZM274.81 656H270.169V642.909H274.848C276.165 642.909 277.298 643.171 278.249 643.695C279.199 644.215 279.93 644.963 280.441 645.939C280.957 646.915 281.214 648.082 281.214 649.442C281.214 650.805 280.957 651.977 280.441 652.957C279.93 653.937 279.195 654.69 278.236 655.214C277.281 655.738 276.139 656 274.81 656ZM272.937 653.629H274.695C275.513 653.629 276.201 653.484 276.759 653.194C277.322 652.9 277.744 652.446 278.025 651.832C278.31 651.214 278.453 650.418 278.453 649.442C278.453 648.474 278.31 647.684 278.025 647.07C277.744 646.457 277.324 646.005 276.766 645.715C276.207 645.425 275.519 645.281 274.701 645.281H272.937V653.629ZM287.65 656.192C286.657 656.192 285.798 655.981 285.074 655.559C284.354 655.133 283.797 654.54 283.405 653.782C283.013 653.019 282.817 652.135 282.817 651.129C282.817 650.115 283.013 649.229 283.405 648.47C283.797 647.707 284.354 647.115 285.074 646.693C285.798 646.267 286.657 646.054 287.65 646.054C288.643 646.054 289.499 646.267 290.219 646.693C290.944 647.115 291.502 647.707 291.894 648.47C292.286 649.229 292.482 650.115 292.482 651.129C292.482 652.135 292.286 653.019 291.894 653.782C291.502 654.54 290.944 655.133 290.219 655.559C289.499 655.981 288.643 656.192 287.65 656.192ZM287.662 654.082C288.114 654.082 288.491 653.955 288.794 653.699C289.096 653.439 289.324 653.085 289.478 652.638C289.635 652.19 289.714 651.681 289.714 651.11C289.714 650.539 289.635 650.03 289.478 649.582C289.324 649.135 289.096 648.781 288.794 648.521C288.491 648.261 288.114 648.131 287.662 648.131C287.206 648.131 286.823 648.261 286.512 648.521C286.205 648.781 285.973 649.135 285.815 649.582C285.662 650.03 285.585 650.539 285.585 651.11C285.585 651.681 285.662 652.19 285.815 652.638C285.973 653.085 286.205 653.439 286.512 653.699C286.823 653.955 287.206 654.082 287.662 654.082ZM296.976 650.324V656H294.253V646.182H296.848V647.914H296.963C297.18 647.343 297.545 646.891 298.056 646.559C298.567 646.222 299.187 646.054 299.916 646.054C300.598 646.054 301.192 646.203 301.699 646.501C302.206 646.8 302.601 647.226 302.882 647.78C303.163 648.33 303.304 648.986 303.304 649.749V656H300.581V650.234C300.585 649.634 300.432 649.165 300.121 648.828C299.809 648.487 299.381 648.317 298.836 648.317C298.469 648.317 298.145 648.396 297.864 648.553C297.587 648.711 297.37 648.941 297.212 649.244C297.059 649.542 296.98 649.902 296.976 650.324ZM309.886 656.192C308.893 656.192 308.034 655.981 307.31 655.559C306.59 655.133 306.034 654.54 305.642 653.782C305.25 653.019 305.054 652.135 305.054 651.129C305.054 650.115 305.25 649.229 305.642 648.47C306.034 647.707 306.59 647.115 307.31 646.693C308.034 646.267 308.893 646.054 309.886 646.054C310.879 646.054 311.735 646.267 312.456 646.693C313.18 647.115 313.738 647.707 314.13 648.47C314.522 649.229 314.718 650.115 314.718 651.129C314.718 652.135 314.522 653.019 314.13 653.782C313.738 654.54 313.18 655.133 312.456 655.559C311.735 655.981 310.879 656.192 309.886 656.192ZM309.899 654.082C310.35 654.082 310.728 653.955 311.03 653.699C311.333 653.439 311.561 653.085 311.714 652.638C311.872 652.19 311.951 651.681 311.951 651.11C311.951 650.539 311.872 650.03 311.714 649.582C311.561 649.135 311.333 648.781 311.03 648.521C310.728 648.261 310.35 648.131 309.899 648.131C309.443 648.131 309.059 648.261 308.748 648.521C308.441 648.781 308.209 649.135 308.051 649.582C307.898 650.03 307.821 650.539 307.821 651.11C307.821 651.681 307.898 652.19 308.051 652.638C308.209 653.085 308.441 653.439 308.748 653.699C309.059 653.955 309.443 654.082 309.899 654.082ZM316.489 656V646.182H319.129V647.895H319.231C319.41 647.286 319.711 646.825 320.132 646.514C320.554 646.199 321.04 646.041 321.59 646.041C321.726 646.041 321.873 646.05 322.031 646.067C322.189 646.084 322.327 646.107 322.446 646.137V648.553C322.319 648.515 322.142 648.481 321.916 648.451C321.69 648.421 321.483 648.406 321.296 648.406C320.895 648.406 320.537 648.494 320.222 648.668C319.911 648.839 319.664 649.077 319.48 649.384C319.301 649.691 319.212 650.045 319.212 650.445V656H316.489Z" fill="white"/>
</g>
<defs>
<linearGradient id="paint0_linear_74_17" x1="195" y1="0" x2="195" y2="844" gradientUnits="userSpaceOnUse">
<stop stop-color="#0F883B"/>
<stop offset="1" stop-color="#04220F"/>
</linearGradient>
<clipPath id="clip0_74_17">
<rect width="390" height="844" fill="white"/>
</clipPath>
<clipPath id="clip1_74_17">
<rect width="119" height="119" fill="white" transform="translate(135 338)"/>
</clipPath>
</defs>
</svg>
