<svg width="390" height="844" viewBox="0 0 390 844" fill="none" xmlns="http://www.w3.org/2000/svg">
<g clip-path="url(#clip0_173_1305)">
<rect width="390" height="844" fill="white"/>
<path d="M361 28V30H362V32H361V34H346V28H361ZM361.5 26H345.5C344.672 26 344 26.6716 344 27.5V34.5C344 35.3284 344.672 36 345.5 36H361.5C362.328 36 363 35.3284 363 34.5V34H363.25C363.664 34 364 33.6642 364 33.25V28.75C364 28.3358 363.664 28 363.25 28H363V27.5C363 26.6716 362.328 26 361.5 26ZM360 29H347V33H360V29Z" fill="black"/>
<path d="M324.4 32H322.9C322.624 32 322.4 32.2237 322.4 32.5V38.5C322.4 38.7763 322.624 39 322.9 39H324.4C324.676 39 324.9 38.7763 324.9 38.5V32.5C324.9 32.2237 324.676 32 324.4 32ZM320.4 35H318.9C318.624 35 318.4 35.2237 318.4 35.5V38.5C318.4 38.7763 318.624 39 318.9 39H320.4C320.676 39 320.9 38.7763 320.9 38.5V35.5C320.9 35.2237 320.676 35 320.4 35ZM328.4 29H326.9C326.624 29 326.4 29.2237 326.4 29.5V38.5C326.4 38.7763 326.624 39 326.9 39H328.4C328.676 39 328.9 38.7763 328.9 38.5V29.5C328.9 29.2237 328.676 29 328.4 29ZM332.4 26H330.9C330.624 26 330.4 26.2237 330.4 26.5V38.5C330.4 38.7763 330.624 39 330.9 39H332.4C332.676 39 332.9 38.7763 332.9 38.5V26.5C332.9 26.2237 332.676 26 332.4 26ZM336.4 23H334.9C334.624 23 334.4 23.2237 334.4 23.5V38.5C334.4 38.7763 334.624 39 334.9 39H336.4C336.676 39 336.9 38.7763 336.9 38.5V23.5C336.9 23.2237 336.676 23 336.4 23Z" fill="black"/>
<path d="M311.841 27.84C306.304 22.7191 297.693 22.7209 292.159 27.84C291.951 28.0325 291.947 28.3584 292.148 28.5581L293.218 29.6197C293.41 29.8103 293.719 29.8144 293.918 29.6316C298.478 25.4541 305.521 25.4531 310.082 29.6316C310.282 29.8144 310.59 29.81 310.782 29.6197L311.852 28.5581C312.053 28.3584 312.049 28.0325 311.841 27.84ZM302 34C300.895 34 300 34.8953 300 36C300 37.1047 300.895 38 302 38C303.105 38 304 37.1047 304 36C304 34.8953 303.105 34 302 34ZM308.333 31.3878C304.732 28.2025 299.264 28.2059 295.667 31.3878C295.451 31.5784 295.444 31.9094 295.649 32.1112L296.725 33.1734C296.912 33.3584 297.214 33.3709 297.414 33.1984C300.037 30.9306 303.968 30.9356 306.586 33.1984C306.785 33.3709 307.087 33.3587 307.275 33.1734L308.351 32.1112C308.556 31.9094 308.549 31.5781 308.333 31.3878Z" fill="black"/>
<path d="M28.206 32.004C28.346 32.7413 28.7753 33.11 29.494 33.11C29.9887 33.11 30.3387 32.8907 30.544 32.452C30.7493 32.0133 30.852 31.2993 30.852 30.31C30.6467 30.5993 30.3667 30.8233 30.012 30.982C29.6573 31.1407 29.2607 31.22 28.822 31.22C28.2247 31.22 27.6927 31.0987 27.226 30.856C26.7593 30.604 26.3907 30.2353 26.12 29.75C25.8587 29.2553 25.728 28.658 25.728 27.958C25.728 27.2673 25.868 26.6653 26.148 26.152C26.4373 25.6387 26.8433 25.242 27.366 24.962C27.898 24.682 28.5233 24.542 29.242 24.542C30.6233 24.542 31.5893 24.9713 32.14 25.83C32.6907 26.6887 32.966 27.9533 32.966 29.624C32.966 30.8373 32.854 31.8407 32.63 32.634C32.4153 33.418 32.0467 34.0153 31.524 34.426C31.0107 34.8367 30.306 35.042 29.41 35.042C28.7007 35.042 28.094 34.902 27.59 34.622C27.0953 34.342 26.7127 33.9733 26.442 33.516C26.1807 33.0587 26.0313 32.5547 25.994 32.004H28.206ZM29.368 29.33C29.76 29.33 30.0727 29.2133 30.306 28.98C30.5393 28.7373 30.656 28.4107 30.656 28C30.656 27.552 30.5347 27.2067 30.292 26.964C30.0493 26.7213 29.7227 26.6 29.312 26.6C28.9013 26.6 28.5747 26.726 28.332 26.978C28.0987 27.2207 27.982 27.5567 27.982 27.986C27.982 28.3873 28.0987 28.714 28.332 28.966C28.5747 29.2087 28.92 29.33 29.368 29.33ZM35.6013 35.112C35.1813 35.112 34.8359 34.9907 34.5653 34.748C34.3039 34.496 34.1733 34.188 34.1733 33.824C34.1733 33.4507 34.3039 33.138 34.5653 32.886C34.8359 32.634 35.1813 32.508 35.6013 32.508C36.0119 32.508 36.3479 32.634 36.6093 32.886C36.8799 33.138 37.0153 33.4507 37.0153 33.824C37.0153 34.188 36.8799 34.496 36.6093 34.748C36.3479 34.9907 36.0119 35.112 35.6013 35.112ZM35.6013 29.414C35.1813 29.414 34.8359 29.2927 34.5653 29.05C34.3039 28.798 34.1733 28.49 34.1733 28.126C34.1733 27.7527 34.3039 27.44 34.5653 27.188C34.8359 26.936 35.1813 26.81 35.6013 26.81C36.0119 26.81 36.3479 26.936 36.6093 27.188C36.8799 27.44 37.0153 27.7527 37.0153 28.126C37.0153 28.49 36.8799 28.798 36.6093 29.05C36.3479 29.2927 36.0119 29.414 35.6013 29.414ZM38.2218 29.75C38.2218 28.1447 38.5298 26.88 39.1458 25.956C39.7711 25.032 40.7745 24.57 42.1558 24.57C43.5371 24.57 44.5358 25.032 45.1518 25.956C45.7771 26.88 46.0898 28.1447 46.0898 29.75C46.0898 31.374 45.7771 32.648 45.1518 33.572C44.5358 34.496 43.5371 34.958 42.1558 34.958C40.7745 34.958 39.7711 34.496 39.1458 33.572C38.5298 32.648 38.2218 31.374 38.2218 29.75ZM43.7378 29.75C43.7378 28.8073 43.6351 28.084 43.4298 27.58C43.2245 27.0667 42.7998 26.81 42.1558 26.81C41.5118 26.81 41.0871 27.0667 40.8818 27.58C40.6765 28.084 40.5738 28.8073 40.5738 29.75C40.5738 30.3847 40.6111 30.912 40.6858 31.332C40.7605 31.7427 40.9098 32.0787 41.1338 32.34C41.3671 32.592 41.7078 32.718 42.1558 32.718C42.6038 32.718 42.9398 32.592 43.1638 32.34C43.3971 32.0787 43.5511 31.7427 43.6258 31.332C43.7005 30.912 43.7378 30.3847 43.7378 29.75ZM47.3546 29.75C47.3546 28.1447 47.6626 26.88 48.2786 25.956C48.9039 25.032 49.9073 24.57 51.2886 24.57C52.6699 24.57 53.6686 25.032 54.2846 25.956C54.9099 26.88 55.2226 28.1447 55.2226 29.75C55.2226 31.374 54.9099 32.648 54.2846 33.572C53.6686 34.496 52.6699 34.958 51.2886 34.958C49.9073 34.958 48.9039 34.496 48.2786 33.572C47.6626 32.648 47.3546 31.374 47.3546 29.75ZM52.8706 29.75C52.8706 28.8073 52.7679 28.084 52.5626 27.58C52.3573 27.0667 51.9326 26.81 51.2886 26.81C50.6446 26.81 50.2199 27.0667 50.0146 27.58C49.8093 28.084 49.7066 28.8073 49.7066 29.75C49.7066 30.3847 49.7439 30.912 49.8186 31.332C49.8933 31.7427 50.0426 32.0787 50.2666 32.34C50.4999 32.592 50.8406 32.718 51.2886 32.718C51.7366 32.718 52.0726 32.592 52.2966 32.34C52.5299 32.0787 52.6839 31.7427 52.7586 31.332C52.8333 30.912 52.8706 30.3847 52.8706 29.75Z" fill="black"/>
<path d="M34.7694 88.576C34.7694 89.552 34.5454 90.448 34.0974 91.264C33.6494 92.064 32.9614 92.712 32.0334 93.208C31.1054 93.704 29.9534 93.952 28.5774 93.952H26.0334V100H21.9294V83.152H28.5774C29.9214 83.152 31.0574 83.384 31.9854 83.848C32.9134 84.312 33.6094 84.952 34.0734 85.768C34.5374 86.584 34.7694 87.52 34.7694 88.576ZM28.2654 90.688C29.0494 90.688 29.6334 90.504 30.0174 90.136C30.4014 89.768 30.5934 89.248 30.5934 88.576C30.5934 87.904 30.4014 87.384 30.0174 87.016C29.6334 86.648 29.0494 86.464 28.2654 86.464H26.0334V90.688H28.2654ZM41.01 88.84C41.49 88.104 42.09 87.528 42.81 87.112C43.53 86.68 44.33 86.464 45.21 86.464V90.808H44.082C43.058 90.808 42.29 91.032 41.778 91.48C41.266 91.912 41.01 92.68 41.01 93.784V100H36.906V86.608H41.01V88.84ZM53.2676 100.192C51.9556 100.192 50.7716 99.912 49.7156 99.352C48.6756 98.792 47.8516 97.992 47.2436 96.952C46.6516 95.912 46.3556 94.696 46.3556 93.304C46.3556 91.928 46.6596 90.72 47.2676 89.68C47.8756 88.624 48.7076 87.816 49.7636 87.256C50.8196 86.696 52.0036 86.416 53.3156 86.416C54.6276 86.416 55.8116 86.696 56.8676 87.256C57.9236 87.816 58.7556 88.624 59.3636 89.68C59.9716 90.72 60.2756 91.928 60.2756 93.304C60.2756 94.68 59.9636 95.896 59.3396 96.952C58.7316 97.992 57.8916 98.792 56.8196 99.352C55.7636 99.912 54.5796 100.192 53.2676 100.192ZM53.2676 96.64C54.0516 96.64 54.7156 96.352 55.2596 95.776C55.8196 95.2 56.0996 94.376 56.0996 93.304C56.0996 92.232 55.8276 91.408 55.2836 90.832C54.7556 90.256 54.0996 89.968 53.3156 89.968C52.5156 89.968 51.8516 90.256 51.3236 90.832C50.7956 91.392 50.5316 92.216 50.5316 93.304C50.5316 94.376 50.7876 95.2 51.2996 95.776C51.8276 96.352 52.4836 96.64 53.2676 96.64ZM69.1728 90.016H66.9648V100H62.8608V90.016H61.3728V86.608H62.8608V86.224C62.8608 84.576 63.3328 83.328 64.2768 82.48C65.2208 81.616 66.6048 81.184 68.4288 81.184C68.7328 81.184 68.9568 81.192 69.1008 81.208V84.688C68.3168 84.64 67.7648 84.752 67.4448 85.024C67.1248 85.296 66.9648 85.784 66.9648 86.488V86.608H69.1728V90.016ZM73.1653 85.216C72.4453 85.216 71.8533 85.008 71.3893 84.592C70.9413 84.16 70.7173 83.632 70.7173 83.008C70.7173 82.368 70.9413 81.84 71.3893 81.424C71.8533 80.992 72.4453 80.776 73.1653 80.776C73.8693 80.776 74.4453 80.992 74.8933 81.424C75.3573 81.84 75.5893 82.368 75.5893 83.008C75.5893 83.632 75.3573 84.16 74.8933 84.592C74.4453 85.008 73.8693 85.216 73.1653 85.216ZM75.2053 86.608V100H71.1013V86.608H75.2053ZM82.2834 82.24V100H78.1794V82.24H82.2834ZM97.8815 93.088C97.8815 93.472 97.8575 93.872 97.8095 94.288H88.5215C88.5855 95.12 88.8495 95.76 89.3135 96.208C89.7935 96.64 90.3775 96.856 91.0655 96.856C92.0895 96.856 92.8015 96.424 93.2015 95.56H97.5695C97.3455 96.44 96.9375 97.232 96.3455 97.936C95.7695 98.64 95.0415 99.192 94.1615 99.592C93.2815 99.992 92.2975 100.192 91.2095 100.192C89.8975 100.192 88.7295 99.912 87.7055 99.352C86.6815 98.792 85.8815 97.992 85.3055 96.952C84.7295 95.912 84.4415 94.696 84.4415 93.304C84.4415 91.912 84.7215 90.696 85.2815 89.656C85.8575 88.616 86.6575 87.816 87.6815 87.256C88.7055 86.696 89.8815 86.416 91.2095 86.416C92.5055 86.416 93.6575 86.688 94.6655 87.232C95.6735 87.776 96.4575 88.552 97.0175 89.56C97.5935 90.568 97.8815 91.744 97.8815 93.088ZM93.6815 92.008C93.6815 91.304 93.4415 90.744 92.9615 90.328C92.4815 89.912 91.8815 89.704 91.1615 89.704C90.4735 89.704 89.8895 89.904 89.4095 90.304C88.9455 90.704 88.6575 91.272 88.5455 92.008H93.6815Z" fill="white"/>
<line x1="20" y1="117.5" x2="369" y2="117.5" stroke="white"/>
<path fill-rule="evenodd" clip-rule="evenodd" d="M320.144 602.37C324.568 611.989 329.451 621.437 334.347 630.847H329.105C324.37 621.707 319.775 612.716 315.914 604.315C314.887 602.086 312.658 600.658 310.207 600.658C307.752 600.658 305.519 602.082 304.494 604.311C300.631 612.713 296.038 621.705 291.303 630.847H286.06C290.953 621.437 295.839 611.986 300.262 602.365C302.046 598.484 305.933 596 310.207 596C314.477 596.001 318.357 598.486 320.144 602.37ZM354.688 671.822C360.127 684.425 364.407 697.235 364.407 707.001C364.403 736.935 340.136 761.202 310.203 761.202C280.269 761.202 256 736.931 256 707.001C256 697.235 260.279 684.425 265.716 671.822H270.882C264.84 685.402 260.657 697.707 260.657 707.001C260.657 734.364 282.84 756.547 310.203 756.547C337.568 756.547 359.747 734.364 359.747 707.001C359.751 697.707 355.566 685.404 349.523 671.822H354.688Z" fill="#BE0316"/>
<path d="M280.258 642.131H281.267V633.002H280.258V642.131ZM286.723 636.465V635.574H284.65V633.567H283.667V635.574H282.735V636.465H283.667V639.874C283.667 641.762 284.139 642.275 285.489 642.275C285.95 642.275 286.815 642.131 286.815 642.131L286.761 641.277C286.761 641.277 285.963 641.344 285.593 641.344C284.728 641.344 284.65 640.95 284.65 639.52V636.466L286.723 636.465ZM292.598 635.691C292.598 635.691 291.208 635.442 290.225 635.442C289.031 635.442 287.863 635.914 287.863 637.355C287.863 638.641 288.572 638.957 290.171 639.206C291.484 639.415 291.824 639.573 291.824 640.254C291.824 641.146 291.248 641.382 290.171 641.382C289.502 641.382 288.007 641.159 288.007 641.159L287.954 642.011C287.954 642.011 289.424 642.262 290.263 642.262C291.851 642.262 292.821 641.751 292.821 640.216C292.821 638.944 292.191 638.59 290.46 638.314C289.161 638.117 288.859 637.934 288.859 637.318C288.859 636.544 289.464 636.334 290.276 636.334C291.115 636.334 292.572 636.544 292.572 636.544L292.598 635.691ZM298.76 642.131V636.832C298.76 636.832 299.77 636.346 300.635 636.346C301.83 636.346 302.025 636.989 302.025 638.734V642.131H302.997V638.721C302.997 636.334 302.59 635.442 300.793 635.442C299.863 635.442 298.76 636.005 298.76 636.005V635.573H297.777V642.131H298.76V642.131ZM307.562 635.442C305.489 635.442 304.741 636.504 304.741 638.759C304.741 641.159 305.344 642.262 307.562 642.262C309.777 642.262 310.354 641.054 310.354 638.785C310.354 636.543 309.54 635.442 307.562 635.442ZM307.562 641.382C306.014 641.382 305.751 640.596 305.751 638.759C305.751 636.962 306.171 636.334 307.562 636.334C308.819 636.334 309.343 637.042 309.343 638.786C309.343 640.516 309.108 641.382 307.562 641.382ZM315.351 636.465V635.574H313.279V633.567H312.294V635.574H311.366V636.465H312.294V639.874C312.294 641.762 312.765 642.275 314.12 642.275C314.576 642.275 315.443 642.131 315.443 642.131L315.39 641.277C315.39 641.277 314.591 641.344 314.226 641.344C313.359 641.344 313.279 640.95 313.279 639.52V636.466L315.351 636.465ZM320.072 642.051C320.072 643.232 319.771 643.559 318.432 644.32L318.866 645.145C320.608 644.253 321.041 643.677 321.041 642.064V635.574H320.072V642.051ZM320.072 634.052H321.041V632.898H320.072V634.052ZM327.31 635.574V640.897C327.31 640.897 326.382 641.382 325.514 641.382C324.282 641.382 324.123 640.792 324.123 638.982V635.574H323.153V638.995C323.153 641.422 323.537 642.262 325.37 642.262C326.29 642.262 327.31 641.711 327.31 641.711V642.131H328.283V635.574H327.31ZM334.891 635.691C334.891 635.691 333.502 635.442 332.517 635.442C331.323 635.442 330.155 635.914 330.155 637.355C330.155 638.641 330.866 638.957 332.468 639.206C333.776 639.415 334.119 639.573 334.119 640.254C334.119 641.146 333.54 641.382 332.468 641.382C331.798 641.382 330.299 641.159 330.299 641.159L330.247 642.011C330.247 642.011 331.718 642.262 332.559 642.262C334.141 642.262 335.115 641.751 335.115 640.216C335.115 638.944 334.484 638.59 332.753 638.314C331.456 638.117 331.152 637.934 331.152 637.318C331.152 636.544 331.756 636.334 332.57 636.334C333.411 636.334 334.864 636.544 334.864 636.544L334.891 635.691ZM340.189 636.465V635.574H338.116V633.567H337.131V635.574H336.202V636.465H337.131V639.874C337.131 641.762 337.606 642.275 338.956 642.275C339.413 642.275 340.28 642.131 340.28 642.131L340.227 641.277C340.227 641.277 339.428 641.344 339.063 641.344C338.196 641.344 338.116 640.95 338.116 639.52V636.466L340.189 636.465Z" fill="black"/>
<path d="M263.991 646.549V668.573H272.492C276.756 668.573 279.428 666.789 279.428 662.368C279.428 659.374 278.38 658.07 276.406 657.275C278.156 656.288 278.953 655.015 278.953 652.087C278.953 648.141 276.277 646.549 272.268 646.549H263.991ZM272.235 659.184C273.987 659.184 275.577 659.789 275.577 662.081C275.577 664.342 274.4 665.137 272.298 665.137H267.684V659.184L272.235 659.184ZM272.078 649.987C274.113 649.987 275.1 650.78 275.1 652.724C275.1 654.761 274.24 655.81 272.173 655.81H267.684V649.987H272.078ZM295.63 668.573V664.977H287.1V646.549H283.376V668.573H295.63ZM306.991 665.327C302.918 665.327 301.963 662.843 301.963 657.72C301.963 652.594 302.95 649.795 306.991 649.795C311.034 649.795 312.019 652.595 312.019 657.72C312.019 662.908 311.066 665.327 306.991 665.327ZM306.991 668.923C313.804 668.923 315.869 665.169 315.869 657.72C315.869 650.335 313.804 646.199 306.991 646.199C300.181 646.199 298.112 650.335 298.112 657.72C298.112 665.105 300.18 668.923 306.991 668.923ZM327.553 665.327C323.48 665.327 322.524 662.843 322.524 657.72C322.524 652.594 323.51 649.795 327.553 649.795C331.592 649.795 332.582 652.595 332.582 657.72C332.582 662.908 331.627 665.327 327.553 665.327ZM327.553 668.923C334.362 668.923 336.431 665.169 336.431 657.72C336.431 650.335 334.362 646.199 327.553 646.199C320.745 646.199 318.676 650.335 318.676 657.72C318.676 665.105 320.745 668.923 327.553 668.923ZM347.701 668.573C355.053 668.573 356.548 664.245 356.548 657.178C356.548 650.242 354.863 646.549 347.701 646.549H340.284V668.573H347.701ZM352.695 657.178C352.695 661.731 352.064 665.01 347.701 665.01H343.977V650.113H347.701C352.064 650.113 352.695 652.659 352.695 657.178Z" fill="#BE0316"/>
<path d="M306.171 684.562L306.059 685.037C305.601 685.224 305.23 685.351 304.956 685.423C304.678 685.495 304.444 685.53 304.247 685.53C303.847 685.53 303.547 685.427 303.347 685.22C303.147 685.012 303.047 684.756 303.047 684.449C303.047 684.337 303.058 684.217 303.079 684.092C303.1 683.966 303.128 683.808 303.176 683.62L303.973 680.433C304.013 680.259 304.051 680.071 304.089 679.872C304.127 679.672 304.144 679.503 304.144 679.364C304.144 679.084 304.1 678.896 304.007 678.805C303.914 678.714 303.724 678.666 303.44 678.666C303.33 678.666 303.183 678.683 303.001 678.717C302.818 678.751 302.681 678.778 302.586 678.805L302.699 678.314C303.092 678.139 303.442 678.004 303.752 677.92C304.062 677.833 304.309 677.789 304.492 677.789C304.902 677.789 305.199 677.886 305.387 678.082C305.572 678.278 305.663 678.54 305.663 678.871C305.663 678.961 305.654 679.084 305.634 679.242C305.615 679.395 305.583 679.552 305.545 679.707L304.739 682.902C304.689 683.097 304.644 683.29 304.608 683.48C304.571 683.666 304.552 683.82 304.552 683.94C304.552 684.225 304.615 684.419 304.743 684.526C304.868 684.63 305.074 684.686 305.357 684.686C305.452 684.686 305.589 684.672 305.762 684.648C305.941 684.623 306.076 684.594 306.171 684.562ZM306.712 674.95C306.712 675.237 306.618 675.485 306.432 675.697C306.243 675.912 306.01 676.019 305.734 676.019C305.477 676.019 305.253 675.918 305.066 675.715C304.88 675.511 304.787 675.279 304.787 675.018C304.787 674.741 304.88 674.502 305.066 674.296C305.253 674.09 305.477 673.988 305.734 673.988C306.021 673.988 306.257 674.085 306.438 674.277C306.62 674.469 306.712 674.697 306.712 674.95ZM308.887 685.53C308.413 685.53 308.066 685.433 307.847 685.241C307.626 685.049 307.516 684.773 307.516 684.41C307.516 684.295 307.523 684.187 307.538 684.084C307.554 683.982 307.574 683.864 307.597 683.735L308.771 678.714H307.426L307.582 678.037H308.955L309.474 675.835H310.83L310.322 678.037H312.406L312.254 678.714H310.185L309.215 682.851C309.17 683.039 309.133 683.225 309.103 683.402C309.072 683.583 309.057 683.733 309.057 683.858C309.057 684.132 309.126 684.336 309.265 684.461C309.4 684.591 309.649 684.653 310.008 684.653C310.139 684.653 310.322 684.638 310.556 684.606C310.788 684.575 310.971 684.534 311.1 684.484L310.973 685.034C310.625 685.169 310.294 685.287 309.984 685.385C309.673 685.482 309.309 685.53 308.887 685.53ZM315.876 674.92C315.876 675.334 315.785 675.713 315.61 676.05C315.428 676.388 315.21 676.675 314.952 676.913C314.682 677.168 314.404 677.385 314.119 677.556C313.83 677.729 313.587 677.864 313.397 677.959L313.168 677.483C313.397 677.363 313.602 677.247 313.804 677.135C314.005 677.023 314.184 676.896 314.34 676.755C314.5 676.619 314.64 676.466 314.758 676.289C314.88 676.114 314.975 675.903 315.047 675.65H314.728C314.412 675.65 314.188 675.572 314.051 675.416C313.914 675.26 313.845 675.089 313.845 674.897C313.845 674.653 313.937 674.427 314.123 674.208C314.31 673.989 314.56 673.879 314.88 673.879C315.222 673.879 315.473 673.974 315.633 674.164C315.793 674.357 315.876 674.61 315.876 674.92ZM317.672 685.608C316.926 685.608 316.314 685.477 315.823 685.216C315.328 684.953 315.081 684.609 315.081 684.185C315.081 683.983 315.153 683.797 315.299 683.622C315.443 683.449 315.618 683.362 315.831 683.362C316.029 683.362 316.188 683.407 316.314 683.498C316.436 683.592 316.531 683.7 316.599 683.822C316.675 683.953 316.744 684.107 316.801 684.287C316.858 684.464 316.904 684.613 316.949 684.725C317.021 684.81 317.124 684.89 317.257 684.961C317.386 685.033 317.58 685.069 317.832 685.069C318.368 685.069 318.775 684.932 319.052 684.664C319.33 684.392 319.468 684.027 319.468 683.567C319.468 683.224 319.338 682.952 319.08 682.749C318.821 682.544 318.433 682.357 317.915 682.188C317.733 682.125 317.516 682.036 317.265 681.914C317.018 681.79 316.817 681.657 316.668 681.517C316.485 681.357 316.341 681.165 316.231 680.944C316.121 680.724 316.067 680.461 316.067 680.163C316.067 679.518 316.357 678.964 316.927 678.493C317.501 678.025 318.205 677.789 319.046 677.789C319.239 677.789 319.453 677.8 319.676 677.819C319.901 677.838 320.149 677.893 320.419 677.983C320.654 678.063 320.856 678.181 321.019 678.34C321.187 678.496 321.271 678.698 321.271 678.951C321.271 679.154 321.202 679.341 321.062 679.508C320.921 679.673 320.738 679.759 320.514 679.759C320.327 679.759 320.175 679.717 320.053 679.638C319.931 679.56 319.833 679.453 319.753 679.32C319.673 679.183 319.605 679.04 319.555 678.886C319.506 678.732 319.453 678.58 319.388 678.434C319.293 678.392 319.209 678.365 319.133 678.35C319.057 678.334 318.958 678.327 318.833 678.327C318.338 678.327 317.965 678.458 317.71 678.722C317.459 678.983 317.33 679.297 317.33 679.656C317.33 680.006 317.445 680.274 317.673 680.451C317.901 680.63 318.281 680.812 318.806 681.005C319.491 681.252 319.989 681.531 320.297 681.849C320.609 682.164 320.761 682.558 320.761 683.024C320.761 683.787 320.472 684.408 319.886 684.89C319.3 685.37 318.562 685.608 317.672 685.608Z" fill="black"/>
<path d="M296.776 698.953V697.471H293.262V689.879H291.729V698.953H296.776ZM298.206 698.953H299.755V689.879H298.206V698.953ZM306.9 700.946L308.317 700.292L307.242 698.532C308.277 697.838 308.633 696.488 308.633 694.482C308.633 691.439 307.781 689.734 304.973 689.734C302.166 689.734 301.314 691.439 301.314 694.482C301.314 697.525 302.166 699.097 304.973 699.097C305.249 699.097 305.498 699.084 305.721 699.044L306.9 700.946ZM304.973 697.616C303.294 697.616 302.9 696.593 302.9 694.482C302.9 692.371 303.307 691.217 304.973 691.217C306.637 691.217 307.044 692.371 307.044 694.482C307.044 696.619 306.65 697.616 304.973 697.616ZM311.622 696.03V689.879H310.074V696.03C310.074 698.205 311.228 699.071 313.377 699.071C315.557 699.071 316.721 698.205 316.721 696.03V689.879H315.177V696.03C315.177 697.195 314.454 697.564 313.377 697.564C312.331 697.565 311.622 697.209 311.622 696.03ZM318.569 698.953H320.121V689.879H318.569V698.953ZM325.164 698.953C328.196 698.953 328.812 697.169 328.812 694.257C328.812 691.399 328.116 689.879 325.164 689.879H322.114V698.953H325.164ZM327.226 694.258C327.226 696.135 326.964 697.485 325.165 697.485H323.636V691.348H325.165C326.964 691.348 327.226 692.398 327.226 694.258Z" fill="black"/>
<path d="M290.616 732.592V727.252H280.619V704.887H275.077V732.592H290.616V732.592ZM294.631 732.592H300.173V704.886H294.631V732.592ZM305.793 732.592H311.255V720.976H320.973V715.712H311.255V710.189H323.381V704.887H305.793V732.592ZM327.394 732.592H344.982V727.29H332.855V721.55H342.574V716.37H332.855V710.189H344.982V704.886H327.394V732.592Z" fill="#BE0316"/>
<circle cx="194.5" cy="82.5" r="215.5" fill="url(#paint0_linear_173_1305)"/>
</g>
<defs>
<linearGradient id="paint0_linear_173_1305" x1="194.5" y1="298" x2="194.5" y2="-133" gradientUnits="userSpaceOnUse">
<stop stop-color="#A60707"/>
<stop offset="1" stop-color="#FE5959"/>
</linearGradient>
<clipPath id="clip0_173_1305">
<rect width="390" height="844" fill="white"/>
</clipPath>
</defs>
</svg>
