<svg width="390" height="844" viewBox="0 0 390 844" fill="none" xmlns="http://www.w3.org/2000/svg">
<g clip-path="url(#clip0_159_247)">
<rect width="390" height="844" fill="white"/>
<g opacity="0.2">
<mask id="mask0_159_247" style="mask-type:luminance" maskUnits="userSpaceOnUse" x="-1" y="0" width="391" height="845">
<path d="M-0.00012207 844.197L390 844.197L390 0L-0.00012207 0L-0.00012207 844.197Z" fill="white"/>
</mask>
<g mask="url(#mask0_159_247)">
<path d="M600.737 289.394C600.202 318.687 583.019 340.16 566.543 354.747C481.106 430.385 375.642 434.24 279.284 402.668C251.311 393.503 223.683 381.546 195.375 375.288C99.9297 354.192 1.87093 400.051 -79.9173 478.819C-97.3993 495.656 -114.527 514.327 -127.447 539.095C-148.791 580.013 -157.621 635.532 -183.101 670.368V888.912H600.737V289.394Z" fill="#C62C2C"/>
</g>
</g>
<path d="M249.67 474.723H281.833" stroke="#153246" stroke-width="0.800154" stroke-miterlimit="10" stroke-linecap="round" stroke-linejoin="round"/>
<path d="M265.461 466V650.776" stroke="#153246" stroke-width="0.800154" stroke-miterlimit="10" stroke-linecap="round" stroke-linejoin="round"/>
<path d="M291.894 478.708H291.895L289.905 476.859C289.605 476.579 289.209 476.424 288.798 476.424H285.324C285.555 476.072 285.683 475.647 285.664 475.191C285.616 474.055 284.704 473.19 283.568 473.197C282.422 473.204 281.496 474.135 281.496 475.281C281.496 475.703 281.622 476.096 281.837 476.424H279.096C278.728 476.424 278.371 476.548 278.084 476.777L275.92 478.496C273.91 478.986 272.417 480.798 272.417 482.96V502.466C272.417 505.003 274.474 507.06 277.012 507.06C277.31 507.06 277.552 507.302 277.552 507.601V508.766H289.61V507.601C289.61 507.303 289.852 507.06 290.151 507.06C292.688 507.06 294.745 505.003 294.745 502.466V482.96C294.745 481.04 293.566 479.395 291.894 478.708ZM284.489 475.462C284.42 475.827 284.126 476.121 283.762 476.189C283.11 476.313 282.549 475.752 282.672 475.1C282.741 474.736 283.035 474.442 283.399 474.373C284.051 474.249 284.613 474.81 284.489 475.462Z" fill="white"/>
<path d="M277.529 478.366C277.7 478.366 289.837 478.366 289.837 478.366" stroke="#17252F" stroke-width="0.426749" stroke-miterlimit="10" stroke-linecap="round" stroke-linejoin="round"/>
<path d="M292.26 502.647C292.26 503.78 291.337 504.703 290.203 504.703H276.957C275.823 504.703 274.901 503.781 274.901 502.647V484.719C274.914 484.269 279.103 485.492 279.384 485.562C282.959 486.453 287.133 486.063 290.236 483.957C290.824 483.557 292.387 482.439 292.395 481.618C292.396 481.618 292.26 502.647 292.26 502.647Z" fill="#E51F53"/>
<path d="M286.247 508.766H280.794V510.127H286.247V508.766Z" fill="white"/>
<path d="M286.247 511.281H280.794V512.641H286.247V511.281Z" fill="white"/>
<path d="M278.136 507.385C278.136 507.385 283.926 508.899 288.946 507.385" stroke="white" stroke-width="0.426749" stroke-miterlimit="10" stroke-linecap="round" stroke-linejoin="round"/>
<path d="M284.665 490.877L284.661 488.196L282.411 488.199L282.414 490.88L279.734 490.884L279.737 493.135L282.418 493.13L282.422 495.811L284.672 495.808L284.668 493.127L287.349 493.123L287.345 490.873L284.665 490.877Z" fill="white"/>
<path d="M279.567 502.883H276.699C276.699 502.883 276.699 481.592 276.699 481.162H278.886" stroke="#17252F" stroke-width="0.426749" stroke-miterlimit="10" stroke-linecap="round" stroke-linejoin="round"/>
<path d="M276.7 483.025H278.85" stroke="#17252F" stroke-width="0.426749" stroke-miterlimit="10" stroke-linecap="round" stroke-linejoin="round"/>
<path d="M276.7 485.248H278.85" stroke="#17252F" stroke-width="0.426749" stroke-miterlimit="10" stroke-linecap="round" stroke-linejoin="round"/>
<path d="M276.7 487.47H278.85" stroke="#17252F" stroke-width="0.426749" stroke-miterlimit="10" stroke-linecap="round" stroke-linejoin="round"/>
<path d="M276.7 489.692H278.85" stroke="#17252F" stroke-width="0.426749" stroke-miterlimit="10" stroke-linecap="round" stroke-linejoin="round"/>
<path d="M276.7 491.915H278.85" stroke="#17252F" stroke-width="0.426749" stroke-miterlimit="10" stroke-linecap="round" stroke-linejoin="round"/>
<path d="M276.7 494.137H278.85" stroke="#17252F" stroke-width="0.426749" stroke-miterlimit="10" stroke-linecap="round" stroke-linejoin="round"/>
<path d="M276.7 496.359H278.85" stroke="#17252F" stroke-width="0.426749" stroke-miterlimit="10" stroke-linecap="round" stroke-linejoin="round"/>
<path d="M276.7 498.582H278.85" stroke="#17252F" stroke-width="0.426749" stroke-miterlimit="10" stroke-linecap="round" stroke-linejoin="round"/>
<path d="M276.7 500.804H278.85" stroke="#17252F" stroke-width="0.426749" stroke-miterlimit="10" stroke-linecap="round" stroke-linejoin="round"/>
<path d="M287.475 510.127H279.607V511.28H287.475V510.127Z" fill="#153246"/>
<path d="M143.129 474.723H110.965" stroke="#153246" stroke-width="0.800154" stroke-miterlimit="10" stroke-linecap="round" stroke-linejoin="round"/>
<path d="M127.338 466V650.776" stroke="#153246" stroke-width="0.800154" stroke-miterlimit="10" stroke-linecap="round" stroke-linejoin="round"/>
<path d="M117.531 478.708H117.532L115.542 476.859C115.242 476.579 114.846 476.424 114.435 476.424H110.962C111.193 476.072 111.32 475.647 111.301 475.191C111.253 474.055 110.342 473.19 109.205 473.197C108.06 473.204 107.134 474.135 107.134 475.281C107.134 475.703 107.26 476.096 107.475 476.424H104.733C104.366 476.424 104.009 476.548 103.722 476.777L101.558 478.496C99.5474 478.986 98.0548 480.798 98.0548 482.96V502.466C98.0548 505.003 100.112 507.06 102.649 507.06C102.947 507.06 103.19 507.302 103.19 507.601V508.766H115.248V507.601C115.248 507.303 115.49 507.06 115.788 507.06C118.326 507.06 120.383 505.003 120.383 502.466V482.96C120.381 481.04 119.203 479.395 117.531 478.708ZM110.126 475.462C110.057 475.827 109.763 476.121 109.399 476.189C108.747 476.313 108.186 475.752 108.31 475.1C108.379 474.736 108.672 474.442 109.037 474.373C109.689 474.249 110.25 474.81 110.126 475.462Z" fill="white"/>
<path d="M103.165 478.366C103.337 478.366 115.474 478.366 115.474 478.366" stroke="#17252F" stroke-width="0.426749" stroke-miterlimit="10" stroke-linecap="round" stroke-linejoin="round"/>
<path d="M117.897 502.647C117.897 503.78 116.974 504.703 115.84 504.703H102.595C101.461 504.703 100.538 503.781 100.538 502.647V484.719C100.551 484.269 104.741 485.492 105.021 485.562C108.596 486.453 112.77 486.063 115.873 483.957C116.461 483.557 118.024 482.439 118.032 481.618L117.897 502.647Z" fill="#E51F53"/>
<path d="M111.884 508.766H106.431V510.127H111.884V508.766Z" fill="white"/>
<path d="M111.884 511.281H106.431V512.641H111.884V511.281Z" fill="white"/>
<path d="M103.773 507.385C103.773 507.385 109.563 508.899 114.583 507.385" stroke="white" stroke-width="0.426749" stroke-miterlimit="10" stroke-linecap="round" stroke-linejoin="round"/>
<path d="M110.302 490.877L110.298 488.196L108.047 488.199L108.052 490.88L105.371 490.884L105.374 493.135L108.055 493.13L108.059 495.811L110.31 495.808L110.305 493.127L112.986 493.123L112.983 490.873L110.302 490.877Z" fill="white"/>
<path d="M105.204 502.883H102.336C102.336 502.883 102.336 481.592 102.336 481.162H104.523" stroke="#17252F" stroke-width="0.426749" stroke-miterlimit="10" stroke-linecap="round" stroke-linejoin="round"/>
<path d="M102.336 483.025H104.487" stroke="#17252F" stroke-width="0.426749" stroke-miterlimit="10" stroke-linecap="round" stroke-linejoin="round"/>
<path d="M102.336 485.248H104.487" stroke="#17252F" stroke-width="0.426749" stroke-miterlimit="10" stroke-linecap="round" stroke-linejoin="round"/>
<path d="M102.336 487.47H104.487" stroke="#17252F" stroke-width="0.426749" stroke-miterlimit="10" stroke-linecap="round" stroke-linejoin="round"/>
<path d="M102.336 489.692H104.487" stroke="#17252F" stroke-width="0.426749" stroke-miterlimit="10" stroke-linecap="round" stroke-linejoin="round"/>
<path d="M102.336 491.915H104.487" stroke="#17252F" stroke-width="0.426749" stroke-miterlimit="10" stroke-linecap="round" stroke-linejoin="round"/>
<path d="M102.336 494.137H104.487" stroke="#17252F" stroke-width="0.426749" stroke-miterlimit="10" stroke-linecap="round" stroke-linejoin="round"/>
<path d="M102.336 496.359H104.487" stroke="#17252F" stroke-width="0.426749" stroke-miterlimit="10" stroke-linecap="round" stroke-linejoin="round"/>
<path d="M102.336 498.582H104.487" stroke="#17252F" stroke-width="0.426749" stroke-miterlimit="10" stroke-linecap="round" stroke-linejoin="round"/>
<path d="M102.336 500.804H104.487" stroke="#17252F" stroke-width="0.426749" stroke-miterlimit="10" stroke-linecap="round" stroke-linejoin="round"/>
<path d="M113.113 510.127H105.245V511.28H113.113V510.127Z" fill="#153246"/>
<path d="M308.884 657.602H283.094V716.163H308.884V657.602Z" fill="#FCF0F6"/>
<path d="M300.23 638.743L230.952 638.888L246.843 645.788L317.408 645.681L300.23 638.743Z" fill="#E2B5D1"/>
<path d="M300.23 638.743L230.952 638.888L246.843 645.788L317.408 645.681L300.23 638.743Z" fill="white"/>
<path d="M241.78 656.146L227.669 649.209C225.181 647.054 224.911 643.29 227.067 640.801C229.222 638.313 232.216 638.394 235.475 640.198L249.586 646.128C252.074 648.283 252.344 653.056 250.188 655.544C248.033 658.032 245.824 657.602 241.78 656.146Z" fill="white"/>
<path d="M361.401 537.704H346.796C342.447 537.704 338.524 540.32 336.853 544.334L300.23 638.743L317.627 645.787L361.401 537.704Z" fill="white"/>
<path d="M292.996 705.245H246.209C244.102 705.245 242.394 703.537 242.394 701.431C242.394 699.323 244.102 697.616 246.209 697.616H292.996C295.103 697.616 296.811 699.324 296.811 701.431C296.81 703.537 295.102 705.245 292.996 705.245Z" fill="#E2B5D1"/>
<path d="M321.068 657.602H247.965C244.673 657.602 242.004 654.933 242.004 651.641C242.004 648.349 244.673 645.68 247.965 645.68H321.068C324.36 645.68 327.029 648.349 327.029 651.641C327.029 654.933 324.36 657.602 321.068 657.602Z" fill="#E2B5D1"/>
<path d="M366.667 545.435L326.538 653.938C325.382 656.828 322.102 658.234 319.212 657.078C316.322 655.922 314.915 652.643 316.071 649.752L356.2 541.25C357.355 538.359 360.635 536.953 363.526 538.109C366.416 539.265 367.823 542.545 366.667 545.435Z" fill="#E2B5D1"/>
<path d="M300.234 657.602H277.604V716.163H300.234V657.602Z" fill="white"/>
<path d="M311.416 657.602H271.19V663.403H311.416V657.602Z" fill="#153246"/>
<path d="M322.629 722.614H257.502C257.502 719.082 260.365 716.219 263.896 716.219H320.079C321.487 716.219 322.629 717.361 322.629 718.769V722.614Z" fill="#153246"/>
<path d="M266.946 614.617L285.18 609.803L286.308 615.084L268.737 618.649L266.946 614.617Z" fill="#FBBC9C"/>
<path d="M266.946 614.617C266.946 614.617 258.544 610.906 255.681 619.979C257.246 620.825 259.138 620.146 260.915 620.233C260.915 620.233 265.239 619.108 268.736 618.649L270.265 615.097L266.946 614.617Z" fill="#FBBC9C"/>
<path d="M300.23 575.727C300.23 575.727 297.038 576.372 296.02 578.621L283.095 609.049L266.121 613.728L266.822 619.531L287.156 616.858L300.23 575.727Z" fill="#E2B5D1"/>
<path d="M332.135 557.784L328.338 590.525L299.153 580.295L305.015 550.561C305.592 547.636 307.807 545.32 310.669 544.664C311.737 544.419 313.024 544.217 314.575 544.095L332.135 557.784Z" fill="#17252F"/>
<path d="M323.152 545.534C323.152 545.534 319.431 542.137 311.135 544.784C303.566 547.2 308.125 553.33 308.125 553.33L323.152 545.534Z" fill="#17252F"/>
<path d="M331.732 559.708C330.11 566.246 323.106 570.377 316.199 568.925C309.292 567.473 304.816 560.952 306.202 554.36C307.588 547.767 314.311 543.601 321.218 545.053C328.125 546.505 334.066 550.299 331.732 559.708Z" fill="#17252F"/>
<path d="M308.977 560.6C308.099 562.201 306.089 562.788 304.487 561.91C302.885 561.032 302.299 559.022 303.177 557.42C304.055 555.819 306.065 555.232 307.666 556.11C309.268 556.989 309.855 558.999 308.977 560.6Z" fill="#EA9671"/>
<path d="M311.371 567.97L308.666 582.386L319.183 583.99L321.502 562.425L311.371 567.97Z" fill="#FBBC9C"/>
<path d="M310.429 572.989C310.429 572.989 317.586 573.21 318.563 566.512L311.24 568.649L310.429 572.989Z" fill="#EA9671"/>
<path d="M309.312 547.631C308.351 548.149 307.627 549.009 307.199 550.01C305.928 552.975 303.565 558.175 303.97 561.692C304.497 566.265 307.33 570.026 313.163 570.139C313.163 570.139 320.027 570.874 323.199 562.651C328.253 549.551 317.545 543.194 309.312 547.631Z" fill="#FBBC9C"/>
<path d="M308.06 558.911L307.247 560.209C307.171 560.378 307.241 560.576 307.406 560.66L308.173 560.975" stroke="#17252F" stroke-width="0.533436" stroke-miterlimit="10" stroke-linecap="round" stroke-linejoin="round"/>
<path d="M315.208 552.816C315.208 552.816 312.548 551.746 312.133 552.986C312.133 552.986 311.873 553.831 314.211 554.713C316.549 555.596 317.528 555.737 317.992 555.008C318.457 554.28 316.491 553.208 315.208 552.816Z" fill="#17252F"/>
<path d="M307.119 551.346C307.119 551.346 309.211 551.33 309.286 552.401C309.286 552.401 309.321 553.13 307.493 553.094C306.162 553.067 305.731 552.746 305.698 552.256C305.659 551.674 306.342 551.289 307.119 551.346Z" fill="#17252F"/>
<path d="M306.303 561.772L311.969 563.031C311.969 563.031 311.335 565.46 308.706 564.907C306.092 564.358 306.303 561.772 306.303 561.772Z" fill="#17252F"/>
<mask id="mask1_159_247" style="mask-type:luminance" maskUnits="userSpaceOnUse" x="306" y="561" width="6" height="4">
<path d="M306.303 561.772L311.969 563.031C311.969 563.031 311.335 565.46 308.706 564.907C306.092 564.358 306.303 561.772 306.303 561.772Z" fill="white"/>
</mask>
<g mask="url(#mask1_159_247)">
<path d="M311.33 567.106C310.657 568.013 309.377 568.204 308.469 567.531C307.562 566.859 307.371 565.578 308.044 564.671C308.716 563.764 309.997 563.573 310.904 564.245C311.811 564.917 312.002 566.198 311.33 567.106Z" fill="#E2B5D1"/>
</g>
<mask id="mask2_159_247" style="mask-type:luminance" maskUnits="userSpaceOnUse" x="306" y="561" width="6" height="4">
<path d="M306.303 561.772L311.969 563.031C311.969 563.031 311.335 565.46 308.706 564.907C306.092 564.358 306.303 561.772 306.303 561.772Z" fill="white"/>
</mask>
<g mask="url(#mask2_159_247)">
<path d="M305.758 562.456L312.207 563.802L312.437 562.712L306.04 561.12L305.758 562.456Z" fill="white"/>
</g>
<path d="M313.843 558.116C313.713 558.552 313.254 558.8 312.819 558.67C312.383 558.54 312.135 558.081 312.265 557.645C312.394 557.21 312.853 556.962 313.289 557.092C313.724 557.222 313.972 557.68 313.843 558.116Z" fill="#17252F"/>
<path d="M307.086 556.776C306.956 557.212 306.497 557.46 306.061 557.33C305.626 557.2 305.378 556.741 305.508 556.306C305.637 555.87 306.096 555.622 306.532 555.752C306.968 555.882 307.216 556.34 307.086 556.776Z" fill="#17252F"/>
<path d="M323.173 560.84C323.173 560.84 314.065 552.48 313.812 546.269C313.812 546.269 317.964 542.665 324.48 549.792C330.996 556.919 323.173 560.84 323.173 560.84Z" fill="#17252F"/>
<path d="M327.249 565.206C326.242 567.042 323.937 567.715 322.101 566.708C320.264 565.701 319.592 563.396 320.599 561.56C321.605 559.723 323.91 559.051 325.747 560.058C327.584 561.065 328.256 563.37 327.249 565.206Z" fill="#FBBC9C"/>
<path d="M325.826 562.651C325.826 562.651 323.487 561.285 322.399 563.956" stroke="#17252F" stroke-width="0.533436" stroke-miterlimit="10" stroke-linecap="round" stroke-linejoin="round"/>
<path d="M242.735 684.347H231.177C232.05 682.672 232.598 680.682 232.874 678.626L233.547 666.997L243.242 662.157C243.242 662.157 242.045 677.206 242.735 684.347Z" fill="#FBBC9C"/>
<path d="M242.927 683.144C242.927 683.144 235.476 686.208 232.063 681.205L216.681 690.606L245.121 690.742L242.927 683.144Z" fill="#139AC3"/>
<path d="M216.662 693.312L245.103 693.448L245.121 690.742L216.681 690.606L216.662 693.312Z" fill="white"/>
<path d="M232.192 685.396C232.112 685.361 232.041 685.305 231.986 685.23C230.844 683.641 229.686 682.849 229.675 682.841C229.446 682.687 229.388 682.38 229.545 682.155C229.702 681.929 230.019 681.878 230.243 682.025C230.296 682.061 231.554 682.915 232.808 684.659C232.968 684.882 232.914 685.19 232.688 685.348C232.537 685.452 232.349 685.464 232.192 685.396Z" fill="white"/>
<path d="M229.727 686.633C229.648 686.598 229.576 686.542 229.522 686.467C228.379 684.878 227.221 684.087 227.209 684.079C226.981 683.924 226.923 683.617 227.08 683.392C227.237 683.167 227.554 683.112 227.777 683.262C227.831 683.298 229.089 684.152 230.343 685.896C230.503 686.119 230.449 686.427 230.223 686.585C230.072 686.689 229.884 686.701 229.727 686.633Z" fill="white"/>
<path d="M227.263 687.869C227.183 687.834 227.112 687.778 227.057 687.704C225.915 686.114 224.757 685.323 224.745 685.315C224.517 685.161 224.459 684.854 224.616 684.629C224.772 684.404 225.089 684.349 225.313 684.499C225.367 684.534 226.624 685.388 227.879 687.132C228.039 687.355 227.985 687.664 227.758 687.821C227.608 687.926 227.42 687.938 227.263 687.869Z" fill="white"/>
<path d="M306.022 619.999C306.022 619.999 310.725 637.999 291.869 644.423C289.724 645.154 287.446 645.441 285.182 645.349L253.008 644.039L250.64 675.162L228.162 673.451L229.502 639.517C229.502 639.517 227.835 622.248 242.596 620.887L293.858 615.235L306.022 619.999Z" fill="#139AC3"/>
<path opacity="0.2" d="M306.022 619.999C306.022 619.999 310.725 637.999 291.869 644.423C289.724 645.154 287.446 645.441 285.182 645.349L253.008 644.039L250.64 675.162L228.162 673.451L229.502 639.517C229.502 639.517 227.835 622.248 242.596 620.887L293.858 615.235L306.022 619.999Z" fill="#139AC3"/>
<path d="M248.545 620.338L283.973 616.067" stroke="white" stroke-width="0.533436" stroke-miterlimit="10" stroke-linecap="round" stroke-linejoin="round"/>
<path d="M253.009 644.039L244.627 643.401" stroke="white" stroke-width="0.533436" stroke-miterlimit="10" stroke-linecap="round" stroke-linejoin="round"/>
<path d="M261.66 687.061H248.341C249.428 685.413 250.01 683.417 250.211 681.377L250.239 671.343L260.436 666.339C260.436 666.339 259.969 682.198 261.66 687.061Z" fill="#FBBC9C"/>
<path d="M260.939 684.433C260.939 684.433 254.103 688.698 249.904 684.335L236.307 696.172L264.371 691.558L260.939 684.433Z" fill="#139AC3"/>
<path d="M236.741 698.844L264.804 694.229L264.371 691.557L236.307 696.172L236.741 698.844Z" fill="white"/>
<path d="M250.731 688.445C250.646 688.424 250.566 688.381 250.5 688.316C249.108 686.94 247.835 686.353 247.822 686.347C247.571 686.233 247.462 685.94 247.58 685.691C247.696 685.443 247.999 685.339 248.245 685.447C248.304 685.473 249.687 686.105 251.215 687.615C251.41 687.808 251.408 688.121 251.211 688.315C251.081 688.442 250.897 688.486 250.731 688.445Z" fill="white"/>
<path d="M248.507 690.076C248.423 690.055 248.343 690.012 248.277 689.947C246.885 688.571 245.611 687.984 245.599 687.978C245.348 687.865 245.239 687.571 245.356 687.323C245.473 687.075 245.777 686.967 246.022 687.078C246.081 687.104 247.463 687.736 248.992 689.246C249.186 689.439 249.185 689.752 248.987 689.946C248.857 690.074 248.673 690.117 248.507 690.076Z" fill="white"/>
<path d="M246.284 691.707C246.2 691.686 246.12 691.643 246.054 691.578C244.662 690.202 243.387 689.615 243.375 689.61C243.124 689.496 243.015 689.203 243.132 688.954C243.249 688.706 243.552 688.599 243.798 688.71C243.857 688.735 245.24 689.367 246.768 690.877C246.963 691.07 246.961 691.383 246.764 691.577C246.634 691.705 246.45 691.749 246.284 691.707Z" fill="white"/>
<path d="M316.548 618.306C316.548 618.306 322.602 635.897 304.289 643.733C302.205 644.625 299.956 645.084 297.691 645.164L265.511 646.299V677.512H242.968L241.73 643.574C241.73 643.574 238.757 626.481 253.372 624.004L304.057 614.479L316.548 618.306Z" fill="#139AC3"/>
<path d="M259.262 623.005L294.263 616.058" stroke="white" stroke-width="0.533436" stroke-miterlimit="10" stroke-linecap="round" stroke-linejoin="round"/>
<path d="M265.511 646.299H257.105" stroke="white" stroke-width="0.533436" stroke-miterlimit="10" stroke-linecap="round" stroke-linejoin="round"/>
<path d="M307.723 575.744C307.723 575.744 300.343 574.244 297.898 577.057C295.453 579.87 286.427 609.423 286.427 609.423L319.043 626.733C319.043 626.733 336.973 593.317 332.798 585.96C329.38 579.937 323.421 578.826 323.421 578.826L307.723 575.744Z" fill="#E2B5D1"/>
<path d="M307.723 575.744C307.723 575.744 300.343 574.244 297.898 577.057C295.453 579.87 286.427 609.423 286.427 609.423L319.043 626.733C319.043 626.733 336.973 593.317 332.798 585.96C329.38 579.937 323.421 578.826 323.421 578.826L307.723 575.744Z" fill="#E2B5D1"/>
<path d="M295.213 583.493L290.207 601.174" stroke="white" stroke-width="0.533436" stroke-miterlimit="10" stroke-linecap="round" stroke-linejoin="round"/>
<path d="M309.851 576.11C309.851 576.11 309.027 579.268 313.227 580.366C317.427 581.463 319.82 578.067 319.82 578.067L309.851 576.11Z" fill="#FBBC9C"/>
<path d="M80.6101 716.163H106.4L106.4 657.602H80.6101V716.163Z" fill="#FCF0F6"/>
<path d="M89.2644 638.743L158.542 638.888L142.652 645.788L72.0862 645.681L89.2644 638.743Z" fill="#E2B5D1"/>
<path d="M89.2644 638.743L158.542 638.888L142.652 645.788L72.0862 645.681L89.2644 638.743Z" fill="white"/>
<path d="M147.715 656.146L161.825 649.209C164.313 647.054 164.583 643.29 162.428 640.801C160.273 638.313 157.279 638.394 154.02 640.198L139.909 646.128C137.42 648.283 137.15 653.056 139.306 655.544C141.462 658.032 143.67 657.602 147.715 656.146Z" fill="white"/>
<path d="M28.0931 537.704H42.6986C47.0477 537.704 50.9701 540.32 52.6419 544.334L89.2644 638.743L71.868 645.787L28.0931 537.704Z" fill="white"/>
<path d="M96.4989 705.245H143.285C145.393 705.245 147.1 703.537 147.1 701.431C147.1 699.323 145.392 697.616 143.285 697.616H96.4989C94.3918 697.616 92.6837 699.324 92.6837 701.431C92.6842 703.537 94.3923 705.245 96.4989 705.245Z" fill="#E2B5D1"/>
<path d="M68.4262 657.602H141.529C144.821 657.602 147.49 654.933 147.49 651.641C147.49 648.349 144.821 645.68 141.529 645.68H68.4262C65.1344 645.68 62.4656 648.349 62.4656 651.641C62.4656 654.933 65.1344 657.602 68.4262 657.602Z" fill="#E2B5D1"/>
<path d="M22.8275 545.435L62.9564 653.938C64.1123 656.828 67.3919 658.234 70.2826 657.078C73.1727 655.922 74.5794 652.643 73.4234 649.752L33.2946 541.25C32.1392 538.359 28.8591 536.953 25.9684 538.109C23.0783 539.265 21.6721 542.545 22.8275 545.435Z" fill="#E2B5D1"/>
<path d="M89.2604 716.163H111.89L111.89 657.602H89.2604V716.163Z" fill="white"/>
<path d="M78.0783 663.403H118.304V657.602H78.0783V663.403Z" fill="#153246"/>
<path d="M66.8658 722.614H131.993C131.993 719.082 129.13 716.219 125.598 716.219H69.4151C68.0074 716.219 66.8658 717.361 66.8658 718.769V722.614Z" fill="#153246"/>
<path d="M61.1221 564.897L66.9088 571.464L67.12 565.76L61.1221 564.897Z" fill="#17252F"/>
<path d="M78.0016 560.565C78.8381 562.214 80.8534 562.874 82.5028 562.037C84.1522 561.201 84.8115 559.185 83.9751 557.536C83.1386 555.887 81.1233 555.227 79.4739 556.064C77.8245 556.9 77.1652 558.915 78.0016 560.565Z" fill="#EA9671"/>
<path d="M77.2989 567.643L81.1076 582.386L68.9367 583.543L65.3392 561.579L77.2989 567.643Z" fill="#FBBC9C"/>
<path d="M78.9107 573.869C78.9107 573.869 70.0679 574.301 67.6434 566.885L77.4016 568.003L78.9107 573.869Z" fill="#EA9671"/>
<path d="M73.445 546.116C76.652 546.531 79.3112 548.799 80.4229 551.836C81.7031 555.333 83.4405 560.815 83.0122 563.823C82.3502 568.474 79.309 571.87 73.3874 571.766C73.3874 571.766 66.6991 572.612 63.2926 563.066C59.2614 551.77 66.2425 545.183 73.445 546.116Z" fill="#FBBC9C"/>
<path d="M78.6039 558.573L79.5737 560.109C79.6878 560.324 79.5987 560.59 79.379 560.693L78.6322 561.043" stroke="#17252F" stroke-width="0.533436" stroke-miterlimit="10" stroke-linecap="round" stroke-linejoin="round"/>
<path d="M71.5307 553.916C71.5307 553.916 73.7343 552.846 74.1744 554.068C74.1744 554.068 74.455 554.902 72.5149 555.784C70.5748 556.665 69.7469 556.809 69.2994 556.093C68.8518 555.376 70.4601 554.308 71.5307 553.916Z" fill="#17252F"/>
<path d="M80.1814 551.795C80.1814 551.795 77.8988 551.73 77.9335 553.013C77.9335 553.013 77.974 553.887 79.9632 553.884C81.412 553.882 81.8468 553.506 81.8292 552.918C81.8089 552.221 81.0232 551.743 80.1814 551.795Z" fill="#17252F"/>
<path d="M73.2549 558.832C73.4299 559.263 73.9212 559.471 74.3528 559.296C74.7843 559.121 74.9918 558.629 74.8168 558.198C74.6419 557.767 74.1501 557.559 73.719 557.734C73.2875 557.909 73.08 558.401 73.2549 558.832Z" fill="#17252F"/>
<path d="M79.5167 556.967C79.6917 557.399 80.183 557.607 80.6145 557.432C81.0461 557.257 81.2536 556.765 81.0786 556.334C80.9037 555.902 80.4118 555.695 79.9808 555.87C79.5498 556.045 79.3418 556.536 79.5167 556.967Z" fill="#17252F"/>
<path d="M80.2689 562.326L75.588 564.128C75.588 564.128 76.5103 566.142 78.9081 565.139C81.3059 564.136 80.2689 562.326 80.2689 562.326Z" fill="white"/>
<path d="M66.2966 562.296C66.2966 562.296 66.7223 556.929 64.413 551.791C64.413 551.791 74.3195 551.228 78.5832 548.582C78.5832 548.582 75.229 541.887 64.6606 545.463C50.1884 550.361 57.3327 565.019 66.1974 565.925L66.2966 562.296Z" fill="#17252F"/>
<path d="M59.4716 565.732C60.4867 567.733 62.932 568.533 64.934 567.518C66.936 566.503 67.7356 564.058 66.7205 562.056C65.7053 560.054 63.2601 559.254 61.2581 560.269C59.2566 561.284 58.457 563.73 59.4716 565.732Z" fill="#FBBC9C"/>
<path d="M61.0848 563.044C61.0848 563.044 63.8694 561.682 65.2211 564.772" stroke="#17252F" stroke-width="0.533436" stroke-miterlimit="10" stroke-linecap="round" stroke-linejoin="round"/>
<path d="M121.589 614.617L101.801 609.803L100.576 615.084L119.645 618.649L121.589 614.617Z" fill="#EA9671"/>
<path d="M121.588 614.617C121.588 614.617 130.706 610.906 133.813 619.979C132.115 620.825 130.062 620.146 128.133 620.233C128.133 620.233 123.439 619.108 119.645 618.649L117.986 615.097L121.588 614.617Z" fill="#EA9671"/>
<path d="M100.575 597.594L106.168 611.838L100.575 615.084C100.575 615.084 94.9192 596.778 100.575 597.594Z" fill="#EA9671"/>
<path d="M146.76 684.347H158.318C157.445 682.672 156.897 680.681 156.62 678.626L155.948 666.997L146.253 662.157C146.253 662.157 147.451 677.206 146.76 684.347Z" fill="#FBBC9C"/>
<path d="M83.4723 619.999C83.4723 619.999 78.7701 637.998 97.6254 644.423C99.7709 645.153 102.048 645.44 104.313 645.349L136.486 644.039L138.855 675.161L161.333 673.451L159.993 639.517C159.993 639.517 161.66 622.248 146.898 620.886L95.6368 615.235L83.4723 619.999Z" fill="#17252F"/>
<path d="M140.95 620.338L105.522 616.067" stroke="white" stroke-width="0.533436" stroke-miterlimit="10" stroke-linecap="round" stroke-linejoin="round"/>
<path d="M136.486 644.038L144.868 643.4" stroke="white" stroke-width="0.533436" stroke-miterlimit="10" stroke-linecap="round" stroke-linejoin="round"/>
<path d="M156.463 681.887L170.925 690.362C171.868 690.963 172.276 692.131 171.911 693.188L145.15 690.441L147.142 680.818L156.463 681.887Z" fill="white"/>
<path d="M144.38 693.261L171.956 696.091L172.251 693.213L144.676 690.383L144.38 693.261Z" fill="#17252F"/>
<path d="M148.86 685.562C148.748 686.87 149.717 688.021 151.024 688.134C152.332 688.247 153.483 687.278 153.596 685.971C153.709 684.663 152.74 683.512 151.433 683.399C150.125 683.286 148.974 684.255 148.86 685.562Z" stroke="#17252F" stroke-width="0.781964" stroke-miterlimit="10" stroke-linecap="round" stroke-linejoin="round"/>
<path d="M161.455 683.687L159.17 685.328" stroke="#17252F" stroke-width="0.781964" stroke-miterlimit="10" stroke-linecap="round" stroke-linejoin="round"/>
<path d="M163.318 684.836L161.019 686.487" stroke="#17252F" stroke-width="0.781964" stroke-miterlimit="10" stroke-linecap="round" stroke-linejoin="round"/>
<path d="M165.277 686.112L162.876 687.837" stroke="#17252F" stroke-width="0.781964" stroke-miterlimit="10" stroke-linecap="round" stroke-linejoin="round"/>
<path d="M127.834 687.06H141.154C140.066 685.413 139.484 683.417 139.283 681.377L139.256 671.343L129.058 666.339C129.058 666.339 129.526 682.198 127.834 687.06Z" fill="#FBBC9C"/>
<path d="M72.9471 618.305C72.9471 618.305 66.8926 635.897 85.206 643.733C87.2896 644.625 89.5386 645.083 91.8036 645.163L123.984 646.299V677.511H146.527L147.765 643.574C147.765 643.574 150.738 626.481 136.123 624.004L85.4375 614.479L72.9471 618.305Z" fill="#153246"/>
<path d="M130.233 623.005L95.2313 616.058" stroke="white" stroke-width="0.533436" stroke-miterlimit="10" stroke-linecap="round" stroke-linejoin="round"/>
<path d="M123.984 646.298H132.389" stroke="white" stroke-width="0.533436" stroke-miterlimit="10" stroke-linecap="round" stroke-linejoin="round"/>
<path d="M138.201 684.125L152.105 694.077C153.007 694.774 153.313 695.999 152.845 697.038L125.915 691.765L128.832 682.174L138.201 684.125Z" fill="white"/>
<path d="M124.887 694.549L152.636 699.984L153.204 697.087L125.454 691.653L124.887 694.549Z" fill="#17252F"/>
<path d="M130.136 687.153C129.901 688.471 130.778 689.731 132.096 689.966C133.414 690.202 134.673 689.325 134.909 688.007C135.145 686.689 134.268 685.43 132.95 685.194C131.632 684.958 130.373 685.835 130.136 687.153Z" stroke="#17252F" stroke-width="0.797647" stroke-miterlimit="10" stroke-linecap="round" stroke-linejoin="round"/>
<path d="M143.105 686.417L140.631 687.872" stroke="#17252F" stroke-width="0.797647" stroke-miterlimit="10" stroke-linecap="round" stroke-linejoin="round"/>
<path d="M144.89 687.757L142.401 689.221" stroke="#17252F" stroke-width="0.797647" stroke-miterlimit="10" stroke-linecap="round" stroke-linejoin="round"/>
<path d="M146.762 689.234L144.162 690.763" stroke="#17252F" stroke-width="0.797647" stroke-miterlimit="10" stroke-linecap="round" stroke-linejoin="round"/>
<path d="M91.5964 577.057C91.5964 577.057 98.4532 580.961 102.311 597.594L95.2313 601.038L91.5964 577.057Z" fill="#139AC3"/>
<path d="M81.7723 575.744C81.7723 575.744 89.1524 574.244 91.5971 577.057C94.0419 579.87 105.523 616.066 105.523 616.066L70.4517 626.732C70.4517 626.732 52.5219 593.317 56.6971 585.96C60.1153 579.937 66.0738 578.826 66.0738 578.826L81.7723 575.744Z" fill="#139AC3"/>
<path opacity="0.3" d="M81.7723 575.744C81.7723 575.744 89.1524 574.244 91.5971 577.057C94.0419 579.87 105.523 616.066 105.523 616.066L70.4517 626.732C70.4517 626.732 52.5219 593.317 56.6971 585.96C60.1153 579.937 66.0738 578.826 66.0738 578.826L81.7723 575.744Z" fill="#139AC3"/>
<path d="M94.2814 583.493L99.2871 601.174" stroke="white" stroke-width="0.533436" stroke-miterlimit="10" stroke-linecap="round" stroke-linejoin="round"/>
<path d="M79.6424 576.11C79.6424 576.11 80.6357 580.001 75.7409 581.311C70.846 582.621 68.0199 578.421 68.0199 578.421L79.6424 576.11Z" fill="#FBBC9C"/>
<path d="M77.8638 620.959L64.6185 603.721L73.0804 593.441L83.643 610.929L77.8638 620.959Z" fill="#FBBC9C"/>
<path d="M61.6883 589.202C60.0939 593.383 59.5674 600.729 65.0655 612.756L81.8421 606.601L79.065 596.154C77.7351 591.151 73.9184 587.189 68.9692 585.673C65.9915 584.761 62.7979 586.293 61.6883 589.202Z" fill="#139AC3"/>
<path d="M116.681 618.51C119.842 618.51 122.404 615.948 122.404 612.787C122.404 609.626 119.842 607.064 116.681 607.064C113.52 607.064 110.958 609.626 110.958 612.787C110.958 615.948 113.52 618.51 116.681 618.51Z" fill="#139AC3"/>
<path d="M111.503 614.226L81.2987 610.715C78.72 610.629 76.3046 614.773 76.2561 617.352C76.2022 620.221 78.7467 622.447 81.583 622.01L111.332 620L111.503 614.226Z" fill="#FBBC9C"/>
<path d="M111.112 622.097C107.979 620.879 106.427 617.352 107.645 614.219C108.864 611.086 112.391 609.534 115.524 610.752C118.657 611.971 120.209 615.498 118.99 618.63C117.773 621.763 114.245 623.315 111.112 622.097Z" fill="#FBBC9C"/>
<path d="M118.822 613.834C118.822 613.834 120.545 611.659 117.666 610.277C114.787 608.895 110.304 608.701 107.645 614.218L118.822 613.834Z" fill="#FBBC9C"/>
<path d="M272.954 613.877C276.115 613.877 278.677 611.315 278.677 608.154C278.677 604.993 276.115 602.431 272.954 602.431C269.793 602.431 267.23 604.993 267.23 608.154C267.23 611.315 269.793 613.877 272.954 613.877Z" fill="#139AC3"/>
<path d="M273.166 620.408C276.545 621.187 279.915 619.079 280.694 615.7C281.472 612.322 279.364 608.951 275.986 608.173C272.607 607.394 269.237 609.502 268.459 612.881C267.68 616.259 269.788 619.63 273.166 620.408Z" fill="#FBBC9C"/>
<path d="M271.384 608.889C271.384 608.889 271.177 606.034 274.434 606.525C277.691 607.017 281.627 609.452 280.693 615.7L271.384 608.889Z" fill="#FBBC9C"/>
<path d="M279.816 609.889H300.274L301.845 619.645L279.182 617.992L279.816 609.889Z" fill="#FBBC9C"/>
<path d="M299.054 607.621L311.369 607.278C316.015 607.096 319.795 610.975 319.493 615.614C319.214 619.914 315.514 623.18 311.213 622.925L300.987 622.249L299.054 607.621Z" fill="#E2B5D1"/>
<path d="M310.124 588.025L302.2 610.892C300.688 616.301 304.149 621.839 309.673 622.853C314.614 623.76 319.413 620.682 320.65 615.812L328.296 592.872C329.624 587.648 326.297 582.379 321.009 581.331C316.19 580.377 311.447 583.293 310.124 588.025Z" fill="#E2B5D1"/>
<path d="M299.054 607.621L303.178 607.392L310.124 588.025" stroke="white" stroke-width="0.533436" stroke-miterlimit="10" stroke-linecap="round" stroke-linejoin="round"/>
<path d="M303.178 607.392L307.301 607.335" stroke="white" stroke-width="0.533436" stroke-miterlimit="10" stroke-linecap="round" stroke-linejoin="round"/>
<path d="M283.215 510.922C287.082 520.728 280.762 531.377 274.497 539.854C268.231 548.331 261.351 558.341 264.101 568.518C266.478 577.313 275.262 582.723 279.844 590.597C283.615 597.077 290.684 605.967 288.04 612.982" stroke="#E51F53" stroke-width="1.06687" stroke-miterlimit="10" stroke-linecap="round" stroke-linejoin="round"/>
<path d="M288.793 612.229H281.563V614.037H288.793V612.229Z" fill="white"/>
<path d="M109.083 512.091C109.045 528.818 115.378 545.518 125.004 559.198C129.107 565.029 134.211 570.967 134.172 578.096C134.12 587.369 125.557 594.031 117.802 599.114C110.046 604.197 84.8571 612.38 99.7912 616.657" stroke="#E51F53" stroke-width="1.06687" stroke-miterlimit="10" stroke-linecap="round" stroke-linejoin="round"/>
<path d="M106.579 615.856H99.792V617.459H106.579V615.856Z" fill="white"/>
<path d="M203.874 653.748C203.874 653.748 201.741 653.669 201.842 657.728C201.944 661.788 201.842 667.775 201.842 667.775H203.874V660.762L209.961 667.775H230.866C230.866 667.775 229.749 663.919 219.905 664.02L203.874 653.748Z" fill="#153246"/>
<path d="M203.874 653.748V642.116L212.333 640.232L210.792 653.748L220.792 664.109H216.191C214.038 664.109 211.968 663.311 210.375 661.862C208.226 659.905 205.332 656.894 203.874 653.748Z" fill="#CA7856"/>
<path d="M207.84 514.661C207.84 514.661 221.186 530.48 216.888 572.763L213.452 649.334H202.607L195.488 514.661H207.84Z" fill="#139AC3"/>
<path d="M178.246 662.682L190.395 654.959C190.395 654.959 191.833 654.889 192.17 660.495V667.736H190.433V662.682L188.487 667.736H172.53C172.53 667.736 171.665 664.325 178.246 662.682Z" fill="#153246"/>
<path d="M192.333 636.079L190.395 654.959H184.003L183.404 634.766L192.333 636.079Z" fill="#CA7856"/>
<path d="M184.34 652.17L178.246 662.682H184.581C187.862 662.682 190.502 659.986 190.432 656.705L190.395 654.959L184.34 652.17Z" fill="#CA7856"/>
<path d="M184.144 514.661C184.144 514.661 172.471 529.554 176.769 571.837L181.551 649.334H193.583L200.713 514.661H184.144Z" fill="#139AC3"/>
<path d="M205.469 540.541L198.954 546.402L198.046 565.033" stroke="#17252F" stroke-width="0.60374" stroke-miterlimit="10" stroke-linecap="round" stroke-linejoin="round"/>
<path d="M182.205 436.361V457.776H208.19V435.629L182.205 436.361Z" fill="#17252F"/>
<path d="M184.103 442.248C184.103 442.248 182.05 440.654 180.551 442.547C178.271 445.424 182.26 450.635 185.729 447.952L184.103 442.248Z" fill="#CA7856"/>
<path d="M182.026 444.18C182.026 444.18 183.174 443.819 184.415 446.237" stroke="#17252F" stroke-width="0.60374" stroke-miterlimit="10" stroke-linecap="round" stroke-linejoin="round"/>
<path d="M206.113 442.248C206.113 442.248 208.166 440.654 209.665 442.547C211.945 445.424 207.956 450.635 204.487 447.952L206.113 442.248Z" fill="#CA7856"/>
<path d="M208.19 444.18C208.19 444.18 207.042 443.819 205.801 446.237" stroke="#17252F" stroke-width="0.60374" stroke-miterlimit="10" stroke-linecap="round" stroke-linejoin="round"/>
<path d="M195.18 449.611C202.432 449.611 208.312 443.877 208.312 436.805C208.312 429.733 202.432 424 195.18 424C187.927 424 182.048 429.733 182.048 436.805C182.048 443.877 187.927 449.611 195.18 449.611Z" fill="#17252F"/>
<path d="M191.047 453.858L189.954 465.217H199.463L198.391 453.711L191.047 453.858Z" fill="#CA7856"/>
<path d="M191.695 454.773C191.985 454.939 198.984 460.072 198.984 460.072L198.39 453.71L191.695 454.773Z" fill="#B75F41"/>
<path d="M183.59 435.839C183.59 435.839 183.656 455.62 194.726 455.62C207.736 455.62 206.371 435.85 206.371 435.85C206.371 435.85 206.298 426.948 195.127 426.948C184.885 426.947 183.59 435.839 183.59 435.839Z" fill="#CA7856"/>
<path d="M183.221 437.75C183.221 437.75 190.701 436.006 190.536 426.199C190.536 426.199 182.026 429.263 183.221 437.75Z" fill="#17252F"/>
<path d="M189.377 426.199C189.377 426.199 188.782 432.356 197.244 434.294C206.995 436.527 206.995 440.615 206.995 440.615C206.995 440.615 209.869 430.833 202.416 426.947C194.962 423.06 189.377 426.199 189.377 426.199Z" fill="#17252F"/>
<path d="M191.043 442.48C191.041 443.004 190.615 443.427 190.091 443.425C189.568 443.423 189.145 442.997 189.147 442.474C189.148 441.95 189.575 441.527 190.098 441.529C190.622 441.531 191.045 441.957 191.043 442.48Z" fill="#17252F"/>
<path d="M200.345 442.514C200.344 443.037 199.917 443.46 199.394 443.458C198.87 443.457 198.447 443.03 198.449 442.507C198.451 441.983 198.877 441.56 199.4 441.562C199.924 441.564 200.347 441.989 200.345 442.514Z" fill="#17252F"/>
<path d="M194.444 444.234L194.328 446.698L195.686 446.703" stroke="#17252F" stroke-width="0.60374" stroke-miterlimit="10" stroke-linecap="round" stroke-linejoin="round"/>
<path d="M197.139 437.545C197.139 437.545 196.86 438.566 198.448 438.589C199.653 438.606 201.121 438.919 201.815 439.067C202.21 439.151 202.633 438.998 202.82 438.706C202.971 438.471 202.938 438.193 202.726 437.999C202.298 437.605 200.713 436.701 199.248 436.666C197.366 436.619 197.139 437.545 197.139 437.545Z" fill="#17252F"/>
<path d="M192.293 437.57C192.293 437.57 192.572 438.591 190.985 438.613C189.78 438.63 188.312 438.943 187.617 439.091C187.223 439.175 186.799 439.022 186.613 438.731C186.462 438.495 186.495 438.217 186.706 438.023C187.134 437.629 188.718 436.726 190.184 436.689C192.066 436.644 192.293 437.57 192.293 437.57Z" fill="#17252F"/>
<path d="M191.912 449.094C191.912 449.094 193.314 450.807 196.605 449.821" stroke="#17252F" stroke-width="0.60374" stroke-miterlimit="10" stroke-linecap="round" stroke-linejoin="round"/>
<path d="M228.633 554.984L232.365 563.282C232.572 563.742 233.102 563.961 233.574 563.782C234.053 563.6 234.302 563.073 234.14 562.588L232.756 558.444L228.633 554.984Z" fill="#FBBC9C"/>
<path d="M225.775 540.867C224.377 540.738 223.148 541.789 223.06 543.191L222.917 545.462C222.917 545.462 221.547 550.027 223.825 554.017C225.248 556.51 225.761 558.313 225.946 559.314C226.042 559.835 226.492 560.214 227.022 560.199H227.027C227.586 560.183 228.04 559.739 228.057 559.18C228.089 558.099 228.024 556.258 227.429 554.314L234.724 562.743C235.036 563.123 235.609 563.147 235.951 562.794C236.193 562.545 236.253 562.172 236.101 561.86L230.33 550.174C230.33 550.174 228.668 545.604 227.952 542.72C227.698 541.699 226.824 540.964 225.775 540.867Z" fill="#CA7856"/>
<path d="M219.518 517.923L227.882 542.532L223.7 544.735L213.158 523.117L219.518 517.923Z" fill="#CA7856"/>
<path d="M211.143 469.864C211.143 469.864 214.246 469.981 215.625 479.321C217.003 488.662 217.741 502.631 217.741 502.631L226.415 531.329L214.4 536.803L205.801 497.773L211.143 469.864Z" fill="white"/>
<path d="M189.954 465.217L179.451 469.864L171.97 481.724L181.607 501.299L173.955 539.909L198.099 535.165L202.964 518.405L200.713 484.705L189.954 465.217Z" fill="white"/>
<path d="M199.464 465.217L211.143 469.865L211.196 470.146C212.597 477.668 212.677 485.377 211.434 492.927L209.399 505.293L217.742 538.127L207.445 534.828L202.965 518.405L200.714 484.705L199.464 465.217Z" fill="white"/>
<path d="M189.955 465.217L200.713 484.705L199.463 465.217H189.955Z" fill="#17252F"/>
<path d="M200.713 484.705L202.965 518.405" stroke="#17252F" stroke-width="0.60374" stroke-miterlimit="10" stroke-linecap="round" stroke-linejoin="round"/>
<path d="M212.306 481.724C212.306 481.724 213.724 489.765 209.398 505.292L217.093 535.577" stroke="#17252F" stroke-width="0.60374" stroke-miterlimit="10" stroke-linecap="round" stroke-linejoin="round"/>
<path d="M189.77 465.426L182.804 473.318L189.327 474.961L187.777 480.057L200.713 484.705" stroke="#17252F" stroke-width="0.60374" stroke-miterlimit="10" stroke-linecap="round" stroke-linejoin="round"/>
<path d="M199.686 465.426L206.412 471.755L202.964 474.03L206.711 477.997L200.713 484.705" stroke="#17252F" stroke-width="0.60374" stroke-miterlimit="10" stroke-linecap="round" stroke-linejoin="round"/>
<path d="M179.451 469.864C179.451 469.864 168.211 473.795 148.949 499.109L156.598 509.72L181.936 485.17L179.451 469.864Z" fill="white"/>
<path d="M172.784 485.473L162.521 523.327L188.777 529.776L199.282 492.537L172.784 485.473Z" fill="#FFC639"/>
<path d="M165.801 504.965L184.255 514.596L181.696 519.923L163.339 513.613L165.801 504.965Z" fill="#CA7856"/>
<path d="M183.634 513.142C183.634 513.142 196.013 510.884 195.552 515.338C195.091 519.791 192.879 530.306 181.696 519.923L183.634 513.142Z" fill="#CA7856"/>
<path d="M182.06 514.67L184.905 511.85C185.87 510.813 187.124 510.09 188.505 509.774L191.063 509.189C191.676 509.049 192.305 509.347 192.586 509.911C192.891 510.526 192.69 511.272 192.117 511.651L188.437 514.085L182.06 514.67Z" fill="#CA7856"/>
<path d="M157.531 498.26L175.334 508.494L171.785 518.351L150.77 509.909C147.077 508.09 145.858 503.418 148.191 500.027C150.292 496.974 154.461 496.186 157.531 498.26Z" fill="white"/>
<path d="M164.874 502.311L157.531 498.26" stroke="#FFE1F1" stroke-width="0.573432" stroke-miterlimit="10" stroke-linecap="round" stroke-linejoin="round"/>
<path d="M328.961 135.579C324.542 150.15 309.147 158.38 294.576 153.961C280.005 149.542 271.775 134.147 276.194 119.576C280.613 105.005 296.008 96.7749 310.579 101.194C325.15 105.613 333.38 121.008 328.961 135.579Z" fill="#C62C2C"/>
<path d="M284.843 140.869L280.5 154.828C280.247 155.642 281.06 156.38 281.846 156.049L303.851 146.782L284.843 140.869Z" fill="#C62C2C"/>
<path d="M318.342 130.913C320.025 122.148 314.284 113.678 305.519 111.995C296.754 110.311 288.284 116.052 286.601 124.817C284.917 133.583 290.658 142.053 299.424 143.736C308.189 145.419 316.659 139.678 318.342 130.913Z" fill="#FFC639"/>
<path d="M297.186 125.64C297.186 126.411 296.561 127.035 295.791 127.035C295.021 127.035 294.396 126.41 294.396 125.64C294.396 124.87 295.021 124.245 295.791 124.245C296.561 124.245 297.186 124.87 297.186 125.64Z" fill="#17252F"/>
<path d="M309.851 125.64C309.851 126.411 309.227 127.035 308.456 127.035C307.685 127.035 307.061 126.41 307.061 125.64C307.061 124.87 307.686 124.245 308.456 124.245C309.226 124.245 309.851 124.87 309.851 125.64Z" fill="#17252F"/>
<path d="M297.084 131.234C297.084 131.234 298.266 134.131 302.698 134.131C307.131 134.131 308.214 131.234 308.214 131.234" stroke="#17252F" stroke-width="1.6191" stroke-miterlimit="10" stroke-linecap="round" stroke-linejoin="round"/>
<path d="M87.1853 96.3223C91.5723 110.788 106.855 118.958 121.322 114.571C135.788 110.184 143.958 94.9003 139.571 80.4343C135.184 65.9683 119.9 57.7983 105.434 62.1853C90.9683 66.5723 82.7983 81.8563 87.1853 96.3223Z" fill="#C62C2C"/>
<path d="M130.984 101.574L135.296 115.432C135.547 116.24 134.74 116.973 133.96 116.644L112.113 107.444L130.984 101.574Z" fill="#C62C2C"/>
<path d="M118.733 79.2673C113.748 79.2673 113.379 82.3143 113.379 82.3143C113.379 82.3143 113.009 79.2673 108.025 79.2673C103.04 79.2673 101.286 84.9903 102.578 88.4073C103.573 91.0383 109.446 96.7923 112.09 99.2963C112.814 99.9823 113.944 99.9823 114.669 99.2963C117.313 96.7923 123.185 91.0393 124.181 88.4073C125.47 84.9903 123.718 79.2673 118.733 79.2673Z" fill="white"/>
</g>
<defs>
<clipPath id="clip0_159_247">
<rect width="390" height="844" fill="white"/>
</clipPath>
</defs>
</svg>
