<svg width="390" height="299" viewBox="0 0 390 299" fill="none" xmlns="http://www.w3.org/2000/svg">
<path d="M335.717 271.683C335.614 271.435 335.484 271.197 335.325 270.976C334.569 269.919 333.265 269.352 331.972 269.352C331.068 269.352 330.171 269.629 329.47 270.206C332.464 266.151 337.094 248.179 322.866 240.258C316.83 236.898 311.283 235.611 306.476 235.611C297.083 235.611 290.511 240.523 288.599 244.476C287.576 240.381 283.987 236.981 280.406 234.926V63.6216C280.406 58.7607 276.465 54.8204 271.604 54.8204H248.679C247.517 53.3784 245.735 52.4569 243.737 52.4569H206.129C206.129 49.6704 206.129 44.3768 206.129 42.6529C206.129 37.6709 202.09 33.6331 197.108 33.6331C192.249 33.6331 188.286 37.4758 188.096 42.2888C188.096 42.2906 188.096 42.2924 188.096 42.2942C188.096 42.3005 188.095 42.3068 188.095 42.3132C188.095 42.3159 188.095 42.3177 188.095 42.3204C188.094 42.3267 188.094 42.333 188.094 42.3385C188.094 42.3412 188.094 42.3439 188.094 42.3457C188.093 42.3583 188.093 42.371 188.092 42.3836C188.092 42.3854 188.092 42.3872 188.092 42.3881C188.092 42.3926 188.092 42.3981 188.092 42.4026C188.092 42.4071 188.092 42.4107 188.091 42.4152C188.091 42.4189 188.091 42.4243 188.091 42.4288C188.091 42.4333 188.091 42.4369 188.091 42.4414C188.091 42.446 188.091 42.4505 188.09 42.455C188.09 42.4595 188.09 42.4649 188.09 42.4695C188.09 42.4731 188.09 42.4776 188.09 42.4812C188.09 42.4875 188.09 42.4938 188.089 42.4993C188.089 42.5029 188.089 42.5065 188.089 42.5101C188.089 42.5182 188.089 42.5255 188.089 42.5345C188.089 42.5372 188.089 42.5408 188.089 42.5435C188.089 42.549 188.089 42.5553 188.089 42.5607C188.089 42.5643 188.088 42.5679 188.088 42.5715C188.088 42.5779 188.088 42.5833 188.088 42.5887C188.088 42.5923 188.088 42.5959 188.088 42.5986C188.088 42.605 188.088 42.6104 188.088 42.6167C188.088 42.6194 188.088 42.623 188.088 42.6258C188.088 42.6348 188.088 42.6438 188.088 42.6529V52.4569H147.053C145.061 52.4569 143.28 53.3775 142.117 54.8204H119.189C114.328 54.8204 110.388 58.7607 110.388 63.6216V211.588C96.784 193.605 87.214 172.578 83.1581 150.397L81.9194 150.623C86.1171 173.55 96.138 195.242 110.388 213.66V230.977C108.902 232.42 107.809 234.18 107.342 236.263C106.686 239.188 106.915 243.07 104.146 244.219C103.703 244.402 103.263 244.482 102.825 244.482C100.576 244.482 98.3633 242.399 96.0359 241.619C95.473 241.43 94.9002 241.342 94.3319 241.342C90.2209 241.342 86.3087 245.923 87.6811 249.989C88.3913 252.094 90.173 253.927 90.0248 256.144C89.8468 258.81 86.9149 260.349 84.1746 260.349C83.8123 260.349 83.4527 260.321 83.1039 260.267C80.1151 259.798 77.4769 258.053 74.545 257.307C73.8465 257.129 73.0993 257.036 72.3521 257.036C69.9615 257.036 67.5717 257.987 66.7874 260.153C65.8649 262.703 67.4569 266.128 65.4547 267.957C64.5964 268.739 63.355 268.901 62.1994 269.011C58.3306 269.378 54.4042 269.796 50.5342 270.255C42.9427 270.298 37.4881 270.326 34.7903 270.326C14.8251 270.326 -14.5115 268.8 -8.92667 250.737C-0.692697 224.108 45.4764 212.318 37.9335 191.775C31.0929 173.146 43.6782 156.731 60.8643 142.971C78.0858 129.182 96.8933 131.956 88.9207 94.6048C79.9706 52.6701 110.685 54.1419 128.119 37.9112C153.597 14.1905 166.489 0.720886 194.435 0.0233765C195.05 0.00802612 195.669 -0.00012207 196.304 -0.00012207C235.652 -0.00012207 311.313 29.4471 321.106 66.3312C325.637 83.3958 325.337 103.412 341.946 113.932C349.236 118.549 357.401 120.544 365.592 123.447C382.26 129.354 389.188 142.233 388.997 154.878C388.529 185.796 367.266 186.722 373.955 210.717C378.626 227.473 394.066 236.057 388.092 252.557C382.845 267.051 358.558 270.986 335.717 271.683ZM332.299 137.864L320.854 201.235L329.005 202.707L340.008 141.783L340.013 141.784L340.454 139.343L340.449 139.342L340.45 139.337L341.667 132.598C341.678 132.536 341.684 132.474 341.684 132.411C341.685 131.91 341.327 131.464 340.815 131.371L334.743 130.275C334.679 130.263 334.616 130.257 334.554 130.257C334.052 130.257 333.608 130.616 333.516 131.127L332.299 137.864ZM197.108 47.8291C194.314 47.8291 192.048 45.564 192.048 42.7685C192.048 40.2044 193.955 38.0865 196.427 37.7531C196.402 37.764 196.375 37.7739 196.348 37.7847C196.599 37.7468 196.848 37.7079 197.108 37.7079C197.452 37.7079 197.788 37.7423 198.113 37.8073C200.427 38.2735 202.17 40.3173 202.17 42.7685C202.17 44.3081 201.3 45.8341 200.216 46.762C200.217 46.762 200.217 46.762 200.218 46.762C199.36 47.4306 198.281 47.8291 197.108 47.8291Z" fill="#EEFAFE"/>
<path d="M395.553 202.996C381.182 236.444 353.476 263.763 320.271 278.567L320.784 279.716C354.273 264.781 382.202 237.25 396.709 203.492L395.553 202.996Z" fill="#CAEEFC"/>
<path d="M385.037 223.631C388.001 217.779 388.764 210.843 387.143 204.486C386.745 202.928 386.076 201.247 384.618 200.567C384.218 200.379 383.754 200.282 383.333 200.416C382.654 200.631 382.288 201.357 382.065 202.032C380.88 205.615 381.628 209.539 382.718 213.15C383.81 216.762 384.148 219.611 385.037 223.631Z" fill="#CAEEFC"/>
<path d="M374.947 237.713C378.605 232.267 380.21 225.477 379.378 218.969C379.175 217.374 378.715 215.624 377.352 214.77C376.978 214.536 376.528 214.383 376.095 214.464C375.394 214.594 374.943 215.27 374.638 215.913C373.025 219.324 373.287 223.309 373.928 227.027C374.57 230.745 374.557 233.615 374.947 237.713Z" fill="#CAEEFC"/>
<path d="M363.353 250.052C367.01 244.606 368.615 237.816 367.783 231.308C367.58 229.713 367.12 227.963 365.758 227.109C365.383 226.874 364.934 226.722 364.499 226.802C363.8 226.933 363.348 227.609 363.044 228.252C361.43 231.662 361.692 235.648 362.333 239.366C362.975 243.084 362.961 245.954 363.353 250.052Z" fill="#CAEEFC"/>
<path d="M345.985 264.292C350.186 259.255 352.487 252.667 352.333 246.108C352.296 244.501 352.02 242.712 350.753 241.722C350.405 241.45 349.974 241.251 349.533 241.286C348.824 241.344 348.305 241.969 347.936 242.577C345.978 245.802 345.825 249.794 346.078 253.558C346.33 257.323 346.02 260.175 345.985 264.292Z" fill="#CAEEFC"/>
<path d="M332.378 273.388C336.512 268.903 339.181 262.646 339.747 256.118C339.885 254.518 339.839 252.71 338.858 251.572C338.589 251.259 338.241 251.009 337.86 250.99C337.247 250.96 336.736 251.517 336.355 252.076C334.335 255.037 333.781 258.98 333.598 262.747C333.415 266.514 332.846 269.307 332.378 273.388Z" fill="#CAEEFC"/>
<path d="M381.602 228.672C388.256 229.769 395.434 228.392 401.417 224.87C402.884 224.008 404.403 222.841 404.714 221.215C404.799 220.768 404.778 220.286 404.535 219.916C404.143 219.322 403.319 219.187 402.581 219.176C398.671 219.119 394.912 221.045 391.557 223.212C388.202 225.378 385.42 226.578 381.602 228.672Z" fill="#CAEEFC"/>
<path d="M373.449 239.328C379.649 241.981 386.949 242.358 393.599 240.367C395.229 239.878 396.984 239.109 397.673 237.604C397.863 237.19 397.957 236.716 397.81 236.3C397.572 235.629 396.803 235.302 396.089 235.115C392.306 234.125 388.195 235.099 384.421 236.402C380.645 237.704 377.657 238.205 373.449 239.328Z" fill="#CAEEFC"/>
<path d="M361.271 251.754C366.815 255.595 373.892 257.424 380.806 256.803C382.501 256.651 384.374 256.248 385.35 254.911C385.62 254.544 385.806 254.099 385.745 253.662C385.646 252.956 384.958 252.482 384.296 252.156C380.787 250.429 376.565 250.561 372.606 251.082C368.646 251.604 365.618 251.497 361.271 251.754Z" fill="#CAEEFC"/>
<path d="M344.235 266.105C350.492 268.62 357.799 268.834 364.403 266.695C366.021 266.171 367.759 265.362 368.415 263.843C368.596 263.424 368.679 262.949 368.521 262.536C368.269 261.87 367.493 261.56 366.776 261.39C362.97 260.484 358.884 261.549 355.139 262.935C351.393 264.321 348.417 264.889 344.235 266.105Z" fill="#CAEEFC"/>
<path d="M330.46 274.33C334.915 279.392 341.343 282.872 348.203 283.936C349.885 284.196 351.799 284.257 353.07 283.194C353.418 282.902 353.708 282.516 353.754 282.076C353.828 281.368 353.275 280.742 352.71 280.267C349.72 277.745 345.591 276.856 341.623 276.408C337.654 275.96 334.741 275.127 330.46 274.33Z" fill="#CAEEFC"/>
<path d="M314.488 132.553C314.311 132.543 314.164 132.403 314.152 132.222L314.025 130.425C314.011 130.228 314.159 130.058 314.356 130.044C314.55 130.025 314.722 130.178 314.736 130.375L314.863 132.172C314.876 132.368 314.729 132.539 314.532 132.552L314.488 132.553Z" fill="#639FD7"/>
<path d="M322.561 214.224L317.811 214.558L312.526 137.978L314.901 137.811L317.276 137.645L322.561 214.224Z" fill="#CAEEFC"/>
<path d="M314.937 131.452L313.977 131.52L312.526 137.978L317.276 137.645L314.937 131.452Z" fill="#CAEEFC"/>
<path d="M81.9194 150.624C90.4088 196.992 122.709 238.299 165.662 257.719L166.181 256.572C123.618 237.339 91.5599 196.341 83.1581 150.397L81.9194 150.624Z" fill="#CAEEFC"/>
<path d="M84.677 160.17C80.6979 154.954 78.6858 148.273 79.1231 141.728C79.2306 140.123 79.5839 138.349 80.8922 137.414C81.2518 137.157 81.6909 136.977 82.13 137.032C82.8356 137.12 83.3272 137.767 83.6696 138.391C85.4865 141.698 85.4658 145.691 85.0501 149.442C84.6336 153.191 84.8197 156.056 84.677 160.17Z" fill="#CAEEFC"/>
<path d="M88.8087 172.858C87.2239 166.492 88.0262 159.56 91.0241 153.725C91.7586 152.295 92.7868 150.806 94.358 150.467C94.7899 150.374 95.2652 150.382 95.6455 150.607C96.2599 150.968 96.4533 151.757 96.5211 152.466C96.877 156.222 95.2742 159.88 93.4048 163.157C91.5364 166.435 90.5714 169.137 88.8087 172.858Z" fill="#CAEEFC"/>
<path d="M95.5036 188.835C93.1527 182.71 93.1012 175.733 95.3636 169.575C95.9175 168.065 96.7559 166.461 98.2747 165.934C98.6921 165.788 99.1638 165.739 99.5695 165.915C100.223 166.198 100.512 166.957 100.665 167.652C101.478 171.337 100.334 175.164 98.8801 178.645C97.4254 182.126 96.7984 184.927 95.5036 188.835Z" fill="#CAEEFC"/>
<path d="M104.056 203.448C101.705 197.324 101.654 190.346 103.916 184.188C104.47 182.679 105.308 181.075 106.827 180.547C107.244 180.401 107.717 180.353 108.121 180.529C108.775 180.812 109.064 181.571 109.217 182.266C110.03 185.951 108.886 189.777 107.432 193.259C105.977 196.741 105.35 199.541 104.056 203.448Z" fill="#CAEEFC"/>
<path d="M117.811 221.202C114.838 215.355 114.065 208.42 115.677 202.061C116.071 200.502 116.739 198.821 118.195 198.138C118.595 197.95 119.059 197.852 119.481 197.985C120.16 198.199 120.527 198.924 120.751 199.599C121.941 203.18 121.2 207.105 120.114 210.718C119.028 214.331 118.694 217.182 117.811 221.202Z" fill="#CAEEFC"/>
<path d="M129.047 233.103C126.018 227.81 124.811 221.115 125.715 214.626C125.937 213.034 126.386 211.282 127.594 210.391C127.926 210.146 128.321 209.98 128.697 210.047C129.302 210.155 129.675 210.811 129.922 211.441C131.23 214.777 130.892 218.745 130.231 222.458C129.57 226.171 129.501 229.02 129.047 233.103Z" fill="#CAEEFC"/>
<path d="M91.0331 178.538C84.301 178.124 77.6105 175.18 72.5635 170.414C71.3266 169.246 70.1051 167.77 70.1647 166.115C70.181 165.661 70.3102 165.195 70.6291 164.889C71.1432 164.397 71.9762 164.45 72.6981 164.604C76.5236 165.419 79.7573 168.135 82.5455 170.995C85.3338 173.855 87.7778 175.645 91.0331 178.538Z" fill="#CAEEFC"/>
<path d="M96.6042 190.743C89.9688 191.947 82.7687 190.686 76.7296 187.263C75.2497 186.423 73.711 185.282 73.374 183.66C73.2818 183.215 73.2954 182.732 73.5321 182.359C73.9134 181.758 74.7356 181.611 75.4738 181.588C79.3823 181.467 83.1717 183.332 86.5616 185.444C89.9516 187.555 92.7525 188.71 96.6042 190.743Z" fill="#CAEEFC"/>
<path d="M105.705 205.572C99.4439 208.08 92.1381 208.285 85.5361 206.138C83.9179 205.612 82.1823 204.802 81.5281 203.28C81.3483 202.863 81.2652 202.387 81.4224 201.974C81.6754 201.309 82.4515 201 83.1698 200.83C86.9754 199.929 91.0611 200.999 94.8053 202.389C98.5494 203.781 101.525 204.352 105.705 205.572Z" fill="#CAEEFC"/>
<path d="M119.113 223.36C112.452 224.416 105.282 222.996 99.3211 219.438C97.8592 218.566 96.3468 217.391 96.0459 215.763C95.9637 215.315 95.9881 214.834 96.2329 214.466C96.6278 213.873 97.4527 213.744 98.1908 213.738C102.102 213.703 105.848 215.652 109.19 217.839C112.533 220.026 115.307 221.242 119.113 223.36Z" fill="#CAEEFC"/>
<path d="M130.707 234.449C125.235 238.391 118.194 240.349 111.268 239.857C109.571 239.736 107.691 239.367 106.69 238.049C106.415 237.687 106.219 237.245 106.273 236.807C106.359 236.099 107.037 235.613 107.693 235.275C111.171 233.484 115.393 233.538 119.362 233.985C123.33 234.433 126.356 234.271 130.707 234.449Z" fill="#CAEEFC"/>
<path d="M-0.664244 215.589C1.40995 215.494 3.48486 215.447 5.55941 215.447C50.1484 215.443 94.4032 237.137 121.448 272.639L122.449 271.877C95.1467 236.05 50.555 214.192 5.55941 214.188C3.46616 214.188 1.37182 214.236 -0.721436 214.331L-0.664244 215.589Z" fill="#CAEEFC"/>
<path d="M9.2004 214.874C3.22413 212.167 -3.73815 211.708 -10.0183 213.605C-11.5578 214.07 -13.2078 214.813 -13.824 216.297C-13.9934 216.705 -14.0703 217.173 -13.9186 217.589C-13.674 218.258 -12.9335 218.591 -12.2485 218.784C-8.6182 219.812 -4.7303 218.895 -1.16983 217.647C2.39091 216.399 5.22315 215.937 9.2004 214.874Z" fill="#CAEEFC"/>
<path d="M22.4923 216.05C15.933 215.935 9.35928 218.274 4.34614 222.506C3.11764 223.543 1.89754 224.88 1.92048 226.487C1.92681 226.929 2.04183 227.39 2.34577 227.71C2.83565 228.227 3.64773 228.24 4.35355 228.146C8.09364 227.649 11.2987 225.265 14.0724 222.708C16.8464 220.15 19.2633 218.603 22.4923 216.05Z" fill="#CAEEFC"/>
<path d="M39.5648 218.985C33.0687 218.07 26.2585 219.587 20.7658 223.175C19.4194 224.054 18.045 225.231 17.8714 226.829C17.8237 227.268 17.8816 227.74 18.1438 228.095C18.567 228.668 19.3713 228.779 20.0832 228.773C23.8561 228.737 27.3286 226.762 30.3941 224.563C33.4601 222.364 36.0478 221.124 39.5648 218.985Z" fill="#CAEEFC"/>
<path d="M55.7259 224.035C49.2298 223.12 42.4196 224.637 36.9269 228.225C35.5805 229.104 34.2062 230.281 34.0325 231.88C33.9848 232.319 34.0427 232.791 34.3053 233.146C34.7281 233.719 35.5324 233.83 36.2447 233.823C40.0172 233.787 43.4897 231.813 46.5553 229.614C49.6212 227.415 52.209 226.175 55.7259 224.035Z" fill="#CAEEFC"/>
<path d="M76.1161 233.451C69.75 231.867 62.8191 232.672 56.9841 235.671C55.554 236.406 54.065 237.434 53.7268 239.006C53.6337 239.439 53.6429 239.913 53.867 240.294C54.228 240.907 55.0169 241.101 55.7255 241.168C59.4818 241.523 63.1399 239.92 66.4169 238.05C69.6939 236.18 72.3963 235.215 76.1161 233.451Z" fill="#CAEEFC"/>
<path d="M90.2372 241.727C84.3978 239.964 77.6034 240.292 71.4831 242.631C69.9823 243.204 68.3759 244.035 67.7787 245.413C67.6151 245.791 67.5419 246.213 67.691 246.565C67.9322 247.13 68.656 247.346 69.3246 247.446C72.8699 247.972 76.6602 246.75 80.1297 245.272C83.5991 243.793 86.3603 243.086 90.2372 241.727Z" fill="#CAEEFC"/>
<path d="M28.5268 216.941C26.6111 210.475 22.24 204.617 16.4614 200.769C15.045 199.826 13.333 198.967 11.7342 199.397C11.2945 199.515 10.8702 199.745 10.644 200.125C10.279 200.736 10.5183 201.537 10.8303 202.205C12.4838 205.75 15.8572 208.291 19.27 210.365C22.6833 212.439 24.9766 214.419 28.5268 216.941Z" fill="#CAEEFC"/>
<path d="M41.6714 219.628C41.3545 212.892 38.5084 206.159 33.8154 201.044C32.6652 199.79 31.2072 198.547 29.552 198.583C29.0971 198.593 28.6301 198.715 28.3195 199.029C27.8194 199.536 27.8607 200.37 28.004 201.094C28.7635 204.931 31.4327 208.204 34.252 211.032C37.0713 213.862 38.8257 216.332 41.6714 219.628Z" fill="#CAEEFC"/>
<path d="M58.1657 225.165C59.2034 218.502 57.7617 211.336 54.1868 205.384C53.3108 203.926 52.1309 202.416 50.5021 202.121C50.0543 202.04 49.5725 202.066 49.2051 202.312C48.6136 202.708 48.4872 203.533 48.4826 204.271C48.4597 208.183 50.4199 211.923 52.6162 215.259C54.8125 218.595 56.0376 221.366 58.1657 225.165Z" fill="#CAEEFC"/>
<path d="M78.5105 234.235C78.0443 227.507 75.0491 220.839 70.2434 215.829C69.0652 214.601 67.5807 213.392 65.9264 213.465C65.4719 213.485 65.0075 213.616 64.7039 213.938C64.2151 214.456 64.2757 215.289 64.4347 216.009C65.2795 219.828 68.0207 223.041 70.902 225.807C73.7833 228.572 75.5922 231.003 78.5105 234.235Z" fill="#CAEEFC"/>
<path d="M91.9205 243.042C94.5325 236.824 94.8605 229.522 92.824 222.886C92.3253 221.258 91.5437 219.51 90.0339 218.83C89.6192 218.643 89.1458 218.552 88.7302 218.702C88.0607 218.944 87.7381 219.715 87.5565 220.431C86.5916 224.221 87.5927 228.324 88.9208 232.091C90.249 235.857 90.7703 238.842 91.9205 243.042Z" fill="#CAEEFC"/>
<path d="M147.444 234.794C140.654 228.444 131.063 225.206 121.815 226.14C115.551 226.772 108.72 230.12 107.341 236.263C106.686 239.188 106.915 243.07 104.146 244.219C101.435 245.344 98.8177 242.552 96.0358 241.619C91.4035 240.066 86.1189 245.36 87.681 249.989C88.3912 252.094 90.1729 253.927 90.0247 256.144C89.8233 259.162 86.0927 260.736 83.1039 260.267C80.115 259.798 77.4768 258.053 74.5449 257.307C71.6139 256.561 67.8173 257.309 66.7873 260.154C65.8648 262.703 67.4568 266.128 65.4547 267.957C64.5963 268.74 63.3549 268.901 62.1993 269.012C36.8156 271.421 8.86041 275.975 11.7009 280.484C12.4773 281.717 14.4622 281.325 15.9187 281.302C69.9469 280.456 119.023 279.65 173.032 281.307L147.444 234.794Z" fill="#CAEEFC"/>
<path d="M299.361 149.928L315.378 212.733L312.331 213.51L292.514 151.674" fill="#99D6F4"/>
<path d="M276.801 121.012C271.652 122.325 268.884 128.968 270.631 135.819C272.379 142.672 277.991 147.178 283.139 145.866C288.287 144.553 291.054 137.909 289.307 131.057C287.56 124.205 281.949 119.699 276.801 121.012ZM284.54 151.361C276.362 153.447 267.657 147.103 265.136 137.221C262.616 127.339 267.221 117.602 275.399 115.517C283.578 113.43 292.282 119.774 294.802 129.656C297.323 139.538 292.719 149.275 284.54 151.361Z" fill="#A8E3FA"/>
<path d="M292.961 133.907C293.226 134.949 297.831 153.003 297.831 153.003C298.076 153.964 297.496 154.942 296.535 155.186C295.575 155.431 294.598 154.851 294.352 153.891L293.803 151.734C293.803 151.734 291.245 146.28 284.175 148.528C284.175 148.528 292.608 147.475 292.895 147.496C293.18 147.516 292.695 132.865 292.961 133.907Z" fill="#C8EDFC"/>
<path d="M297.235 157.934C294.762 158.564 292.236 157.066 291.606 154.592C291.606 154.592 291.314 153.089 290.729 152.259C289.813 150.959 287.945 150.47 284.527 151.341L283.662 146.513C285.459 145.939 286.751 145.072 288.196 145.174C288.97 145.079 289.613 145.002 290.151 144.939C290.145 143.46 290.117 141.509 290.094 140.014C290.072 138.426 292.133 136.64 292.128 135.499C292.121 133.452 290.021 131.384 292.561 131.043L295.061 130.712L300.578 152.303C301.209 154.777 299.709 157.303 297.235 157.934Z" fill="#A8E3FA"/>
<path d="M301.719 149.359L301.766 214.174L304.911 214.171L308.785 149.353" fill="#99D6F4"/>
<path d="M306.784 128.585C306.789 135.657 311.117 141.407 316.43 141.403C321.742 141.399 326.062 135.642 326.056 128.571C326.052 121.5 321.724 115.75 316.411 115.753C311.098 115.757 306.778 121.513 306.784 128.585ZM301.112 128.59C301.105 118.391 307.966 110.088 316.407 110.082C324.847 110.076 331.721 118.368 331.728 128.567C331.735 138.766 324.874 147.068 316.434 147.074C307.993 147.08 301.12 138.788 301.112 128.59Z" fill="#A8E3FA"/>
<path d="M303.95 132.252C303.951 133.327 303.965 151.959 303.965 151.959C303.966 152.951 304.77 153.753 305.761 153.753C306.752 153.752 307.555 152.948 307.554 151.956L307.553 149.731C307.553 149.731 308.678 143.813 316.085 144.239C316.085 144.239 307.655 145.308 307.382 145.4C307.11 145.491 303.949 131.176 303.95 132.252Z" fill="#C8EDFC"/>
<path d="M305.763 156.589C308.316 156.587 310.391 154.508 310.39 151.955C310.39 151.955 310.3 150.427 310.661 149.478C311.225 147.991 312.914 147.055 316.441 147.052L316.083 142.16C314.2 142.048 312.734 141.53 311.359 141.985C310.586 142.085 309.943 142.17 309.406 142.243C309.045 140.809 308.59 138.911 308.241 137.459C307.869 135.914 305.429 134.694 305.152 133.588C304.651 131.602 306.173 129.078 303.628 129.378L301.124 129.676L301.129 151.962C301.131 154.515 303.21 156.59 305.763 156.589Z" fill="#A8E3FA"/>
<path d="M329.005 202.708L320.854 201.236L333.516 131.127C333.619 130.552 334.169 130.171 334.743 130.275L340.815 131.372C341.389 131.476 341.771 132.025 341.667 132.599L329.005 202.708Z" fill="#99D6F4"/>
<path d="M340.45 139.337L332.299 137.864L333.516 131.127C333.619 130.552 334.169 130.171 334.743 130.275L340.815 131.372C341.389 131.475 341.771 132.025 341.667 132.599L340.45 139.337Z" fill="#F35D8D"/>
<path d="M340.013 141.784L340.008 141.784L340.449 139.342L340.454 139.343L340.013 141.784Z" fill="#A6CFEB"/>
<path d="M340.008 141.784L331.861 140.312L332.302 137.871L340.449 139.342L340.008 141.784Z" fill="#7DBCE9"/>
<path d="M335.39 218.784L322.087 213.541L350.455 141.569L363.757 146.812L335.39 218.784Z" fill="#CAEEFC"/>
<path d="M358.219 148.01L362.604 149.738L363.065 148.567L358.681 146.839" fill="#D2F0FA"/>
<path d="M356.746 151.748L361.131 153.476L361.592 152.305L357.208 150.577" fill="#D2F0FA"/>
<path d="M355.272 155.486L359.657 157.215L360.119 156.044L355.734 154.315" fill="#D2F0FA"/>
<path d="M351.655 158.379L358.184 160.952L358.645 159.782L352.116 157.208" fill="#D2F0FA"/>
<path d="M352.326 162.963L356.71 164.691L357.171 163.52L352.787 161.793" fill="#D2F0FA"/>
<path d="M350.852 166.702L355.237 168.43L355.698 167.259L351.314 165.531" fill="#D2F0FA"/>
<path d="M349.379 170.44L353.763 172.168L354.224 170.997L349.84 169.269" fill="#D2F0FA"/>
<path d="M345.76 173.333L352.29 175.906L352.752 174.736L346.222 172.162" fill="#D2F0FA"/>
<path d="M346.431 177.917L350.816 179.645L351.278 178.474L346.893 176.746" fill="#D2F0FA"/>
<path d="M344.959 181.656L349.343 183.383L349.804 182.212L345.42 180.485" fill="#D2F0FA"/>
<path d="M343.485 185.393L347.869 187.122L348.331 185.951L343.947 184.222" fill="#D2F0FA"/>
<path d="M339.866 188.286L346.395 190.86L346.857 189.69L340.328 187.115" fill="#D2F0FA"/>
<path d="M340.538 192.87L344.923 194.598L345.383 193.427L341 191.699" fill="#D2F0FA"/>
<path d="M339.064 196.609L343.449 198.337L343.911 197.166L339.526 195.438" fill="#D2F0FA"/>
<path d="M337.591 200.347L341.975 202.075L342.437 200.904L338.052 199.176" fill="#D2F0FA"/>
<path d="M333.973 203.241L340.502 205.814L340.963 204.643L334.434 202.07" fill="#D2F0FA"/>
<path d="M334.644 207.824L339.028 209.552L339.49 208.381L335.106 206.653" fill="#D2F0FA"/>
<path d="M333.171 211.562L337.554 213.29L338.016 212.119L333.632 210.392" fill="#D2F0FA"/>
<path d="M331.697 215.301L336.082 217.029L336.543 215.858L332.159 214.13" fill="#D2F0FA"/>
<path d="M345.112 284.49H278.779L267.637 184.142C267.495 182.866 268.495 181.75 269.779 181.75H354.113C355.397 181.75 356.396 182.866 356.255 184.142L345.112 284.49Z" fill="#A8E3FA"/>
<path d="M261.931 288.863C301.886 289.406 341.841 289.951 381.795 290.495C383.136 290.513 387.361 289.206 380.079 284.509C373.911 280.532 354.415 284.111 354.415 284.111C354.415 284.111 358.953 282.291 358.932 279.943C358.912 277.595 357.132 275.531 354.995 274.557C352.858 273.583 350.425 273.513 348.08 273.647C343.31 273.92 338.585 274.977 334.154 276.764C336.035 275.607 336.608 272.772 335.325 270.976C334.042 269.18 331.174 268.802 329.47 270.206C332.464 266.151 337.094 248.179 322.866 240.258C305.033 230.331 291.489 238.501 288.599 244.476C287.134 238.611 280.405 234.17 275.973 233.07C265.864 230.56 259.281 231.304 249.844 235.711C246.506 237.27 242.036 242.595 239.817 245.536C236.341 250.142 235.8 256.267 235.609 262.034C235.465 266.362 235.445 270.696 235.55 275.025L261.931 288.863Z" fill="#D2F0FA"/>
<path d="M195.397 299C145.756 299 105.515 297.321 105.515 295.25C105.515 294.674 108.623 294.129 114.176 293.641C115.599 294.63 117.326 295.208 119.189 295.208H271.604C273.467 295.208 275.195 294.63 276.618 293.641C282.171 294.129 285.279 294.674 285.279 295.25C285.279 297.321 245.038 299 195.397 299Z" fill="#DDF3F7"/>
<path d="M271.604 295.208H119.189C114.328 295.208 110.388 291.268 110.388 286.407V63.6217C110.388 58.7608 114.328 54.8207 119.189 54.8207H271.604C276.465 54.8207 280.406 58.7608 280.406 63.6217V286.407C280.406 291.268 276.465 295.208 271.604 295.208Z" fill="#4E86CE"/>
<path d="M120.242 285.78H270.552V64.2487H120.242V285.78Z" fill="#CAEEFC"/>
<path d="M126.022 279.012H264.772V71.016H126.022V279.012Z" fill="white"/>
<path d="M250.08 58.7996V67.8347H140.71V58.7996C140.71 58.14 140.809 57.5076 140.999 56.9112C141.803 54.3272 144.216 52.457 147.053 52.457H243.737C247.243 52.457 250.08 55.294 250.08 58.7996Z" fill="#E93654"/>
<path d="M250.08 67.8347H140.71V61.2933C140.71 59.5405 140.809 58.0948 140.999 56.9112C141.803 54.3272 144.216 52.457 147.053 52.457H147.83C146.158 54.0652 144.938 56.5227 144.938 59.0345V65.5759H250.08V67.8347Z" fill="#D0334B"/>
<path d="M187.039 94.5381H164.5C163.722 94.5381 163.09 93.9074 163.09 93.1286C163.09 92.3498 163.722 91.7182 164.5 91.7182H187.039C187.817 91.7182 188.448 92.3498 188.448 93.1286C188.448 93.9074 187.817 94.5381 187.039 94.5381Z" fill="#DEECF6"/>
<path d="M254.753 101.724H237.616C236.837 101.724 236.206 101.092 236.206 100.313C236.206 99.5344 236.837 98.9038 237.616 98.9038H254.753C255.532 98.9038 256.163 99.5344 256.163 100.313C256.163 101.092 255.532 101.724 254.753 101.724Z" fill="#DEECF6"/>
<path d="M230.19 101.724H164.5C163.722 101.724 163.09 101.092 163.09 100.313C163.09 99.5344 163.722 98.9038 164.5 98.9038H230.19C230.969 98.9038 231.601 99.5344 231.601 100.313C231.601 101.092 230.969 101.724 230.19 101.724Z" fill="#DEECF6"/>
<path d="M254.753 108.909H164.5C163.722 108.909 163.09 108.278 163.09 107.499C163.09 106.72 163.722 106.09 164.5 106.09H254.753C255.532 106.09 256.164 106.72 256.164 107.499C256.164 108.278 255.532 108.909 254.753 108.909Z" fill="#DEECF6"/>
<path d="M254.753 116.095H226.066C225.288 116.095 224.656 115.463 224.656 114.685C224.656 113.906 225.288 113.274 226.066 113.274H254.753C255.532 113.274 256.163 113.906 256.163 114.685C256.163 115.463 255.532 116.095 254.753 116.095Z" fill="#DEECF6"/>
<path d="M218.925 116.095H164.5C163.722 116.095 163.09 115.463 163.09 114.685C163.09 113.906 163.722 113.274 164.5 113.274H218.925C219.704 113.274 220.336 113.906 220.336 114.685C220.336 115.463 219.704 116.095 218.925 116.095Z" fill="#DEECF6"/>
<path d="M254.753 94.5381H194.435C193.656 94.5381 193.024 93.9074 193.024 93.1286C193.024 92.3498 193.656 91.7182 194.435 91.7182H254.753C255.532 91.7182 256.163 92.3498 256.163 93.1286C256.163 93.9074 255.532 94.5381 254.753 94.5381Z" fill="#DEECF6"/>
<path d="M187.039 146.192H164.5C163.722 146.192 163.09 145.56 163.09 144.782C163.09 144.003 163.722 143.372 164.5 143.372H187.039C187.817 143.372 188.448 144.003 188.448 144.782C188.448 145.56 187.817 146.192 187.039 146.192Z" fill="#DEECF6"/>
<path d="M254.753 153.377H237.616C236.837 153.377 236.206 152.746 236.206 151.967C236.206 151.188 236.837 150.557 237.616 150.557H254.753C255.532 150.557 256.163 151.188 256.163 151.967C256.163 152.746 255.532 153.377 254.753 153.377Z" fill="#DEECF6"/>
<path d="M230.19 153.377H164.5C163.722 153.377 163.09 152.746 163.09 151.967C163.09 151.188 163.722 150.557 164.5 150.557H230.19C230.969 150.557 231.601 151.188 231.601 151.967C231.601 152.746 230.969 153.377 230.19 153.377Z" fill="#DEECF6"/>
<path d="M254.753 160.563H164.5C163.722 160.563 163.09 159.931 163.09 159.153C163.09 158.374 163.722 157.742 164.5 157.742H254.753C255.532 157.742 256.164 158.374 256.164 159.153C256.164 159.931 255.532 160.563 254.753 160.563Z" fill="#DEECF6"/>
<path d="M254.753 167.748H226.066C225.288 167.748 224.656 167.117 224.656 166.338C224.656 165.56 225.288 164.928 226.066 164.928H254.753C255.532 164.928 256.163 165.56 256.163 166.338C256.163 167.117 255.532 167.748 254.753 167.748Z" fill="#DEECF6"/>
<path d="M218.925 167.748H164.5C163.722 167.748 163.09 167.117 163.09 166.338C163.09 165.56 163.722 164.928 164.5 164.928H218.925C219.704 164.928 220.336 165.56 220.336 166.338C220.336 167.117 219.704 167.748 218.925 167.748Z" fill="#DEECF6"/>
<path d="M254.753 146.192H194.435C193.656 146.192 193.024 145.56 193.024 144.782C193.024 144.003 193.656 143.372 194.435 143.372H254.753C255.532 143.372 256.163 144.003 256.163 144.782C256.163 145.56 255.532 146.192 254.753 146.192Z" fill="#DEECF6"/>
<path d="M187.039 196.039H164.5C163.722 196.039 163.09 195.407 163.09 194.628C163.09 193.849 163.722 193.218 164.5 193.218H187.039C187.817 193.218 188.448 193.849 188.448 194.628C188.448 195.407 187.817 196.039 187.039 196.039Z" fill="#DEECF6"/>
<path d="M254.753 203.223H237.616C236.837 203.223 236.206 202.593 236.206 201.814C236.206 201.035 236.837 200.404 237.616 200.404H254.753C255.532 200.404 256.163 201.035 256.163 201.814C256.163 202.593 255.532 203.223 254.753 203.223Z" fill="#DEECF6"/>
<path d="M230.19 203.223H164.5C163.722 203.223 163.09 202.593 163.09 201.814C163.09 201.035 163.722 200.404 164.5 200.404H230.19C230.969 200.404 231.601 201.035 231.601 201.814C231.601 202.593 230.969 203.223 230.19 203.223Z" fill="#DEECF6"/>
<path d="M254.753 210.409H164.5C163.722 210.409 163.09 209.777 163.09 208.999C163.09 208.221 163.722 207.589 164.5 207.589H254.753C255.532 207.589 256.164 208.221 256.164 208.999C256.164 209.777 255.532 210.409 254.753 210.409Z" fill="#DEECF6"/>
<path d="M254.753 217.594H226.066C225.288 217.594 224.656 216.963 224.656 216.184C224.656 215.405 225.288 214.774 226.066 214.774H254.753C255.532 214.774 256.163 215.405 256.163 216.184C256.163 216.963 255.532 217.594 254.753 217.594Z" fill="#DEECF6"/>
<path d="M218.925 217.594H164.5C163.722 217.594 163.09 216.963 163.09 216.184C163.09 215.405 163.722 214.774 164.5 214.774H218.925C219.704 214.774 220.336 215.405 220.336 216.184C220.336 216.963 219.704 217.594 218.925 217.594Z" fill="#DEECF6"/>
<path d="M254.753 196.039H194.435C193.656 196.039 193.024 195.407 193.024 194.628C193.024 193.849 193.656 193.218 194.435 193.218H254.753C255.532 193.218 256.163 193.849 256.163 194.628C256.163 195.407 255.532 196.039 254.753 196.039Z" fill="#DEECF6"/>
<path d="M187.039 246.788H164.5C163.722 246.788 163.09 246.156 163.09 245.378C163.09 244.599 163.722 243.968 164.5 243.968H187.039C187.817 243.968 188.448 244.599 188.448 245.378C188.448 246.156 187.817 246.788 187.039 246.788Z" fill="#DEECF6"/>
<path d="M254.753 253.974H237.616C236.837 253.974 236.206 253.342 236.206 252.563C236.206 251.784 236.837 251.154 237.616 251.154H254.753C255.532 251.154 256.163 251.784 256.163 252.563C256.163 253.342 255.532 253.974 254.753 253.974Z" fill="#DEECF6"/>
<path d="M230.19 253.974H164.5C163.722 253.974 163.09 253.342 163.09 252.563C163.09 251.784 163.722 251.154 164.5 251.154H230.19C230.969 251.154 231.601 251.784 231.601 252.563C231.601 253.342 230.969 253.974 230.19 253.974Z" fill="#DEECF6"/>
<path d="M254.753 261.159H164.5C163.722 261.159 163.09 260.528 163.09 259.749C163.09 258.97 163.722 258.338 164.5 258.338H254.753C255.532 258.338 256.164 258.97 256.164 259.749C256.164 260.528 255.532 261.159 254.753 261.159Z" fill="#DEECF6"/>
<path d="M254.753 268.345H226.066C225.288 268.345 224.656 267.713 224.656 266.934C224.656 266.156 225.288 265.524 226.066 265.524H254.753C255.532 265.524 256.163 266.156 256.163 266.934C256.163 267.713 255.532 268.345 254.753 268.345Z" fill="#DEECF6"/>
<path d="M218.925 268.345H164.5C163.722 268.345 163.09 267.713 163.09 266.934C163.09 266.156 163.722 265.524 164.5 265.524H218.925C219.704 265.524 220.336 266.156 220.336 266.934C220.336 267.713 219.704 268.345 218.925 268.345Z" fill="#DEECF6"/>
<path d="M254.753 246.788H194.435C193.656 246.788 193.024 246.156 193.024 245.378C193.024 244.599 193.656 243.968 194.435 243.968H254.753C255.532 243.968 256.163 244.599 256.163 245.378C256.163 246.156 255.532 246.788 254.753 246.788Z" fill="#DEECF6"/>
<path d="M154.991 111.622V111.099H138.128C137.367 111.098 136.752 110.483 136.751 109.722V92.8593C136.752 92.0986 137.367 91.4842 138.128 91.4824H154.991C155.751 91.4842 156.366 92.0986 156.368 92.8593V109.722C156.366 110.482 155.751 111.098 154.991 111.099V111.622V112.145C156.329 112.144 157.412 111.061 157.412 109.722V92.8593C157.412 91.5212 156.329 90.4379 154.991 90.437H138.128C136.79 90.4379 135.706 91.5212 135.706 92.8593V109.722C135.706 111.061 136.79 112.144 138.128 112.145H154.991V111.622Z" fill="#4097B8"/>
<path d="M154.991 163.107V162.585H138.128C137.367 162.583 136.752 161.968 136.751 161.208V144.345C136.752 143.584 137.367 142.969 138.128 142.968H154.991C155.751 142.969 156.366 143.584 156.368 144.345V161.208C156.366 161.968 155.751 162.583 154.991 162.585V163.107V163.631C156.329 163.63 157.412 162.546 157.412 161.208V144.345C157.412 143.007 156.329 141.924 154.991 141.923H138.128C136.79 141.924 135.706 143.007 135.706 144.345V161.208C135.706 162.546 136.79 163.63 138.128 163.631H154.991V163.107Z" fill="#4097B8"/>
<path d="M154.991 214.593V214.071H138.128C137.367 214.069 136.752 213.454 136.751 212.694V195.831C136.752 195.07 137.367 194.456 138.128 194.454H154.991C155.751 194.456 156.366 195.07 156.368 195.831V212.694C156.366 213.454 155.751 214.069 154.991 214.071V214.593V215.115C156.329 215.115 157.412 214.032 157.412 212.694V195.831C157.412 194.493 156.329 193.409 154.991 193.408H138.128C136.79 193.409 135.706 194.493 135.706 195.831V212.694C135.706 214.032 136.79 215.115 138.128 215.115H154.991V214.593Z" fill="#4097B8"/>
<path d="M154.991 266.079V265.557H138.128C137.367 265.555 136.752 264.94 136.751 264.18V247.317C136.752 246.556 137.367 245.941 138.128 245.94H154.991C155.751 245.941 156.366 246.556 156.368 247.317V264.18C156.366 264.94 155.751 265.555 154.991 265.557V266.079V266.601C156.329 266.601 157.412 265.518 157.412 264.18V247.317C157.412 245.978 156.329 244.895 154.991 244.894H138.128C136.79 244.895 135.706 245.978 135.706 247.317V264.18C135.706 265.518 136.79 266.601 138.128 266.601H154.991V266.079Z" fill="#4097B8"/>
<path d="M137.564 98.6535L145.352 108.058C145.673 108.446 146.156 108.654 146.659 108.623C147.16 108.591 147.614 108.323 147.883 107.897L162.869 84.2533C163.331 83.5224 163.114 82.5538 162.383 82.0903C161.652 81.6268 160.684 81.8446 160.22 82.5755L146.39 104.397L139.978 96.6531C139.426 95.9863 138.438 95.8942 137.771 96.4462C137.104 96.9983 137.011 97.9867 137.564 98.6535Z" fill="#F89D1C"/>
<path d="M137.564 149.711L145.352 159.116C145.673 159.503 146.156 159.713 146.659 159.68C147.16 159.649 147.614 159.38 147.883 158.956L162.869 135.312C163.331 134.58 163.114 133.611 162.383 133.148C161.652 132.684 160.684 132.902 160.22 133.633L146.39 155.455L139.978 147.711C139.426 147.045 138.438 146.952 137.771 147.504C137.104 148.056 137.011 149.044 137.564 149.711Z" fill="#F89D1C"/>
<path d="M81.3466 163.703C81.3466 163.703 81.7351 166.281 81.9808 166.506C81.9808 166.506 81.7342 166.936 80.9978 166.977" fill="#F8A485"/>
<path d="M79.1141 297.396C67.2112 297.396 57.562 296.526 57.562 295.454C57.562 294.382 67.2112 293.513 79.1141 293.513C91.0179 293.513 100.666 294.382 100.666 295.454C100.666 296.526 91.0179 297.396 79.1141 297.396Z" fill="#DDF3F7"/>
<path d="M88.9606 175.74L84.1982 196.662C84.0681 197.232 84.453 197.791 85.0321 197.875L99.8569 200.004C100.374 200.078 100.86 199.744 100.975 199.235L105.739 178.314C105.869 177.743 105.484 177.183 104.905 177.1L90.0791 174.971C89.5632 174.897 89.0762 175.232 88.9606 175.74Z" fill="#70CDF4"/>
<path d="M89.8883 176.415L85.3274 196.446L100.048 198.56L104.608 178.529L89.8883 176.415Z" fill="#EAF8FE"/>
<path d="M103.086 179.748L90.5769 177.951C90.4351 177.931 90.3032 178.03 90.2833 178.172C90.2625 178.313 90.361 178.444 90.5028 178.465L103.012 180.261C103.154 180.281 103.286 180.183 103.306 180.042C103.326 179.9 103.228 179.768 103.086 179.748Z" fill="#A8D7F2"/>
<path d="M102.665 181.641L90.1557 179.845C90.0139 179.824 89.882 179.923 89.8612 180.064C89.8413 180.206 89.9398 180.338 90.0817 180.358L102.591 182.154C102.733 182.175 102.865 182.076 102.884 181.935C102.905 181.793 102.807 181.662 102.665 181.641Z" fill="#A8D7F2"/>
<path d="M97.4571 183.21L89.6399 182.088C89.498 182.067 89.3661 182.166 89.3453 182.308C89.3254 182.45 89.4239 182.582 89.5658 182.601L97.383 183.725C97.5248 183.744 97.6567 183.646 97.6766 183.504C97.6974 183.362 97.5989 183.231 97.4571 183.21Z" fill="#A8D7F2"/>
<path d="M96.9014 184.838L89.0842 183.716C88.9424 183.695 88.8104 183.793 88.7897 183.935C88.7698 184.077 88.8683 184.209 89.0101 184.229L96.8273 185.352C96.9692 185.372 97.1011 185.273 97.1209 185.131C97.1417 184.99 97.0432 184.859 96.9014 184.838Z" fill="#A8D7F2"/>
<path d="M96.3457 186.466L88.5285 185.343C88.3867 185.322 88.2548 185.421 88.234 185.562C88.2141 185.704 88.3126 185.836 88.4545 185.856L96.2716 186.979C96.4135 186.999 96.5454 186.901 96.5653 186.76C96.5861 186.618 96.4876 186.486 96.3457 186.466Z" fill="#A8D7F2"/>
<path d="M99.2127 195.458L91.3946 194.336C91.2527 194.315 91.1217 194.414 91.1009 194.556C91.0811 194.698 91.1795 194.83 91.3214 194.849L99.1386 195.973C99.2804 195.992 99.4114 195.894 99.4322 195.752C99.4521 195.61 99.3536 195.479 99.2127 195.458Z" fill="#A8D7F2"/>
<path d="M83.2557 196.912C84.0951 196.517 84.7194 195.785 85.3167 195.074C85.9049 194.373 86.4939 193.671 87.083 192.97C87.3161 192.693 87.5592 192.391 87.5854 192.031C86.5978 191.95 85.9618 193.233 84.9742 193.309C85.4341 191.683 86.0946 190.113 86.9358 188.648C87.1408 188.29 87.3649 187.874 87.2185 187.488C86.1515 187.895 85.2525 188.654 84.4755 189.491C83.9289 190.079 83.431 190.712 82.9883 191.383C81.6854 193.355 80.8777 195.619 80.3284 197.918" fill="#F29273"/>
<path d="M79.0057 213.764L68.4202 204.833C68.4202 204.833 63.4943 211.514 65.3501 217.961C66.2626 221.13 67.4083 222.702 67.9052 224.206C68.3696 225.611 71.5563 245.5 71.3187 246.955C71.081 248.409 69.3698 252.477 68.7174 256.756C67.9314 261.903 68.0651 278.67 67.4561 283.115C66.8472 287.561 70.9527 288.313 71.1786 286.809C73.1085 273.954 78.2043 253.921 78.9181 247.495C79.631 241.068 79.3418 229.299 79.0057 213.764Z" fill="#F9B291"/>
<path d="M79.0363 226.431L74.4329 236.995C76.3736 240.274 77.4958 244.143 77.6448 248.067C77.7216 250.105 77.5418 252.147 77.5988 254.186C77.6024 254.331 77.6232 254.485 77.6602 254.629C78.2773 251.607 78.7372 249.117 78.9179 247.495C79.4211 242.954 79.4239 235.737 79.2639 226.42L79.0363 226.431Z" fill="#F29273"/>
<path d="M71.8914 282.681C71.8914 282.681 70.9057 287.345 71.1714 287.939C71.4361 288.535 72.3902 290.262 73.3669 290.887C74.3915 291.542 76.6611 292.321 76.8427 292.605C77.0243 292.89 77.0361 293.303 76.7117 293.558C75.8759 294.215 74.4249 294.535 73.4762 294.378C70.3989 293.87 70.0808 292.509 68.2882 292.292C67.9783 292.254 67.4046 292.712 66.549 292.273C65.6925 291.835 65.2769 291.044 65.35 290.299C65.4774 289.014 66.1993 287.956 66.7125 287.005C67.2257 286.055 67.588 281.706 67.588 281.706" fill="#F9B291"/>
<path d="M76.952 293.782C77.1761 293.398 77.233 292.818 77.0243 292.676C76.7352 292.479 75.7061 291.798 75.1089 291.523C74.5117 291.248 73.5657 291.006 73.8991 291.186C74.2325 291.366 73.619 292.039 73.0597 292.005C71.1316 291.888 69.7086 290.606 68.6099 290.331C67.0243 289.934 66.3602 288.062 66.2906 287.759C65.9906 287.949 65.2931 289.456 65.1513 289.931C65.0239 290.359 64.7953 291.142 64.9164 291.589C65.0004 291.897 65.1874 292.517 65.0926 293.17C65.0926 293.17 65.4052 293.409 66.2328 293.581C66.7559 293.689 67.4598 293.598 67.4598 293.598L67.5962 292.602C67.5962 292.602 68.0281 292.585 68.5774 292.699C69.1258 292.812 70.023 293.335 70.0754 293.398C70.2959 293.661 70.4721 294.141 70.7639 294.287C71.5346 294.676 72.3116 294.861 73.2937 294.919C75.3619 295.039 76.569 294.438 76.952 293.782Z" fill="#2B2F75"/>
<path d="M93.4608 293.589C93.2331 293.337 90.781 292.938 89.6308 292.458C88.5348 292 87.2076 290.528 86.9492 289.903C86.6908 289.278 86.7495 286.113 86.7829 284.785C87.0124 275.631 88.7038 253.262 88.9487 247.905C89.3742 238.595 88.1653 228.984 84.5838 214.036L71.2434 203.8C71.2434 203.8 67.5083 210.744 68.7588 217.385C69.4843 221.237 72.68 221.83 73.2203 223.327C73.7606 224.824 81.8308 248.965 81.8308 248.965C81.8308 248.965 80.2614 254.184 80.1701 259.902C80.0924 264.783 82.3051 279.507 82.7162 285.116C82.7641 286.212 82.953 288.835 82.6304 289.67C82.2347 290.694 81.2254 291.897 81.276 293.188C81.3058 293.936 81.847 294.65 82.7921 294.944C83.7372 295.237 84.2639 294.691 84.5892 294.678C86.4694 294.599 86.9907 295.893 90.2371 295.892C91.2391 295.891 92.691 295.338 93.4608 294.552C93.758 294.247 93.6876 293.84 93.4608 293.589Z" fill="#F9B291"/>
<path d="M93.7401 294.735C93.9172 294.318 93.8937 293.735 93.6588 293.629C93.3317 293.481 92.1734 292.976 91.5183 292.802C90.8642 292.628 89.8532 292.543 90.2227 292.667C90.5922 292.791 90.0538 293.556 89.4728 293.614C87.4661 293.813 85.8172 292.778 84.6444 292.686C82.9521 292.553 82.3314 290.811 82.2167 290.522C81.9339 290.76 81.0981 292.365 81.0195 292.856C80.9482 293.301 80.8226 294.112 81.0105 294.534C81.1415 294.825 81.4216 295.408 81.4162 296.067C81.4162 296.067 81.7722 296.254 82.6504 296.288C83.206 296.309 83.9198 296.104 83.9198 296.104V295.098C83.9198 295.098 84.3625 295.01 84.9453 295.033C85.5281 295.055 86.2473 295.353 86.5996 295.617C86.8752 295.825 87.1652 296.175 87.4905 296.257C88.4292 296.493 89.1042 296.56 90.1251 296.456C92.2764 296.237 93.4374 295.446 93.7401 294.735Z" fill="#2B2F75"/>
<path d="M68.6992 203.709C67.7939 204.703 64.5674 210.079 64.5331 214.455C64.4988 218.831 65.8938 221.677 66.1956 222.55C67.0214 224.942 68.5582 227.081 68.5582 227.518C68.5582 227.956 70.9634 228.259 76.0664 227.937C85.4946 227.343 88.9586 225.574 88.9586 225.574C88.9586 225.574 89.2667 221.652 88.3 213.142C87.841 209.102 84.3995 202.702 84.3995 202.702" fill="#2B2F75"/>
<path d="M60.0969 186.226C60.0969 186.226 61.6156 193.77 62.0141 195.113C62.4125 196.456 64.3822 204.981 66.2497 204.833C68.1173 204.684 78.3442 196.146 78.3442 196.146L76.8958 193.25L67.8932 197.541C67.8932 197.541 67.0801 187.795 66.3672 185.475" fill="#F9B291"/>
<path d="M63.5771 190.871C64.5304 194.238 66.4837 197.789 67.0674 200.4C67.1849 200.925 73.4182 198.658 73.4326 196.317" fill="#F29273"/>
<path d="M66.1957 175.767C66.1957 175.767 63.2105 176.085 61.6971 177.244C57.8373 180.196 60.8242 190.916 60.8242 190.916C60.8242 190.916 60.634 191.488 63.225 191.343C65.8163 191.198 67.8934 190.46 67.8934 190.46L67.1444 181.676" fill="#E93654"/>
<path d="M62.7786 181.836C62.7786 181.836 62.4515 188.137 63.5917 191.318C64.7202 191.296 65.706 191.04 65.706 191.04L62.7786 181.836Z" fill="#B02E3F"/>
<path d="M80.462 155.99C82.2609 158.322 81.9049 161.602 81.4613 164.513C81.2372 165.986 81.0131 167.458 80.7881 168.93C80.6815 169.63 80.5397 170.393 79.9949 170.845C79.4455 171.3 78.6604 171.292 77.9475 171.262C77.9547 172.48 77.962 173.698 77.9692 174.916C75.8848 174.967 73.7995 174.976 71.7151 174.942C71.7142 174.089 71.5281 173.236 71.1739 172.46C70.1547 172.44 69.4726 171.417 69.0741 170.479C68.6133 169.397 68.2781 168.266 67.9538 167.134C67.5246 165.634 67.1099 164.109 67.0701 162.549C67.0313 160.988 67.4017 159.366 68.3929 158.16C69.0696 157.338 69.9903 156.754 70.9344 156.262C72.2274 155.587 73.7796 155.054 75.1132 155.645" fill="#F9B291"/>
<path d="M78.3055 167.1C78.0588 165.875 78.076 165.184 78.4771 164.369C78.6109 164.098 78.7862 163.843 79.0256 163.675C79.3499 163.447 79.78 163.403 80.1396 163.559C80.3736 163.661 80.567 163.852 80.6989 164.081C81.1244 162.436 81.2139 160.682 81.091 158.974C80.8959 156.264 79.2623 154.17 76.8779 153.191C72.4625 151.376 66.118 153.169 64.3245 157.503C62.9702 160.776 63.6569 165.502 66.2499 168.246C68.5458 170.675 71.8472 171.032 74.8947 170.532C76.4542 170.276 78.8602 170.43 79.6671 168.309C79.7294 168.145 79.5894 167.982 79.424 167.995C78.7907 168.043 78.3507 167.327 78.3055 167.1Z" fill="#2B2F75"/>
<path d="M78.6443 161.336C78.8087 161.594 78.7698 161.939 78.9234 162.202C79.1827 162.645 79.527 162.804 79.9914 163.02C80.7404 163.367 80.5651 164.458 80.5434 164.946C81.109 164.57 81.2003 163.547 81.3376 163.027C81.4903 162.443 81.5888 161.845 81.7587 161.266C81.924 160.702 82.2104 160.172 82.2637 159.579C82.4462 157.532 81.1623 155.126 79.6101 153.976C78.4798 153.14 76.755 153.174 75.4783 154.025C74.9408 154.383 74.536 154.924 74.2984 155.525C74.1963 155.784 74.1258 156.083 74.2523 156.33" fill="#2B2F75"/>
<path d="M68.6099 175.795C68.7156 175.081 68.9089 174.249 69.573 173.967C69.7582 173.889 69.9606 173.865 70.1594 173.843C72.1932 173.617 74.2405 173.52 76.287 173.554C77.1327 173.567 78.0091 173.61 78.7662 173.988C79.9535 174.582 80.6058 175.861 81.1795 177.059" fill="#B02E3F"/>
<path d="M85.838 201.956C85.5534 201.536 84.8965 201.032 84.6616 200.57C84.096 199.458 83.6018 194.782 83.797 193.587C84.0048 192.306 85.1387 191.618 85.6501 188.767C86.3087 185.095 84.8026 182.241 83.9614 181.019C82.7715 179.29 83.4771 179.3 83.0696 177.182C82.9965 176.801 82.9106 176.394 82.6495 176.128C82.3929 175.866 80.6193 175.055 80.2706 175.001C76.9637 174.489 75.0203 174.889 71.6773 175.036C70.0229 175.108 68.3713 175.3 66.7477 175.659C64.9506 176.055 63.3848 176.532 63.0153 178.97C62.4443 182.743 62.925 186.555 64.0715 190.133C64.8314 192.504 69.3688 200.707 68.2448 202.295C67.9882 202.658 67.3449 203.347 67.2672 203.8C66.9826 205.458 70.7286 206.041 72.3314 206.172C74.7745 206.373 77.5772 206.238 80.0257 206.124C81.8806 206.037 85.9383 205.39 86.2265 203.098C86.2825 202.648 86.0603 202.285 85.838 201.956Z" fill="#E93654"/>
<path d="M85.1322 189.476C85.1322 190.143 84.76 191.038 84.6389 191.389C84.1736 191.628 82.3286 192.025 81.2697 191.541C81.0375 189.337 79.7473 185.095 79.7473 185.095C79.7473 185.095 85.1313 188.859 85.1322 189.476Z" fill="#B02E3F"/>
<path d="M82.7634 187.939C82.7634 187.939 88.8721 202.702 91.5221 202.702C93.4502 202.702 98.1773 189.073 98.1773 189.073L95.1903 187.659L91.86 193.367L88.4872 182.723" fill="#F9B291"/>
<path d="M94.5974 188.676C94.5974 188.676 95.5877 187.116 95.5154 186.01C95.4874 185.589 95.2371 183.582 95.4467 183.187C95.6554 182.792 96.1578 181.501 96.4451 181.25C96.7315 180.999 97.7931 180.596 98.0524 180.775C98.3117 180.954 98.6352 180.13 99.0653 180.201C99.4962 180.272 99.854 180.631 99.854 181.026C99.854 181.421 100.429 181.492 100.5 181.779C100.572 182.066 100.536 182.317 100.644 182.533C100.751 182.748 101.068 182.641 101.182 183.178C101.285 183.669 101.146 183.716 101.182 183.968C101.217 184.219 101.432 184.195 101.361 184.673C101.29 185.151 100.962 185.772 100.675 186.31C100.388 186.848 99.7953 187.521 99.0093 187.996C98.6207 188.231 98.4084 188.642 98.0371 189.338" fill="#F9B291"/>
<path d="M96.2392 177.268C96.1633 177.151 95.9555 176.955 95.7115 177.126C95.4685 177.298 95.5417 177.593 95.595 177.713C95.6474 177.831 97.4011 181.799 97.4011 181.799C97.4011 181.799 97.5475 181.967 97.8266 181.721C98.1293 181.454 98.0326 181.32 98.0326 181.32C98.0326 181.32 96.3142 177.385 96.2392 177.268Z" fill="#2B2F75"/>
<path d="M98.1419 181.058C97.7977 181.672 97.3992 181.868 97.0405 182.206C96.7595 182.471 96.7948 182.641 96.4849 182.912C97.0279 182.872 96.9348 182.551 97.6386 182.043C97.9648 181.808 98.3027 181.553 98.366 181.152C98.3886 181.015 98.225 180.941 98.1419 181.058Z" fill="#F29273"/>
<path d="M77.1443 174.774C78.7354 174.857 83.3668 174.044 85.9409 176.736C88.0967 178.991 89.3318 184.904 90.2 187.302C88.0397 189.504 85.959 191.279 82.6864 190.564C82.5627 190.472 80.939 185.362 79.7572 184.907" fill="#E93654"/>
<path d="M88.9668 221.652C88.9668 221.652 90.0175 246.909 89.826 248.751C89.6344 250.592 87.5853 285.463 87.5853 285.463C87.5853 285.463 83.3776 286.2 80.8577 285.463C80.8577 285.463 77.6069 258.308 80.8577 249.845L79.413 241.737C79.413 241.737 79.6281 247.768 79.413 248.996C79.1971 250.224 72.6945 284.603 72.6945 284.603C72.6945 284.603 68.3929 284.49 66.4278 282.766C66.4278 282.766 65.8152 258.88 70.2966 248.832L66.1956 222.55L68.5582 215.862L88.9668 221.652Z" fill="#2B2F75"/>
<path d="M79.413 241.737C78.8122 237.853 75.1051 224.076 74.9479 223.744C72.9213 222.174 71.07 220.789 70.396 219.48C71.5028 222.802 73.6351 222.974 74.4329 224.694C76.4034 228.938 74.8982 228.002 79.4998 242.224" fill="#1E204C"/>
<path d="M61.3166 174.605C61.2217 175.95 61.4964 177.292 61.5181 178.639C61.5397 179.986 61.2506 181.439 60.2611 182.353C59.2718 183.267 57.4362 183.303 56.7332 182.154C57.4447 183.64 58.9757 184.639 60.5964 184.933C62.2165 185.229 63.9069 184.878 65.4041 184.193C69.3822 182.369 72.0322 178.2 71.9093 173.813C71.8082 170.207 69.0705 166.722 65.245 168.618C63.0034 169.729 61.4919 172.13 61.3166 174.605Z" fill="#2B2F75"/>
</svg>
