<svg width="339" height="248" viewBox="0 0 339 248" fill="none" xmlns="http://www.w3.org/2000/svg">
<path d="M11.677 245.965C-1.8881 232.377 -7.50007 202.721 16.4999 173.571C38.6931 146.613 36.2655 100.214 95.8051 91.4437C155.344 82.6717 176.116 147.637 219.96 163.262C239.567 170.25 261.785 161.006 282.025 185.059C293.305 198.462 292.205 225.741 277.477 245.965H11.677Z" fill="#FDE8EA"/>
<path d="M276.092 245.861L276.028 245.77C275.377 244.83 269.872 236.665 266.049 224.244C264.528 219.305 263.788 213.354 263.788 207.171C263.779 194.305 267.011 180.42 272.783 172.48C275.945 168.117 279.372 164.696 282.848 162.378C286.325 160.058 289.839 158.844 293.204 158.844C295.664 158.845 298.053 159.488 300.337 160.852C301.969 161.829 303.055 162.973 303.744 164.225C304.433 165.478 304.733 166.853 304.733 168.316C304.753 172.957 301.597 178.409 298.641 182.047C294.524 187.154 279.708 207.749 279.692 231.642C279.691 236.437 280.292 241.364 281.703 246.314C281.803 246.669 282.172 246.874 282.527 246.773C282.88 246.673 283.085 246.304 282.984 245.95C281.611 241.126 281.025 236.326 281.025 231.642C281.008 208.313 295.649 187.852 299.679 182.885C302.724 179.1 306.048 173.536 306.067 168.316C306.068 166.671 305.725 165.057 304.913 163.582C304.101 162.106 302.825 160.785 301.021 159.708C298.544 158.225 295.899 157.51 293.204 157.51C289.513 157.512 285.748 158.84 282.108 161.269C278.467 163.7 274.94 167.233 271.703 171.697C265.673 180.037 262.464 194.082 262.455 207.171C262.456 213.461 263.203 219.528 264.775 224.637C268.916 238.083 274.979 246.595 275.005 246.634C275.22 246.934 275.636 247.005 275.936 246.79C276.236 246.577 276.305 246.161 276.092 245.861Z" fill="#F57D8E"/>
<path d="M297.609 162.128C296.175 162.762 294.299 164.088 292.147 165.993C285.713 171.706 276.945 182.628 273.193 195.209C271.6 200.56 270.984 206.062 270.984 211.383C270.991 230.032 278.531 246.478 278.547 246.525C278.7 246.86 279.096 247.007 279.431 246.854C279.765 246.701 279.912 246.305 279.759 245.971C279.759 245.971 279.732 245.912 279.679 245.79C278.871 243.968 272.312 228.533 272.317 211.383C272.317 206.165 272.923 200.79 274.471 195.59C276.897 187.432 281.545 179.908 286.241 174.153C288.587 171.276 290.944 168.841 293.031 166.99C295.112 165.14 296.944 163.873 298.145 163.349C298.483 163.201 298.636 162.808 298.488 162.47C298.34 162.133 297.947 161.98 297.609 162.128Z" fill="#F57D8E"/>
<path d="M302.121 169.25L290.427 168.044C290.061 168.005 289.733 168.272 289.696 168.638C289.657 169.004 289.924 169.332 290.291 169.369L301.984 170.577C302.351 170.614 302.677 170.349 302.716 169.983C302.753 169.616 302.487 169.289 302.121 169.25Z" fill="#F57D8E"/>
<path d="M296.493 176.004L284.308 175.148C283.94 175.121 283.621 175.399 283.596 175.765C283.571 176.133 283.847 176.452 284.215 176.477L296.4 177.335C296.767 177.36 297.085 177.082 297.112 176.716C297.137 176.349 296.86 176.03 296.493 176.004Z" fill="#F57D8E"/>
<path d="M292.801 182.624L280.221 181.328C279.856 181.29 279.528 181.556 279.491 181.922C279.452 182.289 279.719 182.617 280.085 182.654L292.664 183.95C293.031 183.988 293.359 183.721 293.396 183.356C293.433 182.989 293.167 182.661 292.801 182.624Z" fill="#F57D8E"/>
<path d="M276.145 189.794L289.703 190.056C290.071 190.062 290.375 189.77 290.381 189.401C290.389 189.033 290.096 188.729 289.728 188.722L276.171 188.461C275.803 188.454 275.499 188.746 275.491 189.114C275.484 189.482 275.776 189.787 276.145 189.794Z" fill="#F57D8E"/>
<path d="M273.651 196.694H286.372C286.74 196.694 287.039 196.395 287.039 196.028C287.039 195.658 286.74 195.361 286.372 195.361H273.651C273.283 195.361 272.984 195.658 272.984 196.028C272.984 196.395 273.283 196.694 273.651 196.694Z" fill="#F57D8E"/>
<path d="M272.16 205.16H283.604C283.972 205.16 284.271 204.861 284.271 204.493C284.271 204.125 283.972 203.826 283.604 203.826H272.16C271.79 203.826 271.493 204.125 271.493 204.493C271.493 204.861 271.79 205.16 272.16 205.16Z" fill="#F57D8E"/>
<path d="M271.659 212.013L280.699 211.421C281.065 211.397 281.344 211.08 281.32 210.713C281.296 210.345 280.979 210.068 280.611 210.092L271.571 210.683C271.204 210.707 270.925 211.025 270.949 211.392C270.973 211.76 271.291 212.037 271.659 212.013Z" fill="#F57D8E"/>
<path d="M272.28 220.618L279.273 219.33C279.636 219.264 279.876 218.916 279.809 218.553C279.741 218.192 279.395 217.952 279.032 218.018L272.039 219.308C271.676 219.374 271.437 219.721 271.504 220.084C271.571 220.447 271.919 220.685 272.28 220.618Z" fill="#F57D8E"/>
<path d="M273.449 227.631L279.344 225.871C279.696 225.765 279.897 225.395 279.792 225.041C279.687 224.689 279.315 224.488 278.963 224.593L273.068 226.353C272.716 226.459 272.515 226.829 272.62 227.182C272.725 227.535 273.097 227.736 273.449 227.631Z" fill="#F57D8E"/>
<path d="M272.948 223.312L266.785 220.944C266.441 220.812 266.056 220.984 265.924 221.328C265.792 221.672 265.964 222.057 266.308 222.189L272.471 224.557C272.815 224.689 273.2 224.517 273.332 224.173C273.464 223.829 273.292 223.444 272.948 223.312Z" fill="#F57D8E"/>
<path d="M272.001 214.59L265.589 212.066C265.247 211.932 264.86 212.1 264.724 212.442C264.589 212.785 264.759 213.171 265.101 213.306L271.513 215.83C271.856 215.965 272.243 215.797 272.377 215.454C272.512 215.112 272.344 214.725 272.001 214.59Z" fill="#F57D8E"/>
<path d="M272.041 206.581L266.12 203.792C265.787 203.635 265.389 203.777 265.232 204.111C265.076 204.444 265.219 204.841 265.551 204.997L271.473 207.787C271.805 207.944 272.203 207.801 272.36 207.468C272.517 207.135 272.375 206.737 272.041 206.581Z" fill="#F57D8E"/>
<path d="M273.337 198.525L267.437 194.388C267.136 194.177 266.72 194.249 266.508 194.55C266.297 194.853 266.371 195.268 266.672 195.48L272.572 199.617C272.873 199.828 273.289 199.754 273.5 199.453C273.712 199.152 273.639 198.736 273.337 198.525Z" fill="#F57D8E"/>
<path d="M287.82 171.62L284.188 165.009C284.011 164.686 283.605 164.568 283.283 164.745C282.96 164.922 282.843 165.328 283.02 165.65L286.652 172.261C286.829 172.584 287.235 172.702 287.557 172.525C287.88 172.348 287.997 171.942 287.82 171.62Z" fill="#F57D8E"/>
<path d="M282.495 178.492L277.748 170.54C277.559 170.224 277.149 170.12 276.833 170.309C276.517 170.497 276.413 170.906 276.603 171.223L281.349 179.176C281.539 179.492 281.948 179.596 282.264 179.406C282.58 179.217 282.683 178.808 282.495 178.492Z" fill="#F57D8E"/>
<path d="M278.648 184.621L272.663 177.732C272.421 177.454 272 177.424 271.723 177.666C271.444 177.908 271.415 178.328 271.656 178.606L277.641 185.495C277.883 185.773 278.304 185.802 278.583 185.561C278.86 185.32 278.889 184.899 278.648 184.621Z" fill="#F57D8E"/>
<path d="M275.405 191.64L269.264 185.584C269.003 185.325 268.58 185.328 268.321 185.59C268.063 185.853 268.065 186.275 268.328 186.533L274.469 192.589C274.731 192.848 275.153 192.845 275.412 192.582C275.671 192.321 275.667 191.899 275.405 191.64Z" fill="#F57D8E"/>
<path d="M294.571 165.068L292.8 160.933C292.655 160.594 292.263 160.438 291.925 160.582C291.587 160.728 291.429 161.12 291.575 161.458L293.345 165.592C293.491 165.93 293.883 166.088 294.221 165.942C294.559 165.797 294.716 165.405 294.571 165.068Z" fill="#F57D8E"/>
<path d="M293.366 246.526C302.813 246.526 320.837 245.362 328.37 231.04C335.902 216.717 338.054 190.899 338.862 185.784C339.669 180.668 335.365 179.543 324.334 178.895C313.305 178.247 294.396 184.144 283.673 199.624C272.95 215.102 273.697 241.632 293.366 246.526Z" fill="#F9B1BB"/>
<path d="M334.399 182.544C325.569 184.729 316.108 191.918 308.02 202.826C299.935 213.738 293.233 228.389 290.035 245.564C289.968 245.925 290.207 246.273 290.568 246.341C290.931 246.408 291.279 246.169 291.345 245.807C294.505 228.83 301.133 214.356 309.091 203.62C317.044 192.88 326.336 185.897 334.717 183.838C335.075 183.75 335.293 183.389 335.205 183.032C335.117 182.674 334.756 182.456 334.399 182.544Z" fill="white"/>
<path d="M335.897 192.177L319.912 190.473C319.547 190.433 319.217 190.699 319.179 191.065C319.14 191.43 319.405 191.76 319.771 191.799L335.756 193.504C336.123 193.542 336.451 193.277 336.491 192.911C336.529 192.545 336.264 192.216 335.897 192.177Z" fill="white"/>
<path d="M311.932 183.911L314.087 195.992C314.152 196.355 314.499 196.596 314.86 196.532C315.223 196.466 315.464 196.121 315.4 195.759L313.245 183.676C313.18 183.314 312.835 183.073 312.472 183.137C312.109 183.202 311.868 183.548 311.932 183.911Z" fill="white"/>
<path d="M298.032 191.602L304.164 208.966C304.287 209.314 304.668 209.496 305.015 209.373C305.363 209.25 305.544 208.871 305.421 208.523L299.289 191.159C299.167 190.811 298.785 190.629 298.439 190.752C298.092 190.874 297.909 191.255 298.032 191.602Z" fill="white"/>
<path d="M330.827 203.048L309.389 201.548C309.021 201.523 308.703 201.799 308.677 202.166C308.652 202.533 308.929 202.852 309.296 202.878L330.735 204.378C331.101 204.404 331.42 204.126 331.445 203.76C331.472 203.392 331.195 203.073 330.827 203.048Z" fill="white"/>
<path d="M288.427 204.693L297.04 221.899C297.205 222.228 297.605 222.361 297.935 222.195C298.264 222.032 298.397 221.63 298.233 221.301L289.619 204.095C289.455 203.766 289.053 203.633 288.724 203.799C288.396 203.964 288.263 204.364 288.427 204.693Z" fill="white"/>
<path d="M326.532 217.613L301.211 215.216C300.844 215.181 300.519 215.449 300.484 215.816C300.449 216.182 300.719 216.508 301.085 216.542L326.407 218.941C326.773 218.976 327.097 218.706 327.133 218.34C327.168 217.973 326.899 217.648 326.532 217.613Z" fill="white"/>
<path d="M319.877 231.712L294.468 230.33C294.1 230.311 293.787 230.592 293.767 230.96C293.747 231.328 294.028 231.642 294.396 231.662L319.805 233.042C320.173 233.062 320.488 232.781 320.508 232.413C320.528 232.045 320.245 231.732 319.877 231.712Z" fill="white"/>
<path d="M281.452 216.276L292.672 235.23C292.86 235.548 293.269 235.652 293.585 235.465C293.903 235.277 294.008 234.869 293.82 234.552L282.6 215.596C282.412 215.28 282.003 215.174 281.687 215.362C281.369 215.549 281.265 215.959 281.452 216.276Z" fill="white"/>
<path d="M229.585 42.7397C223.237 44.8157 220.839 69.6957 216.703 74.3931C212.567 79.0904 200.315 87.6397 200.315 87.6397L203.157 97.0664C203.157 97.0664 221.951 86.8584 224.405 84.5517C226.861 82.2451 233.091 66.3011 233.091 66.3011L229.585 42.7397Z" fill="#F08074"/>
<path d="M190.227 91.4437C190.215 91.5063 190.157 91.629 189.896 91.7437C188.028 92.5663 186.048 92.201 184.011 91.9823C181.955 91.761 180.275 91.6503 178.389 91.4783C175.671 91.2303 175.912 95.0624 177.153 96.7877C178.915 99.237 182.013 100.496 184.853 101.194C190.676 102.625 197.972 100.586 203.157 97.0663L200.315 87.6397C199.137 88.6584 197.62 89.1983 197.3 89.1664C196.497 89.089 195.609 88.5663 194.839 88.2957" fill="#F08074"/>
<path d="M50.2348 245.287C44.3769 245.287 32.9014 247.496 23.0805 237.761C13.2603 228.026 11.8618 203.724 15.3061 196.753C17.7124 191.881 45.4493 197.101 54.7249 208.745C63.9993 220.388 63.8858 239.768 50.2348 245.287Z" fill="#F9B1BB"/>
<path d="M19.9401 198.762C25.0547 201.085 32.5787 206.844 39.0849 214.465C45.6021 222.088 51.1145 231.577 52.3964 241.344C52.4443 241.709 52.7792 241.966 53.1443 241.918C53.5093 241.87 53.7661 241.534 53.7183 241.17C52.3776 231.024 46.7208 221.353 40.0989 213.599C33.4661 205.844 25.8803 200.007 20.4927 197.549C20.1579 197.395 19.7625 197.544 19.6093 197.88C19.4573 198.214 19.6052 198.61 19.9401 198.762Z" fill="white"/>
<path d="M18.8837 207.849L32.3192 207.22C32.6873 207.202 32.9712 206.89 32.954 206.523C32.9368 206.154 32.6249 205.871 32.2572 205.888L18.8212 206.518C18.4535 206.536 18.1692 206.848 18.1863 207.214C18.2035 207.582 18.5155 207.866 18.8837 207.849Z" fill="white"/>
<path d="M36.7178 202.213V211.557C36.7178 211.925 37.0162 212.224 37.3844 212.224C37.7527 212.224 38.0511 211.925 38.0511 211.557V202.213C38.0511 201.845 37.7527 201.547 37.3844 201.547C37.0162 201.547 36.7178 201.845 36.7178 202.213Z" fill="white"/>
<path d="M20.2873 218.852L41.2353 216.599C41.6015 216.559 41.866 216.23 41.8264 215.864C41.7873 215.499 41.4587 215.233 41.0925 215.273L20.1452 217.526C19.7791 217.565 19.5139 217.894 19.5535 218.26C19.5925 218.626 19.9212 218.892 20.2873 218.852Z" fill="white"/>
<path d="M46.3073 208.706L45.5062 222.74C45.4854 223.108 45.7661 223.422 46.1338 223.444C46.5015 223.464 46.8166 223.183 46.8374 222.816L47.6379 208.782C47.6593 208.416 47.3781 208.1 47.0103 208.08C46.6426 208.059 46.3281 208.34 46.3073 208.706Z" fill="white"/>
<path d="M24.2373 230.53L48.6878 228.104C49.0545 228.068 49.3222 227.741 49.2858 227.376C49.2493 227.009 48.9228 226.741 48.5566 226.777L24.1061 229.204C23.7394 229.24 23.4717 229.566 23.5082 229.933C23.5446 230.3 23.8712 230.568 24.2373 230.53Z" fill="white"/>
<path d="M161.865 241.014C162.667 241.014 163.316 240.366 163.316 239.565V24.1399C163.316 23.3399 162.667 22.6906 161.865 22.6906C161.065 22.6906 160.416 23.3399 160.416 24.1399V239.565C160.416 240.366 161.065 241.014 161.865 241.014Z" fill="#B2E6F4"/>
<path d="M185.017 35.0237H139.536C138.735 35.0237 138.085 34.3757 138.085 33.5743C138.085 32.773 138.735 32.125 139.536 32.125H185.163" fill="#B2E6F4"/>
<path d="M135.299 239.945C136.1 239.945 136.751 239.296 136.751 238.493V236.747L162.239 229.968C163.013 229.762 163.475 228.966 163.269 228.192C163.063 227.417 162.267 226.957 161.492 227.162L134.925 234.228C134.289 234.396 133.847 234.972 133.847 235.631V238.493C133.847 239.296 134.497 239.945 135.299 239.945Z" fill="#B2E6F4"/>
<path d="M188.433 239.945C189.235 239.945 189.884 239.296 189.884 238.493V235.631C189.884 234.972 189.441 234.396 188.805 234.228L162.239 227.162C161.464 226.957 160.668 227.417 160.463 228.192C160.257 228.966 160.717 229.762 161.492 229.968L186.981 236.747V238.493C186.981 239.296 187.631 239.945 188.433 239.945Z" fill="#B2E6F4"/>
<path d="M157.785 242.136C157.785 244.389 159.612 246.216 161.865 246.216C164.119 246.216 165.945 244.389 165.945 242.136C165.945 239.882 164.119 238.056 161.865 238.056C159.612 238.056 157.785 239.882 157.785 242.136Z" fill="#5477C4"/>
<path d="M131.219 242.136C131.219 244.389 133.045 246.216 135.299 246.216C137.552 246.216 139.379 244.389 139.379 242.136C139.379 239.882 137.552 238.056 135.299 238.056C133.045 238.056 131.219 239.882 131.219 242.136Z" fill="#5477C4"/>
<path d="M192.647 242.136C192.647 244.389 190.82 246.216 188.567 246.216C186.315 246.216 184.488 244.389 184.488 242.136C184.488 239.882 186.315 238.056 188.567 238.056C190.82 238.056 192.647 239.882 192.647 242.136Z" fill="#5477C4"/>
<path d="M183.908 33.6585C183.908 32.6571 184.72 31.8465 185.72 31.8465C186.721 31.8465 187.533 32.6571 187.533 33.6585C187.533 34.6598 186.721 35.4705 185.72 35.4705C184.72 35.4705 183.908 34.6598 183.908 33.6585ZM176.048 72.8358L175.767 74.3465C175.696 74.7198 175.345 74.9705 174.972 74.9185C174.42 74.8411 173.895 75.1625 173.817 75.7145L173.059 81.0878C172.987 81.5931 173.327 82.0651 173.829 82.1571L176.832 82.7091C177.337 82.8011 177.825 82.4771 177.935 81.9758L179.089 76.6971C179.204 76.1731 178.864 75.6571 178.337 75.5571L178.068 75.5065C177.684 75.4345 177.432 75.0638 177.504 74.6811L177.685 73.7051C177.785 73.1691 178.292 72.8625 178.82 72.9971C179.332 73.1265 179.869 73.2438 180.433 73.3451C180.88 73.4251 181.212 73.8131 181.196 74.2678L180.912 82.4745C180.829 83.3438 181.417 83.8651 182.211 83.8665C183.088 83.8665 183.576 83.3105 183.601 82.5678L183.876 74.6625C183.892 74.1665 184.304 73.7691 184.8 73.7851C185.101 73.7945 185.407 73.8011 185.72 73.8011C187.437 73.8011 188.985 73.6731 190.387 73.4518C190.673 73.4065 191.057 73.3318 191.416 73.2585C191.983 73.1425 192.501 73.4158 192.573 73.8785C192.647 74.3425 192.705 74.7185 192.705 74.7185C192.768 75.1238 192.5 75.5038 192.103 75.5838C191.515 75.7025 191.099 76.2171 191.217 76.8051L192.372 82.5265C192.481 83.0651 192.995 83.4225 193.537 83.3358L196.781 82.8198C197.327 82.7331 197.705 82.2291 197.636 81.6811L196.917 75.9131C196.847 75.3411 196.316 74.9398 195.747 75.0278L195.455 75.0718C195.04 75.1345 194.652 74.8505 194.587 74.4358L194.4 73.2358C194.333 72.8105 194.584 72.4038 194.985 72.2465C199.68 70.4065 201.565 67.3958 201.455 65.8505C201.289 63.5318 200.296 48.4598 199.633 42.8291C198.971 37.1971 197.811 35.7065 195.989 35.0105C194.168 34.3131 192.345 33.8851 191.02 32.1905C189.696 30.4958 188.701 28.9891 185.72 28.9891C182.74 28.9891 181.745 30.4958 180.42 32.1905C179.096 33.8851 177.273 34.3131 175.452 35.0105C173.631 35.7065 172.471 37.1971 171.808 42.8291C171.145 48.4598 170.152 63.5318 169.987 65.8505C169.884 67.2878 171.515 69.9891 175.517 71.8411C175.899 72.0171 176.125 72.4225 176.048 72.8358Z" fill="#D7F2F5"/>
<path d="M173.68 47.5185C174.093 40.7292 174.413 37.0905 177.731 37.1985C181.048 37.3052 188.647 37.4078 191 37.1958C193.355 36.9838 196.195 37.1652 196.729 38.9852C197.264 40.8038 197.859 47.1758 197.961 49.8918C198.063 52.6078 190.407 53.4918 183.908 53.5852C177.411 53.6772 173.68 47.5185 173.68 47.5185Z" fill="#B2E6F4"/>
<path d="M197.961 49.8919C198.395 55.1999 198.825 61.4865 199.032 64.4839L199.137 65.9665C199.036 67.1825 195.576 71.4785 185.721 71.4785C175.865 71.4785 172.405 67.1825 172.304 66.0159L172.409 64.4839C172.647 61.0225 173.185 53.1799 173.68 47.5185C173.68 47.5185 174.9 46.7159 178.089 47.5185C181.279 48.3199 184.525 49.9012 192.099 49.2319C196.773 48.8185 197.961 49.8919 197.961 49.8919Z" fill="#F14D65"/>
<path d="M183.147 76.3757L183.359 70.4237C183.372 70.0557 183.084 69.7477 182.716 69.7344C182.348 69.721 182.04 70.009 182.027 70.377L181.813 76.3277C181.801 76.6957 182.088 77.005 182.456 77.0184C182.824 77.0317 183.133 76.7437 183.147 76.3757Z" fill="#F14D65"/>
<path d="M145.164 180.748C153.252 180.509 160.321 177.887 166.135 173.531C171.952 169.176 176.519 163.111 179.736 155.995C187.029 139.851 188.52 121.459 189.097 104.24C189.233 100.164 189.289 96.0879 189.289 92.0132C189.289 85.6719 189.152 79.3359 188.96 73.0092C188.937 72.2732 188.323 71.6959 187.587 71.7172C186.851 71.7399 186.272 72.3545 186.295 73.0905C186.487 79.4012 186.623 85.7105 186.623 92.0132C186.623 96.0625 186.567 100.109 186.432 104.152C185.868 121.28 184.349 139.335 177.307 154.896C174.243 161.671 169.936 167.355 164.537 171.396C159.135 175.435 152.645 177.852 145.084 178.081C144.348 178.104 143.769 178.719 143.791 179.455C143.813 180.19 144.428 180.769 145.164 180.748Z" fill="#D7F2F5"/>
<path d="M186.852 70.1038C187.055 77.5811 187.231 85.2958 187.231 92.9705C187.231 104.637 186.821 116.212 185.475 126.713C183.511 142.078 179.319 159.492 167.509 170.148C161.337 175.725 153.397 178.501 145.096 178.748C144.728 178.76 144.439 179.066 144.449 179.435C144.46 179.802 144.768 180.092 145.136 180.081C153.704 179.828 161.968 176.953 168.403 171.137C180.629 160.068 184.807 142.341 186.797 126.884C188.155 116.293 188.564 104.668 188.564 92.9705C188.564 85.2745 188.387 77.5478 188.185 70.0678C188.175 69.6998 187.868 69.4091 187.5 69.4198C187.132 69.4291 186.843 69.7358 186.852 70.1038Z" fill="#F14D65"/>
<path d="M172.304 66.0159L172.409 64.4839C172.443 64.0119 172.48 63.4519 172.524 62.8319C172.176 67.7705 179.773 69.1692 187.124 67.2399C194.115 65.4052 192.795 59.8185 192.017 49.2372L192.099 49.2319C196.773 48.8185 197.961 49.8919 197.961 49.8919C198.395 55.1999 198.825 61.4865 199.032 64.4839L199.137 65.9665C199.036 67.1825 195.576 71.4785 185.721 71.4785C175.865 71.4785 172.405 67.1825 172.304 66.0159Z" fill="#EE2859"/>
<path d="M177.436 62.4546C182.724 63.0599 188.245 63.0132 193.951 62.4492C194.189 62.4252 194.375 62.2226 194.375 61.9812V57.9039C194.375 57.6546 194.177 57.4479 193.929 57.4359C188.441 57.1666 182.955 57.1666 177.468 57.4359C177.219 57.4479 177.021 57.6546 177.021 57.9039V61.9866C177.021 62.2252 177.2 62.4279 177.436 62.4546Z" fill="#EDF9FE"/>
<path d="M177.816 39.0025C182.932 38.7652 186.476 38.7305 186.544 39.7532C186.613 40.7758 179.657 41.0492 177.475 43.3678C175.292 45.6865 175.292 44.8678 175.292 43.3678C175.292 41.8665 175.692 39.1012 177.816 39.0025Z" fill="#D7F2F5"/>
<path d="M194.839 88.2958C192.673 87.5345 190.507 86.7745 188.341 86.0132C188.004 85.8945 187.629 85.7758 187.299 85.9118C185.744 86.5465 187.081 88.4812 187.824 89.1585C188.479 89.7559 189.557 90.5439 190.111 91.2332L190.227 91.4438" fill="#F08074"/>
<path d="M135.553 123.276C137.668 123.448 139.948 122.749 141.421 120.98C142.285 119.941 142.707 118.593 143.248 117.368C143.425 116.966 143.613 116.552 143.947 116.266C144.272 115.988 144.723 115.862 145.144 115.932C145.399 115.974 145.656 116.097 145.78 116.322C145.911 116.558 145.869 116.848 145.825 117.113C145.419 119.548 145.172 122.657 143.321 124.44C141.639 126.06 139.775 126.838 137.507 127.42" fill="#EA4D62"/>
<path d="M144.361 115.504C144.361 120.017 140.703 123.676 136.188 123.676C131.675 123.676 128.016 120.017 128.016 115.504C128.016 110.99 131.675 107.332 136.188 107.332C140.703 107.332 144.361 110.99 144.361 115.504Z" fill="#EE2859"/>
<path d="M136.188 107.332C132.366 107.332 129.166 109.958 128.273 113.504C128.568 117.053 131.537 119.844 135.163 119.844C138.984 119.844 142.081 116.746 142.081 112.925C142.081 111.292 141.513 109.794 140.567 108.61C139.3 107.805 137.801 107.332 136.188 107.332Z" fill="#F14D65"/>
<path d="M95.9692 125.457C90.2977 125.457 86.5796 129.513 89.9749 133.17C92.9155 136.338 105.131 136.768 113.501 136.768C121.872 136.768 133.312 136.881 140.656 134.958C148 133.036 147.888 126.814 142.684 126.249C137.481 125.682 95.9692 125.457 95.9692 125.457Z" fill="#F03654"/>
<path d="M136.509 128.236C135.175 128.437 133.605 128.597 131.754 128.714C125.407 129.117 121.364 128.96 111.289 128.993C102.523 129.021 97.799 128.612 96.5746 127.913C94.2042 126.56 88.0323 118.54 86.5579 116.38C84.4052 113.224 79.374 89.3971 79.374 89.3971L82.8938 86.3051C87.3834 88.1091 88.6782 89.5318 90.1396 92.7544C93.3818 99.9051 99.874 115.877 100.507 116.578C100.851 116.96 101.475 118.022 103.096 118.242C105.642 118.586 121.68 120.188 123.593 120.153C126.248 120.105 125.435 119.768 126.733 118.429C127.196 117.952 127.709 117.486 128.251 117.485C129.529 121.237 132.34 122.8 134.749 123.245" fill="#F08074"/>
<path d="M80.2629 85.3931C83.3895 85.7624 87.7305 87.2091 89.6947 90.1037C91.6583 92.9971 98.1972 109.224 98.1972 109.224C98.1972 109.224 94.6556 112.429 87.0072 113.049L80.2629 85.3931Z" fill="#4AABC7"/>
<path d="M105.223 118.998L103.188 123.46L105.729 123.676L107.649 119.258L105.223 118.998Z" fill="#EDF9FE"/>
<path d="M136.509 128.236C138.163 127.936 140.385 127.068 141.86 124.565C143.336 122.063 144.209 118.573 143.369 117.217C142.331 115.544 141.92 117.009 141.396 118.052C140.873 119.095 139.259 124.111 133.047 122.748L136.509 128.236Z" fill="#F08074"/>
<path d="M109.65 121.853C109.663 122.217 109.669 122.58 109.669 122.942C109.67 131.614 106.209 139.658 100.568 145.532C94.9229 151.404 87.1286 155.089 78.4213 155.09C77.6541 155.09 76.8797 155.062 76.0983 155.004C75.3639 154.949 74.7245 155.5 74.6693 156.234C74.6145 156.969 75.165 157.608 75.8994 157.664C76.7469 157.726 77.5879 157.757 78.4213 157.757C87.8937 157.758 96.3896 153.733 102.491 147.378C108.595 141.025 112.335 132.329 112.335 122.942C112.335 122.55 112.329 122.157 112.316 121.764C112.291 121.028 111.675 120.452 110.939 120.476C110.203 120.5 109.626 121.117 109.65 121.853Z" fill="#D7F2F5"/>
<path d="M75.9654 157C76.5952 157.03 77.2206 157.046 77.8425 157.046C88.9873 157.053 98.8337 151.964 105.447 142.593C108.122 138.812 109.631 135.466 110.637 131.314C111.448 127.969 111.657 124.105 111.659 122.346C111.659 122.125 111.656 121.936 111.649 121.78L111.625 121.205L102.337 120.237C101.971 120.2 101.643 120.465 101.605 120.832C101.567 121.197 101.833 121.525 102.199 121.564L110.914 122.472L110.983 121.808L110.317 121.836C110.322 121.965 110.326 122.138 110.326 122.346C110.327 124.006 110.114 127.833 109.342 131C108.362 135.016 106.954 138.142 104.358 141.824C97.9618 150.864 88.5801 155.706 77.8425 155.713C77.243 155.713 76.64 155.698 76.0321 155.668C75.6644 155.649 75.3514 155.932 75.3332 156.3C75.3144 156.668 75.5977 156.981 75.9654 157Z" fill="#F14D65"/>
<path d="M69.2183 217.631V217.536C69.2183 215.797 70.6271 214.389 72.3656 214.389C74.1036 214.389 75.5131 212.98 75.5131 211.241V211.147C75.5131 209.409 76.9219 208 78.6599 208H115.144C116.882 208 118.291 209.409 118.291 211.147V211.241C118.291 212.98 119.701 214.389 121.439 214.389C123.177 214.389 124.586 215.797 124.586 217.536V217.631C124.586 219.369 123.177 220.777 121.439 220.777C119.701 220.777 118.291 222.187 118.291 223.925V224.02C118.291 225.757 119.701 227.166 121.439 227.166C123.177 227.166 124.586 228.576 124.586 230.314V230.409C124.586 232.147 123.177 233.556 121.439 233.556C119.701 233.556 118.291 234.965 118.291 236.704V236.797C118.291 238.536 116.882 239.945 115.144 239.945H78.6599C76.9219 239.945 75.5131 238.536 75.5131 236.797V236.704C75.5131 234.965 74.1036 233.556 72.3656 233.556C70.6271 233.556 69.2183 232.147 69.2183 230.409V230.314C69.2183 228.576 70.6271 227.166 72.3656 227.166C74.1036 227.166 75.5131 225.757 75.5131 224.02V223.925C75.5131 222.187 74.1036 220.777 72.3656 220.777C70.6271 220.777 69.2183 219.369 69.2183 217.631Z" fill="#292F6E"/>
<path d="M121.438 227.166H72.3655C74.1035 227.166 75.5129 225.757 75.5129 224.02V223.925C75.5129 222.187 74.1035 220.777 72.3655 220.777H121.438C119.7 220.777 118.291 222.187 118.291 223.925V224.02C118.291 225.757 119.7 227.166 121.438 227.166Z" fill="#1B1C3D"/>
<path d="M72.3655 214.389C74.1035 214.389 75.5129 212.98 75.5129 211.241V211.147C75.5129 209.416 76.9108 208.013 78.6389 208.001H115.165C116.893 208.013 118.291 209.416 118.291 211.147V211.241C118.291 212.98 119.7 214.389 121.438 214.389L121.459 214.39H72.3655V214.389Z" fill="#1B1C3D"/>
<path d="M118.291 236.704V236.797C118.291 238.536 116.882 239.945 115.144 239.945H78.6597C76.9217 239.945 75.5129 238.536 75.5129 236.797V236.704C75.5129 234.965 74.1035 233.556 72.3655 233.556H121.438C119.7 233.556 118.291 234.965 118.291 236.704Z" fill="#1B1C3D"/>
<path d="M72.1516 239.345H121.653C124.837 239.345 127.668 241.376 128.689 244.393C128.992 245.288 128.326 246.216 127.382 246.216H66.4224C65.4776 246.216 64.812 245.288 65.115 244.393C66.136 241.376 68.9661 239.345 72.1516 239.345Z" fill="#B2E6F4"/>
<path d="M71.4031 243.714H110.685C111.892 243.714 112.87 242.736 112.87 241.529C112.87 240.324 111.892 239.345 110.685 239.345H71.4031C70.1964 239.345 69.2183 240.324 69.2183 241.529C69.2183 242.736 70.1964 243.714 71.4031 243.714Z" fill="#D7F2F5"/>
<path d="M114.857 209.844C117.965 209.053 132.562 201.538 136.156 197.562L134.785 182.088H90.5452L47.8801 196.966L114.857 209.844Z" fill="#B2E6F4"/>
<path d="M47.3834 193.906C47.3834 200.085 46.7255 206.584 48.5459 208.254C50.3662 209.926 64.0547 212.473 78.2839 212.473C92.5136 212.473 114.239 212.113 115.977 208.956C117.715 205.8 116.809 185.238 116.809 185.238L47.3834 193.906Z" fill="#D7F2F5"/>
<path d="M47.3052 198.69C47.339 197.135 47.3833 195.511 47.3833 193.906L61.3693 192.262L90.5453 182.088H131.678L134.981 197.562C134.981 197.562 123.098 194.089 118.34 192.706C113.581 191.324 110.2 193.96 90.7036 197.562C72.7688 200.877 55.0781 199.759 47.3052 198.69Z" fill="#8AC8EE"/>
<path d="M13.9568 95.2211C17.6839 90.7465 49.7401 79.4265 61.7052 82.4051C73.6708 85.3825 86.3666 151.277 86.3666 151.277C86.3666 151.277 58.4005 182.897 40.0073 183.989C40.0093 183.037 13.9568 95.2211 13.9568 95.2211Z" fill="#F1435C"/>
<path d="M15.7566 94.0132C22.581 92.0532 29.7253 95.7679 32.1014 102.459C39.7977 124.135 45.6029 146.267 49.4962 168.861C50.5706 175.097 47.0623 181.223 41.1711 183.533L40.0071 183.989C38.0269 184.766 35.8118 183.643 35.2691 181.585L13.2993 98.3399C12.8055 96.4692 13.8971 94.5466 15.7566 94.0132Z" fill="#F03654"/>
<path d="M112.02 190.302C115.646 189.125 117.729 187.993 121.908 184.101C126.087 180.209 144.795 160.608 147.283 158.12C149.769 155.632 147.844 144.484 135.224 144.137C122.605 143.79 90.6634 144.189 80.2154 149.264C69.767 154.338 45.6613 179.424 43.5993 183.765C41.5373 188.106 112.02 190.302 112.02 190.302Z" fill="#F03654"/>
<path d="M43.5993 183.765C44.1196 182.669 46.0468 180.25 48.8014 177.168C60.1332 172.538 71.1717 171.982 82.7201 171.148C95.7249 170.207 110.14 169.581 113.431 175.341C115.917 179.694 117.08 184.468 116.945 188.095C115.38 189.08 113.908 189.689 112.02 190.302C112.02 190.302 41.5373 188.106 43.5993 183.765Z" fill="#F1435C"/>
<path d="M40.6729 194.108C39.4374 190.302 41.5182 184.331 45.9994 181.393C50.4812 178.457 59.2478 176.011 77.088 174.583C94.9276 173.156 104.65 172.987 108.7 175.721C112.75 178.457 113.566 184.899 113.973 186.775C114.381 188.65 113.158 190.078 110.609 190.893C108.061 191.709 94.5114 195.464 78.9145 196.711C63.3177 197.956 51.8693 197.729 46.224 196.719C42.6697 196.081 41.0062 195.133 40.6729 194.108Z" fill="#F03654"/>
<path d="M159.376 212.287C165.13 214.711 178.986 207.76 185.429 204.862C191.792 202.002 202.972 196.244 204.784 193.656C206.597 191.069 208.208 182.636 202.065 176.954C195.922 171.273 174.354 158.117 157.65 157.694C140.948 157.273 118.416 172.552 116.474 176.954C114.532 181.357 114.294 184.323 114.931 187.63L159.376 212.287Z" fill="#F1435C"/>
<path d="M114.931 187.631C114.723 186.456 114.825 182.129 116.966 179.112C119.107 176.096 124.408 172.629 136.439 178.644C148.468 184.659 158.663 191.637 162.231 195.233C165.799 198.829 165.493 205.15 164.372 208.617C163.251 212.083 161.619 212.899 159.376 212.287C157.133 211.674 120.512 192.995 118.393 191.489C116.099 189.86 115.147 188.854 114.931 187.631Z" fill="#F03654"/>
<path d="M196.408 176.566L191.001 171.833L182.412 178.857L187.412 182.869C187.412 182.869 190.757 182.357 193.528 180.116C196.299 177.876 196.408 176.566 196.408 176.566Z" fill="#F08074"/>
<path d="M191.001 171.833L191.68 172.428C191.68 172.428 189.659 178.545 184.485 180.521L182.412 178.857L191.001 171.833Z" fill="#EA4D62"/>
<path d="M186.207 180.592C186.521 179.801 188.439 181.433 189.989 181.265C191.541 181.095 192.872 180.799 193.516 179.412C194.28 177.765 193.579 176.645 192.643 175.578C191.487 174.262 191.564 172.14 192.995 171.129C193.215 170.974 193.448 170.868 193.695 170.834C195.169 170.636 195.635 171.978 198.705 172.058C202.141 172.146 205.025 170.88 208.252 170.088C212.128 169.138 214.036 166.874 216.209 166.789C218.188 166.71 219.283 167.365 220.601 171.428C220.047 174.16 217.492 176.754 214.308 178.654C211.412 180.383 207.196 182.156 204.713 183.35C202.231 184.545 198.413 189.638 192.952 190.401C188.656 186.126 186.207 180.592 186.207 180.592Z" fill="#1B1C3D"/>
<path d="M103.07 134.026C103.07 134.026 141.428 132.097 145.093 132.097C148.759 132.097 150.88 132.802 153.58 135.246C156.281 137.692 191.001 171.833 191.001 171.833C191.001 171.833 189.072 177.041 182.128 180.32L138.149 146.95L93.7349 148.1L103.07 134.026Z" fill="#1B1C3D"/>
<path d="M184.485 179.113L189.468 183.006C189.533 189.235 186.631 192.152 182.132 191.462L176.324 186.683L184.485 179.113Z" fill="#F6B68E"/>
<path d="M184.485 179.113L185.032 179.54C185.032 179.54 183.62 185.401 179.103 188.969L176.324 186.684L184.485 179.113Z" fill="#F08074"/>
<path d="M61.9246 154.356C63.6782 161.49 67.311 168.568 79.1298 169.193C90.9484 169.817 113.015 164.613 120.925 163.572C128.836 162.532 131.959 163.989 136.123 166.278C140.285 168.568 176.3 188.969 176.3 188.969C176.3 188.969 180.947 186.4 184.485 179.113C184.485 179.113 149.029 146.085 143.824 143.588C138.62 141.089 136.123 140.881 127.379 139.841C118.635 138.8 103.07 137.758 103.07 137.758L61.9246 154.356Z" fill="#292F6E"/>
<path d="M180.687 190.332C180.839 189.494 183.041 190.717 184.528 190.245C186.015 189.773 187.263 189.22 187.619 187.733C188.044 185.968 187.135 185.007 186.007 184.148C184.615 183.085 184.271 180.989 185.473 179.717C185.659 179.521 185.867 179.371 186.101 179.289C187.509 178.804 188.229 180.028 191.256 179.5C194.641 178.909 197.219 177.097 200.227 175.685C203.837 173.989 205.261 171.393 207.376 170.88C209.3 170.413 210.501 170.838 212.596 174.562C212.592 177.349 210.6 180.397 207.853 182.888C205.355 185.154 201.572 187.724 199.373 189.385C197.176 191.047 194.439 196.792 189.235 198.618C184.179 195.275 180.687 190.332 180.687 190.332Z" fill="#292F6E"/>
<path d="M74.6578 84.0904C77.1234 84.6157 84.1568 85.7597 87.1917 88.9957C88.7136 90.6184 103.07 139.828 103.07 139.828C103.07 139.828 96.6464 154.356 61.9245 154.356L54.1552 128.589L51.3328 88.6157L60.3374 83.409C60.3374 83.409 72.1917 83.5664 74.6578 84.0904Z" fill="#57C8DB"/>
<path d="M103.07 139.828C103.07 139.828 102.307 137.213 101.116 133.174C90.0279 137.906 64.6055 139.316 59.8143 121.21C59.8143 121.21 54.9858 125.988 53.8821 124.725L54.155 128.589L61.9243 154.356C96.6462 154.356 103.07 139.828 103.07 139.828Z" fill="#4AABC7"/>
<path d="M57.5598 68.9158L57.8114 71.8678C57.9078 72.9998 58.915 73.8305 60.0442 73.7092L59.8739 68.0812L57.5598 68.9158Z" fill="#2C2C71"/>
<path d="M82.0833 51.4998C82.6197 57.5825 83.425 70.3758 81.3671 75.2958C79.3098 80.2172 74.6578 80.3958 74.6578 80.3958V87.6425C74.6578 87.6425 68.3057 91.3105 60.4327 86.5692L59.8453 67.1305C59.8453 67.1305 58.3306 53.6012 60.4327 51.4998C62.5354 49.3972 70.6317 42.2852 82.0833 51.4998Z" fill="#F6B68E"/>
<mask id="mask0_1_284" style="mask-type:luminance" maskUnits="userSpaceOnUse" x="59" y="46" width="24" height="43">
<path d="M82.0833 51.4998C82.6197 57.5825 83.425 70.3758 81.3677 75.2958C79.3093 80.2172 74.6578 80.3958 74.6578 80.3958V87.6425C74.6578 87.6425 68.3057 91.3105 60.4327 86.5692L59.8453 67.1305C59.8453 67.1305 58.3306 53.6012 60.4327 51.4998C62.5354 49.3972 70.6317 42.2852 82.0833 51.4998Z" fill="white"/>
</mask>
<g mask="url(#mask0_1_284)">
<path d="M75.0072 80.2691C74.5264 80.3291 74.004 80.3625 73.4556 80.3625C71.3389 80.3638 68.8468 79.8625 66.7993 78.5225C64.7529 77.1771 63.1102 75.0371 62.5837 71.5518C62.5296 71.1865 62.19 70.9358 61.8258 70.9905C61.4618 71.0438 61.2108 71.3838 61.2649 71.7478C61.8269 75.5731 63.7326 78.1225 66.0706 79.6385C68.4077 81.1611 71.1368 81.6931 73.4556 81.6958C74.0577 81.6958 74.6337 81.6585 75.1701 81.5931C75.5353 81.5478 75.7952 81.2145 75.7504 80.8491C75.705 80.4838 75.3722 80.2251 75.0072 80.2691Z" fill="#F08074"/>
</g>
<path d="M54.6394 65.2744C54.6394 63.2624 56.2701 61.6318 58.2815 61.6318C60.2935 61.6318 61.9243 63.2624 61.9243 65.2744C61.9243 67.2851 60.2935 68.9158 58.2815 68.9158C56.2701 68.9158 54.6394 67.2851 54.6394 65.2744Z" fill="#F6B68E"/>
<path d="M59.4427 62.1611L59.6245 64.5317H61.8516V59.7877L61.8864 59.7237C62.1328 59.5691 63.6156 58.5557 63.6964 56.5824C63.7839 54.4304 63.2131 51.0051 64.838 50.8304C66.4631 50.6544 71.1177 54.6944 75.9484 54.2117C80.7792 53.7277 82.8869 51.1811 83.7656 49.5131C84.6437 47.8437 84.512 45.8237 83.7656 45.8237C83.0188 45.8237 81.0427 46.3944 79.9891 46.6584C79.9891 46.6584 81.0864 44.9011 81.3063 43.5837C81.526 42.2664 80.5599 42.5304 78.5396 43.1451C76.5193 43.7597 68.7464 44.7691 64.9697 45.4717C61.1927 46.1744 59.2604 47.0531 57.8995 48.6784C56.538 50.3024 56.9177 57.1757 57.2708 61.7744C58.2817 61.5251 58.936 61.8024 59.4427 62.1611Z" fill="#2C2C71"/>
<path d="M69.4753 62.8318C69.4753 62.2478 69.9488 61.7745 70.5327 61.7745C71.1165 61.7745 71.59 62.2478 71.59 62.8318C71.59 63.4158 71.1165 63.8892 70.5327 63.8892C69.9488 63.8892 69.4753 63.4158 69.4753 62.8318Z" fill="#2C2C71"/>
<path d="M78.1489 62.4051C78.1489 61.8224 78.6224 61.3491 79.2063 61.3491C79.7901 61.3491 80.2631 61.8224 80.2631 62.4051C80.2631 62.9891 79.7901 63.4624 79.2063 63.4624C78.6224 63.4624 78.1489 62.9891 78.1489 62.4051Z" fill="#2C2C71"/>
<path d="M66.979 60.1052C68.7367 59.3186 70.6331 59.0532 72.4837 59.0932C72.4837 59.0932 71.4634 58.0692 69.4753 58.3932C67.4873 58.7172 66.979 60.1052 66.979 60.1052Z" fill="#2C2C71"/>
<path d="M61.8516 60.9039C61.9245 65.2746 63.6193 71.2559 66.4317 71.9266C69.2437 72.5972 73.2193 71.0119 75.6458 70.9012C78.0969 70.7892 82.3625 71.5132 82.4869 69.6732C82.4869 69.6732 82.8917 74.3066 81.5183 77.2506C80.1448 80.1932 77.3978 81.1746 73.8661 81.5666C70.3344 81.9586 61.638 81.3746 59.9693 71.2346L59.8874 68.5412L59.6245 64.5319L61.8516 60.9039Z" fill="#2C2C71"/>
<path d="M75.1863 75.1705C73.2613 75.1265 71.4348 74.5518 69.7805 73.7211C69.7805 73.7211 70.0701 75.5998 72.0488 75.9745C74.1827 76.3785 75.1863 75.1705 75.1863 75.1705Z" fill="#F08074"/>
<path d="M77.3035 58.5612C79.1952 58.1998 81.102 58.3772 82.8936 58.8425C82.8936 58.8425 82.1359 57.6105 80.1269 57.4692C78.1181 57.3279 77.3035 58.5612 77.3035 58.5612Z" fill="#2C2C71"/>
<path d="M75.0399 59.1877C75.0405 59.1931 75.3957 61.6784 75.7509 64.2717C75.929 65.5677 76.1066 66.8904 76.2394 67.9384C76.3061 68.4624 76.3613 68.9171 76.3993 69.2637C76.4378 69.6024 76.4582 69.8637 76.4566 69.8931H76.7821L76.4591 69.8584L76.4566 69.8931H76.7821L76.4591 69.8584V69.8571L76.7946 69.8944L76.5435 69.6464C76.5446 69.6491 76.4805 69.6997 76.4591 69.8571L76.7946 69.8944L76.5435 69.6464C76.5451 69.6504 76.4238 69.7384 76.2591 69.8117C76.0102 69.9277 75.6675 70.0437 75.3971 70.1251C75.2613 70.1651 75.1425 70.1984 75.0591 70.2197L74.9305 70.2531C74.5727 70.3384 74.3525 70.6984 74.4378 71.0571C74.5243 71.4144 74.8842 71.6357 75.2419 71.5491C75.2555 71.5451 75.7649 71.4237 76.3091 71.2291C76.5831 71.1291 76.8634 71.0157 77.1195 70.8651C77.2477 70.7891 77.3722 70.7037 77.4935 70.5824C77.6102 70.4611 77.7487 70.2851 77.7842 70.0037L77.7847 70.0024L77.7899 69.8931C77.7883 69.7157 77.7638 69.4824 77.7249 69.1171C77.4487 66.6237 76.3602 59.0037 76.3597 58.9984C76.3077 58.6344 75.9701 58.3811 75.6055 58.4331C75.241 58.4851 74.9878 58.8237 75.0399 59.1877Z" fill="#F08074"/>
<path d="M60.0577 191.281C55.2321 191.281 49.3337 191.16 42.2025 188.142C40.7253 187.518 39.7827 186.077 40.2343 184.54C40.6863 183.001 42.3239 182.047 43.8379 182.571C51.3821 185.185 58.3739 185.576 62.8884 184.714C66.2457 184.076 68.1301 182.461 69.0192 179.329C70.6368 173.626 71.1097 167.88 70.5525 160.697C70.4291 159.098 71.6244 157.701 73.2228 157.577C74.8192 157.465 76.2176 158.649 76.342 160.248C76.9545 168.147 76.4196 174.52 74.6056 180.914C73.0249 186.482 70.5452 189.89 64.1488 190.948C63.1353 191.114 61.2425 191.281 60.0577 191.281Z" fill="#B2E6F4"/>
<path d="M70.5526 160.697C70.6614 162.101 70.7306 163.436 70.7598 164.741C72.5259 164.789 74.4551 164.833 76.5593 164.868C76.5306 163.377 76.4666 161.85 76.3421 160.248L76.3166 160.105L70.5806 160.044C70.5494 160.256 70.5354 160.474 70.5526 160.697Z" fill="#8AC8EE"/>
<path d="M56.4045 157.21C56.6993 159.15 57.6879 160.824 60.3348 161.433C63.2192 162.099 69.3285 162.456 78.0848 162.396C86.6816 162.336 91.6583 161.717 94.4859 161.264C97.3139 160.812 97.6493 157.4 97.6493 157.4L56.4045 157.21Z" fill="#D7F2F5"/>
<path d="M57.7188 147.352C52.0469 147.352 48.3292 151.408 51.7245 155.065C54.665 158.233 66.8806 158.662 75.251 158.662C83.6213 158.662 95.0614 158.776 102.406 156.853C109.75 154.93 109.637 148.709 104.434 148.144C99.2306 147.577 57.7188 147.352 57.7188 147.352Z" fill="#F14A60"/>
<path d="M56.3879 147.438C52.7025 148.664 51.3561 150.664 59.3092 152.197C66.2952 153.545 100.671 154.39 107.969 150.517L56.3879 147.438Z" fill="#F03654"/>
<path d="M93.4009 141.39C92.7769 141.334 90.0279 141.104 89.2577 141.018C87.1858 140.788 68.6566 137.91 66.5847 137.566C64.5134 137.221 63.7077 136.876 63.5925 136.3C63.4774 135.724 59.6889 110.444 59.6889 110.444L42.7217 116.004C42.7217 116.004 47.1347 141.364 47.9405 144.241C48.7462 147.118 50.1269 148.845 51.6701 149.305C53.2138 149.765 60.9749 151.566 72.4837 151.594C80.3711 151.613 85.2326 151.018 90.2967 151.73C92.0925 151.984 93.0695 153.008 95.8894 153.681C98.105 154.21 100.758 153.658 102.982 153.428C105.742 153.141 108.324 152.949 111.002 153.824C112.626 154.354 114.264 154.826 115.781 153.72C116.177 153.43 116.536 153.017 116.55 152.528C116.578 151.574 115.598 150.17 115.071 149.429C114.367 148.438 113.512 147.564 112.646 146.717C111.008 145.114 109.311 143.984 107.1 143.365C105.535 142.928 95.4727 141.577 93.4009 141.39Z" fill="#F6B68E"/>
<path d="M59.6889 110.444L60.8326 118.492C60.8326 118.492 55.5217 124.101 44.0977 123.65L42.7217 116.004L59.6889 110.444Z" fill="#F08074"/>
<path d="M51.3327 88.6157C47.6676 90.453 42.6463 93.8317 41.6103 100.737C40.575 107.642 42.7218 121.413 42.7218 121.413C42.7218 121.413 47.6707 121.873 52.8499 120.838C58.0291 119.802 61.1472 117.22 61.1472 117.22C61.1472 117.22 60.192 109.968 59.3176 103.757C58.075 94.9397 56.1286 89.7677 51.3327 88.6157Z" fill="#4AABC7"/>
<path d="M174.739 32.125H178.092C178.892 32.125 179.541 32.773 179.541 33.5743C179.541 34.3757 178.892 35.0237 178.092 35.0237H174.739" fill="#B2E6F4"/>
<path d="M262.748 216.218L267.183 227.333C267.183 227.333 266.859 232.232 263.268 232.771C259.677 233.313 256.133 225.971 256.133 225.971L253.125 219.952L262.748 216.218Z" fill="#F08074"/>
<path d="M253.125 219.952L254.984 223.671C254.984 223.671 257.155 223.761 260.431 222.309C263.705 220.857 264.021 219.409 264.021 219.409L262.748 216.218L253.125 219.952Z" fill="#EA4D62"/>
<path d="M267.211 226.156C266.429 225.948 266.588 228.338 265.579 229.426C264.569 230.516 263.587 231.364 262.163 231.069C260.471 230.718 260.013 229.547 259.731 228.226C259.381 226.597 257.716 225.452 256.133 225.971C255.889 226.05 255.675 226.169 255.511 226.337C254.521 227.352 255.284 228.469 253.601 230.86C251.72 233.535 249.517 235.64 246.68 237.033C244.251 238.226 242.196 237.376 239.733 239.265C238.371 240.311 238.273 243.035 238.727 245.005C241.128 246.132 247.709 246.221 250.131 245.685C253.264 244.992 256.496 243.075 258.817 241.856C261.139 240.638 267.929 239.917 271.611 236.178C270.783 230.471 267.211 226.156 267.211 226.156Z" fill="#A3DBE5"/>
<path d="M261.361 101.247C261.361 101.247 250.905 162.168 251.327 165.329C251.749 168.492 264.021 217.078 264.021 217.078C261.513 219.824 256.372 222.257 253.125 221.566C253.125 221.566 231.676 178.297 230.731 169.311C229.432 156.955 230.731 100.303 230.731 100.303L261.361 101.247Z" fill="#4AABC7"/>
<path d="M236.589 223.177L235.359 234.874C235.359 234.874 233.391 239.372 229.831 238.661C226.269 237.949 225.429 229.84 225.429 229.84L225.765 223.177H236.589Z" fill="#F6B68E"/>
<path d="M236.589 223.177L236.172 227.406C236.172 227.406 231.029 229.457 225.58 226.859L225.765 223.177H236.589Z" fill="#F08074"/>
<path d="M224.405 100.956C224.405 100.956 222.437 156.662 222.365 164.661C222.292 172.66 225.028 224.447 225.028 224.447C225.028 224.447 229.499 226.9 236.948 224.223C236.743 222.813 244.477 172.101 245.269 166.782C246.061 161.464 259.993 102.012 259.993 102.012L224.405 100.956Z" fill="#57C8DB"/>
<path d="M235.787 233.777C235.121 233.314 234.459 235.617 233.14 236.299C231.821 236.98 230.608 237.444 229.369 236.682C227.897 235.778 227.864 234.521 228.047 233.182C228.272 231.533 227.095 229.889 225.429 229.84C225.173 229.832 224.932 229.871 224.719 229.973C223.444 230.59 223.783 231.901 221.388 233.577C218.709 235.454 215.836 236.219 212.78 237.033C208.985 238.045 205.993 237.737 204.127 238.63C202.577 239.371 201.337 241.165 202.427 245.081C204.303 246.956 208.956 247.177 212.48 247.011C215.687 246.86 219.961 246.049 222.559 245.692C225.156 245.335 230.86 247.368 235.593 245.102C236.753 239.453 235.787 233.777 235.787 233.777Z" fill="#B2E6F4"/>
<path d="M258.617 49.8945C258.737 47.1599 257.167 44.6212 254.649 43.5439C251.053 42.0052 246.316 40.7372 243.645 40.2119C239.637 39.4265 232.673 40.4185 228.912 41.9065C225.151 43.3945 224.539 45.0799 221.953 49.7252C219.676 53.8185 218.187 56.5279 217.819 60.7825C217.309 66.6612 221.764 71.8839 221.764 71.8839C221.764 71.8839 223.005 77.7825 223.103 80.5412C223.147 81.7985 219.693 91.0185 219.261 93.4905C218.76 96.3612 209.72 125.576 210.087 146.06C216.168 151.684 233.051 153.6 245.769 152.572L248.151 131.853L251.612 151.131C258.221 149.871 263.663 147.845 266.179 145.307C266.179 145.307 266.844 106.287 256.096 82.8199C253.736 77.6665 256.567 65.2332 257.752 60.6119C258.067 59.3839 258.257 58.1279 258.312 56.8612L258.617 49.8945Z" fill="#57C8DB"/>
<path d="M257.751 60.6118C257.9 60.0305 258.016 59.4425 258.108 58.8518C258.015 59.0585 245.921 85.6905 240.496 89.1731C235.049 92.6718 219.96 91.1345 219.96 91.1345L218.571 96.2531C218.571 96.2531 231.039 101.509 242.973 100.765C250.776 100.277 257.464 111.356 258.113 130.328C258.668 146.556 254.584 150.081 253.391 150.762C259.187 149.492 263.892 147.613 266.179 145.306C266.179 145.306 266.844 106.286 256.096 82.8198C253.736 77.6651 256.567 65.2331 257.751 60.6118Z" fill="#57C8DB"/>
<path d="M245.412 108.426L259.077 107.772C259.077 107.772 260.98 124.558 259.301 125.712C256.623 127.553 249.763 127.624 246.855 126.708C244.781 126.056 245.412 108.426 245.412 108.426Z" fill="#57C8DB"/>
<path d="M259.301 125.712C259.699 125.438 259.895 124.28 259.963 122.68C259.088 125.461 254.557 125.508 250.329 125.37C247.14 125.268 246.189 119.725 245.335 116.094C245.095 120.037 245.724 126.352 246.855 126.708C249.763 127.624 256.623 127.553 259.301 125.712Z" fill="#57C8DB"/>
<path d="M245.447 42.5079C245.447 42.5079 248.051 42.8719 248.148 44.2719C248.284 46.2252 244.097 52.4546 232.636 61.2786C231.709 60.9239 227.741 44.3972 232.219 42.7252L245.447 42.5079Z" fill="#57C8DB"/>
<path d="M258.617 49.8945C258.737 47.1599 257.167 44.6212 254.649 43.5439C251.053 42.0052 246.316 40.7372 243.645 40.2119C239.637 39.4265 232.673 40.4185 228.912 41.9065C225.151 43.3945 224.539 45.0799 221.953 49.7252C219.676 53.8185 218.187 56.5279 217.819 60.7825C217.309 66.6612 221.764 71.8839 221.764 71.8839C221.764 71.8839 223.005 77.7825 223.103 80.5412C223.147 81.7985 219.693 91.0185 219.261 93.4905C218.76 96.3612 209.72 125.576 210.087 146.06C216.168 151.684 233.051 153.6 245.769 152.572L248.151 131.853L251.612 151.131C258.221 149.871 263.663 147.845 266.179 145.307C266.179 145.307 266.844 106.287 256.096 82.8199C253.736 77.6665 256.567 65.2332 257.752 60.6119C258.067 59.3839 258.257 58.1279 258.312 56.8612L258.617 49.8945Z" fill="#D7F2F5"/>
<path d="M257.751 60.6118C257.9 60.0305 258.016 59.4425 258.108 58.8518C258.015 59.0585 245.921 85.6905 240.496 89.1731C235.049 92.6718 219.96 91.1345 219.96 91.1345L218.571 96.2531C218.571 96.2531 231.039 101.509 242.973 100.765C250.776 100.277 257.464 111.356 258.113 130.328C258.668 146.556 254.584 150.081 253.391 150.762C259.187 149.492 263.892 147.613 266.179 145.306C266.179 145.306 266.844 106.286 256.096 82.8198C253.736 77.6651 256.567 65.2331 257.751 60.6118Z" fill="#B2E6F4"/>
<path d="M245.412 108.426L259.077 107.772C259.077 107.772 260.98 124.558 259.301 125.712C256.623 127.553 249.763 127.624 246.855 126.708C244.781 126.056 245.412 108.426 245.412 108.426Z" fill="#D7F2F5"/>
<path d="M259.301 125.712C259.699 125.438 259.895 124.28 259.963 122.68C259.088 125.461 254.557 125.508 250.329 125.37C247.14 125.268 246.189 119.725 245.335 116.094C245.095 120.037 245.724 126.352 246.855 126.708C249.763 127.624 256.623 127.553 259.301 125.712Z" fill="#B2E6F4"/>
<path d="M245.447 42.5079C245.447 42.5079 248.051 42.8719 248.148 44.2719C248.284 46.2252 244.097 52.4546 232.636 61.2786C231.709 60.9239 227.741 44.3972 232.219 42.7252L245.447 42.5079Z" fill="#57C8DB"/>
<path d="M242.56 64.949C242.56 64.949 235.571 82.3344 235.293 82.8197C235.016 83.305 233.901 83.3744 231.927 83.0624C229.953 82.7504 216.095 79.6024 212.324 78.2757C210.452 77.6171 207.941 76.749 207.041 74.6024C206.14 72.4557 205.332 71.021 204.361 68.8251C203.291 66.4024 203.416 63.629 202.472 63.6717C201.309 63.725 199.389 65.445 199.736 68.561C199.888 69.9304 199.997 71.0064 200.072 71.7824C200.151 72.6064 199.481 73.2904 198.655 73.253C197.732 73.2104 196.456 73.109 194.996 72.8744C191.093 72.2491 184.063 70.8251 184.063 70.8251C184.063 70.8251 181.299 71.1611 183.623 73.3251C185.688 75.2491 188.945 75.493 190.261 77.4317C191.577 79.3717 194.381 81.3451 200.788 83.9424C207.195 86.5384 212.797 88.7797 223.193 92.217C233.591 95.6557 237.652 95.565 239.183 95.6144C240.715 95.6624 242.875 93.701 244.467 91.3464C246.06 88.9917 254.031 72.5944 254.031 72.5944L242.56 64.949Z" fill="#F6B68E"/>
<path d="M254.328 43.5837C258.709 44.4357 261.407 48.8117 260.995 54.9757C260.583 61.1397 254.019 79.113 254.019 79.113C254.019 79.113 249.655 78.5744 245.375 76.6984C241.095 74.8237 238.889 72.0024 238.889 72.0024C238.889 72.0024 243.683 59.4637 245.613 54.261C248.356 46.8757 249.965 43.6704 254.328 43.5837Z" fill="#D7F2F5"/>
<path d="M245.673 32.8799C247.417 32.5905 249.117 31.0546 250.772 26.7412C252.427 22.4279 255.711 11.5146 251.855 6.68255C247.656 1.42122 243.363 0.646568 236.883 2.53057V32.8799H245.673Z" fill="#2C2C71"/>
<path d="M226.128 10.173C224.635 15.4477 223.309 24.245 225.784 31.141C227.843 36.8784 233.807 36.7103 233.807 36.7103L233.857 43.5424C233.857 43.5424 236.883 49.173 245.427 43.377L245.964 20.4664C245.964 20.4664 248.955 12.8357 246.985 10.7543C245.016 8.67302 237.407 1.60367 226.128 10.173Z" fill="#F6B68E"/>
<mask id="mask1_1_284" style="mask-type:luminance" maskUnits="userSpaceOnUse" x="224" y="6" width="24" height="40">
<path d="M226.128 10.173C224.635 15.4477 223.309 24.245 225.784 31.141C227.843 36.8784 233.807 36.7103 233.807 36.7103L233.857 43.5424C233.857 43.5424 236.883 49.173 245.427 43.377L245.964 20.4664C245.964 20.4664 248.953 12.8357 246.985 10.7543C245.016 8.67302 237.407 1.60367 226.128 10.173Z" fill="white"/>
</mask>
<g mask="url(#mask1_1_284)">
<path d="M231.937 37.9343C232.235 37.9516 232.536 37.9609 232.84 37.9609C235.16 37.9623 237.644 37.4196 239.829 35.8889C242.017 34.3623 243.868 31.8583 244.959 28.0756C245.06 27.7223 244.857 27.3516 244.503 27.2503C244.149 27.1476 243.78 27.3516 243.677 27.7049C242.647 31.2583 240.977 33.4569 239.065 34.7969C237.152 36.1356 234.959 36.6276 232.84 36.6276C232.563 36.6276 232.288 36.6196 232.015 36.6036C231.648 36.5823 231.332 36.8623 231.311 37.2303C231.289 37.5969 231.569 37.9129 231.937 37.9343Z" fill="#F08074"/>
</g>
<path d="M250.771 23.2263C250.825 21.289 249.297 19.6743 247.36 19.6197C245.421 19.5663 243.807 21.093 243.753 23.0303C243.699 24.969 245.227 26.5837 247.164 26.637C249.103 26.6917 250.717 25.1637 250.771 23.2263Z" fill="#F6B68E"/>
<path d="M230.236 18.0037C230.235 18.005 229.893 19.8357 229.549 21.7517C229.379 22.709 229.207 23.6877 229.077 24.4717C229.013 24.865 228.959 25.209 228.92 25.4797C228.883 25.7597 228.857 25.9317 228.855 26.1064L228.859 26.189L228.857 26.1863C228.883 26.4743 229.044 26.6797 229.176 26.7943C229.417 26.997 229.643 27.0717 229.879 27.1477C230.571 27.353 231.397 27.401 231.421 27.4064C231.789 27.4317 232.108 27.1543 232.133 26.7863C232.159 26.4197 231.881 26.101 231.513 26.0757C231.513 26.0757 231.409 26.069 231.243 26.0503C230.993 26.0237 230.609 25.9677 230.331 25.8917C230.193 25.8544 230.081 25.8077 230.053 25.7904L230.051 25.789L229.8 26.1077L230.187 26.0757C230.168 25.8837 230.059 25.793 230.051 25.789L229.8 26.1077L230.187 26.0757V26.073L229.797 26.1064H230.188L230.187 26.073L229.797 26.1064H230.188L230.191 26.077C230.204 25.881 230.3 25.245 230.431 24.4664C230.627 23.289 230.905 21.7343 231.136 20.4743C231.365 19.2143 231.545 18.2517 231.545 18.249C231.613 17.8877 231.375 17.5397 231.013 17.4717C230.652 17.4037 230.303 17.6423 230.236 18.005" fill="#F08074"/>
<path d="M237.104 20.6652C237.12 20.1038 236.676 19.6345 236.113 19.6185C235.552 19.6038 235.083 20.0465 235.067 20.6092C235.052 21.1718 235.495 21.6398 236.057 21.6558C236.62 21.6718 237.088 21.2278 237.104 20.6652Z" fill="#2C2C71"/>
<path d="M227.741 20.2252C227.757 19.6626 227.313 19.1946 226.752 19.1786C226.189 19.1626 225.72 19.6065 225.704 20.1692C225.689 20.7319 226.132 21.1999 226.695 21.2159C227.257 21.2319 227.725 20.7879 227.741 20.2252Z" fill="#2C2C71"/>
<path d="M238.985 18.6438C237.651 18.0011 236.204 17.5158 234.781 17.5078C234.781 17.5078 235.672 16.4758 237.193 16.7665C238.715 17.0585 238.985 18.6438 238.985 18.6438Z" fill="#2C2C71"/>
<path d="M228.807 17.1478C227.352 17.2145 225.875 17.4705 224.639 18.1265C224.639 18.1265 224.928 16.8185 226.381 16.3611C227.833 15.9025 228.807 17.1478 228.807 17.1478Z" fill="#2C2C71"/>
<path d="M230.495 30.1025C232.343 30.2785 234.156 29.9371 235.833 29.3291C235.833 29.3291 235.675 31.3145 233.445 31.5798C230.865 31.8865 230.495 30.1025 230.495 30.1025Z" fill="#EA4D62"/>
<path d="M246.709 19.6186L246.051 23.7065C244.333 23.4852 243.669 22.9452 243.752 21.2159L243.995 19.1785C243.995 19.1785 241.296 18.4932 239.401 16.5679C236.099 13.2106 238.329 5.41989 238.329 5.41989C238.329 5.41989 240.453 4.14256 245.287 7.71856C250.12 11.2959 248.195 17.8599 246.709 19.6186Z" fill="#2C2C71"/>
<path d="M237.884 7.50656C237.884 7.50656 235.469 16.2599 225.036 15.6452C225.036 15.6452 224.472 19.2573 224.455 20.2986C224.455 20.2986 221.976 19.4146 220.511 15.1919C218.981 10.7852 220.765 5.68657 224.311 2.85457C230.693 -2.24409 238.729 0.467905 240.496 3.41857L239.148 6.5799L237.884 7.50656Z" fill="#2C2C71"/>
<path d="M234.351 51.8892C232.509 50.6958 231.62 46.3758 232.219 42.7252L234.515 41.7451L245.447 42.5078C245.447 42.5078 246.448 42.7825 246.552 43.6345C246.68 44.6892 240.873 50.5212 234.351 51.8892Z" fill="#F6B68E"/>
</svg>
