<svg width="81" height="81" viewBox="0 0 81 81" fill="none" xmlns="http://www.w3.org/2000/svg">
<path d="M57.0195 8.46323C61.3195 13.2632 63.0195 20.1632 67.7195 26.1632C72.5195 32.0632 80.2195 37.0632 80.5195 42.2632C80.8195 47.4632 73.8195 52.7632 69.4195 59.2632C65.0195 65.7632 63.2195 73.4632 58.6195 77.2632C53.9195 80.9632 46.4195 80.8632 39.9195 79.0632C33.5195 77.2632 28.0195 73.7632 22.2195 70.6632C16.5195 67.5632 10.3195 64.8632 6.01952 60.1632C1.71952 55.4632 -0.780481 48.7632 0.219519 42.6632C1.21952 36.5632 5.81952 31.0632 9.01952 24.4632C12.3195 17.8632 14.2195 10.2632 18.9195 5.66322C23.7195 0.963223 31.3195 -0.536777 38.5195 0.163223C45.8195 0.763223 52.6195 3.56323 57.0195 8.46323Z" fill="url(#paint0_linear_1_512)"/>
<defs>
<linearGradient id="paint0_linear_1_512" x1="0" y1="80.276" x2="80.2756" y2="-0.252455" gradientUnits="userSpaceOnUse">
<stop stop-color="#E81A1A"/>
<stop offset="1"/>
</linearGradient>
</defs>
</svg>
