<svg width="100" height="100" viewBox="0 0 100 100" fill="none" xmlns="http://www.w3.org/2000/svg">
<circle cx="50" cy="50" r="49" fill="white" stroke="#C4C4C4" stroke-width="2"/>
<path d="M59.7599 37.0133H62.7685C64.7584 37.0133 66.5667 37.793 67.8767 39.0483C69.1864 40.3036 70 42.0372 70 43.9438V59.5387C70 61.4458 69.1866 63.1789 67.8769 64.4342C66.5671 65.6897 64.7584 66.4694 62.7685 66.4694H37.2315C35.2416 66.4694 33.4332 65.6897 32.1235 64.4342C30.8136 63.1789 30 61.4458 30 59.5387V43.9438C30 42.0367 30.8136 40.3034 32.1235 39.0481C33.4332 37.7927 35.2416 37.0133 37.2315 37.0133H40.2403C40.5246 36.1304 41.0801 35.3537 41.7633 34.7258C42.9251 33.6575 44.5199 33 45.7547 33H54.2452C55.4799 33 57.0749 33.6575 58.2365 34.7258C58.9195 35.3537 59.4751 36.1304 59.7597 37.0133H59.7599ZM50 43.2944C52.4332 43.2944 54.6372 44.2401 56.232 45.7686C57.827 47.2972 58.8137 49.4094 58.8137 51.7415C58.8137 54.0735 57.827 56.1856 56.232 57.7143C54.6368 59.2428 52.4335 60.1885 50 60.1885C47.5665 60.1885 45.3632 59.2428 43.768 57.7143C42.1732 56.1855 41.1865 54.0737 41.1865 51.7415C41.1865 49.4092 42.1732 47.2974 43.768 45.7686C45.3628 44.2401 47.5668 43.2944 50 43.2944ZM54.3149 47.6061C53.211 46.5481 51.6853 45.8938 50 45.8938C48.3149 45.8938 46.789 46.5481 45.6851 47.6061C44.5816 48.6641 43.8985 50.1265 43.8985 51.7415C43.8985 53.3564 44.5816 54.8189 45.6851 55.8768C46.789 56.9346 48.3149 57.5892 50 57.5892C51.685 57.5892 53.211 56.9346 54.3149 55.8768C55.4188 54.8189 56.1015 53.3566 56.1015 51.7415C56.1015 50.1263 55.4188 48.6641 54.3149 47.6061ZM62.7685 39.6125H58.61C57.8613 39.6125 57.2541 39.0306 57.2541 38.313C57.2541 37.6715 56.8784 37.0686 56.3615 36.5937C55.6923 35.9782 54.8496 35.5994 54.2453 35.5994H45.7548C45.1506 35.5994 44.3078 35.9782 43.6386 36.5937C43.1218 37.0688 42.7461 37.6715 42.7461 38.313C42.7461 39.0306 42.1389 39.6125 41.3901 39.6125H37.2317C35.99 39.6125 34.8602 40.1004 34.0408 40.8857C33.2214 41.6712 32.7122 42.754 32.7122 43.944V59.5389C32.7122 60.7286 33.2214 61.8117 34.0408 62.597C34.8603 63.3824 35.9902 63.8703 37.2317 63.8703H62.7687C64.0104 63.8703 65.1406 63.3824 65.9598 62.597C66.7794 61.8116 67.2881 60.7289 67.2881 59.5389V43.944C67.2881 42.7543 66.7792 41.6712 65.9596 40.886C65.14 40.1005 64.0102 39.6125 62.7687 39.6125H62.7685Z" fill="#C4C4C4"/>
</svg>
