<svg width="390" height="844" viewBox="0 0 390 844" fill="none" xmlns="http://www.w3.org/2000/svg">
<g clip-path="url(#clip0_1_1551)">
<rect width="390" height="844" fill="url(#paint0_linear_1_1551)"/>
<circle opacity="0.2" cx="195" cy="300" r="63" fill="#C62C2C"/>
<circle opacity="0.2" cx="195" cy="300" r="92" fill="#C62C2C"/>
<circle opacity="0.2" cx="195" cy="300" r="123" fill="#C62C2C"/>
<circle opacity="0.2" cx="195" cy="300" r="157" fill="#C62C2C"/>
<circle opacity="0.2" cx="195" cy="300" r="195" fill="#C62C2C"/>
<circle opacity="0.2" cx="195" cy="300" r="233" fill="#C62C2C"/>
<path d="M361 28V30H362V32H361V34H346V28H361ZM361.5 26H345.5C344.672 26 344 26.6716 344 27.5V34.5C344 35.3284 344.672 36 345.5 36H361.5C362.328 36 363 35.3284 363 34.5V34H363.25C363.664 34 364 33.6642 364 33.25V28.75C364 28.3358 363.664 28 363.25 28H363V27.5C363 26.6716 362.328 26 361.5 26ZM360 29H347V33H360V29Z" fill="black"/>
<path d="M324.4 32H322.9C322.624 32 322.4 32.2237 322.4 32.5V38.5C322.4 38.7763 322.624 39 322.9 39H324.4C324.676 39 324.9 38.7763 324.9 38.5V32.5C324.9 32.2237 324.676 32 324.4 32ZM320.4 35H318.9C318.624 35 318.4 35.2237 318.4 35.5V38.5C318.4 38.7763 318.624 39 318.9 39H320.4C320.676 39 320.9 38.7763 320.9 38.5V35.5C320.9 35.2237 320.676 35 320.4 35ZM328.4 29H326.9C326.624 29 326.4 29.2237 326.4 29.5V38.5C326.4 38.7763 326.624 39 326.9 39H328.4C328.676 39 328.9 38.7763 328.9 38.5V29.5C328.9 29.2237 328.676 29 328.4 29ZM332.4 26H330.9C330.624 26 330.4 26.2237 330.4 26.5V38.5C330.4 38.7763 330.624 39 330.9 39H332.4C332.676 39 332.9 38.7763 332.9 38.5V26.5C332.9 26.2237 332.676 26 332.4 26ZM336.4 23H334.9C334.624 23 334.4 23.2237 334.4 23.5V38.5C334.4 38.7763 334.624 39 334.9 39H336.4C336.676 39 336.9 38.7763 336.9 38.5V23.5C336.9 23.2237 336.676 23 336.4 23Z" fill="black"/>
<path d="M311.841 27.84C306.304 22.7191 297.693 22.7209 292.159 27.84C291.951 28.0325 291.947 28.3584 292.148 28.5581L293.218 29.6197C293.41 29.8103 293.719 29.8144 293.918 29.6316C298.478 25.4541 305.521 25.4531 310.082 29.6316C310.282 29.8144 310.59 29.81 310.782 29.6197L311.852 28.5581C312.053 28.3584 312.049 28.0325 311.841 27.84ZM302 34C300.895 34 300 34.8953 300 36C300 37.1047 300.895 38 302 38C303.105 38 304 37.1047 304 36C304 34.8953 303.105 34 302 34ZM308.333 31.3878C304.732 28.2025 299.264 28.2059 295.667 31.3878C295.451 31.5784 295.444 31.9094 295.649 32.1112L296.725 33.1734C296.912 33.3584 297.214 33.3709 297.414 33.1984C300.037 30.9306 303.968 30.9356 306.586 33.1984C306.785 33.3709 307.087 33.3587 307.275 33.1734L308.351 32.1112C308.556 31.9094 308.549 31.5781 308.333 31.3878Z" fill="black"/>
<path d="M28.206 32.004C28.346 32.7413 28.7753 33.11 29.494 33.11C29.9887 33.11 30.3387 32.8907 30.544 32.452C30.7493 32.0133 30.852 31.2993 30.852 30.31C30.6467 30.5993 30.3667 30.8233 30.012 30.982C29.6573 31.1407 29.2607 31.22 28.822 31.22C28.2247 31.22 27.6927 31.0987 27.226 30.856C26.7593 30.604 26.3907 30.2353 26.12 29.75C25.8587 29.2553 25.728 28.658 25.728 27.958C25.728 27.2673 25.868 26.6653 26.148 26.152C26.4373 25.6387 26.8433 25.242 27.366 24.962C27.898 24.682 28.5233 24.542 29.242 24.542C30.6233 24.542 31.5893 24.9713 32.14 25.83C32.6907 26.6887 32.966 27.9533 32.966 29.624C32.966 30.8373 32.854 31.8407 32.63 32.634C32.4153 33.418 32.0467 34.0153 31.524 34.426C31.0107 34.8367 30.306 35.042 29.41 35.042C28.7007 35.042 28.094 34.902 27.59 34.622C27.0953 34.342 26.7127 33.9733 26.442 33.516C26.1807 33.0587 26.0313 32.5547 25.994 32.004H28.206ZM29.368 29.33C29.76 29.33 30.0727 29.2133 30.306 28.98C30.5393 28.7373 30.656 28.4107 30.656 28C30.656 27.552 30.5347 27.2067 30.292 26.964C30.0493 26.7213 29.7227 26.6 29.312 26.6C28.9013 26.6 28.5747 26.726 28.332 26.978C28.0987 27.2207 27.982 27.5567 27.982 27.986C27.982 28.3873 28.0987 28.714 28.332 28.966C28.5747 29.2087 28.92 29.33 29.368 29.33ZM35.6013 35.112C35.1813 35.112 34.8359 34.9907 34.5653 34.748C34.3039 34.496 34.1733 34.188 34.1733 33.824C34.1733 33.4507 34.3039 33.138 34.5653 32.886C34.8359 32.634 35.1813 32.508 35.6013 32.508C36.0119 32.508 36.3479 32.634 36.6093 32.886C36.8799 33.138 37.0153 33.4507 37.0153 33.824C37.0153 34.188 36.8799 34.496 36.6093 34.748C36.3479 34.9907 36.0119 35.112 35.6013 35.112ZM35.6013 29.414C35.1813 29.414 34.8359 29.2927 34.5653 29.05C34.3039 28.798 34.1733 28.49 34.1733 28.126C34.1733 27.7527 34.3039 27.44 34.5653 27.188C34.8359 26.936 35.1813 26.81 35.6013 26.81C36.0119 26.81 36.3479 26.936 36.6093 27.188C36.8799 27.44 37.0153 27.7527 37.0153 28.126C37.0153 28.49 36.8799 28.798 36.6093 29.05C36.3479 29.2927 36.0119 29.414 35.6013 29.414ZM38.2218 29.75C38.2218 28.1447 38.5298 26.88 39.1458 25.956C39.7711 25.032 40.7745 24.57 42.1558 24.57C43.5371 24.57 44.5358 25.032 45.1518 25.956C45.7771 26.88 46.0898 28.1447 46.0898 29.75C46.0898 31.374 45.7771 32.648 45.1518 33.572C44.5358 34.496 43.5371 34.958 42.1558 34.958C40.7745 34.958 39.7711 34.496 39.1458 33.572C38.5298 32.648 38.2218 31.374 38.2218 29.75ZM43.7378 29.75C43.7378 28.8073 43.6351 28.084 43.4298 27.58C43.2245 27.0667 42.7998 26.81 42.1558 26.81C41.5118 26.81 41.0871 27.0667 40.8818 27.58C40.6765 28.084 40.5738 28.8073 40.5738 29.75C40.5738 30.3847 40.6111 30.912 40.6858 31.332C40.7605 31.7427 40.9098 32.0787 41.1338 32.34C41.3671 32.592 41.7078 32.718 42.1558 32.718C42.6038 32.718 42.9398 32.592 43.1638 32.34C43.3971 32.0787 43.5511 31.7427 43.6258 31.332C43.7005 30.912 43.7378 30.3847 43.7378 29.75ZM47.3546 29.75C47.3546 28.1447 47.6626 26.88 48.2786 25.956C48.9039 25.032 49.9073 24.57 51.2886 24.57C52.6699 24.57 53.6686 25.032 54.2846 25.956C54.9099 26.88 55.2226 28.1447 55.2226 29.75C55.2226 31.374 54.9099 32.648 54.2846 33.572C53.6686 34.496 52.6699 34.958 51.2886 34.958C49.9073 34.958 48.9039 34.496 48.2786 33.572C47.6626 32.648 47.3546 31.374 47.3546 29.75ZM52.8706 29.75C52.8706 28.8073 52.7679 28.084 52.5626 27.58C52.3573 27.0667 51.9326 26.81 51.2886 26.81C50.6446 26.81 50.2199 27.0667 50.0146 27.58C49.8093 28.084 49.7066 28.8073 49.7066 29.75C49.7066 30.3847 49.7439 30.912 49.8186 31.332C49.8933 31.7427 50.0426 32.0787 50.2666 32.34C50.4999 32.592 50.8406 32.718 51.2886 32.718C51.7366 32.718 52.0726 32.592 52.2966 32.34C52.5299 32.0787 52.6839 31.7427 52.7586 31.332C52.8333 30.912 52.8706 30.3847 52.8706 29.75Z" fill="black"/>
<path d="M207.596 358.29L179.527 368.393L174.071 368.965L172.116 371.059L158.273 376.042L153.645 376.611L151.617 378.439L138.682 383.095C138.679 383.095 138.679 383.099 138.679 383.099V383.095L134.31 383.351L132.401 385.359L130.089 386.19C126.906 387.338 123.524 387.464 120.369 386.667C117.513 385.948 114.842 384.467 112.674 382.299C108.112 377.737 106.596 370.951 108.782 364.884L109.614 362.571L111.877 360.845V356.29L116.534 343.356L118.93 342.089V336.699L123.913 322.856L126.829 320.407L126.58 315.445L136.682 287.376L148.052 298.746L207.596 358.29Z" fill="#FBF198"/>
<path d="M124.145 365.234C124.145 365.234 115.218 376.632 120.369 386.667C117.513 385.948 114.842 384.467 112.674 382.299C108.112 377.737 106.596 370.951 108.782 364.884L109.614 362.571L111.877 360.845V356.29L116.534 343.356L118.93 342.089V336.699L123.913 322.856L126.829 320.407L126.58 315.445L136.682 287.376L148.052 298.746L149.75 328.79L124.145 365.234Z" fill="#FAD989"/>
<path d="M213.558 356.143C203.241 366.463 178.148 358.097 157.512 337.461C154.691 334.639 152.097 331.734 149.75 328.793V328.79L134.409 293.693C134.405 288.668 135.826 284.415 138.83 281.415C147.518 272.726 166.681 277.285 184.84 291.265C188.247 293.882 191.616 296.837 194.876 300.097C215.512 320.733 223.878 345.826 213.558 356.143Z" fill="#68A2DF"/>
<path d="M184.84 291.265C172.973 290.907 154.347 295.844 149.75 328.79C134.935 310.234 129.921 290.321 138.83 281.415C147.518 272.726 166.681 277.285 184.84 291.265Z" fill="#358CD9"/>
<path d="M206.087 348.672C199.894 354.862 181.492 346.496 164.986 329.986C160.186 325.186 156.073 320.228 152.806 315.452L152.332 310.613L161.052 294.784L170.604 293.893C176.057 297.363 181.84 302.002 187.405 307.567C203.911 324.077 212.277 342.478 206.087 348.672Z" fill="#FBF198"/>
<path d="M170.604 293.893C163.702 296.96 156.947 303.248 152.806 315.452C144.841 303.809 141.911 293.279 146.3 288.885C150.406 284.783 159.877 287.075 170.604 293.893Z" fill="#FAD989"/>
<path d="M261.736 366.263C260.764 370.642 257.722 374.021 253.869 375.611C251.455 376.611 248.718 376.902 245.974 376.291C238.851 374.705 234.363 367.649 235.945 360.525C237.531 353.406 244.588 348.914 251.711 350.5C251.767 350.514 251.823 350.525 251.88 350.542C258.901 352.195 263.308 359.199 261.736 366.263Z" fill="#FFCA8B"/>
<path d="M253.87 375.611C251.455 376.611 248.718 376.902 245.974 376.291C238.851 374.705 234.363 367.649 235.946 360.525C237.532 353.406 244.588 348.914 251.712 350.5C251.768 350.514 251.824 350.525 251.88 350.542C249.325 354.132 243.781 364.406 253.87 375.611Z" fill="#FFB25A"/>
<path d="M155.354 244.503C155.354 251.188 150.389 256.715 143.943 257.592C143.353 257.673 142.753 257.715 142.143 257.715C134.847 257.715 128.931 251.799 128.931 244.503C128.931 237.208 134.847 231.296 142.143 231.296C143.016 231.296 143.869 231.38 144.697 231.541C150.771 232.731 155.354 238.082 155.354 244.503Z" fill="#00DDC4"/>
<path d="M143.943 257.592C143.353 257.673 142.753 257.715 142.142 257.715C134.847 257.715 128.931 251.799 128.931 244.503C128.931 237.208 134.847 231.296 142.142 231.296C143.016 231.296 143.869 231.38 144.697 231.541C142.645 234.071 136.261 243.651 143.943 257.592Z" fill="#00D2B4"/>
<path d="M221.8 319.702L215.035 323.635C214.221 324.109 213.586 324.744 213.2 325.467L209.985 331.516C208.863 333.629 206.006 334.569 203.617 334.057L196.385 319.54L198.627 304.051C200.771 302.188 204.659 302.079 206.571 304.188L209.22 307.108L211.175 309.259C211.726 309.866 212.501 310.329 213.403 310.585L220.93 312.733C224.66 313.796 225.155 317.754 221.8 319.702Z" fill="#FFABCD"/>
<path d="M203.616 334.057C202.616 333.846 201.701 333.38 201.027 332.636L196.419 327.565C195.869 326.958 195.097 326.499 194.195 326.239L186.664 324.091C182.934 323.028 182.44 319.073 185.794 317.122L192.563 313.189C193.374 312.719 194.009 312.08 194.395 311.357L197.609 305.308C199.202 302.311 204.29 301.676 206.571 304.188L209.22 307.108C205.101 310.603 198.83 318.779 203.616 334.057Z" fill="#FF83B4"/>
<path d="M217.944 242.665L211.663 245.398C210.912 245.725 210.228 246.311 209.694 247.083L206.055 252.343L205.241 253.522C203.034 256.711 199.129 255.908 198.36 252.107L196.809 244.433C196.623 243.514 196.227 242.707 195.662 242.11L190.967 237.12C188.64 234.65 189.675 229.629 192.784 228.278L199.069 225.544C199.82 225.218 200.504 224.632 201.038 223.86L205.49 217.421C207.694 214.231 211.6 215.035 212.368 218.835L212.831 221.123L213.923 226.509C214.109 227.429 214.505 228.236 215.067 228.832L219.762 233.822C222.088 236.292 221.057 241.314 217.944 242.665Z" fill="#FBF198"/>
<path d="M206.056 252.343L205.242 253.522C203.034 256.711 199.129 255.908 198.36 252.107L196.81 244.433C196.624 243.514 196.227 242.707 195.662 242.11L190.967 237.12C188.641 234.65 189.676 229.629 192.785 228.278L199.069 225.544C199.82 225.218 200.505 224.632 201.038 223.86L205.491 217.421C207.694 214.231 211.6 215.035 212.368 218.835L212.832 221.123C206.992 225.583 199.122 235.226 206.056 252.343Z" fill="#FAD989"/>
<path d="M274.247 326.409C278.625 326.409 282.173 322.86 282.173 318.482C282.173 314.105 278.625 310.556 274.247 310.556C269.87 310.556 266.321 314.105 266.321 318.482C266.321 322.86 269.87 326.409 274.247 326.409Z" fill="#00DDC4"/>
<path d="M234.616 273.567C238.994 273.567 242.542 270.018 242.542 265.641C242.542 261.263 238.994 257.715 234.616 257.715C230.239 257.715 226.69 261.263 226.69 265.641C226.69 270.018 230.239 273.567 234.616 273.567Z" fill="#68A2DF"/>
<path d="M197.627 284.136C200.545 284.136 202.911 281.77 202.911 278.851C202.911 275.933 200.545 273.567 197.627 273.567C194.708 273.567 192.343 275.933 192.343 278.851C192.343 281.77 194.708 284.136 197.627 284.136Z" fill="#FFCA8B"/>
<path d="M115.722 273.567C118.641 273.567 121.007 271.201 121.007 268.283C121.007 265.365 118.641 262.999 115.722 262.999C112.804 262.999 110.438 265.365 110.438 268.283C110.438 271.201 112.804 273.567 115.722 273.567Z" fill="#FF83B4"/>
<path d="M252.282 347.931C243.734 346.031 235.279 351.407 233.378 359.955C231.476 368.502 236.854 376.957 245.401 378.859C253.949 380.76 262.404 375.383 264.306 366.835C266.203 358.308 260.809 349.828 252.282 347.931ZM259.168 365.692C257.898 371.399 252.251 374.992 246.544 373.721C240.837 372.452 237.246 366.805 238.516 361.098C239.631 356.085 244.069 352.813 248.821 352.813C255.647 352.813 260.626 359.138 259.168 365.692Z" fill="#3A0303"/>
<path d="M142.143 260.347C150.879 260.347 157.986 253.24 157.986 244.504C157.986 235.77 150.879 228.664 142.143 228.664C137.139 228.664 132.535 230.953 129.511 234.946C128.633 236.104 128.861 237.755 130.02 238.632C131.179 239.511 132.829 239.282 133.707 238.124C135.726 235.457 138.801 233.928 142.143 233.928C147.976 233.928 152.722 238.672 152.722 244.504C152.722 250.337 147.976 255.083 142.143 255.083C137.572 255.083 133.535 252.17 132.096 247.833C131.638 246.453 130.149 245.705 128.769 246.164C127.39 246.622 126.643 248.111 127.1 249.49C129.255 255.984 135.3 260.347 142.143 260.347Z" fill="#3A0303"/>
<path opacity="0.5" d="M168.328 255.728C168.18 257.269 169.389 258.612 170.951 258.612C172.291 258.612 173.436 257.593 173.567 256.232C176.038 230.492 160.978 211.904 160.336 211.125C159.412 210.004 157.756 209.845 156.635 210.768C155.513 211.691 155.352 213.349 156.273 214.471C156.417 214.646 170.585 232.22 168.328 255.728Z" fill="white"/>
<path opacity="0.5" d="M237.345 328.813C235.9 328.626 234.584 329.646 234.398 331.087C234.212 332.528 235.23 333.847 236.671 334.033C264.198 337.583 277.088 350.589 277.234 350.739C277.75 351.276 278.44 351.546 279.13 351.546C281.433 351.546 282.631 348.764 281.03 347.093C280.466 346.505 266.869 332.621 237.345 328.813Z" fill="white"/>
<path d="M221.653 310.202L214.125 308.054C213.699 307.933 213.344 307.733 213.124 307.491L208.52 302.42C206.219 299.886 202.268 299.391 199.121 300.7C184.376 284.981 165.942 274.684 151.777 274.346C139.872 274.058 131.943 281.16 131.774 293.263L106.306 363.992C101.848 376.364 110.912 389.799 124.484 389.798C126.668 389.798 128.867 389.428 130.981 388.667L201.706 363.196C210.696 363.071 216.573 358.7 219.104 352.36C219.643 351.01 218.986 349.479 217.636 348.94C216.286 348.401 214.755 349.059 214.216 350.409C213.619 351.905 212.771 353.208 211.697 354.282C207.449 358.531 199.828 359.111 190.237 355.914C169.118 348.873 146.099 325.855 139.059 304.735C135.862 295.145 136.442 287.524 140.691 283.276C143.237 280.729 146.919 279.49 151.651 279.608C164.253 279.908 181.583 289.741 195.208 304.22L192.58 309.166C191.503 307.995 190.397 306.836 189.266 305.707C173.873 290.316 152.931 278.539 144.44 287.025C142.615 288.849 140.729 292.399 142.101 298.949C142.399 300.372 143.794 301.282 145.216 300.985C146.639 300.687 147.55 299.292 147.252 297.87C146.761 295.526 146.521 292.388 148.161 290.747C152.889 286.023 171.77 294.431 188.501 312.506L184.473 314.848C179.116 317.962 179.985 324.924 185.944 326.623L193.473 328.771C193.898 328.893 194.254 329.092 194.473 329.334L199.078 334.405C200.368 335.827 202.259 336.671 204.338 336.806C205.919 341.536 205.894 345.145 204.228 346.811C199.814 351.223 182.889 344.171 166.848 328.126C160.487 321.768 155.208 314.987 151.58 308.516C150.869 307.248 149.265 306.797 147.998 307.507C146.73 308.218 146.278 309.822 146.989 311.09C158.7 331.982 185.054 353.377 200.277 353.376C207.86 353.376 213.334 347.66 209.491 335.622C211.58 334.404 212.19 332.98 212.911 331.622C213.908 334.378 214.609 337.029 214.997 339.54C215.217 340.967 216.552 341.962 218 341.74C219.436 341.517 220.42 340.173 220.199 338.737C219.576 334.71 218.261 330.412 216.3 325.949L223.125 321.977C228.482 318.864 227.612 311.902 221.653 310.202ZM156.566 373.862C142.597 364.907 130.066 352.376 121.111 338.406L125.717 325.609C135.358 343.566 151.407 359.615 169.363 369.255L156.566 373.862ZM138.415 380.396C129.604 373.573 121.4 365.369 114.577 356.557L118.891 344.573C127.289 356.728 138.244 367.684 150.399 376.082L138.415 380.396ZM129.197 383.715C124.112 385.546 118.357 384.261 114.535 380.438C110.713 376.616 109.426 370.86 111.259 365.775L112.479 362.384C118.435 369.693 125.281 376.538 132.589 382.494L129.197 383.715ZM190.719 361.568L176.194 366.796C155.927 357.334 137.639 339.046 128.177 318.779L133.402 304.263C140.274 328.178 166.686 354.671 190.719 361.568ZM220.48 317.426L213.711 321.361C212.474 322.08 211.494 323.073 210.877 324.233L207.662 330.282C206.926 331.667 204.028 332.028 202.974 330.867L198.37 325.796C197.487 324.823 196.292 324.101 194.916 323.709L187.388 321.561C186.705 321.366 186.233 320.994 186.185 320.613C186.138 320.232 186.504 319.755 187.117 319.398L193.886 315.464C195.124 314.744 196.104 313.751 196.72 312.592L199.935 306.543C200.668 305.163 203.566 304.795 204.623 305.957L209.227 311.029C210.11 312.001 211.305 312.723 212.681 313.115L220.209 315.263C220.892 315.458 221.364 315.83 221.412 316.211C221.459 316.593 221.093 317.069 220.48 317.426Z" fill="#3A0303"/>
<path d="M193.748 243.913C193.971 244.151 194.143 244.521 194.231 244.955L195.782 252.628C197.007 258.689 203.876 260.122 207.406 255.018L211.858 248.577C212.11 248.213 212.413 247.941 212.713 247.811L218.995 245.079C223.779 242.999 225.256 235.815 221.68 232.017L216.984 227.029C216.76 226.791 216.589 226.422 216.501 225.987L214.949 218.314C213.722 212.241 206.849 210.829 203.325 215.925L198.874 222.364C198.622 222.729 198.318 223.001 198.018 223.132L191.737 225.863C186.952 227.943 185.476 235.127 189.052 238.926L193.748 243.913ZM193.835 230.69L200.118 227.958C201.322 227.435 202.389 226.536 203.203 225.358L207.655 218.918C207.933 218.516 208.461 217.987 208.939 218.085C209.315 218.162 209.649 218.662 209.79 219.358L211.341 227.031C211.625 228.435 212.251 229.682 213.151 230.637L217.847 235.625C218.922 236.767 218.334 239.627 216.896 240.253L210.614 242.984C209.409 243.508 208.342 244.407 207.528 245.584L203.076 252.024C202.672 252.608 202.165 252.934 201.792 252.858C201.416 252.781 201.081 252.281 200.941 251.585L199.389 243.912C199.106 242.509 198.48 241.262 197.579 240.306L192.884 235.318C191.81 234.176 192.397 231.315 193.835 230.69Z" fill="#3A0303"/>
<path opacity="0.5" d="M240.193 249.816C241.475 250.499 243.07 250.015 243.754 248.733C243.78 248.684 246.406 243.818 251.064 239.851C253.112 238.107 255.204 236.829 257.333 236.018C257.467 237.03 257.663 238.064 257.922 239.118C260.729 250.554 267.689 251.579 270.071 251.579C274.78 251.579 279.232 248.13 280.129 243.487C280.477 241.686 280.91 235.508 271.881 231.621C268.812 230.299 265.743 229.662 262.717 229.69C263.088 227.936 263.776 226.32 264.78 224.852C270.066 217.124 282.388 215.426 282.508 215.41C283.95 215.225 284.969 213.907 284.784 212.465C284.599 211.023 283.28 210.006 281.839 210.189C281.239 210.266 267.088 212.183 260.451 221.858C258.668 224.458 257.598 227.346 257.247 230.496C253.939 231.445 250.719 233.232 247.651 235.844C242.241 240.452 239.235 246.02 239.11 246.255C238.426 247.537 238.911 249.132 240.193 249.816ZM269.8 236.455C278.797 240.329 274.257 246.212 270.14 246.315C265.393 246.44 263.037 239.668 262.511 234.97C264.909 234.895 267.339 235.395 269.8 236.455Z" fill="white"/>
<path opacity="0.5" d="M239.175 295.32C238.859 296.29 238.59 297.307 238.368 298.37C235.892 310.238 242.151 314.052 244.128 314.939C248.442 316.873 253.776 315.595 256.513 311.897C257.605 310.423 260.662 305.037 254.196 297.633C251.998 295.116 249.507 293.213 246.764 291.936C247.855 290.513 249.173 289.353 250.713 288.462C258.817 283.772 270.666 287.561 270.781 287.599C272.16 288.054 273.649 287.305 274.105 285.924C274.56 284.544 273.811 283.056 272.431 282.6C271.857 282.411 258.265 278.031 248.102 283.892C245.37 285.468 243.159 287.611 241.483 290.301C238.089 289.729 234.414 289.951 230.518 290.983C223.648 292.804 218.534 296.529 218.319 296.687C217.15 297.547 216.899 299.191 217.758 300.362C218.616 301.533 220.263 301.786 221.435 300.929C221.481 300.895 226.067 297.576 232.001 296.036C234.55 295.373 236.943 295.135 239.175 295.32ZM244.298 296.609C246.488 297.581 248.47 299.077 250.232 301.095C256.692 308.492 250.023 311.812 246.281 310.136C241.954 308.195 242.741 301.084 244.298 296.609Z" fill="white"/>
<path d="M274.247 307.924C268.425 307.924 263.689 312.661 263.689 318.483C263.689 324.304 268.426 329.04 274.247 329.04C280.069 329.04 284.805 324.304 284.805 318.483C284.805 312.661 280.069 307.924 274.247 307.924ZM274.247 323.777C271.328 323.777 268.953 321.402 268.953 318.483C268.953 315.563 271.328 313.188 274.247 313.188C277.166 313.188 279.542 315.563 279.542 318.483C279.542 321.402 277.167 323.777 274.247 323.777Z" fill="#3A0303"/>
<path d="M234.616 276.199C240.438 276.199 245.174 271.462 245.174 265.641C245.174 259.819 240.438 255.083 234.616 255.083C228.794 255.083 224.058 259.819 224.058 265.641C224.058 271.462 228.794 276.199 234.616 276.199ZM234.616 260.347C237.535 260.347 239.911 262.722 239.911 265.641C239.911 268.56 237.535 270.936 234.616 270.936C231.697 270.936 229.322 268.56 229.322 265.641C229.322 262.722 231.697 260.347 234.616 260.347Z" fill="#3A0303"/>
<path d="M189.711 278.851C189.711 283.216 193.262 286.767 197.627 286.767C201.992 286.767 205.543 283.216 205.543 278.851C205.543 274.487 201.992 270.935 197.627 270.935C193.262 270.935 189.711 274.487 189.711 278.851ZM200.279 278.851C200.279 280.314 199.089 281.504 197.627 281.504C196.164 281.504 194.974 280.314 194.974 278.851C194.974 277.389 196.164 276.199 197.627 276.199C199.089 276.199 200.279 277.389 200.279 278.851Z" fill="#3A0303"/>
<path d="M115.722 276.199C120.087 276.199 123.638 272.648 123.638 268.283C123.638 263.918 120.087 260.367 115.722 260.367C111.358 260.367 107.807 263.918 107.807 268.283C107.807 272.648 111.358 276.199 115.722 276.199ZM115.722 265.63C117.185 265.63 118.375 266.821 118.375 268.283C118.375 269.746 117.185 270.936 115.722 270.936C114.26 270.936 113.07 269.746 113.07 268.283C113.07 266.821 114.26 265.63 115.722 265.63Z" fill="#3A0303"/>
<path d="M81.5157 574.312C81.5157 572.995 81.8007 571.823 82.3707 570.797C82.9407 569.758 83.7323 568.954 84.7457 568.384C85.7717 567.801 86.9307 567.51 88.2227 567.51C89.806 567.51 91.1613 567.928 92.2887 568.764C93.416 569.6 94.1697 570.74 94.5497 572.184H90.9777C90.7117 571.627 90.3317 571.202 89.8377 570.911C89.3563 570.62 88.8053 570.474 88.1847 570.474C87.184 570.474 86.3733 570.822 85.7527 571.519C85.132 572.216 84.8217 573.147 84.8217 574.312C84.8217 575.477 85.132 576.408 85.7527 577.105C86.3733 577.802 87.184 578.15 88.1847 578.15C88.8053 578.15 89.3563 578.004 89.8377 577.713C90.3317 577.422 90.7117 576.997 90.9777 576.44H94.5497C94.1697 577.884 93.416 579.024 92.2887 579.86C91.1613 580.683 89.806 581.095 88.2227 581.095C86.9307 581.095 85.7717 580.81 84.7457 580.24C83.7323 579.657 82.9407 578.853 82.3707 577.827C81.8007 576.801 81.5157 575.629 81.5157 574.312ZM101.365 581.152C100.327 581.152 99.3893 580.93 98.5533 580.487C97.73 580.044 97.0777 579.41 96.5963 578.587C96.1277 577.764 95.8933 576.801 95.8933 575.699C95.8933 574.61 96.134 573.653 96.6153 572.83C97.0967 571.994 97.7553 571.354 98.5913 570.911C99.4273 570.468 100.365 570.246 101.403 570.246C102.442 570.246 103.379 570.468 104.215 570.911C105.051 571.354 105.71 571.994 106.191 572.83C106.673 573.653 106.913 574.61 106.913 575.699C106.913 576.788 106.666 577.751 106.172 578.587C105.691 579.41 105.026 580.044 104.177 580.487C103.341 580.93 102.404 581.152 101.365 581.152ZM101.365 578.34C101.986 578.34 102.512 578.112 102.942 577.656C103.386 577.2 103.607 576.548 103.607 575.699C103.607 574.85 103.392 574.198 102.961 573.742C102.543 573.286 102.024 573.058 101.403 573.058C100.77 573.058 100.244 573.286 99.8263 573.742C99.4083 574.185 99.1993 574.838 99.1993 575.699C99.1993 576.548 99.402 577.2 99.8073 577.656C100.225 578.112 100.745 578.34 101.365 578.34ZM115.097 570.284C116.338 570.284 117.326 570.689 118.061 571.5C118.808 572.298 119.182 573.4 119.182 574.806V581H115.952V575.243C115.952 574.534 115.768 573.983 115.401 573.59C115.034 573.197 114.54 573.001 113.919 573.001C113.298 573.001 112.804 573.197 112.437 573.59C112.07 573.983 111.886 574.534 111.886 575.243V581H108.637V570.398H111.886V571.804C112.215 571.335 112.659 570.968 113.216 570.702C113.773 570.423 114.4 570.284 115.097 570.284ZM125.468 570.246C126.215 570.246 126.867 570.398 127.425 570.702C127.995 571.006 128.432 571.405 128.736 571.899V570.398H131.985V580.981C131.985 581.956 131.788 582.837 131.396 583.622C131.016 584.42 130.427 585.053 129.629 585.522C128.843 585.991 127.862 586.225 126.684 586.225C125.113 586.225 123.84 585.851 122.865 585.104C121.889 584.369 121.332 583.369 121.193 582.102H124.404C124.505 582.507 124.746 582.824 125.126 583.052C125.506 583.293 125.974 583.413 126.532 583.413C127.203 583.413 127.735 583.217 128.128 582.824C128.533 582.444 128.736 581.83 128.736 580.981V579.48C128.419 579.974 127.982 580.379 127.425 580.696C126.867 581 126.215 581.152 125.468 581.152C124.594 581.152 123.802 580.93 123.093 580.487C122.383 580.031 121.82 579.391 121.402 578.568C120.996 577.732 120.794 576.769 120.794 575.68C120.794 574.591 120.996 573.634 121.402 572.811C121.82 571.988 122.383 571.354 123.093 570.911C123.802 570.468 124.594 570.246 125.468 570.246ZM128.736 575.699C128.736 574.888 128.508 574.249 128.052 573.78C127.608 573.311 127.064 573.077 126.418 573.077C125.772 573.077 125.221 573.311 124.765 573.78C124.321 574.236 124.1 574.869 124.1 575.68C124.1 576.491 124.321 577.137 124.765 577.618C125.221 578.087 125.772 578.321 126.418 578.321C127.064 578.321 127.608 578.087 128.052 577.618C128.508 577.149 128.736 576.51 128.736 575.699ZM137.584 572.165C137.964 571.582 138.439 571.126 139.009 570.797C139.579 570.455 140.213 570.284 140.909 570.284V573.723H140.016C139.206 573.723 138.598 573.9 138.192 574.255C137.787 574.597 137.584 575.205 137.584 576.079V581H134.335V570.398H137.584V572.165ZM141.816 575.68C141.816 574.591 142.019 573.634 142.424 572.811C142.842 571.988 143.406 571.354 144.115 570.911C144.825 570.468 145.616 570.246 146.49 570.246C147.238 570.246 147.89 570.398 148.447 570.702C149.017 571.006 149.454 571.405 149.758 571.899V570.398H153.007V581H149.758V579.499C149.442 579.993 148.998 580.392 148.428 580.696C147.871 581 147.219 581.152 146.471 581.152C145.61 581.152 144.825 580.93 144.115 580.487C143.406 580.031 142.842 579.391 142.424 578.568C142.019 577.732 141.816 576.769 141.816 575.68ZM149.758 575.699C149.758 574.888 149.53 574.249 149.074 573.78C148.631 573.311 148.086 573.077 147.44 573.077C146.794 573.077 146.243 573.311 145.787 573.78C145.344 574.236 145.122 574.869 145.122 575.68C145.122 576.491 145.344 577.137 145.787 577.618C146.243 578.087 146.794 578.321 147.44 578.321C148.086 578.321 148.631 578.087 149.074 577.618C149.53 577.149 149.758 576.51 149.758 575.699ZM161.267 578.245V581H159.614C158.436 581 157.517 580.715 156.859 580.145C156.2 579.562 155.871 578.619 155.871 577.314V573.096H154.579V570.398H155.871V567.814H159.12V570.398H161.248V573.096H159.12V577.352C159.12 577.669 159.196 577.897 159.348 578.036C159.5 578.175 159.753 578.245 160.108 578.245H161.267ZM173.545 570.398V581H170.296V579.556C169.967 580.025 169.517 580.405 168.947 580.696C168.39 580.975 167.769 581.114 167.085 581.114C166.275 581.114 165.559 580.937 164.938 580.582C164.318 580.215 163.836 579.689 163.494 579.005C163.152 578.321 162.981 577.517 162.981 576.592V570.398H166.211V576.155C166.211 576.864 166.395 577.415 166.762 577.808C167.13 578.201 167.624 578.397 168.244 578.397C168.878 578.397 169.378 578.201 169.745 577.808C170.113 577.415 170.296 576.864 170.296 576.155V570.398H173.545ZM179.128 566.94V581H175.879V566.94H179.128ZM180.837 575.68C180.837 574.591 181.039 573.634 181.445 572.811C181.863 571.988 182.426 571.354 183.136 570.911C183.845 570.468 184.637 570.246 185.511 570.246C186.258 570.246 186.91 570.398 187.468 570.702C188.038 571.006 188.475 571.405 188.779 571.899V570.398H192.028V581H188.779V579.499C188.462 579.993 188.019 580.392 187.449 580.696C186.891 581 186.239 581.152 185.492 581.152C184.63 581.152 183.845 580.93 183.136 580.487C182.426 580.031 181.863 579.391 181.445 578.568C181.039 577.732 180.837 576.769 180.837 575.68ZM188.779 575.699C188.779 574.888 188.551 574.249 188.095 573.78C187.651 573.311 187.107 573.077 186.461 573.077C185.815 573.077 185.264 573.311 184.808 573.78C184.364 574.236 184.143 574.869 184.143 575.68C184.143 576.491 184.364 577.137 184.808 577.618C185.264 578.087 185.815 578.321 186.461 578.321C187.107 578.321 187.651 578.087 188.095 577.618C188.551 577.149 188.779 576.51 188.779 575.699ZM200.287 578.245V581H198.634C197.456 581 196.538 580.715 195.879 580.145C195.221 579.562 194.891 578.619 194.891 577.314V573.096H193.599V570.398H194.891V567.814H198.14V570.398H200.268V573.096H198.14V577.352C198.14 577.669 198.216 577.897 198.368 578.036C198.52 578.175 198.774 578.245 199.128 578.245H200.287ZM203.731 569.296C203.161 569.296 202.692 569.131 202.325 568.802C201.97 568.46 201.793 568.042 201.793 567.548C201.793 567.041 201.97 566.623 202.325 566.294C202.692 565.952 203.161 565.781 203.731 565.781C204.288 565.781 204.744 565.952 205.099 566.294C205.466 566.623 205.65 567.041 205.65 567.548C205.65 568.042 205.466 568.46 205.099 568.802C204.744 569.131 204.288 569.296 203.731 569.296ZM205.346 570.398V581H202.097V570.398H205.346ZM212.526 581.152C211.488 581.152 210.55 580.93 209.714 580.487C208.891 580.044 208.239 579.41 207.757 578.587C207.289 577.764 207.054 576.801 207.054 575.699C207.054 574.61 207.295 573.653 207.776 572.83C208.258 571.994 208.916 571.354 209.752 570.911C210.588 570.468 211.526 570.246 212.564 570.246C213.603 570.246 214.54 570.468 215.376 570.911C216.212 571.354 216.871 571.994 217.352 572.83C217.834 573.653 218.074 574.61 218.074 575.699C218.074 576.788 217.827 577.751 217.333 578.587C216.852 579.41 216.187 580.044 215.338 580.487C214.502 580.93 213.565 581.152 212.526 581.152ZM212.526 578.34C213.147 578.34 213.673 578.112 214.103 577.656C214.547 577.2 214.768 576.548 214.768 575.699C214.768 574.85 214.553 574.198 214.122 573.742C213.704 573.286 213.185 573.058 212.564 573.058C211.931 573.058 211.405 573.286 210.987 573.742C210.569 574.185 210.36 574.838 210.36 575.699C210.36 576.548 210.563 577.2 210.968 577.656C211.386 578.112 211.906 578.34 212.526 578.34ZM226.258 570.284C227.499 570.284 228.487 570.689 229.222 571.5C229.969 572.298 230.343 573.4 230.343 574.806V581H227.113V575.243C227.113 574.534 226.929 573.983 226.562 573.59C226.195 573.197 225.701 573.001 225.08 573.001C224.459 573.001 223.965 573.197 223.598 573.59C223.231 573.983 223.047 574.534 223.047 575.243V581H219.798V570.398H223.047V571.804C223.376 571.335 223.82 570.968 224.377 570.702C224.934 570.423 225.561 570.284 226.258 570.284ZM247.457 570.398L240.807 586.035H237.311L239.743 580.639L235.43 570.398H239.059L241.51 577.029L243.942 570.398H247.457ZM253.458 581.152C252.419 581.152 251.482 580.93 250.646 580.487C249.823 580.044 249.17 579.41 248.689 578.587C248.22 577.764 247.986 576.801 247.986 575.699C247.986 574.61 248.227 573.653 248.708 572.83C249.189 571.994 249.848 571.354 250.684 570.911C251.52 570.468 252.457 570.246 253.496 570.246C254.535 570.246 255.472 570.468 256.308 570.911C257.144 571.354 257.803 571.994 258.284 572.83C258.765 573.653 259.006 574.61 259.006 575.699C259.006 576.788 258.759 577.751 258.265 578.587C257.784 579.41 257.119 580.044 256.27 580.487C255.434 580.93 254.497 581.152 253.458 581.152ZM253.458 578.34C254.079 578.34 254.604 578.112 255.035 577.656C255.478 577.2 255.7 576.548 255.7 575.699C255.7 574.85 255.485 574.198 255.054 573.742C254.636 573.286 254.117 573.058 253.496 573.058C252.863 573.058 252.337 573.286 251.919 573.742C251.501 574.185 251.292 574.838 251.292 575.699C251.292 576.548 251.495 577.2 251.9 577.656C252.318 578.112 252.837 578.34 253.458 578.34ZM271.199 570.398V581H267.95V579.556C267.62 580.025 267.171 580.405 266.601 580.696C266.043 580.975 265.423 581.114 264.739 581.114C263.928 581.114 263.212 580.937 262.592 580.582C261.971 580.215 261.49 579.689 261.148 579.005C260.806 578.321 260.635 577.517 260.635 576.592V570.398H263.865V576.155C263.865 576.864 264.048 577.415 264.416 577.808C264.783 578.201 265.277 578.397 265.898 578.397C266.531 578.397 267.031 578.201 267.399 577.808C267.766 577.415 267.95 576.864 267.95 576.155V570.398H271.199ZM276.913 575.68C276.913 574.591 277.116 573.634 277.521 572.811C277.939 571.988 278.503 571.354 279.212 570.911C279.921 570.468 280.713 570.246 281.587 570.246C282.334 570.246 282.987 570.398 283.544 570.702C284.114 571.006 284.551 571.405 284.855 571.899V570.398H288.104V581H284.855V579.499C284.538 579.993 284.095 580.392 283.525 580.696C282.968 581 282.315 581.152 281.568 581.152C280.707 581.152 279.921 580.93 279.212 580.487C278.503 580.031 277.939 579.391 277.521 578.568C277.116 577.732 276.913 576.769 276.913 575.68ZM284.855 575.699C284.855 574.888 284.627 574.249 284.171 573.78C283.728 573.311 283.183 573.077 282.537 573.077C281.891 573.077 281.34 573.311 280.884 573.78C280.441 574.236 280.219 574.869 280.219 575.68C280.219 576.491 280.441 577.137 280.884 577.618C281.34 578.087 281.891 578.321 282.537 578.321C283.183 578.321 283.728 578.087 284.171 577.618C284.627 577.149 284.855 576.51 284.855 575.699ZM293.703 572.165C294.083 571.582 294.558 571.126 295.128 570.797C295.698 570.455 296.332 570.284 297.028 570.284V573.723H296.135C295.325 573.723 294.717 573.9 294.311 574.255C293.906 574.597 293.703 575.205 293.703 576.079V581H290.454V570.398H293.703V572.165ZM308.575 575.528C308.575 575.832 308.556 576.149 308.518 576.478H301.165C301.216 577.137 301.425 577.643 301.792 577.998C302.172 578.34 302.635 578.511 303.179 578.511C303.99 578.511 304.554 578.169 304.87 577.485H308.328C308.151 578.182 307.828 578.809 307.359 579.366C306.903 579.923 306.327 580.36 305.63 580.677C304.934 580.994 304.155 581.152 303.293 581.152C302.255 581.152 301.33 580.93 300.519 580.487C299.709 580.044 299.075 579.41 298.619 578.587C298.163 577.764 297.935 576.801 297.935 575.699C297.935 574.597 298.157 573.634 298.6 572.811C299.056 571.988 299.69 571.354 300.5 570.911C301.311 570.468 302.242 570.246 303.293 570.246C304.319 570.246 305.231 570.461 306.029 570.892C306.827 571.323 307.448 571.937 307.891 572.735C308.347 573.533 308.575 574.464 308.575 575.528ZM305.25 574.673C305.25 574.116 305.06 573.672 304.68 573.343C304.3 573.014 303.825 572.849 303.255 572.849C302.711 572.849 302.248 573.007 301.868 573.324C301.501 573.641 301.273 574.09 301.184 574.673H305.25ZM120.913 604.528C120.913 604.832 120.894 605.149 120.856 605.478H113.503C113.554 606.137 113.763 606.643 114.13 606.998C114.51 607.34 114.973 607.511 115.517 607.511C116.328 607.511 116.892 607.169 117.208 606.485H120.666C120.489 607.182 120.166 607.809 119.697 608.366C119.241 608.923 118.665 609.36 117.968 609.677C117.272 609.994 116.493 610.152 115.631 610.152C114.593 610.152 113.668 609.93 112.857 609.487C112.047 609.044 111.413 608.41 110.957 607.587C110.501 606.764 110.273 605.801 110.273 604.699C110.273 603.597 110.495 602.634 110.938 601.811C111.394 600.988 112.028 600.354 112.838 599.911C113.649 599.468 114.58 599.246 115.631 599.246C116.657 599.246 117.569 599.461 118.367 599.892C119.165 600.323 119.786 600.937 120.229 601.735C120.685 602.533 120.913 603.464 120.913 604.528ZM117.588 603.673C117.588 603.116 117.398 602.672 117.018 602.343C116.638 602.014 116.163 601.849 115.593 601.849C115.049 601.849 114.586 602.007 114.206 602.324C113.839 602.641 113.611 603.09 113.522 603.673H117.588ZM125.876 595.94V610H122.627V595.94H125.876ZM129.865 598.296C129.295 598.296 128.826 598.131 128.459 597.802C128.104 597.46 127.927 597.042 127.927 596.548C127.927 596.041 128.104 595.623 128.459 595.294C128.826 594.952 129.295 594.781 129.865 594.781C130.422 594.781 130.878 594.952 131.233 595.294C131.6 595.623 131.784 596.041 131.784 596.548C131.784 597.042 131.6 597.46 131.233 597.802C130.878 598.131 130.422 598.296 129.865 598.296ZM131.48 599.398V610H128.231V599.398H131.48ZM137.862 599.246C138.61 599.246 139.262 599.398 139.819 599.702C140.389 600.006 140.826 600.405 141.13 600.899V599.398H144.379V609.981C144.379 610.956 144.183 611.837 143.79 612.622C143.41 613.42 142.821 614.053 142.023 614.522C141.238 614.991 140.256 615.225 139.078 615.225C137.508 615.225 136.235 614.851 135.259 614.104C134.284 613.369 133.727 612.369 133.587 611.102H136.798C136.9 611.507 137.14 611.824 137.52 612.052C137.9 612.293 138.369 612.413 138.926 612.413C139.598 612.413 140.13 612.217 140.522 611.824C140.928 611.444 141.13 610.83 141.13 609.981V608.48C140.814 608.974 140.377 609.379 139.819 609.696C139.262 610 138.61 610.152 137.862 610.152C136.988 610.152 136.197 609.93 135.487 609.487C134.778 609.031 134.214 608.391 133.796 607.568C133.391 606.732 133.188 605.769 133.188 604.68C133.188 603.591 133.391 602.634 133.796 601.811C134.214 600.988 134.778 600.354 135.487 599.911C136.197 599.468 136.988 599.246 137.862 599.246ZM141.13 604.699C141.13 603.888 140.902 603.249 140.446 602.78C140.003 602.311 139.458 602.077 138.812 602.077C138.166 602.077 137.615 602.311 137.159 602.78C136.716 603.236 136.494 603.869 136.494 604.68C136.494 605.491 136.716 606.137 137.159 606.618C137.615 607.087 138.166 607.321 138.812 607.321C139.458 607.321 140.003 607.087 140.446 606.618C140.902 606.149 141.13 605.51 141.13 604.699ZM148.364 598.296C147.794 598.296 147.325 598.131 146.958 597.802C146.603 597.46 146.426 597.042 146.426 596.548C146.426 596.041 146.603 595.623 146.958 595.294C147.325 594.952 147.794 594.781 148.364 594.781C148.921 594.781 149.377 594.952 149.732 595.294C150.099 595.623 150.283 596.041 150.283 596.548C150.283 597.042 150.099 597.46 149.732 597.802C149.377 598.131 148.921 598.296 148.364 598.296ZM149.979 599.398V610H146.73V599.398H149.979ZM155.582 600.899C155.886 600.405 156.323 600.006 156.893 599.702C157.463 599.398 158.116 599.246 158.85 599.246C159.724 599.246 160.516 599.468 161.225 599.911C161.935 600.354 162.492 600.988 162.897 601.811C163.315 602.634 163.524 603.591 163.524 604.68C163.524 605.769 163.315 606.732 162.897 607.568C162.492 608.391 161.935 609.031 161.225 609.487C160.516 609.93 159.724 610.152 158.85 610.152C158.103 610.152 157.451 610.006 156.893 609.715C156.336 609.411 155.899 609.012 155.582 608.518V610H152.333V595.94H155.582V600.899ZM160.218 604.68C160.218 603.869 159.99 603.236 159.534 602.78C159.091 602.311 158.54 602.077 157.881 602.077C157.235 602.077 156.684 602.311 156.228 602.78C155.785 603.249 155.563 603.888 155.563 604.699C155.563 605.51 155.785 606.149 156.228 606.618C156.684 607.087 157.235 607.321 157.881 607.321C158.527 607.321 159.078 607.087 159.534 606.618C159.99 606.137 160.218 605.491 160.218 604.68ZM168.478 595.94V610H165.229V595.94H168.478ZM180.826 604.528C180.826 604.832 180.807 605.149 180.769 605.478H173.416C173.467 606.137 173.676 606.643 174.043 606.998C174.423 607.34 174.886 607.511 175.43 607.511C176.241 607.511 176.805 607.169 177.121 606.485H180.579C180.402 607.182 180.079 607.809 179.61 608.366C179.154 608.923 178.578 609.36 177.881 609.677C177.185 609.994 176.406 610.152 175.544 610.152C174.506 610.152 173.581 609.93 172.77 609.487C171.96 609.044 171.326 608.41 170.87 607.587C170.414 606.764 170.186 605.801 170.186 604.699C170.186 603.597 170.408 602.634 170.851 601.811C171.307 600.988 171.941 600.354 172.751 599.911C173.562 599.468 174.493 599.246 175.544 599.246C176.57 599.246 177.482 599.461 178.28 599.892C179.078 600.323 179.699 600.937 180.142 601.735C180.598 602.533 180.826 603.464 180.826 604.528ZM177.501 603.673C177.501 603.116 177.311 602.672 176.931 602.343C176.551 602.014 176.076 601.849 175.506 601.849C174.962 601.849 174.499 602.007 174.119 602.324C173.752 602.641 173.524 603.09 173.435 603.673H177.501ZM192.476 607.245V610H190.823C189.645 610 188.726 609.715 188.068 609.145C187.409 608.562 187.08 607.619 187.08 606.314V602.096H185.788V599.398H187.08V596.814H190.329V599.398H192.457V602.096H190.329V606.352C190.329 606.669 190.405 606.897 190.557 607.036C190.709 607.175 190.962 607.245 191.317 607.245H192.476ZM199.111 610.152C198.073 610.152 197.135 609.93 196.299 609.487C195.476 609.044 194.824 608.41 194.342 607.587C193.874 606.764 193.639 605.801 193.639 604.699C193.639 603.61 193.88 602.653 194.361 601.83C194.843 600.994 195.501 600.354 196.337 599.911C197.173 599.468 198.111 599.246 199.149 599.246C200.188 599.246 201.125 599.468 201.961 599.911C202.797 600.354 203.456 600.994 203.937 601.83C204.419 602.653 204.659 603.61 204.659 604.699C204.659 605.788 204.412 606.751 203.918 607.587C203.437 608.41 202.772 609.044 201.923 609.487C201.087 609.93 200.15 610.152 199.111 610.152ZM199.111 607.34C199.732 607.34 200.258 607.112 200.688 606.656C201.132 606.2 201.353 605.548 201.353 604.699C201.353 603.85 201.138 603.198 200.707 602.742C200.289 602.286 199.77 602.058 199.149 602.058C198.516 602.058 197.99 602.286 197.572 602.742C197.154 603.185 196.945 603.838 196.945 604.699C196.945 605.548 197.148 606.2 197.553 606.656C197.971 607.112 198.491 607.34 199.111 607.34ZM215.406 596.662C216.812 596.662 218.041 596.941 219.092 597.498C220.144 598.055 220.954 598.841 221.524 599.854C222.107 600.855 222.398 602.014 222.398 603.331C222.398 604.636 222.107 605.795 221.524 606.808C220.954 607.821 220.137 608.607 219.073 609.164C218.022 609.721 216.8 610 215.406 610H210.409V596.662H215.406ZM215.197 607.188C216.426 607.188 217.382 606.852 218.066 606.181C218.75 605.51 219.092 604.56 219.092 603.331C219.092 602.102 218.75 601.146 218.066 600.462C217.382 599.778 216.426 599.436 215.197 599.436H213.658V607.188H215.197ZM229.04 610.152C228.001 610.152 227.064 609.93 226.228 609.487C225.405 609.044 224.752 608.41 224.271 607.587C223.802 606.764 223.568 605.801 223.568 604.699C223.568 603.61 223.809 602.653 224.29 601.83C224.771 600.994 225.43 600.354 226.266 599.911C227.102 599.468 228.039 599.246 229.078 599.246C230.117 599.246 231.054 599.468 231.89 599.911C232.726 600.354 233.385 600.994 233.866 601.83C234.347 602.653 234.588 603.61 234.588 604.699C234.588 605.788 234.341 606.751 233.847 607.587C233.366 608.41 232.701 609.044 231.852 609.487C231.016 609.93 230.079 610.152 229.04 610.152ZM229.04 607.34C229.661 607.34 230.186 607.112 230.617 606.656C231.06 606.2 231.282 605.548 231.282 604.699C231.282 603.85 231.067 603.198 230.636 602.742C230.218 602.286 229.699 602.058 229.078 602.058C228.445 602.058 227.919 602.286 227.501 602.742C227.083 603.185 226.874 603.838 226.874 604.699C226.874 605.548 227.077 606.2 227.482 606.656C227.9 607.112 228.419 607.34 229.04 607.34ZM242.772 599.284C244.013 599.284 245.001 599.689 245.736 600.5C246.483 601.298 246.857 602.4 246.857 603.806V610H243.627V604.243C243.627 603.534 243.443 602.983 243.076 602.59C242.708 602.197 242.214 602.001 241.594 602.001C240.973 602.001 240.479 602.197 240.112 602.59C239.744 602.983 239.561 603.534 239.561 604.243V610H236.312V599.398H239.561V600.804C239.89 600.335 240.333 599.968 240.891 599.702C241.448 599.423 242.075 599.284 242.772 599.284ZM248.469 604.68C248.469 603.591 248.671 602.634 249.077 601.811C249.495 600.988 250.058 600.354 250.768 599.911C251.477 599.468 252.269 599.246 253.143 599.246C253.89 599.246 254.542 599.398 255.1 599.702C255.67 600.006 256.107 600.405 256.411 600.899V599.398H259.66V610H256.411V608.499C256.094 608.993 255.651 609.392 255.081 609.696C254.523 610 253.871 610.152 253.124 610.152C252.262 610.152 251.477 609.93 250.768 609.487C250.058 609.031 249.495 608.391 249.077 607.568C248.671 606.732 248.469 605.769 248.469 604.68ZM256.411 604.699C256.411 603.888 256.183 603.249 255.727 602.78C255.283 602.311 254.739 602.077 254.093 602.077C253.447 602.077 252.896 602.311 252.44 602.78C251.996 603.236 251.775 603.869 251.775 604.68C251.775 605.491 251.996 606.137 252.44 606.618C252.896 607.087 253.447 607.321 254.093 607.321C254.739 607.321 255.283 607.087 255.727 606.618C256.183 606.149 256.411 605.51 256.411 604.699ZM267.919 607.245V610H266.266C265.088 610 264.17 609.715 263.511 609.145C262.852 608.562 262.523 607.619 262.523 606.314V602.096H261.231V599.398H262.523V596.814H265.772V599.398H267.9V602.096H265.772V606.352C265.772 606.669 265.848 606.897 266 607.036C266.152 607.175 266.405 607.245 266.76 607.245H267.919ZM279.723 604.528C279.723 604.832 279.704 605.149 279.666 605.478H272.313C272.363 606.137 272.572 606.643 272.94 606.998C273.32 607.34 273.782 607.511 274.327 607.511C275.137 607.511 275.701 607.169 276.018 606.485H279.476C279.298 607.182 278.975 607.809 278.507 608.366C278.051 608.923 277.474 609.36 276.778 609.677C276.081 609.994 275.302 610.152 274.441 610.152C273.402 610.152 272.477 609.93 271.667 609.487C270.856 609.044 270.223 608.41 269.767 607.587C269.311 606.764 269.083 605.801 269.083 604.699C269.083 603.597 269.304 602.634 269.748 601.811C270.204 600.988 270.837 600.354 271.648 599.911C272.458 599.468 273.389 599.246 274.441 599.246C275.467 599.246 276.379 599.461 277.177 599.892C277.975 600.323 278.595 600.937 279.039 601.735C279.495 602.533 279.723 603.464 279.723 604.528ZM276.398 603.673C276.398 603.116 276.208 602.672 275.828 602.343C275.448 602.014 274.973 601.849 274.403 601.849C273.858 601.849 273.396 602.007 273.016 602.324C272.648 602.641 272.42 603.09 272.332 603.673H276.398Z" fill="white"/>
<rect x="13" y="10" width="74" height="33" fill="#C42B2B"/>
<rect x="279" y="13" width="98" height="36" fill="#C22B2B"/>
</g>
<defs>
<linearGradient id="paint0_linear_1_1551" x1="195" y1="0" x2="195" y2="844" gradientUnits="userSpaceOnUse">
<stop stop-color="#C62C2C"/>
<stop offset="1" stop-color="#601515"/>
</linearGradient>
<clipPath id="clip0_1_1551">
<rect width="390" height="844" fill="white"/>
</clipPath>
</defs>
</svg>
