<svg width="375" height="812" viewBox="0 0 375 812" fill="none" xmlns="http://www.w3.org/2000/svg">
<g clip-path="url(#clip0_49_17)">
<rect width="375" height="812" fill="white"/>
<circle cx="182" cy="63" r="271" fill="#C62C2C"/>
<circle opacity="0.3" cx="182" cy="63" r="324" fill="#C62C2C"/>
<circle opacity="0.1" cx="187" cy="118" r="324" fill="#C62C2C"/>
<path d="M246.536 162.094L245.33 166.606L230.207 169.28V175.236C230.207 175.236 250.228 176.888 252.176 175.942C254.124 174.995 257.121 164.681 257.121 164.681L246.536 162.094Z" fill="#FFBE9D"/>
<path d="M245.631 166.836C245.585 166.911 246.477 167.371 247.3 168.221C248.124 169.071 248.558 169.916 248.645 169.884C248.432 169.196 248.049 168.562 247.526 168.034C247.003 167.505 246.354 167.095 245.631 166.836V166.836Z" fill="#EB996E"/>
<path d="M246.536 162.094L245.33 166.606L230.207 169.28V175.236C230.207 175.236 250.228 176.888 252.176 175.942C254.124 174.995 257.121 164.681 257.121 164.681L246.536 162.094Z" fill="#9B6B63"/>
<path d="M268.092 132.787L272.318 131.943L287.406 133.087L290.623 134.365L276.851 149.234L268.092 132.787Z" fill="#9B6B63"/>
<path d="M262.532 117.217C263.019 114.066 263.504 110.917 263.987 107.769L274.896 106.064L277.401 131.59L261.819 132.659C261.265 131.864 260.992 130.93 261.037 129.986C261.222 126.398 262.324 118.581 262.532 117.217Z" fill="#263238"/>
<path d="M292.76 110.657C292.535 108.56 291.859 106.526 290.771 104.673C289.683 102.82 288.205 101.186 286.424 99.8669C283.207 97.5784 279.561 96.9582 275.503 97.1453C273.509 97.2416 271.26 98.1078 269.527 99.0274C267.15 100.295 266.165 102.829 265.035 105.134C262.768 109.748 263.116 115.972 264.693 117.688L293.166 133.194C296.841 131.392 296.36 125.377 295.102 121.719C293.967 118.103 293.183 114.401 292.76 110.657V110.657Z" fill="#263238"/>
<path d="M285.911 103.358L272.764 99.8882C268.539 99.3535 265.553 104.091 265.153 108.01C264.707 112.362 264.353 117.699 264.8 120.965C265.704 127.547 271.118 128.537 271.118 128.537C271.118 128.537 271.118 128.633 271.118 130.579L271.02 133.408C272.625 138.754 283.865 137.878 285.059 134.097L288.073 105.759C288.106 105.181 287.902 104.613 287.501 104.168C287.101 103.723 286.533 103.434 285.911 103.358V103.358Z" fill="#9B6B63"/>
<path d="M266.794 114.357C266.784 114.576 266.868 114.79 267.028 114.953C267.187 115.116 267.409 115.215 267.646 115.228C267.761 115.241 267.878 115.232 267.99 115.202C268.101 115.172 268.205 115.121 268.295 115.053C268.385 114.986 268.459 114.902 268.513 114.807C268.566 114.712 268.599 114.608 268.608 114.501C268.618 114.282 268.535 114.069 268.377 113.905C268.219 113.741 267.999 113.641 267.762 113.624C267.646 113.612 267.529 113.622 267.417 113.653C267.305 113.683 267.201 113.734 267.111 113.803C267.021 113.871 266.946 113.955 266.892 114.05C266.837 114.145 266.804 114.25 266.794 114.357V114.357Z" fill="#263238"/>
<path d="M266.399 111.806C266.509 111.918 267.211 111.469 268.19 111.496C269.17 111.523 269.871 111.999 269.982 111.892C270.092 111.785 269.929 111.646 269.622 111.427C269.209 111.142 268.711 110.984 268.196 110.972C267.685 110.959 267.183 111.094 266.759 111.357C266.451 111.55 266.341 111.753 266.399 111.806Z" fill="#263238"/>
<path d="M275.949 114.266C275.939 114.485 276.022 114.699 276.18 114.862C276.337 115.026 276.558 115.126 276.795 115.143C276.91 115.155 277.027 115.145 277.139 115.114C277.25 115.084 277.354 115.033 277.444 114.964C277.534 114.896 277.608 114.812 277.661 114.717C277.715 114.621 277.748 114.517 277.757 114.41C277.768 114.192 277.686 113.978 277.527 113.815C277.369 113.652 277.148 113.553 276.911 113.539C276.796 113.527 276.679 113.537 276.568 113.567C276.457 113.597 276.353 113.648 276.264 113.716C276.174 113.783 276.1 113.867 276.046 113.961C275.992 114.056 275.959 114.16 275.949 114.266V114.266Z" fill="#263238"/>
<path d="M275.956 111.838C276.066 111.951 276.773 111.502 277.753 111.528C278.733 111.555 279.434 112.063 279.544 111.924C279.654 111.785 279.492 111.678 279.185 111.459C278.77 111.174 278.27 111.015 277.753 111.004C277.244 110.991 276.743 111.126 276.321 111.389C276.014 111.592 275.904 111.785 275.956 111.838Z" fill="#263238"/>
<path d="M272.249 118.169C271.739 118.007 271.21 117.903 270.672 117.859C270.423 117.832 270.186 117.779 270.151 117.619C270.135 117.38 270.2 117.143 270.336 116.939L271.136 115.207C272.249 112.732 273.061 110.7 272.956 110.657C272.852 110.614 271.855 112.587 270.748 115.057C270.475 115.667 270.22 116.25 269.977 116.806C269.809 117.08 269.751 117.4 269.815 117.709C269.849 117.791 269.903 117.864 269.972 117.925C270.041 117.985 270.124 118.03 270.214 118.057C270.352 118.094 270.494 118.115 270.638 118.121C271.17 118.203 271.712 118.219 272.249 118.169Z" fill="#263238"/>
<path d="M271.115 128.537C274.463 128.883 277.845 128.268 280.801 126.778C280.801 126.778 278.187 131.226 271.104 130.408L271.115 128.537Z" fill="#484848"/>
<path d="M275.469 119.96C275.357 119.79 275.201 119.648 275.015 119.548C274.829 119.447 274.618 119.39 274.403 119.383C274.1 119.353 273.795 119.399 273.518 119.516C273.242 119.632 273.005 119.815 272.832 120.046C272.706 120.26 272.673 120.51 272.739 120.746C272.791 120.864 272.739 120.805 272.849 120.891C273.174 121.22 273.582 121.469 274.037 121.618C274.284 121.682 274.545 121.677 274.788 121.603C275.031 121.528 275.244 121.388 275.4 121.201C275.534 121.02 275.611 120.808 275.623 120.59C275.636 120.371 275.582 120.153 275.469 119.96V119.96Z" fill="#484848"/>
<path d="M275.289 118.918C275.133 118.918 275.092 119.886 274.13 120.549C273.168 121.212 272.066 121.083 272.049 121.206C272.049 121.265 272.298 121.404 272.774 121.431C273.398 121.462 274.014 121.287 274.513 120.939C274.995 120.608 275.319 120.117 275.417 119.57C275.475 119.158 275.365 118.912 275.289 118.918Z" fill="#263238"/>
<path d="M275.614 108.983C275.69 109.234 276.675 109.202 277.806 109.421C278.936 109.641 279.84 110.01 280.014 109.801C280.089 109.7 279.95 109.459 279.602 109.192C279.134 108.855 278.586 108.626 278.003 108.523C277.428 108.409 276.831 108.424 276.264 108.566C275.823 108.689 275.585 108.876 275.614 108.983Z" fill="#263238"/>
<path d="M266.441 109.823C266.667 109.999 267.374 109.684 268.272 109.545C269.171 109.406 269.948 109.448 270.087 109.213C270.145 109.096 269.994 108.914 269.629 108.764C269.136 108.597 268.604 108.554 268.087 108.641C267.57 108.727 267.088 108.94 266.69 109.256C266.412 109.513 266.342 109.737 266.441 109.823Z" fill="#263238"/>
<path d="M272.748 99.4336C272.35 102.083 272.751 104.782 273.907 107.235C274.201 107.929 274.65 108.559 275.223 109.085C275.514 109.344 275.865 109.537 276.251 109.649C276.636 109.762 277.044 109.79 277.443 109.732C276.228 108.271 275.536 106.497 275.467 104.657C276.319 106.513 277.206 108.4 278.632 109.924C280.058 111.448 282.185 112.56 284.364 112.368L284.208 111.026C284.478 112.01 285.088 112.887 285.947 113.523C286.383 113.828 286.914 113.999 287.462 114.008C288.01 114.018 288.547 113.866 288.996 113.576C288.248 110.304 290.41 106.737 289.031 103.642C288.08 101.503 285.657 100.22 283.234 99.5245C279.838 98.5561 276.224 98.4343 272.76 99.1716" fill="#263238"/>
<path d="M273.041 99.4873C273.041 99.5354 273.041 99.5835 273.012 99.6317L273.041 99.4873Z" fill="#263238"/>
<path d="M273.013 99.6316L272.578 99.4658C271.239 98.8349 270.358 98.1131 268.283 99.8187C267.08 100.884 266.114 102.156 265.437 103.562C264.718 104.819 264.193 106.164 263.878 107.556C263.571 109.216 263.526 110.909 263.744 112.582C264.95 111.844 265.559 110.523 265.941 109.24C266.324 107.957 266.521 106.609 267.245 105.444C266.979 106.531 266.91 107.651 267.042 108.759C267.069 109.065 267.208 109.354 267.437 109.577C267.554 109.684 267.712 109.744 267.877 109.744C268.042 109.744 268.201 109.684 268.318 109.577C267.915 108.289 267.915 106.923 268.318 105.636C268.713 104.357 269.247 103.117 269.912 101.936C269.598 104.154 269.698 106.406 270.207 108.593C270.25 108.913 270.391 109.216 270.613 109.464C270.82 109.611 271.06 109.712 271.315 109.759C271.57 109.806 271.834 109.799 272.086 109.737C272.588 109.612 273.115 109.59 273.627 109.673C272.439 106.439 272.226 102.968 273.013 99.6316Z" fill="#263238"/>
<path d="M282.294 125.296C283.39 121.484 282.677 111.705 284.068 107.973L289.545 108.636L293.163 133.172L280.485 133.622L282.294 125.296Z" fill="#263238"/>
<path d="M264.371 285.098L264.951 294.947C264.951 294.947 254.285 298.069 254.198 299.898L274.944 300.288L274.747 284.911L264.371 285.098Z" fill="#455A64"/>
<g opacity="0.6">
<path opacity="0.6" d="M271.335 294.017C271.533 294.074 271.701 294.195 271.808 294.359C271.915 294.523 271.953 294.717 271.915 294.904C271.859 295.087 271.731 295.243 271.556 295.342C271.381 295.441 271.172 295.476 270.97 295.439C270.759 295.382 270.578 295.255 270.461 295.082C270.345 294.91 270.301 294.704 270.338 294.503C270.411 294.313 270.561 294.156 270.757 294.066C270.953 293.976 271.179 293.96 271.387 294.022" fill="white"/>
</g>
<g opacity="0.6">
<path opacity="0.6" d="M274.929 300.294V298.748L254.884 299.01C254.671 299.109 254.488 299.254 254.351 299.435C254.214 299.615 254.129 299.824 254.102 300.042L274.929 300.294Z" fill="white"/>
</g>
<path d="M264.598 294.856C264.598 294.952 265.108 294.984 265.613 295.278C266.117 295.572 266.389 295.957 266.482 295.92C266.575 295.882 266.413 295.342 265.798 295C265.184 294.658 264.575 294.77 264.598 294.856Z" fill="#263238"/>
<path d="M262.44 295.722C262.44 295.813 262.863 295.963 263.211 296.353C263.558 296.743 263.668 297.16 263.79 297.155C263.912 297.15 263.947 296.62 263.495 296.144C263.042 295.669 262.44 295.631 262.44 295.722Z" fill="#263238"/>
<path d="M261.251 298.155C261.344 298.155 261.471 297.701 261.204 297.193C260.938 296.685 260.457 296.492 260.416 296.572C260.376 296.653 260.671 296.92 260.886 297.337C261.1 297.754 261.146 298.155 261.251 298.155Z" fill="#263238"/>
<path d="M264.741 292.6C264.787 292.685 265.251 292.546 265.819 292.573C266.387 292.6 266.845 292.76 266.897 292.68C266.949 292.6 266.509 292.274 265.836 292.247C265.164 292.22 264.689 292.525 264.741 292.6Z" fill="#263238"/>
<path d="M264.665 290.61C265.006 290.697 265.367 290.697 265.708 290.61C266.302 290.499 266.868 290.287 267.378 289.985C267.493 289.923 267.596 289.846 267.685 289.755C267.752 289.688 267.792 289.603 267.799 289.513C267.807 289.422 267.781 289.333 267.726 289.258C267.673 289.194 267.605 289.143 267.528 289.107C267.451 289.071 267.366 289.051 267.279 289.049C267.148 289.05 267.017 289.068 266.891 289.103C266.67 289.158 266.455 289.232 266.247 289.322C265.898 289.472 265.578 289.672 265.297 289.915C264.827 290.332 264.665 290.685 264.717 290.701C264.769 290.717 264.995 290.434 265.477 290.086C265.76 289.887 266.07 289.722 266.398 289.594C266.586 289.519 266.78 289.458 266.978 289.413C267.198 289.359 267.384 289.354 267.442 289.439C267.5 289.525 267.442 289.488 267.442 289.552C267.374 289.615 267.298 289.671 267.216 289.717C267.04 289.827 266.858 289.927 266.671 290.017C266.352 290.17 266.018 290.293 265.674 290.386C265.331 290.435 264.994 290.51 264.665 290.61V290.61Z" fill="#263238"/>
<path d="M264.808 290.744C264.994 290.465 265.083 290.141 265.063 289.814C265.077 289.451 265.022 289.09 264.901 288.744C264.83 288.545 264.738 288.351 264.628 288.167C264.569 288.041 264.477 287.932 264.359 287.848C264.241 287.765 264.103 287.711 263.956 287.691C263.863 287.695 263.773 287.723 263.697 287.772C263.621 287.822 263.562 287.89 263.527 287.969C263.473 288.081 263.438 288.2 263.422 288.322C263.39 288.535 263.39 288.751 263.422 288.964C263.488 289.322 263.647 289.659 263.886 289.948C264.304 290.439 264.727 290.541 264.733 290.509C264.738 290.477 264.408 290.29 264.089 289.819C263.906 289.546 263.79 289.24 263.747 288.921C263.723 288.743 263.723 288.564 263.747 288.386C263.776 288.178 263.857 288.012 263.938 288.033C264.02 288.055 264.222 288.183 264.309 288.343C264.416 288.514 264.505 288.693 264.576 288.878C264.698 289.184 264.772 289.505 264.796 289.83C264.848 290.375 264.744 290.728 264.808 290.744Z" fill="#263238"/>
<path d="M286.048 284.029L286.448 296.749L289.926 306.721C289.986 306.89 290.007 307.07 289.989 307.248C289.97 307.425 289.912 307.597 289.817 307.754C289.723 307.91 289.595 308.046 289.442 308.154C289.288 308.263 289.111 308.341 288.923 308.383V308.383C288.704 308.434 288.476 308.435 288.256 308.388C288.036 308.341 287.832 308.246 287.66 308.111C285.457 306.346 277.377 299.839 277.4 298.909C277.435 297.839 276.02 285.542 276.02 285.542L286.048 284.029Z" fill="#455A64"/>
<g opacity="0.6">
<path opacity="0.6" d="M288.91 308.384L277.317 298.048L277.346 298.583C277.373 299.048 277.579 299.49 277.926 299.829C278.853 300.738 281.473 303.186 287.583 308.106C287.759 308.246 287.971 308.345 288.198 308.392C288.426 308.44 288.662 308.435 288.887 308.378L288.91 308.384Z" fill="white"/>
</g>
<g opacity="0.6">
<path opacity="0.6" d="M279.93 293.819C280.107 293.924 280.234 294.087 280.288 294.275C280.342 294.463 280.317 294.662 280.22 294.834C280.111 295 279.937 295.121 279.734 295.172C279.531 295.223 279.315 295.2 279.13 295.107C278.946 294.994 278.814 294.823 278.758 294.626C278.703 294.428 278.728 294.219 278.829 294.038C278.961 293.878 279.156 293.77 279.371 293.739C279.587 293.707 279.808 293.753 279.988 293.867" fill="white"/>
</g>
<path d="M285.446 302.967C285.522 302.999 285.8 302.32 286.606 301.924C287.098 301.714 287.629 301.593 288.171 301.566C288.171 301.534 288.003 301.443 287.678 301.416C287.251 301.394 286.827 301.485 286.455 301.678C286.08 301.867 285.774 302.154 285.574 302.502C285.423 302.785 285.411 302.967 285.446 302.967Z" fill="#263238"/>
<path d="M286.52 304.641C287.243 304.12 288.13 303.829 289.047 303.812C288.829 303.699 288.584 303.637 288.334 303.629C288.084 303.622 287.835 303.67 287.61 303.769C286.81 304.036 286.45 304.609 286.52 304.641Z" fill="#263238"/>
<path d="M283.495 300.893C284.043 300.494 284.624 300.137 285.234 299.823C285.893 299.6 286.569 299.422 287.257 299.289C286.528 299.146 285.768 299.247 285.112 299.572C284.418 299.818 283.844 300.287 283.495 300.893V300.893Z" fill="#263238"/>
<path d="M283.021 297.032C283.062 297.107 283.81 296.781 284.795 296.701C285.78 296.621 286.58 296.802 286.609 296.701C286.053 296.403 285.4 296.297 284.766 296.401C284.122 296.416 283.505 296.64 283.021 297.032V297.032Z" fill="#263238"/>
<path d="M282.776 293.305C283.364 293.095 283.98 292.962 284.608 292.91C285.24 292.942 285.864 293.055 286.463 293.247C286.463 293.214 286.324 293.065 285.993 292.91C285.56 292.715 285.083 292.619 284.602 292.632C284.123 292.636 283.652 292.746 283.228 292.952C282.933 293.118 282.776 293.279 282.776 293.305Z" fill="#263238"/>
<path d="M284.576 292.199C284.616 292.04 284.616 291.876 284.576 291.717C284.507 291.279 284.341 290.859 284.089 290.482C283.935 290.188 283.681 289.95 283.365 289.803C283.255 289.767 283.137 289.762 283.024 289.788C282.911 289.815 282.81 289.872 282.733 289.953C282.591 290.118 282.525 290.327 282.547 290.536C282.605 290.959 282.821 291.35 283.157 291.643C283.494 291.935 283.93 292.111 284.391 292.14C284.849 292.16 285.303 292.055 285.696 291.837C286.09 291.619 286.404 291.298 286.599 290.915C286.648 290.818 286.673 290.712 286.673 290.605C286.673 290.498 286.648 290.392 286.599 290.295C286.539 290.207 286.451 290.138 286.348 290.095C286.245 290.052 286.131 290.038 286.02 290.055C285.686 290.139 285.382 290.303 285.139 290.53C284.78 290.824 284.48 291.173 284.252 291.562C284.156 291.698 284.092 291.851 284.066 292.011C284.398 291.516 284.806 291.067 285.278 290.68C285.498 290.489 285.767 290.353 286.06 290.284C286.122 290.271 286.187 290.276 286.246 290.299C286.304 290.322 286.353 290.362 286.385 290.413C286.411 290.479 286.422 290.549 286.417 290.619C286.412 290.689 286.391 290.757 286.356 290.819C286.177 291.146 285.899 291.418 285.557 291.603C285.215 291.788 284.822 291.877 284.426 291.862C284.035 291.834 283.667 291.685 283.379 291.439C283.092 291.194 282.903 290.866 282.843 290.509C282.825 290.362 282.864 290.214 282.953 290.092C282.995 290.047 283.051 290.015 283.113 290C283.175 289.984 283.24 289.987 283.301 290.006C283.562 290.124 283.78 290.31 283.927 290.541C284.25 291.053 284.47 291.614 284.576 292.199V292.199Z" fill="#263238"/>
<path d="M271.14 203.157L273.847 291.535L288.571 292.632L300.848 201.125L271.14 203.157Z" fill="white"/>
<path d="M251.295 202.034C251.295 202.034 253.289 230.084 255.19 240.596C257.092 251.108 261.723 289.092 263.885 289.969C266.047 290.846 278.684 289.653 278.684 289.653L283.194 202.922L251.295 202.034Z" fill="white"/>
<g opacity="0.3">
<path opacity="0.3" d="M251.706 207.531L251.833 209.114L275.275 211.841L282.04 208.29L295.615 207.643L251.706 207.531Z" fill="black"/>
</g>
<path d="M273.351 290.669C273.27 290.669 273.635 272.576 274.168 250.269C274.701 227.961 275.194 209.868 275.275 209.873C275.356 209.878 274.985 227.956 274.452 250.274C273.919 272.592 273.426 290.669 273.351 290.669Z" fill="#263238"/>
<path d="M256.257 165.264L244.525 161.441C244.525 161.441 251.997 137.749 253.312 137.471C254.628 137.193 269.01 131.381 269.01 131.381L277.658 147.481L290.863 133.547C290.863 133.547 303.181 142.07 303.917 143.962C304.653 145.855 294.526 173.049 294.526 173.049C294.526 173.049 299.077 179.546 299.952 186.85C300.827 194.153 299.077 207.954 299.077 207.954L249.092 207.531C249.092 207.531 248.559 187.149 252.362 176.519C253.875 172.306 255.503 167.505 256.257 165.264Z" fill="white"/>
<path d="M281.133 154.089C281.217 154.052 281.305 154.022 281.394 153.999C281.657 153.914 281.929 153.859 282.206 153.833C283.253 153.748 284.309 153.853 285.313 154.143C286.617 154.464 288.159 154.982 289.95 155.538C290.837 155.816 291.782 156.073 292.796 156.335C293.842 156.612 294.92 156.774 296.007 156.816H296.112V156.95C295.352 160.816 294.466 165.35 293.527 170.173C293.474 170.424 293.428 170.665 293.382 170.905L293.347 171.076L293.179 171.007C291.981 170.501 290.789 170.028 289.602 169.59C288.473 169.144 287.31 168.773 286.124 168.478C283.906 168.062 281.659 167.791 279.4 167.665H279.267V167.547C279.812 163.511 280.27 160.142 280.588 157.763C280.757 156.608 280.884 155.694 280.977 155.047C281.023 154.747 281.058 154.512 281.081 154.335C281.09 154.256 281.107 154.177 281.133 154.1V154.357C281.133 154.539 281.087 154.779 281.052 155.084C280.977 155.742 280.867 156.688 280.733 157.832C280.438 160.201 280.026 163.553 279.528 167.574L279.418 167.446C281.686 167.56 283.942 167.821 286.171 168.227C287.38 168.524 288.565 168.897 289.718 169.344C290.901 169.782 292.097 170.257 293.306 170.766L293.103 170.863C293.15 170.622 293.196 170.376 293.248 170.13L295.868 156.907L296.002 157.046C294.888 157.002 293.784 156.833 292.715 156.544C291.695 156.292 290.744 156.009 289.863 155.72C288.095 155.148 286.565 154.613 285.272 154.277C283.95 153.808 282.499 153.742 281.133 154.089V154.089Z" fill="#263238"/>
<path d="M303.913 143.962L311.535 170.483L296.093 175.637L294.522 173.049L303.913 143.962Z" fill="white"/>
<path d="M249.087 202.409H249.214L249.58 202.468L251 202.687C252.229 202.869 254.014 203.12 256.217 203.264C257.425 203.35 258.638 203.35 259.845 203.264C260.175 203.24 260.502 203.197 260.825 203.136C260.987 203.104 261.156 203.083 261.318 203.04L261.799 202.895C262.448 202.73 262.802 202.099 263.097 201.511C263.38 200.872 263.599 200.212 263.752 199.538C263.92 198.842 264.054 198.131 264.164 197.399C264.39 195.939 264.535 194.415 264.639 192.849C264.86 189.432 264.889 186.176 264.836 183.299L264.964 183.417L254.652 183.214L251.719 183.139L250.942 183.107C250.853 183.116 250.764 183.116 250.675 183.107H250.942H254.652L264.97 183.214H265.097V183.331C265.167 186.213 265.149 189.475 264.923 192.902C264.819 194.474 264.674 196.003 264.442 197.474C264.332 198.212 264.193 198.928 264.019 199.612C263.859 200.302 263.632 200.976 263.341 201.628C263.186 201.947 262.991 202.249 262.761 202.526C262.643 202.663 262.511 202.788 262.367 202.901C262.212 203.001 262.042 203.08 261.863 203.136L261.358 203.286C261.184 203.328 261.016 203.35 260.848 203.382C260.517 203.444 260.182 203.485 259.845 203.505C258.625 203.584 257.4 203.573 256.182 203.473C254.422 203.34 252.67 203.118 250.936 202.81C250.322 202.703 249.852 202.607 249.528 202.542L249.168 202.457C249.128 202.446 249.081 202.414 249.087 202.409Z" fill="#263238"/>
<path d="M264.844 186.636C264.844 186.71 261.551 186.769 257.494 186.769C253.436 186.769 250.144 186.71 250.144 186.636C250.144 186.561 253.436 186.502 257.494 186.502C261.551 186.502 264.844 186.566 264.844 186.636Z" fill="#263238"/>
<path d="M271.486 157.041C271.55 157.084 267.776 161.784 263.052 167.532C258.328 173.279 254.456 177.91 254.375 177.851C254.294 177.792 258.084 173.108 262.809 167.355C267.533 161.602 271.423 156.998 271.486 157.041Z" fill="#263238"/>
<path d="M255.532 160.062C255.451 159.798 255.397 159.528 255.37 159.254C255.283 158.72 255.178 157.976 255.068 157.035C254.775 154.589 254.618 152.129 254.599 149.667C254.579 147.203 254.716 144.739 255.01 142.289C255.126 141.353 255.242 140.594 255.335 140.07C255.369 139.799 255.427 139.53 255.509 139.268C255.51 139.542 255.489 139.815 255.445 140.086C255.387 140.621 255.306 141.369 255.213 142.31C255.034 144.187 254.865 146.785 254.883 149.662C254.9 152.539 255.097 155.137 255.265 157.019C255.352 157.923 255.428 158.672 255.48 159.244C255.521 159.515 255.538 159.788 255.532 160.062Z" fill="#263238"/>
<path d="M266.672 151.555C266.609 151.8 266.522 152.04 266.411 152.271C266.226 152.726 265.941 153.373 265.582 154.175C264.858 155.779 263.843 157.966 262.568 160.35C261.293 162.735 260.11 164.852 259.2 166.371C258.748 167.13 258.371 167.74 258.099 168.151C257.974 168.376 257.826 168.589 257.658 168.788C257.748 168.55 257.863 168.321 258 168.103C258.267 167.633 258.609 167.034 259.02 166.28C259.884 164.745 261.061 162.612 262.307 160.233C263.553 157.853 264.626 155.682 265.397 154.1L266.307 152.228C266.409 151.995 266.531 151.77 266.672 151.555V151.555Z" fill="#263238"/>
<path d="M294.521 136.145C294.449 136.269 294.363 136.385 294.265 136.493C294.08 136.733 293.819 137.06 293.494 137.466L290.596 141.043L280.713 153.036L280.672 153.084H274.296L274.256 153.009C271.421 147.475 268.905 142.561 267.079 139.006C266.192 137.247 265.479 135.798 264.969 134.819L264.39 133.686C264.332 133.568 264.291 133.466 264.251 133.386C264.235 133.353 264.222 133.319 264.21 133.285C264.21 133.285 264.21 133.311 264.274 133.376L264.436 133.664L265.045 134.782L267.23 138.926C269.073 142.476 271.624 147.379 274.493 152.892L274.36 152.817H280.591L280.475 152.87L290.434 140.957L293.413 137.428L294.225 136.487C294.314 136.367 294.413 136.252 294.521 136.145V136.145Z" fill="#263238"/>
<path d="M293.409 184.599C293.256 184.473 293.122 184.329 293.009 184.171C292.766 183.887 292.43 183.465 292.041 182.925C290.019 180.099 288.575 176.954 287.781 173.648C287.63 173.012 287.531 172.499 287.479 172.14C287.441 171.964 287.423 171.785 287.427 171.606C287.473 171.606 287.63 172.381 288.007 173.632C288.904 176.885 290.333 179.994 292.244 182.85C292.945 183.92 293.444 184.572 293.409 184.599Z" fill="#263238"/>
<path d="M289.562 177.011C289.515 176.942 290.843 176.092 292.356 174.873C293.869 173.653 294.993 172.605 295.051 172.659C294.341 173.569 293.496 174.382 292.541 175.076C291.647 175.841 290.645 176.492 289.562 177.011Z" fill="#263238"/>
<path d="M296.629 176.653C296.579 176.597 296.536 176.536 296.501 176.471L296.176 175.937C295.881 175.434 295.481 174.75 294.976 173.899V173.873V173.841C295.782 170.985 297.144 166.302 298.698 161.008C300.002 156.65 301.185 152.71 302.048 149.817L303.092 146.433C303.213 146.058 303.312 145.754 303.393 145.518C303.419 145.409 303.46 145.303 303.515 145.203C303.5 145.313 303.476 145.422 303.445 145.529L303.202 146.459C302.964 147.293 302.622 148.448 302.245 149.865C301.399 152.763 300.246 156.709 298.976 161.094C297.417 166.371 296.014 171.044 295.139 173.883V173.825L296.269 175.899L296.553 176.434C296.59 176.503 296.615 176.577 296.629 176.653Z" fill="#263238"/>
<g opacity="0.3">
<path opacity="0.3" d="M268.351 157.731C263.375 163.687 259.08 170.102 255.534 176.872L255.917 176.701L259.551 172.034L268.472 160.597C268.883 160.154 269.164 159.622 269.29 159.051C269.341 158.763 269.274 158.467 269.1 158.222C268.926 157.977 268.658 157.802 268.351 157.731V157.731Z" fill="black"/>
</g>
<g opacity="0.3">
<path opacity="0.3" d="M255.533 160.062C254.199 157.705 253.45 155.104 253.34 152.447C253.23 149.791 253.761 147.145 254.896 144.7C254.896 144.7 254.954 157.565 255.533 160.062Z" fill="black"/>
</g>
<path d="M295.254 159.784C295.06 159.789 294.865 159.773 294.674 159.736C294.298 159.688 293.759 159.607 293.092 159.5C291.759 159.281 289.927 158.934 287.921 158.479C285.916 158.025 284.125 157.544 282.832 157.164C282.189 156.971 281.673 156.811 281.313 156.693C281.121 156.647 280.938 156.575 280.768 156.479C280.966 156.497 281.16 156.535 281.348 156.592L282.89 156.982C284.194 157.314 285.991 157.768 287.991 158.223C289.991 158.677 291.811 159.051 293.133 159.319L294.692 159.634C294.886 159.66 295.075 159.71 295.254 159.784Z" fill="#263238"/>
<g opacity="0.3">
<path opacity="0.3" d="M279.392 167.547C279.392 167.547 289.159 171.932 293.217 170.9C293.217 170.9 286.261 167.285 279.392 167.547Z" fill="black"/>
</g>
<g opacity="0.3">
<path opacity="0.3" d="M295.501 172.686C295.501 172.686 303.037 168.333 301.593 151.298L295.501 172.686Z" fill="black"/>
</g>
<path d="M306.634 172.135C306.634 172.135 307.706 188.673 307.277 191.218C306.848 193.763 305.26 205.425 305.26 205.425L298.918 204.205L297.179 175.268L306.634 172.135Z" fill="#9B6B63"/>
<path d="M296.075 215.359C296.51 213.958 296.15 211.29 296.365 210.354C296.469 209.916 297.971 205.232 298.371 204.676L297.988 197.067L308.086 197.457L305.935 204.975C306.457 206.045 308.086 210.889 308.086 211.108C308.086 211.327 307.721 215.225 307.721 215.225L305.709 217.262C305.65 217.317 305.578 217.36 305.499 217.387C305.421 217.414 305.336 217.424 305.252 217.418C305.169 217.412 305.087 217.389 305.014 217.351C304.941 217.313 304.877 217.261 304.828 217.198L304.614 216.893C304.539 217.141 304.39 217.364 304.186 217.537C303.981 217.711 303.728 217.829 303.454 217.877C302.295 218.064 302.295 217.759 302.295 217.759L302.028 216.824C302.028 216.824 300.347 218.043 299.912 218.102C299.478 218.16 299.188 216.359 299.188 216.359L300.631 213.423L300.202 210.488C300.202 210.488 297.884 216.824 297.263 216.824C296.643 216.824 295.646 216.76 296.075 215.359Z" fill="#455A64"/>
<path d="M249.085 207.531C249.085 207.611 259.838 207.745 273.101 207.836C286.363 207.927 297.11 207.938 297.116 207.836C297.122 207.734 286.363 207.627 273.101 207.537C259.838 207.446 249.091 207.456 249.085 207.531Z" fill="#263238"/>
<path d="M303.954 210.745C303.907 211.064 303.907 211.388 303.954 211.707C303.999 212.466 303.931 213.227 303.751 213.969C303.518 214.692 303.136 215.367 302.626 215.958C302.396 216.199 302.201 216.467 302.046 216.755C302.075 216.781 302.371 216.53 302.8 216.081C303.38 215.497 303.809 214.798 304.052 214.038C304.242 213.27 304.283 212.478 304.174 211.696C304.152 211.371 304.078 211.05 303.954 210.745Z" fill="#263238"/>
<path d="M306.548 211.205C306.378 211.474 306.296 211.781 306.31 212.092C306.246 212.659 306.368 213.44 306.229 214.231C306.056 214.922 305.721 215.57 305.249 216.129C305.035 216.358 304.854 216.611 304.71 216.883C304.739 216.91 305.017 216.674 305.417 216.247C305.967 215.692 306.349 215.013 306.524 214.279C306.595 213.548 306.595 212.813 306.524 212.081C306.513 211.536 306.6 211.215 306.548 211.205Z" fill="#263238"/>
<path d="M245.631 166.836C245.585 166.911 246.477 167.371 247.3 168.221C248.124 169.071 248.558 169.916 248.645 169.884C248.432 169.196 248.049 168.562 247.526 168.034C247.003 167.505 246.354 167.095 245.631 166.836V166.836Z" fill="#484848"/>
<path d="M217.31 164.083C216.668 163.82 216.08 163.459 215.571 163.013C215.39 162.791 215.278 162.528 215.244 162.251C215.211 161.975 215.257 161.696 215.379 161.441L216.956 161.976C216.424 161.816 215.967 161.491 215.663 161.056C215.575 160.962 215.508 160.852 215.467 160.733C215.426 160.614 215.411 160.489 215.425 160.365C215.439 160.24 215.48 160.12 215.545 160.011C215.611 159.902 215.701 159.806 215.808 159.73C215.808 159.73 218.544 160.741 219.617 161.062C219.767 161.158 225.338 163.126 225.634 163.414L230.851 168.547L238.502 166.943L239.192 176.605C239.192 176.605 229.535 175.691 227.912 175.252C226.289 174.814 222.074 171.103 222.074 171.103L220.167 168.772L216.782 167.04C216.203 166.665 215.588 165.97 216.116 165.307C215.043 164.671 215.6 163.425 215.6 163.425L217.31 164.083Z" fill="#455A64"/>
<path d="M224.64 172.354C224.182 172.081 223.745 171.781 223.33 171.456C222.88 171.067 222.528 170.593 222.298 170.066C221.999 169.389 221.906 168.649 222.031 167.927V167.815L221.921 167.783L219.794 167.157C219.415 167.058 219.045 166.933 218.687 166.783C218.33 166.629 218.02 166.398 217.782 166.109C217.548 165.797 217.449 165.416 217.504 165.04L217.353 165.147L222.57 165.259H222.501L224.918 166.863L225.59 167.291C225.665 167.346 225.747 167.392 225.834 167.43C225.585 167.179 225.304 166.957 224.999 166.767C224.419 166.36 223.637 165.794 222.64 165.099H222.611H222.576L217.388 164.927H217.278V165.04C217.235 165.268 217.241 165.502 217.297 165.728C217.352 165.953 217.456 166.167 217.603 166.355C218.161 166.956 218.926 167.362 219.77 167.505L221.898 168.114L221.811 167.97C221.685 168.733 221.796 169.513 222.13 170.221C222.385 170.766 222.772 171.25 223.26 171.638L223.55 171.862L223.822 172.033C223.967 172.126 224.12 172.206 224.28 172.274C224.396 172.314 224.517 172.341 224.64 172.354V172.354Z" fill="#263238"/>
<path d="M221.595 164.821C221.925 164.667 222.233 164.474 222.511 164.249L222.633 164.163L222.493 164.093C221.804 163.735 220.754 163.249 219.531 162.767C218.413 162.318 217.381 161.965 216.633 161.735C216.231 161.589 215.81 161.49 215.381 161.441C215.749 161.637 216.138 161.798 216.54 161.923C217.277 162.195 218.279 162.58 219.398 162.992C220.604 163.473 221.676 163.928 222.395 164.232V164.077C222.094 164.292 221.825 164.542 221.595 164.821V164.821Z" fill="#263238"/>
<path d="M219.243 164.82C218.699 164.46 218.096 164.18 217.458 163.992C216.85 163.714 216.202 163.519 215.533 163.414C216.081 163.77 216.683 164.049 217.319 164.243C217.926 164.521 218.575 164.715 219.243 164.82V164.82Z" fill="#263238"/>
<path d="M160.329 48H164.46V297.653H160.329V48Z" fill="#E0E0E0"/>
<path d="M184.01 58.1674C186.427 58.1674 187.619 53.3014 187.745 52.7271L186.221 52.2285C185.815 53.9893 184.802 56.3624 183.947 56.2677C183.131 56.0668 182.401 55.5282 181.884 54.7467C181.524 54.2571 181.08 53.8657 180.582 53.599C180.084 53.3322 179.544 53.1963 178.999 53.2004H147.199C146.086 53.2045 145.016 53.717 144.208 54.6331C143.3 55.6492 142.414 56.2046 141.718 56.2046C140.663 56.2046 139.93 54.7404 139.682 53.7495L138.168 54.3049C138.648 56.1983 139.93 58.0916 141.718 58.0916C143.126 58.0916 144.435 56.9556 145.289 56.0089C145.804 55.4207 146.487 55.0909 147.199 55.0875H178.999C179.316 55.0891 179.63 55.1708 179.919 55.3274C180.208 55.4841 180.466 55.712 180.676 55.9963C181.443 57.1447 182.539 57.9099 183.752 58.1421L184.01 58.1674Z" fill="#E0E0E0"/>
<path d="M163.12 54.6143C163.12 54.709 166.776 54.7784 171.276 54.7784C175.776 54.7784 179.432 54.709 179.432 54.6143C179.432 54.5196 175.781 54.4502 171.276 54.4502C166.771 54.4502 163.12 54.507 163.12 54.6143Z" fill="#263238"/>
<path d="M163.168 54.57C163.216 54.5069 163.168 54.3112 163.168 54.1029C163.168 53.8947 163.305 53.7306 163.274 53.6485C163.242 53.5665 162.957 53.6485 162.899 54.0525C162.841 54.4564 163.168 54.652 163.168 54.57Z" fill="#263238"/>
<path d="M160.294 67.501C160.368 67.501 160.431 63.1841 160.431 57.8574C160.431 52.5307 160.368 48.2139 160.294 48.2139C160.22 48.2139 160.157 52.5307 160.157 57.8574C160.157 63.1841 160.215 67.501 160.294 67.501Z" fill="#263238"/>
<path d="M167.366 120.901H183.551V110.544C183.551 108.834 182.984 107.195 181.974 105.985C180.964 104.776 179.594 104.095 178.165 104.094H172.752C171.323 104.095 169.953 104.776 168.943 105.985C167.934 107.195 167.366 108.834 167.366 110.544V120.901ZM181.441 118.376H169.476V110.544C169.476 109.504 169.821 108.506 170.436 107.77C171.05 107.034 171.883 106.62 172.752 106.618H178.165C179.034 106.62 179.867 107.034 180.482 107.77C181.096 108.506 181.441 109.504 181.441 110.544V118.376Z" fill="#E0E0E0"/>
<path d="M162.414 117.341H188.885V156.559H162.414V117.341Z" fill="#E0E0E0"/>
<path d="M170.184 117.341H188.885V156.206H170.184V117.341Z" fill="#F5F5F5"/>
<path d="M172.55 121.134H186.519V137.846H172.55V121.134Z" fill="white"/>
<path d="M172.557 137.815C172.557 137.815 172.557 137.701 172.557 137.493C172.557 137.285 172.557 136.963 172.557 136.584C172.557 135.77 172.557 134.621 172.588 133.176C172.588 130.235 172.625 126.082 172.646 121.109L172.53 121.248H186.494C186.526 121.248 186.236 120.939 186.357 121.084V123.343C186.357 124.094 186.357 124.839 186.357 125.577V129.894C186.357 132.703 186.357 135.347 186.357 137.777L186.473 137.638L176.386 137.708L173.538 137.745H172.778H172.509C172.59 137.754 172.671 137.754 172.752 137.745H173.485L176.313 137.783L186.473 137.859H186.594V137.815C186.594 135.385 186.594 132.766 186.594 129.932V121.096L186.457 120.932H172.493H172.372V121.078C172.398 126.089 172.419 130.273 172.435 133.233C172.435 134.672 172.435 135.808 172.467 136.616C172.467 136.982 172.467 137.247 172.467 137.493C172.487 137.604 172.517 137.712 172.557 137.815V137.815Z" fill="#263238"/>
<path d="M162.866 117.342C162.866 117.43 168.669 117.506 175.838 117.506C183.007 117.506 188.81 117.43 188.81 117.342C188.81 117.253 183.007 117.177 175.838 117.177C168.669 117.177 162.866 117.253 162.866 117.342Z" fill="#263238"/>
<path d="M162.404 156.559C162.483 156.559 162.541 147.843 162.541 137.095C162.541 126.347 162.483 117.638 162.404 117.638C162.325 117.638 162.267 126.347 162.267 137.095C162.267 147.843 162.33 156.559 162.404 156.559Z" fill="#263238"/>
<path d="M170.178 156.559C170.257 156.559 170.321 147.843 170.321 137.095C170.321 126.347 170.257 117.638 170.178 117.638C170.099 117.638 170.041 126.347 170.041 137.095C170.041 147.843 170.104 156.559 170.178 156.559Z" fill="#263238"/>
<path d="M184.377 141.091H186.519V143.653H184.377V141.091Z" fill="#455A64"/>
<path d="M181.424 141.091H183.566V143.653H181.424V141.091Z" fill="#455A64"/>
<path d="M178.467 141.091H180.609V143.653H178.467V141.091Z" fill="#455A64"/>
<path d="M175.511 141.091H177.652V143.653H175.511V141.091Z" fill="#455A64"/>
<path d="M172.554 141.091H174.696V143.653H172.554V141.091Z" fill="#455A64"/>
<path d="M184.377 144.492H186.519V147.055H184.377V144.492Z" fill="#455A64"/>
<path d="M181.424 144.492H183.566V147.055H181.424V144.492Z" fill="#455A64"/>
<path d="M178.467 144.492H180.609V147.055H178.467V144.492Z" fill="#455A64"/>
<path d="M175.511 144.492H177.652V147.055H175.511V144.492Z" fill="#455A64"/>
<path d="M172.554 144.492H174.696V147.055H172.554V144.492Z" fill="#455A64"/>
<path d="M184.377 147.888H186.519V150.45H184.377V147.888Z" fill="#455A64"/>
<path d="M181.424 147.888H183.566V150.45H181.424V147.888Z" fill="#455A64"/>
<path d="M178.467 147.888H180.609V150.45H178.467V147.888Z" fill="#455A64"/>
<path d="M172.551 147.888H177.652V150.45H172.551V147.888Z" fill="#C53F3F"/>
<path d="M173.253 129.762C173.253 129.762 173.575 129.724 174.161 129.667C174.513 129.631 174.868 129.65 175.216 129.724C175.666 129.817 176.079 130.083 176.392 130.481C176.556 130.744 176.674 131.044 176.739 131.363C176.804 131.682 176.816 132.013 176.772 132.337C176.743 132.727 176.743 133.12 176.772 133.511C176.825 133.942 176.979 134.347 177.215 134.678C177.347 134.868 177.527 135.001 177.727 135.059C177.928 135.117 178.138 135.097 178.328 135C178.688 134.769 178.962 134.387 179.099 133.927C179.386 133.039 179.574 132.11 179.658 131.163C179.769 130.197 179.658 129.232 179.742 128.367C179.771 127.948 179.887 127.545 180.08 127.193C180.259 126.864 180.53 126.622 180.845 126.511C180.992 126.473 181.145 126.475 181.292 126.519C181.438 126.563 181.574 126.647 181.689 126.764C181.916 126.999 182.097 127.292 182.216 127.622C182.464 128.253 182.564 128.973 182.833 129.516C183.074 130.038 183.455 130.447 183.915 130.677C184.247 130.85 184.608 130.928 184.97 130.904C185.2 130.894 185.427 130.834 185.64 130.727C185.715 130.697 185.785 130.65 185.846 130.589C185.561 130.701 185.264 130.765 184.965 130.778C184.616 130.777 184.272 130.685 183.957 130.506C183.543 130.278 183.203 129.892 182.992 129.408C182.749 128.872 182.659 128.184 182.406 127.483C182.275 127.109 182.073 126.776 181.815 126.511C181.671 126.366 181.502 126.261 181.319 126.207C181.136 126.152 180.945 126.148 180.76 126.196C180.389 126.347 180.065 126.629 179.831 127.006C179.598 127.382 179.465 127.835 179.452 128.304C179.368 129.244 179.452 130.159 179.357 131.1C179.279 132.013 179.101 132.911 178.829 133.769C178.717 134.155 178.492 134.48 178.196 134.685C178.056 134.758 177.9 134.775 177.751 134.732C177.602 134.688 177.47 134.587 177.373 134.445C177.167 134.159 177.034 133.809 176.988 133.435C176.962 133.065 176.962 132.694 176.988 132.324C177.005 131.956 176.983 131.588 176.925 131.226C176.865 130.882 176.728 130.563 176.529 130.305C176.182 129.88 175.728 129.603 175.237 129.516C174.877 129.452 174.511 129.452 174.15 129.516C173.855 129.56 173.623 129.617 173.48 129.654C173.338 129.692 173.248 129.749 173.253 129.762Z" fill="#C53F3F"/>
<path d="M145.76 300.645H177.777C177.775 299.847 177.51 299.082 177.038 298.518C176.566 297.953 175.927 297.636 175.26 297.634H148.293C147.961 297.632 147.632 297.709 147.326 297.859C147.019 298.01 146.74 298.231 146.505 298.511C146.269 298.791 146.083 299.123 145.955 299.489C145.827 299.855 145.761 300.248 145.76 300.645V300.645Z" fill="#E0E0E0"/>
<path d="M172.248 303.434C172.248 304.28 172.458 305.108 172.851 305.811C173.244 306.515 173.803 307.063 174.456 307.387C175.11 307.711 175.829 307.796 176.523 307.631C177.216 307.466 177.854 307.058 178.354 306.46C178.854 305.861 179.195 305.099 179.333 304.269C179.471 303.439 179.4 302.578 179.129 301.797C178.859 301.015 178.4 300.346 177.812 299.876C177.224 299.406 176.532 299.155 175.825 299.155C174.876 299.155 173.967 299.606 173.296 300.408C172.625 301.211 172.248 302.299 172.248 303.434V303.434Z" fill="#263238"/>
<path d="M142.481 303.434C142.481 304.28 142.691 305.108 143.084 305.811C143.477 306.515 144.036 307.063 144.689 307.387C145.343 307.711 146.062 307.796 146.756 307.631C147.449 307.466 148.087 307.058 148.587 306.46C149.087 305.861 149.428 305.099 149.566 304.269C149.704 303.439 149.633 302.578 149.362 301.797C149.092 301.015 148.633 300.346 148.045 299.876C147.457 299.406 146.765 299.155 146.058 299.155C145.11 299.157 144.201 299.608 143.53 300.41C142.86 301.212 142.483 302.3 142.481 303.434V303.434Z" fill="#263238"/>
<path d="M161.782 307.738C159.807 307.738 158.206 305.823 158.206 303.459C158.206 301.096 159.807 299.18 161.782 299.18C163.758 299.18 165.359 301.096 165.359 303.459C165.359 305.823 163.758 307.738 161.782 307.738Z" fill="#263238"/>
<path d="M112.074 208.627C112.652 206.391 113.808 204.432 115.376 203.033C116.944 201.633 118.843 200.865 120.799 200.839L128.327 200.694C139.068 200.466 152.441 200.189 158.597 200.618C164.547 201.034 168.061 204.405 169.955 207.169C171.209 208.948 172.14 211.02 172.687 213.253V213.354C177.113 238.832 192.776 306.205 193.087 307.738L188.688 307.663C188.334 305.971 170.113 222.335 168.736 214.408C168.567 213.682 166.547 206.027 158.338 205.452C152.335 205.036 139.052 205.313 128.374 205.534C125.61 205.591 122.999 205.648 120.831 205.68C119.726 205.697 118.655 206.135 117.772 206.929C116.889 207.723 116.24 208.833 115.919 210.097L90.07 307.921L85.8075 307.751L112.074 208.627Z" fill="#455A64"/>
<path d="M112.072 208.627C112.072 208.627 111.903 209.22 111.592 210.388C111.281 211.555 110.817 213.285 110.21 215.55C108.997 220.088 107.219 226.772 104.935 235.349C100.393 252.522 93.8089 277.293 85.7377 307.701L85.6955 307.865H85.8379L90.1004 308.035H90.1795L90.2059 307.94C96.109 285.618 102.83 260.19 110.12 232.603C111.946 225.703 113.803 218.675 115.691 211.518C115.886 210.618 116.159 209.744 116.504 208.911C116.886 208.105 117.417 207.414 118.057 206.892C118.698 206.37 119.429 206.031 120.196 205.901C120.585 205.843 120.976 205.818 121.367 205.825H122.56L132.192 205.636C138.665 205.516 145.228 205.377 151.87 205.434C153.526 205.434 155.193 205.478 156.86 205.553C158.525 205.549 160.181 205.833 161.777 206.399C163.363 207.001 164.809 208.041 165.997 209.435C167.204 210.839 168.109 212.571 168.635 214.484C169.415 218.63 170.296 222.688 171.146 226.778C171.995 230.868 172.865 234.888 173.72 238.902C175.443 246.921 177.144 254.832 178.821 262.632C182.198 278.215 185.463 293.298 188.591 307.732L188.618 307.846H188.718L193.118 307.915H193.286L193.244 307.72C187.441 282.393 182.124 258.909 177.671 237.848C176.569 232.578 175.503 227.466 174.506 222.505L173.789 218.813C173.564 217.593 173.342 216.381 173.124 215.178L172.792 213.386C172.669 212.79 172.505 212.207 172.301 211.644C171.911 210.537 171.429 209.479 170.861 208.488C169.765 206.545 168.355 204.884 166.714 203.603C165.138 202.384 163.39 201.516 161.555 201.041C159.8 200.628 158.016 200.416 156.227 200.41C154.486 200.347 152.787 200.328 151.131 200.315C144.51 200.315 138.576 200.416 133.401 200.523C128.225 200.631 123.805 200.7 120.212 200.833C118.614 200.975 117.074 201.613 115.744 202.682C114.777 203.453 113.942 204.438 113.286 205.585C112.885 206.282 112.552 207.032 112.294 207.819C112.136 208.362 112.062 208.633 112.062 208.633C112.062 208.633 112.151 208.362 112.315 207.832C112.58 207.048 112.918 206.303 113.323 205.61C114.11 204.265 115.139 203.146 116.333 202.336C117.528 201.526 118.858 201.045 120.228 200.927C123.815 200.814 128.241 200.77 133.416 200.662C138.591 200.555 144.526 200.46 151.147 200.498C152.803 200.498 154.502 200.536 156.238 200.599C158.009 200.609 159.775 200.82 161.513 201.23C163.327 201.695 165.056 202.55 166.614 203.755C168.233 205.024 169.624 206.665 170.708 208.583C171.267 209.575 171.74 210.632 172.122 211.739C172.319 212.291 172.482 212.861 172.607 213.443C172.712 214.036 172.823 214.635 172.929 215.235C173.15 216.442 173.372 217.656 173.593 218.876L174.311 222.569C175.276 227.529 176.337 232.666 177.434 237.917C181.87 258.984 187.178 282.481 192.97 307.802L193.096 307.612L188.692 307.537L188.818 307.65C185.695 293.216 182.43 278.133 179.053 262.55C177.383 254.754 175.684 246.842 173.957 238.814C173.11 234.8 172.252 230.761 171.383 226.696C170.539 222.625 169.658 218.536 168.877 214.408C168.343 212.446 167.42 210.669 166.187 209.227C164.963 207.794 163.474 206.728 161.84 206.115C160.22 205.54 158.539 205.249 156.849 205.251C155.177 205.175 153.51 205.15 151.848 205.131C145.201 205.08 138.66 205.213 132.166 205.339L122.539 205.528H121.341C120.939 205.521 120.537 205.549 120.138 205.61C119.333 205.746 118.565 206.101 117.892 206.648C117.22 207.195 116.662 207.92 116.261 208.766C115.907 209.619 115.628 210.514 115.427 211.436L109.888 232.515C102.614 260.114 95.9033 285.529 90.016 307.871L90.1215 307.776L85.859 307.612L85.9592 307.776L105.051 235.393C107.309 226.803 109.071 220.113 110.268 215.569L111.619 210.394C111.925 209.233 112.072 208.627 112.072 208.627Z" fill="#263238"/>
<path d="M227.904 256.207L232.494 270.18C232.494 270.18 245.745 269.032 246.806 271.518L224.649 283.396L216.736 261.976L227.904 256.207Z" fill="#455A64"/>
<path d="M225.349 272.591C225.16 272.782 225.037 273.049 225.004 273.342C224.971 273.635 225.03 273.932 225.169 274.175C225.322 274.407 225.542 274.559 225.786 274.601C226.029 274.644 226.277 274.572 226.478 274.403C226.677 274.2 226.806 273.916 226.84 273.606C226.874 273.296 226.811 272.981 226.662 272.724C226.482 272.501 226.237 272.37 225.978 272.359C225.719 272.348 225.467 272.459 225.275 272.667" fill="#E0E0E0"/>
<path d="M224.65 283.396L224.017 281.692L245.725 270.673C245.975 270.718 246.214 270.824 246.429 270.983C246.644 271.143 246.83 271.353 246.975 271.6L224.65 283.396Z" fill="#263238"/>
<path d="M232.734 270.161C232.776 270.294 232.249 270.641 231.864 271.341C231.479 272.042 231.389 272.749 231.273 272.749C231.157 272.749 231.036 271.909 231.521 271.064C232.006 270.218 232.713 270.029 232.734 270.161Z" fill="#263238"/>
<path d="M235.519 270.098C235.593 270.218 235.197 270.685 235.028 271.436C234.859 272.187 234.965 272.831 234.849 272.881C234.733 272.932 234.4 272.25 234.627 271.297C234.854 270.344 235.445 269.978 235.519 270.098Z" fill="#263238"/>
<path d="M238.079 272.781C237.989 272.863 237.599 272.282 237.62 271.418C237.641 270.553 238.047 269.998 238.147 270.086C238.248 270.174 238.052 270.717 238.047 271.43C238.042 272.143 238.19 272.711 238.079 272.781Z" fill="#263238"/>
<path d="M231.386 267.094C231.386 267.239 230.811 267.321 230.209 267.725C229.608 268.129 229.207 268.584 229.112 268.501C229.017 268.419 229.307 267.706 230.019 267.277C230.732 266.848 231.402 266.962 231.386 267.094Z" fill="#263238"/>
<path d="M230.694 263.926C230.367 264.235 229.977 264.433 229.565 264.5C229.128 264.627 228.68 264.688 228.23 264.683C227.964 264.682 227.697 264.657 227.434 264.607C227.277 264.592 227.124 264.545 226.98 264.469C226.875 264.412 226.788 264.316 226.733 264.196C226.678 264.075 226.657 263.936 226.674 263.8C226.695 263.678 226.74 263.564 226.805 263.468C226.87 263.371 226.954 263.295 227.049 263.244C227.191 263.173 227.339 263.122 227.492 263.093C227.758 263.04 228.028 263.015 228.299 263.017C228.753 263.026 229.203 263.119 229.633 263.295C230.367 263.598 230.72 263.995 230.689 264.039C230.657 264.084 230.251 263.831 229.549 263.629C229.137 263.518 228.716 263.467 228.294 263.478C228.047 263.485 227.802 263.518 227.56 263.579C227.297 263.623 227.096 263.73 227.08 263.888C227.08 263.945 227.08 263.97 227.159 264.027C227.265 264.08 227.377 264.114 227.492 264.128C228.16 264.25 228.839 264.25 229.507 264.128C229.897 264.023 230.294 263.956 230.694 263.926V263.926Z" fill="#263238"/>
<g opacity="0.3">
<path opacity="0.3" d="M227.913 256.207L232.503 270.18C232.503 270.18 245.755 269.032 246.815 271.518L224.658 283.396L216.745 261.976L227.913 256.207Z" fill="black"/>
</g>
<path d="M233.272 257.249L241.776 268.287C241.776 268.287 253.782 261.477 255.518 263.339L238.452 284.008L224.61 267.466L233.272 257.249Z" fill="#455A64"/>
<path d="M235.836 273.632C235.72 273.892 235.688 274.195 235.746 274.481C235.805 274.767 235.949 275.018 236.152 275.185C236.364 275.334 236.615 275.381 236.855 275.315C237.094 275.249 237.303 275.076 237.439 274.831C237.564 274.556 237.599 274.234 237.536 273.93C237.474 273.625 237.319 273.36 237.102 273.184C236.867 273.056 236.599 273.042 236.355 273.145C236.112 273.247 235.91 273.458 235.793 273.733" fill="#E0E0E0"/>
<path d="M238.456 284.008L237.353 282.689L254.234 263.023C254.481 262.956 254.736 262.95 254.985 263.005C255.233 263.061 255.47 263.176 255.68 263.345L238.456 284.008Z" fill="#263238"/>
<path d="M241.994 268.167C242.078 268.274 241.693 268.798 241.545 269.65C241.398 270.502 241.545 271.165 241.413 271.215C241.281 271.266 240.944 270.527 241.139 269.536C241.334 268.546 241.936 268.053 241.994 268.167Z" fill="#263238"/>
<path d="M244.567 266.905C244.668 266.98 244.441 267.593 244.509 268.363C244.578 269.133 244.873 269.694 244.784 269.789C244.694 269.884 244.161 269.372 244.093 268.413C244.024 267.454 244.483 266.81 244.567 266.905Z" fill="#263238"/>
<path d="M247.771 268.293C247.713 268.407 247.175 268.041 246.932 267.22C246.69 266.4 246.901 265.712 247.006 265.756C247.112 265.8 247.112 266.387 247.323 267.056C247.534 267.725 247.85 268.186 247.771 268.293Z" fill="#263238"/>
<path d="M239.802 265.895C239.845 266.027 239.338 266.356 238.89 266.962C238.441 267.567 238.215 268.224 238.099 268.161C237.982 268.098 238.041 267.334 238.579 266.627C239.117 265.92 239.776 265.769 239.802 265.895Z" fill="#263238"/>
<path d="M238.214 263.231C238.251 263.269 237.966 263.736 237.339 264.26C236.967 264.564 236.567 264.814 236.146 265.005C235.897 265.118 235.641 265.211 235.381 265.283C235.23 265.332 235.074 265.355 234.917 265.352C234.801 265.345 234.69 265.293 234.601 265.203C234.512 265.112 234.451 264.99 234.427 264.853C234.411 264.731 234.419 264.607 234.451 264.489C234.483 264.372 234.538 264.265 234.611 264.178C234.721 264.047 234.845 263.934 234.98 263.844C235.212 263.679 235.456 263.54 235.708 263.427C236.133 263.238 236.58 263.129 237.033 263.105C237.45 263.033 237.875 263.117 238.251 263.345C238.251 263.421 237.776 263.345 237.059 263.452C236.644 263.526 236.239 263.659 235.851 263.85C235.624 263.965 235.405 264.103 235.197 264.26C234.965 264.424 234.806 264.607 234.838 264.759C234.87 264.91 234.838 264.835 234.954 264.853C235.07 264.856 235.185 264.839 235.297 264.803C235.542 264.746 235.783 264.67 236.02 264.576C236.422 264.407 236.81 264.196 237.18 263.945C237.51 263.678 237.856 263.439 238.214 263.231V263.231Z" fill="#263238"/>
<path d="M238.928 260.392C238.928 261.357 206.221 217.204 195.09 215.582C185.595 214.212 156.928 214.881 156.928 214.881L175.461 226.753L206.554 231.259L238.928 260.392Z" fill="#263238"/>
<path d="M150.836 214.894L197.908 218.599C201.809 219.027 205.526 220.779 208.623 223.648L241.377 263.408L229.914 276.921C229.914 276.921 198.431 246.368 194.226 242.581L145.165 245.106C145.165 245.106 130.653 244.866 126.512 234.017L150.836 214.894Z" fill="#263238"/>
<path d="M166.362 216.105L166.594 216.143L167.274 216.213L169.912 216.453L179.519 217.273L193.762 218.447L197.882 218.781C199.314 218.849 200.732 219.138 202.102 219.64C204.986 220.689 207.604 222.588 209.715 225.162L232.061 252.225C234.92 255.671 237.242 258.46 238.856 260.429L240.713 262.613L241.203 263.181C241.255 263.25 241.314 263.311 241.377 263.364C241.33 263.291 241.278 263.222 241.224 263.156L240.755 262.562L238.935 260.309C237.352 258.353 235.036 255.538 232.198 252.061L209.899 224.922C207.756 222.31 205.099 220.385 202.171 219.324C200.784 218.822 199.351 218.532 197.903 218.46L193.783 218.138L179.519 217.04L169.902 216.326L167.264 216.15L166.578 216.112L166.362 216.105Z" fill="#455A64"/>
<path d="M120.439 138.692C120.874 137.69 121.063 136.56 120.981 135.435C120.9 134.309 120.553 133.235 119.98 132.337C119.83 132.156 119.733 131.921 119.706 131.668C119.734 131.453 119.815 131.254 119.938 131.093C120.233 130.613 120.444 130.067 120.559 129.487C120.673 128.906 120.688 128.304 120.602 127.717C120.507 127.13 120.285 126.582 119.959 126.13C119.632 125.677 119.212 125.334 118.74 125.136C119.795 123.829 119.51 121.406 118.297 120.276C117.663 119.752 116.912 119.468 116.142 119.461C115.371 119.454 114.617 119.725 113.977 120.238C114.006 119.676 113.883 119.118 113.627 118.647C113.37 118.175 112.993 117.815 112.552 117.619C111.657 117.259 110.688 117.259 109.793 117.619C108.585 118.023 107.309 118.951 107.124 120.446C106.728 119.651 105.81 119.493 105.056 119.683C104.049 119.982 103.17 120.715 102.587 121.74C102.003 122.766 101.755 124.013 101.891 125.243C101.116 125.016 100.301 125.082 99.559 125.432C99.1984 125.624 98.9001 125.952 98.7096 126.366C98.5191 126.779 98.4469 127.256 98.504 127.723C97.8973 127.136 97.0005 127.263 96.2725 127.591C95.7329 127.795 95.2581 128.191 94.9114 128.727C94.7424 128.999 94.6471 129.326 94.6386 129.664C94.6301 130.003 94.7088 130.337 94.864 130.62C94.3135 130.676 93.8005 130.977 93.4267 131.464C93.0529 131.951 92.8455 132.588 92.8455 133.249C92.8455 133.91 93.0529 134.547 93.4267 135.033C93.8005 135.52 94.3135 135.821 94.864 135.877C94.5915 136.349 94.4241 136.896 94.3776 137.467C94.3311 138.037 94.407 138.612 94.5982 139.138C94.7894 139.664 95.0895 140.123 95.4702 140.471C95.8509 140.819 96.2995 141.045 96.7737 141.128C96.6835 141.217 96.6113 141.329 96.5628 141.455C96.5143 141.582 96.4906 141.721 96.4937 141.86C96.4968 142 96.5264 142.136 96.5804 142.26C96.6344 142.384 96.7114 142.491 96.8053 142.574C97.006 142.726 97.234 142.819 97.4706 142.845C97.7072 142.871 97.9456 142.83 98.1664 142.725C98.6939 144.574 99.2214 146.43 99.7912 148.279C100.087 149.497 100.543 150.652 101.142 151.7C101.443 152.221 101.843 152.65 102.308 152.953C102.774 153.255 103.292 153.423 103.822 153.441" fill="#263238"/>
<path d="M118.857 133.359C117.354 128.941 112.052 126.101 108.46 128.077L97.1544 135.72L97.8771 138.124L109.446 170.072L123.637 172.691L119.601 158.983C119.601 158.983 124.133 156.118 122.993 148.21C122.429 144.29 120.545 138.244 118.857 133.359Z" fill="#9B6B63"/>
<path d="M119.026 140.516C119.095 140.762 119.082 141.031 118.99 141.266C118.897 141.501 118.733 141.684 118.53 141.778C118.332 141.874 118.109 141.872 117.912 141.773C117.714 141.674 117.557 141.485 117.475 141.248C117.406 141.002 117.419 140.733 117.512 140.498C117.604 140.263 117.769 140.079 117.971 139.986C118.17 139.89 118.392 139.892 118.59 139.991C118.788 140.09 118.944 140.279 119.026 140.516V140.516Z" fill="#263238"/>
<path d="M118.671 136.982C118.607 137.146 117.848 136.849 116.988 137.203C116.128 137.556 115.643 138.32 115.516 138.231C115.389 138.143 115.516 137.928 115.695 137.6C115.983 137.142 116.38 136.801 116.835 136.622C117.284 136.445 117.768 136.445 118.217 136.622C118.549 136.717 118.702 136.906 118.671 136.982Z" fill="#263238"/>
<path d="M111.563 144.019C111.632 144.265 111.619 144.534 111.526 144.769C111.434 145.004 111.269 145.187 111.067 145.281C110.868 145.377 110.646 145.375 110.448 145.276C110.251 145.177 110.094 144.988 110.012 144.751C109.944 144.505 109.958 144.237 110.05 144.002C110.142 143.767 110.306 143.584 110.508 143.489C110.706 143.393 110.929 143.394 111.127 143.494C111.324 143.593 111.481 143.782 111.563 144.019V144.019Z" fill="#263238"/>
<path d="M110.35 140.8C110.286 140.964 109.527 140.674 108.667 141.021C107.807 141.368 107.327 142.144 107.195 142.056C107.063 141.968 107.195 141.753 107.38 141.425C107.663 140.963 108.059 140.619 108.514 140.44C108.963 140.266 109.447 140.266 109.896 140.44C110.228 140.535 110.381 140.724 110.35 140.8Z" fill="#263238"/>
<path d="M115.554 146.992C115.96 146.638 116.401 146.348 116.868 146.127C117.079 146.007 117.274 145.874 117.258 145.679C117.242 145.483 117.084 145.218 116.889 144.953L115.67 143.205C113.961 140.712 112.637 138.623 112.721 138.541C112.806 138.459 114.262 140.434 115.976 142.914L117.174 144.682C117.4 144.946 117.544 145.296 117.58 145.672C117.574 145.778 117.548 145.88 117.504 145.972C117.46 146.064 117.4 146.143 117.327 146.203C117.217 146.292 117.098 146.364 116.973 146.417C116.523 146.68 116.046 146.873 115.554 146.992V146.992Z" fill="#263238"/>
<path d="M119.614 158.983C116.692 160.223 113.539 160.463 110.509 159.677C110.509 159.677 114.233 164.436 120.274 161.217L119.614 158.983Z" fill="#484848"/>
<path d="M115.902 149.629C115.669 149.45 115.401 149.343 115.125 149.32C114.848 149.297 114.571 149.358 114.319 149.497C114.135 149.595 113.969 149.737 113.833 149.913C113.696 150.09 113.59 150.299 113.523 150.526C113.454 150.745 113.444 150.984 113.494 151.21C113.545 151.436 113.652 151.638 113.802 151.788C113.992 151.918 114.21 151.977 114.429 151.956C114.647 151.936 114.855 151.838 115.026 151.674C115.384 151.339 115.682 150.92 115.902 150.444C115.976 150.323 116.03 150.186 116.06 150.04C116.077 149.97 116.076 149.896 116.057 149.828C116.038 149.759 116.002 149.699 115.954 149.655" fill="#EB996E"/>
<path d="M113.223 148.727C113.36 148.664 113.682 149.781 114.705 150.255C115.729 150.728 116.689 150.204 116.742 150.362C116.773 150.425 116.583 150.665 116.167 150.848C115.623 151.086 115.027 151.086 114.484 150.848C113.964 150.61 113.541 150.142 113.302 149.541C113.133 149.068 113.16 148.746 113.223 148.727Z" fill="#263238"/>
<path d="M109.568 137.001C109.568 137.316 108.666 137.531 107.7 138.086C106.735 138.642 106.007 139.298 105.801 139.102C105.706 139.008 105.801 138.686 106.028 138.276C106.373 137.766 106.811 137.358 107.309 137.081C107.806 136.804 108.349 136.667 108.898 136.679C109.32 136.711 109.568 136.856 109.568 137.001Z" fill="#263238"/>
<path d="M117.503 134.117C117.419 134.413 116.76 134.407 116.042 134.685C115.325 134.962 114.771 135.373 114.56 135.183C114.47 135.089 114.496 134.817 114.697 134.489C114.965 134.077 115.334 133.775 115.752 133.624C116.172 133.465 116.624 133.465 117.044 133.624C117.387 133.77 117.54 133.978 117.503 134.117Z" fill="#263238"/>
<path d="M113.856 125.767C114.254 126.368 114.493 127.099 114.54 127.864C114.586 128.629 114.44 129.393 114.119 130.057C113.798 130.722 113.318 131.255 112.74 131.588C112.163 131.922 111.515 132.04 110.881 131.927C111.145 132.112 111.342 132.409 111.433 132.76C111.523 133.11 111.501 133.488 111.371 133.82C111.101 134.474 110.625 134.974 110.047 135.209C109.455 135.491 108.818 135.618 108.181 135.581C107.544 135.544 106.921 135.344 106.354 134.994C106.457 135.593 106.439 136.213 106.303 136.802C106.167 137.392 105.916 137.934 105.57 138.385C105.225 138.836 104.795 139.182 104.316 139.396C103.837 139.609 103.322 139.684 102.814 139.614C103.236 139.844 103.606 140.189 103.896 140.62C104.186 141.052 104.388 141.559 104.485 142.101C104.582 142.642 104.572 143.203 104.455 143.74C104.339 144.276 104.119 144.772 103.814 145.188C103.509 145.605 103.126 145.93 102.697 146.138C102.268 146.347 101.805 146.432 101.343 146.388C100.882 146.343 100.435 146.171 100.039 145.883C99.6436 145.596 99.3095 145.202 99.0637 144.732C98.5533 144.684 98.059 144.496 97.619 144.183C97.179 143.87 96.8051 143.44 96.5262 142.926C96.2473 142.412 96.0708 141.829 96.0105 141.221C95.9501 140.612 96.0075 139.996 96.1781 139.418C95.8288 139.404 95.4889 139.279 95.1925 139.058C94.8962 138.836 94.6538 138.525 94.49 138.156C94.1646 137.413 94.0047 136.583 94.0257 135.745C93.9924 134.725 94.1307 133.707 94.4325 132.752C94.7343 131.796 95.1933 130.924 95.7824 130.185C96.388 129.465 97.1605 128.979 97.9997 128.791C98.8388 128.604 99.7058 128.722 100.488 129.131C100.644 129.256 100.828 129.322 101.016 129.32C101.274 129.27 101.422 128.948 101.543 128.689C102.028 127.427 102.524 126.064 103.49 125.287C104.084 124.832 104.79 124.631 105.492 124.717C106.194 124.802 106.852 125.17 107.357 125.761C107.496 124.842 107.879 124.001 108.449 123.363C109.019 122.725 109.746 122.324 110.522 122.22C112.104 122.132 113.618 123.88 113.397 125.735" fill="#263238"/>
<path d="M102.561 144.915C102.926 146.463 103.104 148.066 103.089 149.674C103.089 150.356 102.994 151.144 102.509 151.498C102.276 151.636 102.013 151.679 101.758 151.622C101.503 151.565 101.27 151.411 101.095 151.182C100.753 150.716 100.512 150.157 100.393 149.554C99.8667 147.439 99.4578 145.284 99.1694 143.104" fill="#263238"/>
<path d="M101.542 146.651C101.447 146.651 98.0178 146.606 99.0518 150.437C100.086 154.268 103.077 152.255 103.056 152.148C103.035 152.04 101.542 146.651 101.542 146.651Z" fill="#484848"/>
<path d="M101.688 151.069C101.688 151.069 101.641 151.138 101.561 151.226C101.446 151.341 101.3 151.402 101.15 151.397C100.77 151.397 100.311 150.841 100.095 150.134C100.001 149.808 99.9669 149.462 99.9946 149.118C99.9918 148.987 100.016 148.857 100.065 148.739C100.113 148.622 100.185 148.52 100.274 148.443C100.333 148.397 100.403 148.378 100.473 148.388C100.542 148.398 100.607 148.438 100.654 148.5C100.728 148.588 100.728 148.677 100.744 148.677C100.76 148.677 100.796 148.582 100.744 148.437C100.701 148.347 100.634 148.278 100.554 148.241C100.447 148.191 100.328 148.191 100.221 148.241C100.098 148.323 99.9947 148.442 99.9208 148.585C99.8469 148.729 99.8051 148.893 99.7994 149.062C99.7516 149.445 99.7824 149.837 99.8891 150.204C99.9649 150.552 100.125 150.867 100.349 151.107C100.573 151.347 100.852 151.503 101.15 151.555C101.243 151.552 101.335 151.524 101.418 151.472C101.502 151.421 101.574 151.348 101.63 151.258C101.704 151.17 101.699 151.069 101.688 151.069Z" fill="#EB996E"/>
<path d="M105.985 134.287H106.09L106.402 134.224C106.791 134.127 107.168 133.972 107.525 133.763C107.783 133.612 108.022 133.421 108.238 133.195C108.498 132.93 108.71 132.604 108.86 132.236C109.024 131.811 109.1 131.346 109.082 130.879C109.06 130.345 108.872 129.84 108.554 129.465L108.48 129.61C109.399 129.938 110.381 129.903 111.281 129.509C111.774 129.295 112.229 128.977 112.627 128.569C112.832 128.357 113.01 128.111 113.154 127.837C113.306 127.545 113.388 127.209 113.392 126.865C113.387 126.467 113.305 126.076 113.154 125.723C113.015 125.386 112.856 125.061 112.679 124.751C112.514 124.438 112.309 124.157 112.073 123.918C111.957 123.791 111.82 123.698 111.67 123.643C111.52 123.589 111.362 123.575 111.208 123.602V123.791C111.8 123.769 112.368 123.509 112.822 123.053C113.238 122.646 113.55 122.108 113.724 121.5C113.879 120.956 113.894 120.369 113.766 119.815C113.634 119.249 113.381 118.734 113.031 118.321C112.681 117.908 112.247 117.611 111.772 117.461C111.575 117.397 111.369 117.374 111.165 117.392C111.364 117.421 111.562 117.465 111.756 117.524C112.294 117.714 112.77 118.095 113.123 118.616C113.376 118.984 113.556 119.415 113.65 119.878C113.766 120.403 113.748 120.957 113.597 121.469C113.425 122.043 113.124 122.55 112.727 122.933C112.297 123.359 111.76 123.602 111.202 123.621V123.817C111.335 123.794 111.47 123.807 111.598 123.855C111.726 123.903 111.843 123.985 111.941 124.094C112.162 124.325 112.354 124.593 112.511 124.889C112.889 125.467 113.125 126.16 113.191 126.89C113.172 127.195 113.098 127.492 112.974 127.76C112.85 128.028 112.68 128.261 112.474 128.443C111.931 128.996 111.282 129.38 110.585 129.56C109.888 129.739 109.165 129.709 108.48 129.471L108.19 129.364L108.406 129.617C108.693 129.963 108.862 130.424 108.881 130.91C108.902 131.326 108.842 131.743 108.706 132.127C108.571 132.511 108.364 132.853 108.1 133.126C107.896 133.35 107.667 133.541 107.42 133.694C107.072 133.911 106.704 134.078 106.323 134.192C106.209 134.217 106.096 134.248 105.985 134.287V134.287Z" fill="white"/>
<path d="M115.339 128.639C115.418 128.675 115.503 128.688 115.587 128.676C115.816 128.666 116.041 128.606 116.252 128.5C116.575 128.341 116.849 128.068 117.038 127.717C117.156 127.494 117.195 127.224 117.149 126.966C117.124 126.823 117.064 126.691 116.978 126.587C116.892 126.483 116.783 126.411 116.664 126.379V126.581H116.722C117.109 126.557 117.487 126.432 117.828 126.214C118.17 125.996 118.468 125.69 118.7 125.319C118.84 125.097 118.952 124.853 119.032 124.593C119.065 124.499 119.083 124.398 119.085 124.296C118.95 124.625 118.789 124.938 118.605 125.23C118.374 125.568 118.086 125.844 117.761 126.042C117.436 126.239 117.08 126.354 116.716 126.379H116.658L115.83 126.436L116.648 126.581C116.735 126.606 116.815 126.66 116.878 126.737C116.941 126.814 116.983 126.911 117.001 127.017C117.041 127.233 117.009 127.459 116.912 127.648C116.742 127.955 116.502 128.198 116.22 128.348C115.942 128.502 115.645 128.601 115.339 128.639Z" fill="white"/>
<path d="M127.926 169.245L152.562 188.134L179.424 192.912L179.071 200.397C179.071 200.397 156.318 200.258 152.562 200.397C148.806 200.536 142.771 192.918 142.771 192.918L127.926 169.245Z" fill="#9B6B63"/>
<path d="M148.666 188.747L149.721 186.569C148.181 185.497 147.917 182.732 148.138 180.694C148.244 179.779 148.428 178.87 148.618 177.91C149.032 176.169 149.243 174.369 149.246 172.559C149.072 167.39 146.007 163.723 143.042 160.176C141.876 158.833 140.773 157.413 139.74 155.922C137.514 152.558 136.575 147.522 138.79 144.928C139.661 143.925 140.99 143.281 142.272 142.656C144.382 141.64 146.74 140.485 147.405 137.493C148.144 134.155 146.033 131.182 144.002 129.623C143.28 129.081 142.52 128.62 141.787 128.178C140.606 127.551 139.508 126.722 138.527 125.717C136.037 122.87 135.889 119.342 135.889 115.025C135.936 108.929 136.944 106.316 137.999 103.552C139.281 100.245 140.6 96.8239 140.389 87.9756L138.279 88.0513C138.479 96.3001 137.313 99.3105 136.084 102.491C134.971 105.382 133.816 108.367 133.763 115C133.721 119.595 133.942 124.006 137.034 127.541C138.163 128.724 139.435 129.699 140.806 130.431C141.523 130.867 142.204 131.277 142.842 131.757C144.382 132.93 145.754 134.956 145.332 136.843C144.941 138.623 143.322 139.406 141.449 140.315C139.977 141.028 138.453 141.766 137.292 143.117C134.08 146.84 135.288 153.303 138.057 157.487C139.137 159.058 140.292 160.552 141.518 161.962C144.319 165.313 146.962 168.475 147.104 172.691C147.093 174.267 146.901 175.835 146.535 177.349C146.339 178.321 146.139 179.331 146.007 180.359C145.728 183.288 146.218 187.043 148.666 188.747Z" fill="#E0E0E0"/>
<path d="M149.058 187.932L149.322 187.383C147.444 186.077 147.091 183.003 147.381 180.561C147.497 179.602 147.692 178.63 147.877 177.689C148.272 176.033 148.476 174.319 148.483 172.596C148.32 167.8 145.366 164.265 142.512 160.845C141.323 159.477 140.201 158.03 139.151 156.509C136.741 152.867 135.612 147.326 138.27 144.246C139.246 143.116 140.65 142.435 142.005 141.778C144.021 140.8 146.104 139.784 146.669 137.247C147.302 134.407 145.413 131.794 143.609 130.424C142.918 129.901 142.174 129.453 141.462 129.017C140.208 128.356 139.044 127.475 138.007 126.404C135.295 123.299 135.105 119.411 135.142 115.044C135.19 108.733 136.234 106.038 137.342 103.179C138.582 99.9665 139.864 96.6531 139.658 88.032H139.13C139.331 96.5016 138.075 99.7519 136.862 102.895C135.807 105.691 134.667 108.575 134.615 115.019C134.572 119.557 134.778 123.583 137.643 126.865C138.718 127.977 139.922 128.896 141.219 129.591C141.942 130.006 142.646 130.465 143.329 130.967C145.118 132.318 146.685 134.754 146.162 137.095C145.666 139.33 143.794 140.251 141.81 141.198C140.412 141.879 138.961 142.58 137.906 143.798C135.026 147.143 136.187 153.044 138.74 156.906C139.802 158.456 140.938 159.931 142.143 161.324C145.055 164.808 147.808 168.102 147.945 172.653C147.932 174.319 147.73 175.975 147.344 177.576C147.154 178.529 146.959 179.513 146.816 180.498C146.542 183.117 146.954 186.462 149.058 187.932Z" fill="#C53F3F"/>
<path d="M131.262 64.6868C131.389 61.7395 131.262 59.1582 132.185 56.3939C133.241 53.2762 137.308 51.6857 142.151 52.5504C143.162 52.7319 144.13 53.1692 144.99 53.833C145.849 54.4967 146.581 55.3719 147.136 56.4002C148.191 58.2431 148.534 60.4646 148.75 62.6294C149.516 69.8851 149.64 77.2173 149.119 84.5041C148.883 85.6067 148.427 86.6244 147.79 87.4704C147.115 88.3098 145.949 88.3287 144.925 88.2845L134.602 87.8301C133.547 87.7796 132.381 87.666 131.727 86.7761C131.33 86.1136 131.127 85.3124 131.152 84.4978C130.85 77.8976 130.887 71.2816 131.262 64.6868ZM138.347 56.1983C138.554 56.4515 138.819 56.6247 139.108 56.6956C139.398 56.7665 139.699 56.7318 139.972 56.5959C140.23 56.4648 140.444 56.2317 140.576 55.9355C140.709 55.6392 140.752 55.2976 140.7 54.9676C140.616 54.6421 140.447 54.3571 140.219 54.154C139.99 53.9508 139.713 53.8401 139.429 53.8379C139.222 53.8064 139.012 53.8399 138.82 53.9351C138.627 54.0303 138.459 54.1838 138.331 54.3806C138.174 54.6472 138.091 54.9662 138.094 55.2925C138.096 55.6188 138.185 55.9357 138.347 56.1983V56.1983Z" fill="#F5F5F5"/>
<path d="M138.351 56.1985C138.234 55.9225 138.173 55.6178 138.172 55.3086C138.195 54.9724 138.294 54.65 138.456 54.3745C138.576 54.2309 138.721 54.1216 138.881 54.055C139.041 53.9883 139.211 53.9659 139.38 53.9895H139.432C139.604 53.9956 139.773 54.0422 139.93 54.1266C140.086 54.2111 140.228 54.3318 140.345 54.4818C140.505 54.683 140.601 54.9456 140.614 55.223C140.628 55.5003 140.558 55.7744 140.419 55.9965C140.308 56.1892 140.16 56.3471 139.987 56.4569C139.815 56.5668 139.623 56.6253 139.427 56.6276C139.048 56.6209 138.68 56.4755 138.372 56.2111C138.372 56.2111 138.42 56.3499 138.583 56.5077C138.827 56.7278 139.122 56.8513 139.427 56.8612C139.658 56.8745 139.889 56.8192 140.097 56.7003C140.306 56.5813 140.487 56.4025 140.625 56.1795C140.795 55.9107 140.888 55.5828 140.888 55.2455C140.881 54.8795 140.758 54.5302 140.546 54.2672C140.403 54.0852 140.23 53.9403 140.039 53.8415C139.847 53.7427 139.641 53.6921 139.432 53.6929C139.207 53.6572 138.977 53.6942 138.768 53.8002C138.573 53.8812 138.402 54.0255 138.272 54.2167C138.088 54.5401 137.992 54.9237 137.998 55.3149C138.029 55.9776 138.351 56.23 138.351 56.1985Z" fill="#263238"/>
<path d="M131.267 64.6868C131.259 64.7727 131.259 64.8596 131.267 64.9455C131.267 65.1412 131.241 65.3936 131.22 65.7281C131.188 66.4287 131.14 67.4322 131.077 68.7197C130.972 71.3199 130.835 75.0877 130.903 79.7454C130.924 80.915 130.963 82.1352 131.019 83.4059C131.056 84.037 131.061 84.6681 131.146 85.356C131.21 86.066 131.505 86.717 131.969 87.1674C132.472 87.5685 133.054 87.8076 133.657 87.8616C134.258 87.9436 134.86 87.95 135.466 87.9815L139.222 88.1582L143.168 88.3349L145.21 88.4296C145.927 88.496 146.648 88.371 147.32 88.0636C147.658 87.8737 147.949 87.5823 148.164 87.2178C148.386 86.8753 148.586 86.5123 148.76 86.1323C148.944 85.7526 149.095 85.3506 149.209 84.9332C149.292 84.5024 149.338 84.0625 149.346 83.6204C149.462 81.8912 149.539 80.1388 149.578 78.3632C149.656 74.9004 149.584 71.4351 149.362 67.9812C149.256 66.3088 149.119 64.6679 148.966 63.0648C148.857 61.4819 148.589 59.9203 148.169 58.4134C147.735 56.9745 147.025 55.6775 146.096 54.6267C145.196 53.6555 144.109 52.9679 142.931 52.626C142.651 52.5377 142.372 52.4556 142.092 52.3988L141.253 52.2789L140.43 52.2095H139.623C138.595 52.2072 137.571 52.3448 136.569 52.6197C135.653 52.8652 134.777 53.2918 133.979 53.882C133.26 54.4097 132.672 55.1569 132.275 56.0467C131.738 57.509 131.432 59.0774 131.373 60.6728C131.304 61.973 131.304 62.9828 131.293 63.6707C131.293 63.9989 131.293 64.2576 131.293 64.447C131.288 64.5373 131.288 64.628 131.293 64.7183C131.299 64.6301 131.299 64.5415 131.293 64.4533C131.293 64.2576 131.32 64.0052 131.336 63.6707C131.367 62.9891 131.383 61.973 131.473 60.6792C131.548 59.1093 131.862 57.5692 132.401 56.1351C132.789 55.2769 133.363 54.5596 134.063 54.0587C134.849 53.4919 135.708 53.0846 136.606 52.8532C137.593 52.5922 138.602 52.4652 139.613 52.4746H140.409L141.222 52.5503L142.045 52.6702C142.321 52.7279 142.593 52.8038 142.862 52.8974C143.997 53.2332 145.044 53.9037 145.906 54.8476C146.792 55.8702 147.465 57.1257 147.874 58.5144C148.282 60.0017 148.541 61.542 148.644 63.1027C148.797 64.6994 148.934 66.3403 149.035 68.0065C149.252 71.448 149.322 74.9005 149.246 78.3506C149.209 80.124 149.129 81.8722 149.019 83.5952C149.009 84.0197 148.967 84.4423 148.892 84.8574C148.782 85.2526 148.639 85.6333 148.465 85.9935C148.298 86.3582 148.108 86.7065 147.895 87.0348C147.706 87.3622 147.447 87.6236 147.146 87.7922C146.514 88.0783 145.836 88.1925 145.162 88.1267L143.126 88.0446L139.18 87.8742L135.424 87.7164C134.812 87.7164 134.211 87.6786 133.636 87.6028C133.072 87.5569 132.527 87.3396 132.053 86.9717C131.635 86.5635 131.369 85.9733 131.315 85.3308C131.23 84.6997 131.22 84.0685 131.177 83.4374C131.114 82.1752 131.072 80.9571 131.046 79.7959C130.951 75.1445 131.046 71.3767 131.13 68.7765C131.172 67.5142 131.204 66.4792 131.225 65.7786C131.225 65.4504 131.225 65.1917 131.225 65.0023C131.249 64.8994 131.263 64.7936 131.267 64.6868Z" fill="#263238"/>
<path d="M134.118 85.3435L144.969 85.6716C145.945 85.7032 146.784 85.1794 146.842 84.4978L147.174 74.0022H132.403V84.1002C132.393 84.7628 133.152 85.3182 134.118 85.3435Z" fill="#C53F3F"/>
<path d="M144.751 56.0656C145.302 57.0891 145.747 58.189 146.075 59.3411C146.392 60.607 146.604 61.907 146.708 63.2225C146.835 64.7057 146.888 66.3782 146.951 68.0885C147.062 71.547 147.057 74.6837 147.025 76.9242C147.025 78.016 146.993 78.9186 146.983 79.6128C146.958 79.9403 146.958 80.2698 146.983 80.5973C147.041 80.2757 147.072 79.9481 147.078 79.6191C147.12 78.988 147.167 78.0665 147.21 76.9305C147.289 74.6585 147.326 71.5155 147.21 68.0506C147.146 66.315 147.088 64.6678 146.941 63.1657C146.829 61.8328 146.596 60.5185 146.244 59.2465C146 58.3887 145.665 57.5721 145.247 56.8167C145.137 56.6096 145.015 56.4115 144.883 56.2234C144.809 56.1224 144.757 56.0593 144.751 56.0656Z" fill="#263238"/>
<path d="M132.757 72.5823C132.802 71.9523 132.802 71.3189 132.757 70.6889C132.725 69.5466 132.688 67.9625 132.694 66.2206C132.699 64.4787 132.752 62.8882 132.794 61.7459C132.847 61.1168 132.856 60.4834 132.82 59.8525C132.697 60.4569 132.623 61.0741 132.599 61.6954C132.504 62.8441 132.424 64.4282 132.419 66.1827C132.414 67.9372 132.482 69.5276 132.567 70.6763C132.576 71.3177 132.64 71.9563 132.757 72.5823V72.5823Z" fill="#263238"/>
<path d="M134.47 85.3815C135.079 85.5083 135.697 85.5758 136.316 85.5835C137.461 85.6718 139.038 85.7602 140.784 85.8422L143.248 85.9432C143.926 86.0016 144.608 85.9442 145.274 85.7728C145.729 85.6409 146.147 85.3689 146.487 84.9839C146.62 84.8509 146.718 84.6759 146.772 84.479C146.772 84.479 146.656 84.6494 146.413 84.8892C146.066 85.2071 145.661 85.4232 145.231 85.5204C144.58 85.6548 143.917 85.6867 143.258 85.615L140.795 85.4888C139.049 85.4068 137.471 85.35 136.321 85.331C135.704 85.2937 135.085 85.3106 134.47 85.3815V85.3815Z" fill="#263238"/>
<path d="M141.546 87.0476C141.625 87.0476 141.672 86.751 141.656 86.4165C141.641 86.082 141.572 85.7854 141.493 85.7854C141.414 85.7854 141.372 86.0757 141.382 86.4165C141.393 86.7573 141.488 87.0476 141.546 87.0476Z" fill="#263238"/>
<path d="M141.014 86.6942C141.094 86.6942 141.152 86.4355 141.152 86.1136C141.152 85.7917 141.094 85.533 141.014 85.533C140.935 85.533 140.877 85.7917 140.877 86.1136C140.877 86.4355 140.962 86.6942 141.014 86.6942Z" fill="#263238"/>
<path d="M134.99 86.8708C135.064 86.8708 135.164 86.5805 135.206 86.1955C135.248 85.8105 135.206 85.4949 135.148 85.4823C135.09 85.4697 134.979 85.7726 134.932 86.1513C134.884 86.53 134.916 86.8582 134.99 86.8708Z" fill="#263238"/>
<path d="M134.413 86.9843C134.487 86.9843 134.608 86.6814 134.677 86.2648C134.745 85.8483 134.751 85.5012 134.677 85.4822C134.603 85.4633 134.482 85.7852 134.413 86.2017C134.344 86.6183 134.339 86.9654 134.413 86.9843Z" fill="#263238"/>
<path d="M134.772 75.864H144.014V79.5561H134.772V75.864Z" fill="white"/>
<path d="M136.305 77.6687C138.304 77.8875 140.315 77.8875 142.314 77.6687C140.315 77.4499 138.304 77.4499 136.305 77.6687V77.6687Z" fill="#263238"/>
<path d="M134.261 71.1748C134.765 71.6552 135.294 72.0978 135.844 72.5002C136.82 73.2954 138.165 74.3935 139.621 75.6558C141.077 76.918 142.364 78.1424 143.287 79.026C143.77 79.529 144.279 79.9949 144.812 80.4207C144.709 80.255 144.591 80.1046 144.458 79.9726C144.216 79.695 143.862 79.3415 143.403 78.8492C142.506 77.9152 141.235 76.6782 139.774 75.3907C138.313 74.1032 136.946 73.024 135.939 72.2793C135.411 71.9069 135.021 71.6103 134.731 71.4209C134.585 71.3125 134.427 71.2296 134.261 71.1748V71.1748Z" fill="white"/>
<path d="M138.282 71.8503C138.973 72.6018 139.722 73.2738 140.519 73.8573C141.266 74.5287 142.066 75.1101 142.908 75.5929C142.219 74.8392 141.47 74.167 140.672 73.5859C139.925 72.9145 139.124 72.3332 138.282 71.8503Z" fill="white"/>
<path d="M186.641 194.49C186.641 194.49 184.383 193.758 183.144 193.291C182.363 192.994 179.815 192.224 178.754 192.754C177.694 193.284 176.602 195.247 176.602 195.247L177.451 200.082L183.217 206.923C183.217 206.923 184.357 207.813 185.196 207.22C186.034 206.626 186.483 207.693 187.132 206.746C187.575 206.115 189.184 203.105 190.133 201.331C190.357 200.912 190.5 200.439 190.554 199.946C190.608 199.453 190.57 198.952 190.445 198.478L189.801 196.061C189.593 195.252 189.223 194.515 188.724 193.913C188.225 193.312 187.612 192.864 186.936 192.609C186.639 192.448 186.302 192.428 185.992 192.552C185.328 193.051 186.641 194.49 186.641 194.49Z" fill="#9B6B63"/>
<path d="M181.992 196.686C182.596 196.244 183.313 196.074 184.012 196.206C184.662 196.294 185.267 196.646 185.726 197.203C186.185 197.76 186.47 198.489 186.534 199.267C186.534 199.343 186.534 199.419 186.534 199.495C186.536 200.419 186.263 201.314 185.764 202.019C185.387 202.581 184.842 202.946 184.244 203.035C183.671 203.054 183.108 202.86 182.63 202.48C182.021 202.071 181.519 201.468 181.179 200.738C180.88 200.06 180.798 199.274 180.947 198.529C181.097 197.783 181.468 197.128 181.992 196.686Z" fill="#E0E0E0"/>
<path d="M186.133 201.426C186.245 201.139 186.332 200.838 186.392 200.53C186.486 200.169 186.546 199.796 186.571 199.419C186.609 198.906 186.517 198.391 186.307 197.942C186.049 197.402 185.688 196.943 185.252 196.604C184.763 196.228 184.229 195.941 183.669 195.752C183.537 195.717 183.412 195.647 183.305 195.548C183.197 195.448 183.109 195.322 183.047 195.178C183.014 195.022 183.021 194.857 183.066 194.706C183.111 194.554 183.192 194.422 183.3 194.326C183.55 194.109 183.843 193.974 184.15 193.934C184.479 193.934 184.808 193.987 185.125 194.092C185.776 194.199 186.384 194.543 186.866 195.077C187.294 195.616 187.65 196.231 187.921 196.901C188.159 197.505 188.336 198.14 188.449 198.794C188.516 199.369 188.49 199.954 188.37 200.517C188.232 201.357 188.007 202.173 187.7 202.947C187.582 203.227 187.443 203.494 187.283 203.742C187.283 203.742 187.346 203.698 187.447 203.584C187.581 203.407 187.698 203.212 187.795 203.004C188.145 202.239 188.403 201.419 188.56 200.568C188.703 199.975 188.74 199.354 188.671 198.744C188.566 198.059 188.388 197.393 188.143 196.762C187.877 196.068 187.521 195.429 187.088 194.868C186.971 194.71 186.838 194.57 186.692 194.452C186.544 194.334 186.387 194.235 186.223 194.155C185.895 194.003 185.558 193.878 185.215 193.783C184.872 193.67 184.516 193.617 184.16 193.625C183.799 193.672 183.455 193.833 183.163 194.092C183.013 194.23 182.901 194.419 182.843 194.634C182.784 194.849 182.782 195.081 182.836 195.298C182.912 195.485 183.022 195.65 183.158 195.78C183.294 195.91 183.452 196.002 183.622 196.049C184.167 196.222 184.687 196.49 185.168 196.844C185.576 197.154 185.919 197.573 186.17 198.068C186.373 198.477 186.471 198.95 186.45 199.425C186.438 199.791 186.396 200.155 186.323 200.511C186.237 200.808 186.174 201.115 186.133 201.426V201.426Z" fill="#484848"/>
<path d="M183.278 203.951C183.698 203.745 184.108 203.513 184.507 203.256C184.943 203.102 185.371 202.918 185.789 202.707C185.317 202.598 184.827 202.685 184.402 202.953C183.943 203.123 183.547 203.475 183.278 203.951Z" fill="#EB996E"/>
<path d="M180.787 200.65C181.145 201.29 181.597 201.848 182.121 202.297C182.923 203.105 183.435 203.906 183.498 203.856C183.243 203.136 182.829 202.512 182.301 202.051C181.84 201.52 181.332 201.05 180.787 200.65V200.65Z" fill="#EB996E"/>
<path d="M179.752 195.638C180.115 196.422 180.408 197.249 180.628 198.106C180.755 198.989 180.801 199.887 180.765 200.782C181.027 199.899 181.072 198.944 180.892 198.032C180.712 197.119 180.317 196.288 179.752 195.638V195.638Z" fill="#484848"/>
<path d="M154.411 188.463C154.538 188.463 154.633 191.479 154.675 193.341C154.68 193.531 154.653 193.721 154.595 193.898C154.538 194.076 154.451 194.237 154.34 194.374C154.23 194.51 154.097 194.619 153.951 194.693C153.804 194.767 153.647 194.805 153.488 194.805H150.402L147.764 192.211C147.552 192.004 147.406 191.715 147.353 191.394C147.299 191.073 147.34 190.74 147.469 190.451L149.526 185.78L152.565 188.109L154.411 188.463Z" fill="#F5F5F5"/>
<path d="M154.41 188.462C154.254 188.404 154.096 188.359 153.935 188.33L152.574 188.046H152.6L149.583 185.679L149.482 185.597L149.419 185.73C148.981 186.721 148.496 187.8 147.984 188.955C147.852 189.239 147.726 189.535 147.594 189.832L147.393 190.28C147.317 190.444 147.26 190.621 147.225 190.804C147.165 191.191 147.227 191.591 147.399 191.927C147.481 192.096 147.591 192.244 147.72 192.363L148.069 192.704L150.316 194.913L150.353 194.95H153.18C153.328 194.95 153.455 194.95 153.618 194.95C153.77 194.929 153.918 194.878 154.056 194.799C154.319 194.642 154.531 194.384 154.658 194.067C154.765 193.773 154.803 193.45 154.768 193.133C154.768 192.558 154.726 192.028 154.71 191.542C154.621 189.611 154.51 188.437 154.41 188.475C154.455 188.741 154.476 189.012 154.473 189.283C154.473 189.813 154.515 190.583 154.536 191.549C154.536 192.035 154.536 192.571 154.568 193.139C154.592 193.417 154.556 193.697 154.462 193.953C154.348 194.218 154.162 194.43 153.935 194.553C153.689 194.67 153.422 194.711 153.159 194.673H150.379L150.464 194.704L148.222 192.489C147.99 192.296 147.783 192.062 147.61 191.795C147.474 191.529 147.425 191.212 147.472 190.905C147.552 190.594 147.665 190.297 147.81 190.021C147.937 189.718 148.069 189.428 148.195 189.138C148.723 187.977 149.171 186.891 149.604 185.894L149.44 185.944L152.5 188.235L153.871 188.437C154.049 188.477 154.23 188.485 154.41 188.462V188.462Z" fill="#263238"/>
<path d="M126.683 164.082L143.627 177.147L140.868 182.997L126.683 164.082Z" fill="#FDD32A"/>
<path d="M107.782 165.957C107.782 165.957 111.77 166.588 115.616 167.137C118.011 167.491 119.973 165.988 121.044 163.395H121.397L126.699 164.082C129.648 166.822 141.644 179.715 142.678 183.218C143.828 187.125 143.644 195.639 143.644 195.639L152.833 209.763C152.833 209.763 155.339 212.073 151.778 218.283C148.217 224.493 137.282 234.377 137.282 234.377C137.282 234.377 129.569 237.823 127.57 235.639C125.57 233.455 112.181 204.152 112.181 204.152C112.181 204.152 106.02 190.773 104.648 186.954C101.821 179.04 102.506 170.665 107.782 165.957Z" fill="#FDD32A"/>
<path d="M128.943 168.166C129.116 168.394 129.305 168.605 129.507 168.797L131.09 170.374C132.451 171.693 134.345 173.53 136.445 175.487C137.5 176.484 138.512 177.38 139.383 178.308C140.157 179.095 140.864 179.972 141.493 180.927C142.059 181.824 142.527 182.804 142.886 183.843C142.886 183.843 142.886 183.761 142.849 183.609C142.799 183.395 142.739 183.184 142.669 182.978C142.412 182.2 142.067 181.468 141.646 180.801C141.025 179.811 140.317 178.904 139.536 178.093C138.665 177.165 137.653 176.238 136.608 175.24C134.498 173.259 132.594 171.454 131.201 170.191L129.544 168.696C129.358 168.496 129.157 168.319 128.943 168.166Z" fill="#263238"/>
<path d="M122.349 184.057C122.756 184.688 132.826 204.746 132.826 204.746L162.368 211.896L160.337 218.561C160.337 218.561 130.426 219.728 127.852 218.271C125.277 216.813 123.689 213.853 119.263 205.452C114.668 196.73 112.405 192.912 112.405 192.912L122.349 184.057Z" fill="#9B6B63"/>
<path d="M131.62 202.341C129.626 204.121 124.53 208.412 122.351 210.28C121.712 210.83 120.547 209.959 120.119 209.163L113.91 197.368C113.52 196.648 113.879 195.537 114.438 195.014L123.654 186.544C124.324 185.913 125.764 187.175 126.165 188.046L132.047 199.981C132.203 200.375 132.246 200.821 132.169 201.248C132.091 201.674 131.898 202.059 131.62 202.341V202.341Z" fill="#263238"/>
<path d="M118.182 191.46C118.262 191.669 118.363 191.866 118.482 192.047C118.736 192.464 119.036 192.975 119.39 193.581C120.16 194.843 121.22 196.655 122.37 198.63C123.52 200.605 124.544 202.417 125.288 203.748L126.169 205.345C126.27 205.543 126.388 205.727 126.522 205.894C126.457 205.671 126.368 205.459 126.258 205.263C126.074 204.878 125.799 204.329 125.446 203.654C124.749 202.303 123.752 200.467 122.597 198.479C121.442 196.49 120.355 194.723 119.548 193.467C119.142 192.836 118.809 192.338 118.572 191.991C118.335 191.643 118.197 191.46 118.182 191.46Z" fill="#455A64"/>
<path d="M124.592 184.897L112 194.805C112 194.805 105.142 183.445 104.804 178.226C104.467 173.006 105.58 170.116 109.552 168.986C113.525 167.856 117.782 173.133 119.359 175.714C121.179 178.699 124.592 184.897 124.592 184.897Z" fill="#FDD32A"/>
<path d="M124.592 184.897C124.571 184.842 124.545 184.792 124.513 184.745C124.45 184.625 124.365 184.474 124.265 184.278L123.268 182.486L119.544 175.84C118.643 174.34 117.59 172.979 116.41 171.788C115.758 171.112 115.051 170.516 114.3 170.009C113.508 169.449 112.646 169.044 111.747 168.809L111.035 168.696H110.307C110.064 168.696 109.821 168.778 109.579 168.822C109.336 168.866 109.104 168.967 108.866 169.043C107.885 169.363 106.981 169.958 106.229 170.779C105.481 171.68 104.982 172.835 104.799 174.086C104.61 175.349 104.56 176.637 104.651 177.917C104.805 179.658 105.222 181.351 105.881 182.915C106.471 184.461 107.131 185.919 107.801 187.333C109.162 190.116 110.56 192.653 111.905 194.906L111.974 195.014L112.069 194.944L121.2 187.674L123.727 185.641L124.381 185.105C124.456 185.05 124.527 184.987 124.592 184.916L124.344 185.092L123.653 185.616L121.074 187.604L111.947 194.704L112.106 194.742C110.776 192.489 109.389 189.952 108.043 187.169C107.379 185.78 106.725 184.322 106.139 182.789C105.495 181.261 105.088 179.606 104.936 177.904C104.849 176.657 104.895 175.401 105.073 174.168C105.245 172.975 105.718 171.873 106.429 171.012C107.146 170.22 108.014 169.648 108.956 169.346C109.188 169.27 109.415 169.182 109.647 169.125C109.879 169.068 110.106 169.03 110.338 168.999H111.029L111.71 169.106C112.582 169.331 113.418 169.719 114.189 170.255C114.926 170.757 115.622 171.34 116.268 171.997C117.438 173.165 118.485 174.501 119.386 175.973L123.163 182.486C123.611 183.243 123.959 183.843 124.218 184.272L124.497 184.739C124.525 184.794 124.557 184.847 124.592 184.897V184.897Z" fill="#263238"/>
<path d="M162.375 211.896L164.855 213.026C165.192 213.367 173.232 222.67 173.232 222.67L174.44 229.265C174.241 229.434 174 229.518 173.756 229.504C173.513 229.491 173.28 229.38 173.095 229.189C172.578 228.732 172.228 228.054 172.119 227.296L171.364 224.392L169.254 221.691L170.99 225.838L171.834 230.887C171.722 231.092 171.563 231.253 171.375 231.352C171.188 231.451 170.981 231.482 170.779 231.442C170.177 231.259 169.993 230.098 169.993 230.098C169.993 230.098 169.418 231.038 168.811 230.729C168.204 230.42 166.221 226.797 166.221 226.797C166.221 226.797 165.066 223.736 165.076 223.925C165.087 224.115 165.794 226.829 165.794 226.829C165.794 226.829 167.376 229.858 167.054 230.306C166.96 230.453 166.84 230.573 166.702 230.658C166.564 230.744 166.413 230.791 166.258 230.798C166.1 230.798 164.042 227.214 163.657 226.633C163.272 226.052 160.307 219.968 160.307 219.968L159.352 216.352L162.375 211.896Z" fill="#9B6B63"/>
<path d="M166.805 222.821C166.916 223.214 167.084 223.582 167.301 223.906C167.76 224.72 168.183 225.563 168.567 226.431C168.968 227.46 169.226 228.463 169.485 229.164C169.592 229.559 169.762 229.925 169.986 230.243C169.901 229.847 169.794 229.459 169.664 229.082C169.427 228.131 169.143 227.197 168.815 226.286C168.428 225.396 167.974 224.551 167.459 223.761C167.266 223.424 167.047 223.109 166.805 222.821V222.821Z" fill="#484848"/>
<path d="M185.272 252.458L212.92 271.562C213.424 271.911 213.982 272.137 214.559 272.228C215.137 272.319 215.724 272.273 216.287 272.093C216.85 271.912 217.378 271.601 217.84 271.176C218.302 270.752 218.69 270.223 218.981 269.619V269.619C219.273 269.015 219.463 268.349 219.539 267.657C219.616 266.966 219.577 266.263 219.427 265.589C219.276 264.916 219.015 264.284 218.66 263.731C218.305 263.179 217.862 262.715 217.356 262.367L189.708 243.263C188.689 242.561 187.478 242.371 186.341 242.735C185.205 243.1 184.236 243.989 183.647 245.207V245.207C183.355 245.81 183.165 246.477 183.089 247.168C183.012 247.86 183.05 248.562 183.201 249.236C183.352 249.91 183.613 250.541 183.968 251.094C184.323 251.647 184.766 252.111 185.272 252.458V252.458Z" fill="#455A64"/>
<path d="M185.272 252.458C185.272 252.458 184.992 252.262 184.538 251.783C183.883 251.06 183.424 250.119 183.219 249.082C183.081 248.338 183.081 247.566 183.219 246.822C183.383 245.869 183.766 244.99 184.325 244.284C184.885 243.578 185.598 243.073 186.385 242.827C187.328 242.54 188.325 242.638 189.218 243.105L217.288 262.506C217.947 262.963 218.493 263.621 218.871 264.412C219.249 265.203 219.445 266.1 219.44 267.012C219.431 267.897 219.233 268.765 218.863 269.531C218.494 270.298 217.966 270.939 217.33 271.392C216.716 271.826 216.021 272.07 215.308 272.103C214.596 272.136 213.887 271.957 213.247 271.581C212.002 270.767 210.783 269.896 209.591 269.088L196.93 260.398L188.416 254.572L186.089 253.001L185.483 252.597L185.272 252.471L185.467 252.629L186.063 253.058L188.363 254.686L196.856 260.606L209.464 269.36C210.662 270.18 211.854 271.038 213.131 271.884C213.811 272.283 214.563 272.473 215.32 272.438C216.077 272.402 216.815 272.143 217.467 271.682C218.139 271.203 218.698 270.527 219.092 269.719C219.486 268.896 219.698 267.967 219.709 267.018C219.715 266.05 219.507 265.096 219.106 264.255C218.705 263.414 218.125 262.714 217.425 262.228L201.963 251.562L195.205 246.911L192.145 244.809L190.7 243.818C190.225 243.502 189.782 243.187 189.297 242.897C188.679 242.576 188.009 242.425 187.336 242.454C186.663 242.484 186.004 242.693 185.407 243.067C184.811 243.442 184.292 243.971 183.889 244.616C183.485 245.261 183.208 246.007 183.077 246.797C182.924 247.714 182.975 248.663 183.225 249.549C183.475 250.435 183.915 251.227 184.501 251.846C184.676 252.031 184.865 252.195 185.066 252.338C185.132 252.384 185.201 252.424 185.272 252.458V252.458Z" fill="#263238"/>
<path d="M97.5847 140.567C100.607 144.354 102 149.579 102.781 154.729C103.082 156.724 103.308 158.819 102.781 160.744C102.253 162.669 100.771 164.36 99.0882 164.259C97.4054 164.158 96.0549 162.309 95.0578 160.586C90.7901 153.183 88.068 146.007 85.7785 137.443L85.6782 137.209C89.5714 134.868 94.5883 136.78 97.5847 140.567Z" fill="#455A64"/>
<path d="M79.8224 127.439C80.1507 127.249 80.5073 127.14 80.8714 127.116C81.2354 127.092 81.5998 127.155 81.9433 127.302C82.2869 127.448 82.6027 127.674 82.8725 127.968C83.1424 128.261 83.3608 128.616 83.5152 129.011L125.882 237.98C126.311 239.049 126.985 239.949 127.826 240.577C128.666 241.205 129.639 241.534 130.629 241.527C141.407 241.47 175.196 241.287 181.964 241.174C182.55 241.166 183.128 241.333 183.647 241.66C184.709 242.466 185.482 243.717 185.815 245.169C186.142 246.61 186.319 248.094 186.342 249.587C186.501 253.001 186.659 256.56 186.817 260.088C186.852 260.927 186.744 261.764 186.499 262.551C186.255 263.337 185.878 264.055 185.393 264.661C184.908 265.268 184.325 265.749 183.679 266.076C183.033 266.403 182.338 266.569 181.637 266.564H164.687C166.053 266.564 132.829 267.315 118.96 267.624C117.206 267.664 115.481 267.073 114.01 265.928C112.539 264.782 111.389 263.135 110.71 261.199L65.3152 139.519C65.0263 138.741 65 137.859 65.2419 137.058C65.4837 136.257 65.975 135.599 66.613 135.221L79.8224 127.439Z" fill="#455A64"/>
<path d="M79.8178 127.439L78.9579 127.932L76.4416 129.396L66.7507 135.076C66.1824 135.364 65.7056 135.862 65.3897 136.496C65.0591 137.169 64.9342 137.959 65.0363 138.73C65.0961 139.125 65.2027 139.507 65.3528 139.866L65.7643 140.971C66.0439 141.715 66.3234 142.479 66.6136 143.262L70.3908 153.416L79.6384 178.207C86.4964 196.598 94.6627 218.536 103.768 242.973L110.779 261.761C111.432 263.384 112.419 264.783 113.647 265.826C114.875 266.869 116.304 267.523 117.8 267.725C118.553 267.798 119.309 267.81 120.064 267.763L122.327 267.713L126.885 267.612L145.549 267.195L155.097 266.974L159.919 266.861L162.346 266.804L163.559 266.772H164.171H164.698C164.751 266.842 164.73 266.141 164.698 266.438L164.656 266.766H181.632C182.494 266.758 183.342 266.505 184.106 266.028C184.865 265.547 185.515 264.852 185.999 264.003C186.482 263.154 186.785 262.176 186.881 261.155C186.922 260.158 186.904 259.158 186.828 258.164C186.786 257.173 186.739 256.188 186.697 255.204C186.609 253.235 186.519 251.274 186.428 249.322C186.338 247.384 186.201 245.339 185.372 243.597C184.964 242.719 184.359 241.993 183.626 241.502C183.25 241.275 182.843 241.13 182.424 241.073C182.001 241.016 181.606 241.073 181.2 241.073L176.394 241.111L139.603 241.376L130.92 241.439C130.225 241.485 129.53 241.363 128.876 241.08C128.221 240.797 127.621 240.359 127.111 239.792C126.056 238.681 125.671 237.002 125.043 235.525L118.222 217.968L105.978 186.506C98.4873 167.251 92.4259 151.7 88.2584 140.933C87.2033 138.251 86.2801 135.884 85.4677 133.788L84.3494 130.93L83.864 129.667C83.7267 129.288 83.5699 128.919 83.3945 128.563C83.0713 127.982 82.602 127.54 82.0546 127.301C81.6632 127.122 81.2423 127.055 80.8254 127.105C80.572 127.131 80.3232 127.201 80.0869 127.313L79.8547 127.439C80.1619 127.274 80.49 127.172 80.8254 127.136C81.2395 127.094 81.6563 127.166 82.044 127.345C82.5793 127.589 83.0356 128.032 83.347 128.607C83.5199 128.963 83.6732 129.332 83.806 129.711L84.2913 130.974L85.3939 133.845C86.1957 135.915 87.1242 138.307 88.1634 141.002L105.825 186.594C109.56 196.213 113.649 206.753 118.038 218.069C120.232 223.732 122.501 229.578 124.843 235.607C125.133 236.358 125.429 237.116 125.719 237.873C126.013 238.658 126.435 239.366 126.958 239.956C127.49 240.55 128.116 241.01 128.8 241.308C129.483 241.606 130.21 241.736 130.936 241.691L139.619 241.635L176.415 241.389H181.221C181.622 241.389 182.033 241.357 182.413 241.389C182.798 241.445 183.173 241.58 183.521 241.786C184.206 242.249 184.77 242.931 185.151 243.755C185.958 245.415 186.1 247.397 186.206 249.334C186.311 251.272 186.38 253.247 186.47 255.216C186.512 256.201 186.559 257.186 186.602 258.17C186.673 259.148 186.693 260.13 186.66 261.111C186.567 262.079 186.278 263.006 185.818 263.811C185.359 264.616 184.742 265.275 184.022 265.731C183.298 266.186 182.493 266.426 181.674 266.431H164.725V266.76C164.767 267.025 164.762 266.337 164.725 266.438H164.197H163.59L162.377 266.469L159.951 266.526L155.129 266.64L145.58 266.861L126.943 267.29L122.385 267.391L120.122 267.441C119.378 267.489 118.632 267.476 117.89 267.403C116.429 267.215 115.032 266.584 113.832 265.569C112.631 264.554 111.668 263.189 111.032 261.603C108.637 255.2 106.298 248.943 104.016 242.834L79.8178 178.093C76.3836 168.91 73.2816 160.605 70.5543 153.322C69.1932 149.682 67.9272 146.302 66.756 143.18L65.9014 140.895C65.7643 140.523 65.6271 140.15 65.49 139.79C65.3425 139.444 65.2377 139.074 65.1787 138.692C65.0778 137.951 65.1952 137.19 65.511 136.54C65.8155 135.928 66.2758 135.448 66.8246 135.171L76.4891 129.453L78.9949 127.957C79.5488 127.622 79.8178 127.439 79.8178 127.439Z" fill="#263238"/>
<path d="M73.446 131.201C73.446 131.201 73.504 131.371 73.6254 131.706C73.7467 132.04 73.9419 132.545 74.1846 133.189C74.6805 134.489 75.4137 136.401 76.3475 138.869L84.3554 159.696C91.1448 177.285 100.519 201.577 110.869 228.406L115.934 241.508L120.154 254.245L120.186 254.345H120.275L167.527 254.289L181.269 254.238H184.962H185.911H186.233C186.233 254.238 186.122 254.238 185.911 254.238H184.962H181.269L167.527 254.194L120.275 254.137L120.402 254.238C119.036 250.123 117.617 245.863 116.182 241.49L111.117 228.381L84.5295 159.709C81.1164 150.93 78.3521 143.83 76.4424 138.882L74.232 133.233L73.6465 131.769C73.5199 131.365 73.446 131.201 73.446 131.201Z" fill="#263238"/>
<g opacity="0.3">
<path opacity="0.3" d="M121.24 226.027C121.24 226.027 110.32 224.247 108.696 226.525C107.071 228.804 102.645 239.564 102.645 239.564L100.007 233.941L103.246 221.691L111.376 220.618H119.141L121.24 226.027Z" fill="black"/>
</g>
<g opacity="0.3">
<path opacity="0.3" d="M159.352 241.225L164.69 266.57H167.344L162.39 241.225H159.352Z" fill="black"/>
</g>
<path d="M83.1155 128.538C83.0469 128.575 85.5158 135.038 88.6229 142.971C91.7301 150.904 94.315 157.304 94.3836 157.266C94.4522 157.228 91.957 150.766 88.8762 142.864C85.7953 134.962 83.1841 128.5 83.1155 128.538Z" fill="#263238"/>
<path d="M99.7624 226.311C101.039 221.716 104.779 218.586 109.068 218.517C111.373 218.485 114.154 218.428 117.103 218.372C128.561 218.151 142.82 217.873 149.388 218.302C155.718 218.719 159.485 222.089 161.521 224.847C162.849 226.6 163.844 228.675 164.438 230.931V231.032C169.186 256.517 178.735 306.211 179.067 307.751L174.319 307.827C173.95 306.198 161.69 240.019 160.218 232.092C160.033 231.366 157.881 223.711 149.14 223.136C142.741 222.714 128.566 222.991 117.182 223.212C114.233 223.275 111.447 223.326 109.131 223.364C107.985 223.353 106.864 223.77 105.925 224.556C104.985 225.342 104.273 226.458 103.888 227.75L81.7313 307.738H76.9834L99.7624 226.311Z" fill="#455A64"/>
<path d="M99.7638 226.311C99.7638 226.311 99.6161 226.791 99.347 227.744C99.078 228.697 98.677 230.11 98.1495 231.96L93.5863 248.167L76.874 307.701L76.8318 307.865H81.8275V307.776C87.3772 287.77 93.7604 264.727 100.724 239.615L103.362 230.091L104.037 227.687C104.263 226.906 104.622 226.19 105.092 225.585C106.075 224.368 107.408 223.643 108.822 223.559L126.367 223.231C132.313 223.143 138.348 223.048 144.457 223.155C145.986 223.187 147.516 223.225 149.051 223.326C150.578 223.425 152.085 223.789 153.525 224.405C154.982 225.02 156.313 225.997 157.431 227.274C158.549 228.55 159.427 230.095 160.008 231.808C160.046 231.917 160.077 232.029 160.103 232.143V232.143C165.052 258.719 169.815 284.292 174.21 307.877V307.997H174.315L179.063 307.921H179.221L179.184 307.732L166.819 242.985C166.355 240.553 165.896 238.157 165.442 235.797C165.213 234.614 164.99 233.443 164.772 232.281C164.651 231.701 164.577 231.12 164.413 230.546C164.253 229.983 164.065 229.433 163.849 228.899C163.002 226.804 161.827 224.923 160.388 223.357C158.993 221.852 157.385 220.655 155.64 219.823C153.97 219.027 152.213 218.519 150.423 218.315C148.666 218.125 146.952 218.1 145.274 218.05C141.914 217.98 138.706 217.993 135.657 218.012C129.559 218.062 124.088 218.176 119.304 218.277L112.673 218.409L109.761 218.466C108.876 218.449 107.993 218.535 107.123 218.725C106.352 218.9 105.601 219.184 104.886 219.571C104.258 219.907 103.661 220.319 103.103 220.801C101.924 221.821 100.957 223.151 100.275 224.689C100.138 225.042 100.012 225.32 99.9326 225.579C99.7796 226.077 99.7057 226.33 99.7057 226.33L99.9537 225.591C100.033 225.345 100.165 225.061 100.302 224.708C100.484 224.312 100.685 223.928 100.903 223.559C101.516 222.516 102.272 221.605 103.14 220.864C103.696 220.389 104.292 219.983 104.918 219.653C105.628 219.272 106.374 218.995 107.139 218.826C107.999 218.642 108.871 218.559 109.745 218.58L112.657 218.536L119.288 218.422C124.062 218.34 129.533 218.239 135.641 218.201C138.691 218.201 141.898 218.201 145.253 218.264C146.931 218.308 148.651 218.346 150.386 218.529C152.158 218.739 153.896 219.245 155.551 220.031C157.267 220.86 158.848 222.046 160.219 223.534C161.639 225.078 162.798 226.933 163.633 229C163.834 229.528 164.01 230.069 164.16 230.622C164.308 231.164 164.392 231.764 164.508 232.338C164.73 233.499 164.953 234.671 165.178 235.854C165.625 238.214 166.08 240.612 166.545 243.048C170.237 262.531 174.405 284.324 178.878 307.808L179 307.612L174.252 307.688L174.378 307.801C169.995 284.223 165.236 258.65 160.293 232.067C160.262 231.953 160.23 231.833 160.193 231.72C159.617 229.969 158.739 228.383 157.616 227.065C156.494 225.747 155.152 224.727 153.678 224.071C152.208 223.446 150.672 223.076 149.115 222.972C147.58 222.871 146.044 222.834 144.515 222.802C138.4 222.701 132.381 222.802 126.415 222.884L108.858 223.218C107.378 223.305 105.981 224.066 104.955 225.345C104.449 225.977 104.061 226.73 103.815 227.554C103.588 228.362 103.362 229.164 103.14 229.965C102.254 233.171 101.375 236.346 100.502 239.489L81.6482 307.701L81.7484 307.612H77.0006L77.0956 307.77C84.1065 282.658 89.7881 262.291 93.7235 248.205C95.6806 241.161 97.2 235.689 98.2339 231.978L99.3998 227.75C99.6372 226.803 99.7638 226.311 99.7638 226.311Z" fill="#263238"/>
</g>
<defs>
<clipPath id="clip0_49_17">
<rect width="375" height="812" fill="white"/>
</clipPath>
</defs>
</svg>
