<svg width="37" height="32" viewBox="0 0 37 32" fill="none" xmlns="http://www.w3.org/2000/svg">
<g clip-path="url(#clip0_125_2632)">
<path d="M30.4499 -0.000152588H6.38265C4.13209 -0.000152588 2.30103 1.62607 2.30103 3.62485V26.7496C2.30103 27.7835 3.24803 28.6246 4.41221 28.6246H13.6544C14.0431 28.6246 14.3581 28.3448 14.3581 27.9996C14.3581 27.6544 14.0431 27.3746 13.6544 27.3746H4.41221C4.02406 27.3746 3.70848 27.0943 3.70848 26.7496V3.62485C3.70848 2.31528 4.90812 1.24985 6.38265 1.24985H27.3702C26.747 1.88657 26.3682 2.71689 26.3682 3.62485V23.7664C26.3682 24.3431 25.8402 24.8121 25.1909 24.8121C24.6834 24.8121 24.2345 24.5247 24.0737 24.0973L23.0132 21.2711C22.7138 20.4732 21.8762 19.9373 20.9295 19.9373C19.7183 19.9373 18.7331 20.8123 18.7331 21.8878V22.3746H15.0855C14.6968 22.3746 14.3818 22.6546 14.3818 22.9996C14.3818 23.3448 14.6968 23.6246 15.0855 23.6246H18.7331V26.734C18.7331 27.6568 18.9357 28.5567 19.3354 29.4083L20.3706 31.6151C20.4833 31.8551 20.7447 31.9998 21.0205 31.9998C21.1106 31.9998 21.2024 31.9845 21.2907 31.9518C21.6497 31.8189 21.8193 31.453 21.6698 31.1344L20.6345 28.9276C20.3068 28.2291 20.1405 27.4911 20.1405 26.7342V21.888C20.1405 21.5016 20.4943 21.1873 20.9295 21.1873C21.2695 21.1873 21.5705 21.3797 21.678 21.6664L22.7385 24.4925C23.091 25.4312 24.0764 26.0621 25.1909 26.0621C26.6162 26.0621 27.7757 25.0323 27.7757 23.7664V13.0509L28.7161 13.8844C30.3941 15.3717 31.318 17.3504 31.318 19.4557V26.0995C31.318 27.8204 30.879 29.5518 30.0488 31.1068C29.8822 31.4185 30.032 31.7914 30.3831 31.9393C30.7341 32.0872 31.1539 31.9544 31.3204 31.6424C32.2394 29.9212 32.7254 28.0045 32.7254 26.0995V19.4557C32.7254 17.016 31.6547 14.7232 29.7104 12.9996L27.7757 11.2845V10.6873H32.4203C33.5845 10.6873 34.5315 9.84628 34.5315 8.81235V3.62485C34.5315 1.62607 32.7007 -0.000152588 30.4499 -0.000152588V-0.000152588ZM33.124 8.81235C33.124 9.15683 32.8084 9.43735 32.4203 9.43735H27.7757V3.62485C27.7757 2.31528 28.9753 1.24985 30.4499 1.24985C31.9244 1.24985 33.124 2.31528 33.124 3.62485V8.81235Z" fill="white"/>
<path d="M16.7274 27.3747C16.5421 27.3747 16.3607 27.4416 16.2299 27.5578C16.099 27.6742 16.0237 27.8354 16.0237 27.9997C16.0237 28.1642 16.099 28.3253 16.2299 28.4416C16.3607 28.5578 16.5421 28.6247 16.7274 28.6247C16.9124 28.6247 17.0938 28.5578 17.225 28.4416C17.3558 28.3253 17.4311 28.1642 17.4311 27.9997C17.4311 27.8354 17.3558 27.6742 17.225 27.5578C17.0938 27.4416 16.9124 27.3747 16.7274 27.3747Z" fill="white"/>
<path d="M11.9892 4.62485C11.9892 3.93564 11.3578 3.37485 10.5817 3.37485H7.48534C6.70904 3.37485 6.07788 3.93564 6.07788 4.62485V7.37485C6.07788 8.06406 6.70904 8.62485 7.48534 8.62485H10.5817C11.3578 8.62485 11.9892 8.06406 11.9892 7.37485V4.62485ZM10.5817 7.37485H7.48534V4.62485H10.5817L10.5826 7.37485C10.5826 7.37485 10.5823 7.37485 10.5817 7.37485Z" fill="white"/>
<path d="M11.9892 12.1248C11.9892 11.4356 11.3578 10.8748 10.5817 10.8748H7.48534C6.70904 10.8748 6.07788 11.4356 6.07788 12.1248V14.8748C6.07788 15.5641 6.70904 16.1248 7.48534 16.1248H10.5817C11.3578 16.1248 11.9892 15.5641 11.9892 14.8748V12.1248ZM10.5817 14.8748H7.48534V12.1248H10.5817L10.5826 14.8748C10.5826 14.8748 10.5823 14.8748 10.5817 14.8748Z" fill="white"/>
<path d="M10.5817 18.3748H7.48534C6.70904 18.3748 6.07788 18.9354 6.07788 19.6248V22.3746C6.07788 23.0641 6.70904 23.6246 7.48534 23.6246H10.5817C11.3578 23.6246 11.9892 23.0641 11.9892 22.3746V19.6248C11.9892 18.9354 11.3578 18.3748 10.5817 18.3748ZM10.5817 22.3746H7.48534V19.6248H10.5817L10.5826 22.3746C10.5826 22.3746 10.5823 22.3746 10.5817 22.3746Z" fill="white"/>
<path d="M23.1548 8.62485C23.5435 8.62485 23.8585 8.34506 23.8585 7.99985C23.8585 7.65463 23.5435 7.37485 23.1548 7.37485H18.3035C17.9148 7.37485 17.5997 7.65463 17.5997 7.99985C17.5997 8.34506 17.9148 8.62485 18.3035 8.62485H23.1548Z" fill="white"/>
<path d="M15.0857 8.62485C15.271 8.62485 15.4524 8.55795 15.5832 8.44174C15.7141 8.32553 15.7894 8.16415 15.7894 7.99985C15.7894 7.83554 15.7141 7.67416 15.5832 7.55795C15.4524 7.44174 15.271 7.37485 15.0857 7.37485C14.8999 7.37485 14.719 7.44174 14.5881 7.55795C14.4567 7.67416 14.382 7.83554 14.382 7.99985C14.382 8.16415 14.4567 8.32553 14.5881 8.44174C14.719 8.55795 14.8999 8.62485 15.0857 8.62485Z" fill="white"/>
<path d="M15.0854 16.1248H23.1549C23.5436 16.1248 23.8587 15.8451 23.8587 15.4998C23.8587 15.1546 23.5436 14.8748 23.1549 14.8748H15.0854C14.697 14.8748 14.3817 15.1546 14.3817 15.4998C14.3817 15.8451 14.697 16.1248 15.0854 16.1248Z" fill="white"/>
</g>
<defs>
<clipPath id="clip0_125_2632">
<rect width="36.0308" height="32" fill="white" transform="translate(0.401001)"/>
</clipPath>
</defs>
</svg>
