<svg width="34" height="34" viewBox="0 0 34 34" fill="none" xmlns="http://www.w3.org/2000/svg">
<path d="M25 15.5C25 15.7762 24.3285 16 23.5 16C22.6719 16 22 15.7762 22 15.5C22 15.224 22.6719 15 23.5 15C24.3285 15 25 15.224 25 15.5Z" fill="#C62C2C"/>
<path d="M22.999 5C21.3432 5 20 6.55955 20 8.49045V8.49169C20 9.01582 20.3652 9.44057 20.8157 9.44057C21.2663 9.44057 21.6314 9.01483 21.6314 8.49045C21.6314 7.61277 22.2413 6.89876 23.0001 6.89876C23.7546 6.89876 24.3686 7.61326 24.3686 8.49169C24.3686 9.36986 23.7546 10.0844 23.0001 10.0844C22.5495 10.0844 22.1844 10.5096 22.1844 11.0337V12.0506C22.1844 12.575 22.5495 13 23.0001 13C23.4505 13 23.8158 12.575 23.8158 12.0506V11.8521C25.0749 11.4375 26 10.0878 26 8.49169C26 6.56623 24.6543 5 22.999 5Z" fill="#C62C2C"/>
<path d="M9.81385 25.4193C11.0848 24.4551 11.9046 22.9519 11.9046 21.2649C11.9046 18.3618 9.47987 16 6.49987 16C3.51986 16 1.09543 18.3618 1.09543 21.2649C1.09543 22.9519 1.9152 24.4551 3.18588 25.4193C1.39239 26.4587 0 28.4217 0 30.8694V33.0037C0 33.554 0.457827 34 1.02272 34H11.9773C12.5419 34 13 33.554 13 33.0037V30.8694C13 28.4222 11.6079 26.4589 9.81385 25.4193ZM3.14087 21.2649C3.14087 19.4606 4.64778 17.9926 6.50013 17.9926C8.35222 17.9926 9.85913 19.4606 9.85913 21.2649C9.85913 23.0694 8.35222 24.5374 6.50013 24.5374C4.64778 24.5374 3.14087 23.0694 3.14087 21.2649ZM10.9546 32.0074H2.04544V30.8694C2.04544 28.4726 4.03602 26.53 6.49987 26.53C8.96025 26.53 10.9543 28.4692 10.9543 30.8694V32.0074H10.9546Z" fill="#C62C2C"/>
<path d="M29.8421 0H17.1579C14.8614 0 13 1.92164 13 4.30017V23.9777C13 24.8126 13.9257 25.3008 14.579 24.7942L18.5438 21.7188H29.8421C32.1386 21.7188 34 19.7972 34 17.4186V4.30017C34 1.9251 32.142 0 29.8421 0V0ZM32.0263 17.4186C32.0263 18.6673 31.05 19.6776 29.8421 19.6776H18.2149C18.0013 19.6776 17.7936 19.7493 17.6227 19.8817L14.9737 21.9365V4.30017C14.9737 3.0515 15.95 2.04125 17.1579 2.04125H29.8421C31.0495 2.04125 32.0263 3.05097 32.0263 4.30017V17.4186Z" fill="#C62C2C"/>
</svg>
