<svg width="389" height="453" viewBox="0 0 389 453" fill="none" xmlns="http://www.w3.org/2000/svg">
<path d="M199.133 90.8238C199.133 90.8238 84.2812 176.375 87.0492 266.679C89.8172 356.984 206.6 395.025 270.944 333.239C335.289 271.453 266.887 185.764 257.943 173.66C244.067 154.882 203.976 105.082 199.133 90.8238Z" fill="#EF3448"/>
<g filter="url(#filter0_f_12_865)">
<path d="M202.449 90C202.449 90 87.5969 175.551 90.3649 265.856C93.1329 356.16 209.916 394.202 274.26 332.415C338.605 270.629 270.202 184.941 261.258 172.836C247.382 154.058 207.292 104.258 202.449 90Z" fill="#EF3448"/>
</g>
<path d="M162.9 273.797C162.9 268.134 158.221 263.543 152.451 263.543C146.679 263.543 142 268.134 142 273.797C142 279.461 146.679 284.053 152.451 284.053C158.221 284.053 162.9 279.461 162.9 273.797Z" fill="#0C1110"/>
<path d="M159.023 270.276C159.023 268.267 157.361 266.636 155.313 266.636C153.264 266.636 151.603 268.267 151.603 270.276C151.603 272.287 153.264 273.918 155.313 273.918C157.361 273.918 159.023 272.287 159.023 270.276Z" fill="white"/>
<path d="M231 270.853C231 265.19 235.679 260.599 241.449 260.599C247.22 260.599 251.899 265.19 251.899 270.853C251.899 276.516 247.22 281.109 241.449 281.109C235.679 281.109 231 276.516 231 270.853Z" fill="#0C1110"/>
<path d="M239.64 267.332C239.64 265.322 241.301 263.692 243.351 263.692C245.4 263.692 247.06 265.322 247.06 267.332C247.06 269.343 245.4 270.974 243.351 270.974C241.301 270.974 239.64 269.343 239.64 267.332Z" fill="white"/>
<path d="M167 305.741C167.368 316.666 176.484 325.414 187.704 325.414C198.924 325.414 208.04 316.666 208.409 305.741H167Z" fill="#0C1110"/>
<path d="M183.603 316.361C180.428 316.361 177.784 318.881 176.992 322.29C180.183 324.262 183.951 325.414 188.001 325.414C191.747 325.414 195.247 324.424 198.276 322.717C197.62 319.088 194.861 316.361 191.552 316.361C190.067 316.361 188.701 316.921 187.577 317.855C186.453 316.921 185.088 316.361 183.603 316.361Z" fill="white"/>
<defs>
<filter id="filter0_f_12_865" x="0.315674" y="0" width="391.243" height="452.69" filterUnits="userSpaceOnUse" color-interpolation-filters="sRGB">
<feFlood flood-opacity="0" result="BackgroundImageFix"/>
<feBlend mode="normal" in="SourceGraphic" in2="BackgroundImageFix" result="shape"/>
<feGaussianBlur stdDeviation="45" result="effect1_foregroundBlur_12_865"/>
</filter>
</defs>
</svg>
